<svg width="18" height="21" viewBox="0 0 18 21" fill="none" xmlns="http://www.w3.org/2000/svg">
<path d="M17.694 18.5474L10.9007 1.63336C10.784 1.26177 10.5572 0.93681 10.252 0.703799C9.9468 0.470788 9.57838 0.341334 9.19811 0.333496H8.59717C8.21662 0.341485 7.84799 0.471256 7.54276 0.704677C7.23752 0.938098 7.01096 1.26352 6.89462 1.63552L3.94041 9.00357H1.70354C1.38089 9.00544 1.07197 9.13788 0.843814 9.37201C0.61566 9.60622 0.48667 9.92334 0.484829 10.2545V10.2718C0.48667 10.6029 0.61566 10.92 0.843814 11.1542C1.07197 11.3884 1.38089 11.5208 1.70354 11.5227H2.90542L0.084436 18.5474C0.0310727 18.7017 0.00287887 18.8638 0.000991517 19.0275C-0.0122516 19.3743 0.107595 19.7125 0.334769 19.9696C0.451287 20.0921 0.591968 20.1876 0.747376 20.2496C0.902779 20.3117 1.06932 20.3389 1.23583 20.3295C1.48812 20.3261 1.73315 20.2424 1.93704 20.0898C2.15076 19.9268 2.31787 19.7078 2.42088 19.4557L5.52586 11.5227H7.67928C8.00191 11.5208 8.31087 11.3884 8.53904 11.1542C8.76715 10.92 8.89617 10.6029 8.89799 10.2718V10.2372C8.89617 9.90606 8.76715 9.58894 8.53904 9.35474C8.31087 9.1206 8.00191 8.98817 7.67928 8.9863H6.52719L8.89729 2.90371L15.3569 19.4579C15.4599 19.71 15.627 19.929 15.8407 20.092C16.0446 20.2446 16.2896 20.3283 16.5419 20.3317C16.7085 20.3411 16.875 20.3138 17.0304 20.2518C17.1858 20.1897 17.3264 20.0942 17.443 19.9718C17.6702 19.7147 17.79 19.3764 17.7768 19.0297C17.7836 18.8646 17.7554 18.7001 17.694 18.5474Z" fill="#03314B"/>
</svg>
