<svg width="20" height="24" viewBox="0 0 20 24" fill="none" xmlns="http://www.w3.org/2000/svg">
<path fill-rule="evenodd" clip-rule="evenodd" d="M1.63018 18.7047C1.03252 18.3391 0.666992 17.6882 0.666992 16.9891V13.0856C0.666992 12.9362 0.707014 12.7922 0.781721 12.6641C1.01385 12.2638 1.52879 12.1278 1.92901 12.3626L10.7392 17.4987C11.2541 17.8002 11.5716 18.3499 11.5716 18.9475V22.9924C11.5716 23.1764 11.5209 23.3605 11.4249 23.518C11.134 23.9929 10.515 24.1423 10.0401 23.8515L1.63018 18.7047ZM14.7626 11.2926C15.2776 11.5941 15.5951 12.1438 15.5951 12.7414V20.9485C15.5951 21.1914 15.4643 21.4155 15.2536 21.5329L13.3245 22.6188C13.3005 22.6322 13.2738 22.6428 13.2472 22.6509V18.0937C13.2472 17.504 12.9377 16.9571 12.4307 16.6529L4.69318 12.0237V6.8796C4.69318 6.73018 4.73321 6.58611 4.80791 6.45804C5.04003 6.05781 5.55498 5.92174 5.9552 6.15653L14.7626 11.2926ZM18.6181 5.2307C19.1357 5.52953 19.4532 6.0845 19.4532 6.68216V18.67C19.4532 18.9155 19.3171 19.1422 19.101 19.2596L17.2733 20.2468V11.901C17.2733 11.3114 16.9639 10.767 16.4596 10.4628L8.55128 5.71897V0.838981C8.55128 0.689567 8.5913 0.545489 8.66334 0.417419C8.89546 0.0172015 9.41041 -0.118872 9.81064 0.113254L18.6181 5.2307Z" fill="#03314B"/>
</svg>
