<svg width="24" height="24" viewBox="0 0 24 24" fill="none" xmlns="http://www.w3.org/2000/svg">
<path d="M22 10.163C21.674 10.3463 21.4027 10.613 21.2139 10.9359C21.0252 11.2587 20.9258 11.626 20.926 12C20.926 12.789 21.359 13.476 22 13.837L21.283 16.243C20.8954 16.1763 20.497 16.2196 20.1327 16.3678C19.7685 16.516 19.453 16.7633 19.2222 17.0816C18.9913 17.3999 18.8542 17.7766 18.8264 18.1688C18.7986 18.5611 18.8813 18.9533 19.065 19.301L17.003 20.903C16.73 20.6792 16.4051 20.5277 16.0582 20.4624C15.7113 20.3971 15.3535 20.4202 15.0179 20.5295C14.6822 20.6387 14.3794 20.8307 14.1374 21.0877C13.8954 21.3447 13.7219 21.6584 13.633 22L10.343 21.992C10.2531 21.652 10.0794 21.34 9.83778 21.0845C9.59618 20.829 9.29439 20.6381 8.95999 20.5292C8.62559 20.4204 8.26924 20.3972 7.92353 20.4616C7.57782 20.526 7.25377 20.676 6.981 20.898L4.921 19.283C5.09957 18.9367 5.17855 18.5477 5.14914 18.1592C5.11973 17.7708 4.98309 17.3981 4.75442 17.0826C4.52576 16.7672 4.21404 16.5214 3.85398 16.3727C3.49391 16.2239 3.09962 16.178 2.715 16.24L2 13.825C2.31995 13.6398 2.58551 13.3737 2.77 13.0533C2.95449 12.733 3.0514 12.3697 3.051 12C3.051 11.22 2.63 10.54 2 10.175L2.715 7.76C3.0997 7.82225 3.49412 7.77648 3.85435 7.6278C4.21457 7.47912 4.52645 7.23336 4.75525 6.9179C4.98405 6.60243 5.12078 6.22964 5.15022 5.84106C5.17966 5.45247 5.10066 5.06334 4.922 4.717L6.98 3.102C7.25277 3.32395 7.57682 3.47399 7.92253 3.53841C8.26824 3.60283 8.62459 3.57957 8.95899 3.47075C9.29339 3.36194 9.59518 3.17104 9.83678 2.91551C10.0784 2.65998 10.2521 2.34797 10.342 2.008L13.634 2C13.7229 2.34161 13.8964 2.65535 14.1384 2.91233C14.3804 3.16931 14.6832 3.36127 15.0189 3.47053C15.3545 3.5798 15.7123 3.60285 16.0592 3.53758C16.4061 3.4723 16.731 3.32079 17.004 3.097L19.064 4.7C18.8803 5.04769 18.7976 5.43989 18.8254 5.83215C18.8532 6.22442 18.9903 6.60106 19.2212 6.91938C19.452 7.23771 19.7675 7.485 20.1317 7.63322C20.496 7.78144 20.8944 7.82467 21.282 7.758L22 10.162V10.163ZM12 16C13.0609 16 14.0783 15.5786 14.8284 14.8284C15.5786 14.0783 16 13.0609 16 12C16 10.9391 15.5786 9.92172 14.8284 9.17157C14.0783 8.42143 13.0609 8 12 8C10.9391 8 9.92172 8.42143 9.17157 9.17157C8.42143 9.92172 8 10.9391 8 12C8 13.0609 8.42143 14.0783 9.17157 14.8284C9.92172 15.5786 10.9391 16 12 16Z" fill="#0052FE"/>
</svg>
