<svg width="25" height="24" viewBox="0 0 25 24" fill="none" xmlns="http://www.w3.org/2000/svg">
<path d="M11.05 2.53301C11.4558 2.19104 11.9693 2.00348 12.5 2.00348C13.0307 2.00348 13.5442 2.19104 13.95 2.53301L20.7 8.22801C21.208 8.65501 21.5 9.28401 21.5 9.94801V19.75C21.5 20.2141 21.3156 20.6593 20.9874 20.9874C20.6592 21.3156 20.2141 21.5 19.75 21.5H16.75C16.2859 21.5 15.8408 21.3156 15.5126 20.9874C15.1844 20.6593 15 20.2141 15 19.75V14.75C15 14.5511 14.921 14.3603 14.7803 14.2197C14.6397 14.079 14.4489 14 14.25 14H10.75C10.5511 14 10.3603 14.079 10.2197 14.2197C10.079 14.3603 10 14.5511 10 14.75V19.75C10 20.2141 9.81563 20.6593 9.48744 20.9874C9.15925 21.3156 8.71413 21.5 8.25 21.5H5.25C5.02019 21.5 4.79262 21.4547 4.5803 21.3668C4.36798 21.2789 4.17507 21.15 4.01256 20.9874C3.85006 20.8249 3.72116 20.632 3.63321 20.4197C3.54527 20.2074 3.5 19.9798 3.5 19.75V9.94701C3.5 9.28401 3.792 8.65501 4.3 8.22701L11.05 2.53301Z" fill="#0052FE"/>
</svg>
