<svg width="20" height="21" viewBox="0 0 20 21" fill="none" xmlns="http://www.w3.org/2000/svg">
<mask id="mask0_1_1129" style="mask-type:alpha" maskUnits="userSpaceOnUse" x="0" y="0" width="20" height="21">
<rect y="0.5" width="20" height="20" fill="#D9D9D9"/>
</mask>
<g mask="url(#mask0_1_1129)">
<path d="M9.25 14.5H10.75V11.25H14V9.75H10.75V6.5H9.25V9.75H6V11.25H9.25V14.5ZM10 18.5C8.90267 18.5 7.868 18.2917 6.896 17.875C5.924 17.4583 5.07333 16.8853 4.344 16.156C3.61467 15.4267 3.04167 14.576 2.625 13.604C2.20833 12.632 2 11.5973 2 10.5C2 9.38867 2.20833 8.35033 2.625 7.385C3.04167 6.42033 3.61467 5.57333 4.344 4.844C5.07333 4.11467 5.924 3.54167 6.896 3.125C7.868 2.70833 8.90267 2.5 10 2.5C11.1113 2.5 12.1497 2.70833 13.115 3.125C14.0797 3.54167 14.9267 4.11467 15.656 4.844C16.3853 5.57333 16.9583 6.42033 17.375 7.385C17.7917 8.35033 18 9.38867 18 10.5C18 11.5973 17.7917 12.632 17.375 13.604C16.9583 14.576 16.3853 15.4267 15.656 16.156C14.9267 16.8853 14.0797 17.4583 13.115 17.875C12.1497 18.2917 11.1113 18.5 10 18.5ZM10 17C11.8053 17 13.34 16.368 14.604 15.104C15.868 13.84 16.5 12.3053 16.5 10.5C16.5 8.69467 15.868 7.16 14.604 5.896C13.34 4.632 11.8053 4 10 4C8.19467 4 6.66 4.632 5.396 5.896C4.132 7.16 3.5 8.69467 3.5 10.5C3.5 12.3053 4.132 13.84 5.396 15.104C6.66 16.368 8.19467 17 10 17Z" fill="white"/>
</g>
</svg>
