<svg width="17" height="17" viewBox="0 0 17 17" fill="none" xmlns="http://www.w3.org/2000/svg">
<path d="M16.7474 8.75341C16.7499 10.3452 16.2831 11.902 15.4058 13.2267C14.5286 14.5515 13.2804 15.5847 11.8192 16.1956C10.3581 16.8066 8.7496 16.9678 7.19734 16.6588C5.64508 16.3498 4.21881 15.5846 3.09902 14.46C1.97922 13.3353 1.21623 11.9018 0.906581 10.3408C0.596936 8.77981 0.754559 7.16148 1.3595 5.69062C1.96445 4.21977 2.98953 2.96248 4.30503 2.07787C5.62052 1.19325 7.16731 0.721071 8.74966 0.721069C10.8685 0.721067 12.9008 1.56691 14.4003 3.0729C15.8998 4.57888 16.7439 6.62191 16.7474 8.75341Z" fill="#FFCC00"/>
<path d="M14.862 3.57571C13.6578 2.13691 11.9904 1.16813 10.1498 0.837802C8.30916 0.507475 6.41165 0.83649 4.78716 1.76765C3.16267 2.6988 1.91394 4.17321 1.25808 5.93453C0.602209 7.69585 0.580684 9.63269 1.19724 11.4083C5.70756 8.7193 10.2625 6.10843 14.862 3.57571Z" fill="#FCDC59"/>
<path d="M9.66797 16.7444C11.4546 16.5372 13.1188 15.7276 14.3898 14.4476C13.1424 15.0511 11.8972 15.6633 10.6499 16.269L9.66797 16.7444Z" fill="#FCDC59"/>
<path d="M14.6955 8.62735C14.6946 9.83668 14.3374 11.0186 13.6688 12.0237C13.0003 13.0288 12.0506 13.812 10.9397 14.2742C9.82878 14.7364 8.60659 14.8569 7.42763 14.6204C6.24866 14.3839 5.16585 13.8012 4.31609 12.9457C3.46633 12.0903 2.88776 11.0006 2.65355 9.81447C2.41933 8.62831 2.53997 7.39892 3.00022 6.28173C3.46046 5.16453 4.23965 4.20969 5.23928 3.5379C6.23891 2.86612 7.41409 2.50757 8.61627 2.50757C9.41496 2.50757 10.2058 2.66589 10.9437 2.97349C11.6815 3.28109 12.3519 3.73194 12.9164 4.30027C13.481 4.8686 13.9287 5.54328 14.234 6.28574C14.5392 7.0282 14.696 7.82389 14.6955 8.62735Z" fill="#DA8100"/>
<path d="M14.8698 8.88145C14.8703 10.0753 14.5187 11.2424 13.8597 12.2352C13.2006 13.228 12.2636 14.0019 11.1673 14.4589C10.071 14.916 8.86454 15.0357 7.70057 14.8029C6.53661 14.5701 5.46743 13.9952 4.62827 13.1511C3.78911 12.3069 3.21769 11.2314 2.98627 10.0605C2.75485 8.88958 2.87384 7.67594 3.32818 6.57308C3.78253 5.47022 4.55182 4.52769 5.53874 3.86471C6.52566 3.20172 7.68587 2.84808 8.87262 2.84851C10.4632 2.84851 11.9886 3.48412 13.1133 4.61552C14.238 5.74691 14.8698 7.28142 14.8698 8.88145Z" fill="#F0AA00"/>
<path d="M8.89347 12.186C8.36092 12.1882 7.83163 12.1024 7.32673 11.932C6.89266 11.8011 6.49108 11.5791 6.14844 11.2808L6.52825 10.4775C6.83789 10.7381 7.19172 10.9404 7.57275 11.0745C7.99529 11.2326 8.44268 11.3127 8.89347 11.3112C9.23722 11.3221 9.5803 11.2737 9.90775 11.1679C10.1333 11.0941 10.3327 10.9561 10.4818 10.7706C10.6033 10.6048 10.6677 10.4035 10.6652 10.1975C10.6697 10.0866 10.6507 9.97597 10.6094 9.87303C10.5681 9.77009 10.5055 9.67719 10.4257 9.6005C10.244 9.4367 10.0311 9.31187 9.79985 9.23362C9.52361 9.13644 9.24184 9.05597 8.95605 8.99265C8.64745 8.92318 8.33886 8.84285 8.0281 8.7495C7.73246 8.66378 7.44726 8.54509 7.17782 8.39565C6.92654 8.25551 6.71374 8.05486 6.55847 7.81167C6.3905 7.52737 6.30874 7.1999 6.32324 6.8695C6.31921 6.50664 6.41883 6.15024 6.61026 5.84266C6.8303 5.50737 7.14422 5.24523 7.51232 5.08936C8.00345 4.88452 8.53262 4.78828 9.06396 4.80714C9.48228 4.807 9.8988 4.86248 10.3027 4.97213C10.6824 5.0673 11.043 5.22738 11.3688 5.44539L11.0299 6.27033C10.7342 6.06856 10.4076 5.91677 10.0631 5.82096C9.73964 5.73142 9.40593 5.68472 9.07043 5.68202C8.73223 5.67182 8.39504 5.72406 8.07557 5.83615C7.8503 5.91475 7.65295 6.05818 7.50801 6.24862C7.38893 6.41713 7.32621 6.61936 7.32889 6.82608C7.32352 6.93871 7.34212 7.0512 7.38342 7.15603C7.42473 7.26085 7.48781 7.3556 7.56843 7.43394C7.7495 7.59704 7.96276 7.71984 8.19426 7.79431C8.47181 7.89023 8.75419 7.97139 9.04022 8.03745C9.34666 8.10981 9.65526 8.19014 9.96602 8.27842C10.262 8.3621 10.5474 8.48012 10.8163 8.6301C11.0671 8.76805 11.2799 8.96647 11.4356 9.20756C11.6041 9.48617 11.6867 9.80874 11.673 10.1345C11.6742 10.4945 11.5707 10.8469 11.3752 11.1484C11.1503 11.4852 10.8311 11.7473 10.4581 11.9017C9.96246 12.1069 9.42914 12.2039 8.89347 12.186ZM8.63666 13.3388V3.65222H9.28408V13.3388H8.63666Z" fill="#EA9C00"/>
<path d="M8.68079 12.0967C8.14752 12.099 7.6175 12.0132 7.11189 11.8427C6.67781 11.7117 6.27624 11.4898 5.93359 11.1914L6.31341 10.3882C6.62419 10.6444 6.97788 10.8429 7.3579 10.9743C7.78119 11.1324 8.22929 11.2125 8.68079 11.211C9.02452 11.2216 9.36754 11.1732 9.69507 11.0677C9.92048 10.997 10.1207 10.862 10.2713 10.6791C10.3934 10.5134 10.4586 10.3122 10.4569 10.106C10.4615 9.99484 10.4423 9.884 10.4006 9.78099C10.3589 9.67798 10.2957 9.58521 10.2152 9.50897C10.0343 9.34518 9.82206 9.22033 9.59148 9.14209C9.31442 9.04522 9.03194 8.96476 8.74553 8.90112C8.43908 8.83165 8.12833 8.75133 7.81973 8.65798C7.51955 8.57342 7.22994 8.4547 6.95651 8.30412C6.70781 8.16186 6.49742 7.96065 6.34362 7.71798C6.1767 7.43324 6.09502 7.10609 6.10839 6.7758C6.10854 6.41767 6.20955 6.06691 6.39973 5.76416C6.62083 5.42983 6.93443 5.16795 7.30179 5.01086C7.79293 4.80602 8.32209 4.70978 8.85343 4.72864C9.27246 4.72856 9.68968 4.78403 10.0943 4.89363C10.4733 4.98879 10.8332 5.14888 11.1582 5.36689L10.8216 6.19183C10.5214 5.98557 10.1897 5.8301 9.83966 5.7316C9.51541 5.64217 9.181 5.59547 8.8448 5.59266C8.5073 5.58243 8.17082 5.63467 7.8521 5.74679C7.62651 5.82593 7.4286 5.96921 7.28237 6.15927C7.16423 6.32824 7.1016 6.53016 7.10325 6.73673C7.0983 6.8495 7.1173 6.96205 7.15898 7.06686C7.20066 7.17167 7.26406 7.26635 7.34496 7.34458C7.52512 7.50779 7.73771 7.63063 7.96863 7.70495C8.24627 7.80058 8.52863 7.88174 8.81458 7.94809C9.12103 8.01973 9.43179 8.10005 9.74254 8.18906C10.0384 8.27313 10.3237 8.39113 10.5928 8.54075C10.8428 8.67978 11.0554 8.87798 11.2122 9.11821C11.3799 9.39705 11.4617 9.7196 11.4474 10.0452C11.4485 10.4051 11.345 10.7575 11.1496 11.059C10.9255 11.3957 10.607 11.6579 10.2346 11.8123C9.74227 12.0159 9.21283 12.1128 8.68079 12.0967ZM8.42398 13.2494V3.56287H9.07139V13.2494H8.42398Z" fill="#FFCC00"/>
</svg>
