<svg width="284" height="189" viewBox="0 0 284 189" fill="none" xmlns="http://www.w3.org/2000/svg">
<g clip-path="url(#clip0_866_10951)">
<path d="M210.748 83.7644C210.748 85.2037 210.592 86.6598 210.264 88.1213L191.305 172.814C188.907 183.535 178.256 190.281 167.528 187.886H167.522C156.794 185.485 150.038 174.854 152.437 164.134L171.395 79.4408C171.523 78.8573 171.679 78.2905 171.857 77.7292C172.547 75.5729 173.577 73.6057 174.879 71.8718C179.431 65.7977 187.277 62.6133 195.173 64.375C200.086 65.4698 204.165 68.2929 206.914 72.0607C208.912 74.7894 210.203 78.0182 210.609 81.447C210.704 82.2084 210.748 82.9864 210.748 83.7644Z" fill="black"/>
<path d="M236.511 82.1315C234.791 84.2433 233.005 86.3106 231.035 88.1334C224.976 86.3272 218.237 84.0543 210.608 81.4479C209.228 80.9811 207.82 80.4976 206.384 80.0086C189.14 74.1123 177.782 75.7017 171.856 77.7301C172.546 75.5739 173.575 73.6066 174.878 71.8727C183.135 67.877 195.155 69.0107 206.913 72.0617C217.129 74.7125 227.613 78.7804 236.511 82.1315Z" fill="url(#paint0_linear_866_10951)"/>
<path d="M237.042 82.3309C236.869 82.2642 236.686 82.1975 236.513 82.1309C234.799 84.2426 233.013 86.3099 231.038 88.1327C234.916 89.2887 238.516 90.2556 241.889 90.9947C244.048 89.2109 245.923 87.1769 247.164 84.6705C243.953 84.3927 240.57 83.6591 237.042 82.3309Z" fill="black"/>
<path d="M237.042 82.3309C236.869 82.2642 236.686 82.1975 236.513 82.1309C234.799 84.2426 233.013 86.3099 231.038 88.1327C234.916 89.2887 238.516 90.2556 241.889 90.9947C244.048 89.2109 245.923 87.1769 247.164 84.6705C243.953 84.3927 240.57 83.6591 237.042 82.3309Z" fill="url(#paint1_linear_866_10951)"/>
<path d="M279.731 71.4829C279.731 71.4829 266.599 86.3653 247.161 84.6704C245.926 87.1711 244.045 89.2107 241.886 90.9946C251.057 93.0007 258.541 93.3286 265.369 91.2446C279.341 86.9822 283.999 80.0078 283.999 80.0078L279.731 71.4829Z" fill="url(#paint2_linear_866_10951)"/>
<path d="M244.804 139.305C244.804 139.305 239.757 134.264 225.789 138.143C211.817 142.017 210.654 134.27 197.071 135.042C183.487 135.815 179.609 136.982 179.609 136.982L178.835 125.356C178.835 125.356 196.297 124.583 203.286 126.517C210.27 128.457 216.48 131.558 224.243 130.007C232.005 128.457 237.826 128.068 245.199 130.007L244.809 139.31L244.804 139.305Z" fill="url(#paint3_linear_866_10951)"/>
<path d="M61.391 66.9129C70.6209 63.4261 76.7661 57.0692 75.1166 52.7144C73.4672 48.3596 64.6477 47.6559 55.4178 51.1427C46.1879 54.6295 40.0427 60.9864 41.6922 65.3412C43.3416 69.696 52.1611 70.3997 61.391 66.9129Z" fill="white"/>
<path d="M45.227 63.3958C44.7874 61.284 47.4139 58.4054 51.5929 56.0157C53.2512 55.071 55.1431 54.204 57.1909 53.4871C64.4082 50.9641 70.763 51.3087 71.3751 54.2596C71.5921 55.2988 71.0634 56.527 69.9728 57.7885C67.9751 60.1003 64.0854 62.5344 59.4167 64.1683C52.1939 66.6913 45.8391 66.3467 45.227 63.4014V63.3958Z" fill="url(#paint4_linear_866_10951)"/>
<path d="M41.4436 64.6131C40.4364 59.795 47.164 53.2596 56.4569 50.0086C59.9459 48.7915 63.2957 48.208 66.1782 48.208" stroke="black" stroke-width="0.706033" stroke-miterlimit="10" stroke-linecap="round"/>
<path d="M68.8996 48.3979C72.2773 48.9092 74.6144 50.4319 75.1152 52.8438C75.1653 53.0939 75.1987 53.3495 75.2098 53.6107C75.2098 53.6607 75.2098 53.7107 75.2098 53.7663C75.2098 53.8385 75.2098 53.9108 75.2098 53.9886C75.2098 54.122 75.1931 54.2609 75.182 54.3998C75.1764 54.4665 75.1653 54.5388 75.1542 54.6054C75.143 54.6944 75.1264 54.7777 75.1152 54.8666C75.1041 54.9333 75.0874 55 75.0763 55.0667C75.0763 55.0667 75.0763 55.0778 75.0763 55.0834C75.0596 55.1556 75.0429 55.2334 75.0206 55.3057C74.9872 55.439 74.9483 55.5669 74.9093 55.7002C74.8926 55.7558 74.8704 55.8169 74.8481 55.8725C74.837 55.917 74.8203 55.9614 74.8036 56.0059C74.7758 56.0837 74.748 56.1615 74.7146 56.2393C74.5866 56.5561 74.4363 56.8728 74.2638 57.1896C74.2193 57.273 74.1748 57.3507 74.1303 57.4286C73.9467 57.7453 73.7408 58.0676 73.5126 58.3844C73.4681 58.4511 73.4236 58.5122 73.3735 58.5734C73.2789 58.7067 73.1787 58.8345 73.0786 58.9679C72.984 59.0846 72.8894 59.2069 72.7948 59.3236C72.7113 59.4236 72.6223 59.5292 72.5333 59.6292C72.4776 59.6904 72.4275 59.7515 72.3719 59.8126C72.2272 59.9682 72.0825 60.1294 71.9267 60.2906C71.6262 60.6018 71.309 60.913 70.9752 61.2186C70.8861 61.302 70.7971 61.3853 70.7025 61.4631C70.491 61.6521 70.2685 61.8355 70.0459 62.0244C69.751 62.269 69.4449 62.5079 69.1277 62.7413C68.8161 62.9803 68.4878 63.2137 68.1484 63.4415C67.9091 63.6083 67.6698 63.7694 67.4194 63.925C67.2803 64.0139 67.1356 64.1029 66.9909 64.1918C66.8629 64.2751 66.7238 64.3585 66.5903 64.4363C66.3232 64.5975 66.0449 64.7586 65.7667 64.9142C65.6276 64.992 65.4885 65.0698 65.3438 65.1476C65.1991 65.2254 65.06 65.3032 64.9153 65.3755C64.7261 65.4755 64.5425 65.57 64.3477 65.6645C64.1975 65.7367 64.0473 65.8145 63.8914 65.8868C63.7078 65.9757 63.5242 66.0646 63.335 66.1479C63.2515 66.1868 63.1569 66.2313 63.0734 66.2702C62.1219 66.6981 61.137 67.0982 60.1187 67.4539" stroke="black" stroke-width="0.706033" stroke-miterlimit="10" stroke-linecap="round"/>
<path d="M54.2153 53.1046C55.0667 52.7211 55.9626 52.3599 56.8863 52.0376C57.1479 51.9431 57.4094 51.8597 57.6709 51.7764" stroke="black" stroke-width="0.706033" stroke-miterlimit="10" stroke-linecap="round"/>
<path d="M45.3003 60.1122C45.6954 59.3731 46.2797 58.6117 47.0253 57.856" stroke="black" stroke-width="0.706033" stroke-miterlimit="10" stroke-linecap="round"/>
<path d="M57.6702 51.7759C64.7317 49.503 70.8527 50.1976 71.526 53.4264C72.1993 56.6552 66.8017 61.5845 59.4119 64.1631C52.0221 66.7417 45.4671 66.1248 44.7715 62.7794" stroke="black" stroke-width="0.706033" stroke-miterlimit="10" stroke-linecap="round"/>
<path d="M70.97 64.874C70.3968 65.3575 69.7791 65.8354 69.1225 66.2911C68.132 66.9858 67.0581 67.6527 65.9062 68.264C64.3258 69.1142 62.612 69.87 60.7979 70.5091C51.4995 73.7601 43.147 72.4875 42.1398 67.6749L41.4888 64.7851C42.3624 68.2751 47.1925 69.8311 53.4081 69.0531L56.6745 68.4529C57.793 68.1862 58.9393 67.8472 60.1023 67.447C61.1206 67.0914 62.1111 66.6968 63.0571 66.2633C63.1462 66.2244 63.2352 66.1855 63.3187 66.1411C63.5079 66.0577 63.6915 65.9688 63.8751 65.8799C64.0309 65.8076 64.1812 65.7298 64.3314 65.6576C64.5262 65.5631 64.7098 65.4686 64.899 65.3686C65.0437 65.2908 65.1884 65.2186 65.3275 65.1408C65.4666 65.063 65.6113 64.9852 65.7504 64.9074C66.0286 64.7518 66.3013 64.5906 66.5739 64.4294C66.7075 64.3461 66.841 64.2683 66.9746 64.1849C67.1193 64.096 67.2584 64.0071 67.4031 63.9182C67.6535 63.757 67.8983 63.6014 68.132 63.4347C68.4659 63.2068 68.7942 62.9734 69.1114 62.7345C69.4286 62.501 69.7346 62.2565 70.0296 62.0176C70.2577 61.8342 70.4747 61.6452 70.6862 61.4563C70.7808 61.3785 70.8698 61.2951 70.9588 61.2118C71.2983 60.9061 71.6099 60.5949 71.9104 60.2837C72.0662 60.1225 72.2109 59.9669 72.3556 59.8058C72.4112 59.7446 72.4668 59.6835 72.5169 59.6224C72.606 59.5223 72.695 59.4167 72.7785 59.3167C72.8786 59.2 72.9732 59.0833 73.0623 58.961C73.1624 58.8277 73.2626 58.6999 73.3572 58.5665C73.4017 58.5054 73.4518 58.4387 73.4963 58.3775C73.7244 58.0608 73.9303 57.7384 74.114 57.4217C74.1585 57.3439 74.203 57.2605 74.2475 57.1827C74.42 56.866 74.5703 56.5492 74.6982 56.2324C74.7316 56.1546 74.7595 56.0768 74.7873 55.999C74.804 55.9546 74.8207 55.9101 74.8318 55.8656C74.854 55.8101 74.8707 55.7489 74.893 55.6934C74.9375 55.56 74.9765 55.4322 75.0043 55.2988C75.0266 55.2266 75.0432 55.1487 75.0599 55.0765C75.0599 55.0765 75.0599 55.0654 75.0599 55.0598C75.0766 54.9931 75.0878 54.9265 75.0989 54.8598C75.1156 54.7709 75.1267 54.6875 75.1378 54.5986C75.149 54.5319 75.1601 54.4596 75.1657 54.393C75.1824 54.254 75.1879 54.1151 75.1935 53.9817C75.1935 53.9095 75.1935 53.8372 75.1935 53.7594C75.1935 53.7094 75.1935 53.6538 75.1935 53.6038C75.1824 53.3426 75.149 53.087 75.0989 52.8369L75.7945 55.899C76.2563 58.1108 75.0878 60.6894 72.784 63.1401C72.2387 63.7237 71.6266 64.3016 70.9533 64.8685L70.97 64.874Z" fill="url(#paint5_linear_866_10951)" stroke="black" stroke-width="0.706033" stroke-miterlimit="10" stroke-linecap="round"/>
<path d="M69.122 66.2974C68.1315 66.992 67.0575 67.6589 65.9056 68.2702L64.8984 65.3749C65.0431 65.2971 65.1878 65.2248 65.3269 65.147C65.466 65.0692 65.6107 64.9914 65.7498 64.9136C66.0281 64.758 66.3007 64.5968 66.5734 64.4357C66.7069 64.3523 66.8405 64.2745 66.974 64.1912C67.1187 64.1022 67.2578 64.0133 67.4025 63.9244C67.6529 63.7632 67.8978 63.6076 68.1315 63.4409L69.122 66.2974Z" fill="black"/>
<path d="M70.9692 64.873L70.0288 62.0166C70.257 61.8332 70.474 61.6442 70.6854 61.4553C70.78 61.3775 70.8691 61.2941 70.9581 61.2108C71.2975 60.9051 71.6092 60.5939 71.9096 60.2827L72.8 63.1447C72.2546 63.7282 71.6425 64.3062 70.9692 64.873Z" fill="black"/>
<path d="M60.0794 60.524C60.992 59.9628 61.554 59.3014 61.6375 58.7679C62.3108 58.6234 63.0453 58.3511 63.6964 57.9788C65.1265 57.1563 65.7608 56.0893 65.0764 55.5947L64.7258 55.3947L66.7847 54.1721L66.1114 53.7886L64.0525 55.0112L63.5016 54.6944L65.5605 53.4718L64.8872 53.0884L62.8283 54.311L61.4817 53.5441L59.9792 54.4332L60.8362 54.9223L58.3822 56.3727L57.5252 55.8837L56.1842 56.6784L57.0411 57.1674L54.2477 58.8235L53.5354 58.4178L51.8271 59.2681L52.6785 59.7516L53.1682 60.0294L51.0981 61.252L51.7715 61.6355L53.8415 60.4129L54.3924 60.7297L52.3224 61.9523L52.9957 62.3357L55.0657 61.1131H55.0713L55.4107 61.3132C56.2343 61.9245 58.4768 61.5077 60.0683 60.5185L60.0794 60.524ZM62.0047 55.5836L62.8951 56.0893C63.2957 56.2838 63.0453 56.7951 62.3553 57.2063C61.6653 57.6176 60.7861 57.7732 60.4467 57.5398L59.5563 57.0341L62.0047 55.5836ZM56.6405 60.185L55.4163 59.4848L58.2097 57.8287L59.4339 58.529C59.7455 58.7902 59.4283 59.3181 58.7105 59.7405C57.9927 60.1684 57.0912 60.3573 56.6405 60.185Z" fill="white"/>
<path d="M139.014 55.701C139.014 56.2512 138.992 56.7958 138.948 57.3515C138.87 58.2518 138.731 59.1521 138.53 60.0579L136.505 69.1163L119.778 143.823L119.572 144.751C119.132 146.729 118.409 148.569 117.452 150.247C113.239 157.65 104.542 161.773 95.7942 159.822C90.1851 158.572 85.6666 155.071 82.9678 150.481C81.4041 147.83 80.4582 144.818 80.2634 141.667C80.141 139.833 80.2801 137.954 80.703 136.071L93.3958 79.3751L95.3156 70.789L99.6616 51.383C102.06 40.663 112.711 33.9164 123.439 36.3116C132.71 38.3789 139.014 46.5926 139.014 55.701Z" fill="black"/>
<path d="M136.232 55.1444C136.232 55.6945 136.21 56.2391 136.165 56.7949C136.087 57.6952 135.948 58.5954 135.748 59.5013L133.722 68.5597L116.995 143.266L116.789 144.194C116.35 146.173 115.626 148.012 114.669 149.691C110.457 157.093 101.759 161.216 93.0119 159.266C87.4028 158.015 82.8844 154.514 80.1856 149.924C78.6219 147.273 77.6759 144.261 77.4812 141.11C77.3588 139.276 77.4979 137.398 77.9208 135.514L90.6136 78.8184L92.5334 70.2324L96.8793 50.8263C99.2777 40.1063 109.928 33.3598 120.657 35.755C129.927 37.8223 136.232 46.036 136.232 55.1444V55.1444Z" stroke="#070707" stroke-width="0.706033" stroke-miterlimit="10" stroke-linecap="round"/>
<path d="M169.789 104.005L175.286 79.4416C177.685 68.7215 188.33 61.975 199.064 64.3702C209.798 66.7654 216.553 77.3965 214.155 88.1165L195.196 172.81C192.798 183.53 182.153 190.276 171.419 187.881C163.4 186.092 157.602 179.706 156.183 172.121" stroke="#070707" stroke-width="0.706033" stroke-miterlimit="10" stroke-linecap="round"/>
<path d="M119.778 143.823L119.572 144.751C119.132 146.73 118.409 148.569 117.452 150.247C114.725 149.797 110.68 149.958 105.727 152.62C96.3398 157.666 88.3991 153.37 82.9681 150.481C82.9514 150.47 82.9347 150.464 82.918 150.453C77.487 147.558 69.1568 146.835 63.0023 151.537L56.1245 143.945C56.1245 143.945 67.3483 137.071 78.5721 141.05C79.1563 141.256 79.7184 141.461 80.2637 141.667C90.2577 145.39 94.5925 148.53 102.828 146.474C108.983 144.94 114.586 143.584 119.778 143.823Z" fill="url(#paint6_linear_866_10951)"/>
<path d="M95.3164 70.7893C88.2494 70.517 80.7539 69.4556 73.2472 68.0273C69.48 68.5386 66.0411 69.9668 62.936 72.0453C67.3376 73.2679 72.151 74.7016 77.4874 76.3244C83.0465 78.0194 88.3662 78.9752 93.3966 79.3753C106.023 80.3868 116.829 77.8915 125.048 74.7183C120.863 72.5343 116.289 71.0394 111.66 69.6556C106.651 70.7004 101.131 71.006 95.3164 70.7893Z" fill="url(#paint7_linear_866_10951)"/>
<path d="M114.052 69.0935C113.267 69.3046 112.472 69.488 111.659 69.6547C116.289 71.0385 120.863 72.5279 125.048 74.7174C129.766 72.8946 133.639 70.8496 136.505 69.1157L138.531 60.0573C138.731 59.1515 138.87 58.2512 138.948 57.3564C133.751 61.1243 125.365 66.0647 114.052 69.0935Z" fill="url(#paint8_linear_866_10951)"/>
<path d="M40.9164 60.4125C18.1072 54.6273 0 71.2603 0 71.2603L4.70764 76.6842C24.6289 64.875 35.9862 64.5527 62.9355 72.0439C66.0406 69.9655 69.4795 68.5373 73.2467 68.026C62.034 65.892 50.7991 62.9133 40.9164 60.4125Z" fill="url(#paint9_linear_866_10951)"/>
<path d="M192.378 154.165C199.771 142.211 185.216 119.846 159.869 104.211C134.522 88.577 107.98 85.594 100.587 97.5486C93.1944 109.503 107.749 131.868 133.097 147.503C158.444 163.137 184.985 166.12 192.378 154.165Z" fill="white"/>
<path d="M111.762 102.43C116.013 97.4896 127.738 98.4676 141.16 104.047C146.474 106.265 152.044 109.193 157.531 112.767C176.868 125.371 187.73 141.187 181.803 148.083C179.711 150.517 175.794 151.512 170.763 151.234C161.543 150.717 148.555 145.905 136.051 137.752C116.703 125.143 105.836 109.327 111.767 102.43H111.762Z" fill="black"/>
<path d="M130.116 107.199C132.208 104.765 136.126 103.77 141.156 104.048C146.47 106.266 152.04 109.194 157.527 112.768C176.864 125.372 187.726 141.188 181.8 148.084C179.708 150.518 175.79 151.513 170.76 151.235C165.446 149.023 159.875 146.089 154.4 142.521C135.052 129.912 124.19 114.101 130.116 107.199Z" fill="url(#paint10_linear_866_10951)"/>
<path d="M101.887 95.634C111.58 84.3638 139.62 88.3929 164.522 104.631C173.859 110.722 181.433 117.658 186.736 124.549" stroke="black" stroke-width="0.706033" stroke-miterlimit="10" stroke-linecap="round"/>
<path d="M191.269 131.389C196.255 140.403 196.912 148.795 192.065 154.43C191.559 155.013 191.008 155.563 190.401 156.069C190.284 156.169 190.162 156.264 190.039 156.364C189.872 156.503 189.694 156.636 189.511 156.764C189.177 156.997 188.832 157.231 188.47 157.453C188.292 157.558 188.108 157.67 187.925 157.764C187.697 157.897 187.463 158.02 187.229 158.142C187.051 158.236 186.868 158.325 186.678 158.409C186.662 158.409 186.645 158.425 186.628 158.431C186.417 158.525 186.211 158.62 185.994 158.709C185.616 158.876 185.237 159.026 184.837 159.165C184.664 159.226 184.492 159.287 184.308 159.342C184.174 159.392 184.041 159.437 183.907 159.476C183.668 159.559 183.423 159.626 183.178 159.692C182.188 159.965 181.153 160.193 180.073 160.365C179.801 160.409 179.528 160.454 179.255 160.493C178.148 160.643 177.013 160.737 175.833 160.782C175.594 160.793 175.366 160.809 175.121 160.804C174.631 160.821 174.136 160.821 173.635 160.821C173.179 160.821 172.717 160.809 172.261 160.787C171.86 160.771 171.448 160.748 171.036 160.721C170.797 160.704 170.547 160.687 170.296 160.671C169.651 160.621 169 160.554 168.337 160.487C167.041 160.343 165.717 160.154 164.359 159.915C163.997 159.854 163.63 159.787 163.274 159.715C162.433 159.554 161.582 159.37 160.72 159.17C159.596 158.914 158.46 158.625 157.308 158.298C156.162 157.986 154.999 157.631 153.831 157.247C152.996 156.986 152.167 156.703 151.321 156.397C150.842 156.225 150.364 156.047 149.891 155.869C149.451 155.713 149.006 155.541 148.567 155.358C147.682 155.013 146.797 154.652 145.901 154.274C145.456 154.085 145.011 153.896 144.571 153.691C144.12 153.491 143.681 153.29 143.23 153.085C142.646 152.824 142.073 152.551 141.494 152.262C141.038 152.04 140.581 151.818 140.119 151.59C139.569 151.318 139.023 151.034 138.472 150.745C138.216 150.612 137.955 150.473 137.699 150.34C134.917 148.861 132.157 147.227 129.424 145.449" stroke="black" stroke-width="0.706033" stroke-miterlimit="10" stroke-linecap="round"/>
<path d="M152.969 104.965C155.462 106.299 157.966 107.772 160.436 109.383C161.138 109.839 161.833 110.306 162.512 110.773" stroke="black" stroke-width="0.706033" stroke-miterlimit="10" stroke-linecap="round"/>
<path d="M119.758 96.5567C122.262 96.1343 125.161 96.1343 128.344 96.5178" stroke="black" stroke-width="0.706033" stroke-miterlimit="10" stroke-linecap="round"/>
<path d="M162.511 110.771C180.958 123.464 190.568 139.369 184.069 146.922C177.33 154.757 155.828 150.645 136.041 137.747C116.253 124.848 105.669 108.037 112.408 100.207" stroke="black" stroke-width="0.706033" stroke-miterlimit="10" stroke-linecap="round"/>
<path d="M155.606 166.674C153.391 166.196 151.115 165.596 148.806 164.873C145.317 163.789 141.745 162.439 138.15 160.822C133.214 158.61 128.228 155.909 123.37 152.742C98.4689 136.503 86.1266 114.202 95.8146 102.937L101.541 96.0571C94.7796 104.565 99.9546 118.97 113.254 132.396L120.705 139.104C123.409 141.293 126.325 143.411 129.43 145.445C132.157 147.223 134.923 148.857 137.705 150.335C137.961 150.474 138.222 150.613 138.478 150.741C139.024 151.03 139.575 151.313 140.125 151.586C140.587 151.813 141.044 152.036 141.5 152.258C142.079 152.547 142.652 152.814 143.236 153.081C143.687 153.286 144.126 153.492 144.577 153.686C145.022 153.881 145.462 154.081 145.907 154.27C146.803 154.648 147.688 155.009 148.572 155.353C149.018 155.526 149.457 155.698 149.897 155.865C150.375 156.043 150.848 156.22 151.327 156.393C152.167 156.698 153.002 156.982 153.837 157.243C155 157.621 156.157 157.976 157.314 158.293C158.461 158.616 159.596 158.899 160.726 159.166C161.582 159.366 162.439 159.549 163.28 159.71C163.636 159.783 164.003 159.855 164.365 159.91C165.723 160.149 167.041 160.338 168.343 160.483C169.006 160.555 169.657 160.616 170.302 160.666C170.553 160.688 170.797 160.7 171.042 160.716C171.454 160.744 171.866 160.761 172.266 160.783C172.728 160.8 173.19 160.811 173.641 160.816C174.142 160.816 174.637 160.816 175.127 160.8C175.36 160.8 175.6 160.788 175.839 160.777C177.024 160.733 178.159 160.638 179.261 160.488C179.534 160.449 179.807 160.411 180.079 160.361C181.153 160.194 182.194 159.966 183.184 159.688C183.429 159.621 183.674 159.549 183.913 159.471C184.052 159.438 184.186 159.394 184.314 159.338C184.492 159.288 184.67 159.221 184.842 159.16C185.238 159.021 185.622 158.871 186 158.704C186.217 158.616 186.428 158.521 186.634 158.427C186.651 158.427 186.668 158.41 186.684 158.404C186.868 158.321 187.057 158.232 187.235 158.138C187.475 158.015 187.703 157.893 187.931 157.76C188.12 157.66 188.298 157.554 188.476 157.449C188.838 157.226 189.183 156.993 189.517 156.759C189.7 156.626 189.878 156.498 190.045 156.359C190.168 156.259 190.29 156.165 190.407 156.065C191.014 155.565 191.564 155.014 192.071 154.425L186.011 161.722C181.559 166.896 173.235 168.847 163.118 167.863C160.709 167.63 158.199 167.229 155.612 166.668L155.606 166.674Z" fill="url(#paint11_linear_866_10951)" stroke="black" stroke-width="0.706033" stroke-miterlimit="10" stroke-linecap="round"/>
<path d="M148.806 164.872C145.317 163.788 141.745 162.438 138.15 160.821L143.23 153.08C143.681 153.285 144.121 153.491 144.571 153.685C145.017 153.88 145.456 154.08 145.901 154.269C146.797 154.647 147.682 155.008 148.567 155.353C149.012 155.525 149.452 155.697 149.891 155.864C150.37 156.042 150.843 156.219 151.321 156.392C152.162 156.697 152.996 156.981 153.831 157.242L148.806 164.878V164.872Z" fill="black"/>
<path d="M155.605 166.673L160.714 159.159C161.571 159.359 162.428 159.543 163.268 159.704C163.624 159.776 163.991 159.848 164.353 159.904C165.711 160.143 167.03 160.332 168.332 160.476L163.112 167.862C160.703 167.628 158.193 167.228 155.605 166.667V166.673Z" fill="black"/>
<path d="M145.996 132.64C149.017 133.779 151.633 133.907 153.068 133.129C154.654 134.48 156.657 135.73 158.755 136.597C163.357 138.503 167.091 138.053 167.008 135.508L166.841 134.307L173.563 136.986L173.245 134.669L166.523 131.99L166.262 130.095L172.984 132.774L172.667 130.456L165.945 127.778L165.305 123.143L160.414 121.192L160.82 124.143L152.829 120.959L152.423 118.008L148.055 116.268L148.461 119.219L139.346 115.585L139.007 113.129L133.82 110.617L134.221 113.545L134.455 115.229L127.71 112.545L128.028 114.862L134.772 117.547L135.033 119.442L128.289 116.758L128.606 119.075L135.351 121.759V121.781L135.518 122.959C135.568 126.06 140.698 130.634 145.996 132.635V132.64ZM161.371 128.15L161.794 131.206C162.072 132.524 160.38 132.868 158.121 131.973C155.867 131.073 153.875 129.261 153.803 128.022L153.38 124.966L161.371 128.15ZM140.476 123.804L139.897 119.592L149.012 123.226L149.59 127.439C149.535 128.656 147.693 128.872 145.35 127.939C143.008 127.005 140.887 125.205 140.476 123.804Z" fill="white"/>
<path d="M159.215 134.341C166.608 122.387 152.053 100.021 126.706 84.3871C101.359 68.7528 74.8173 65.7698 67.4243 77.7244C60.0313 89.679 74.5862 112.044 99.9335 127.679C125.281 143.313 151.822 146.296 159.215 134.341Z" fill="white"/>
<path d="M78.6012 82.5975C82.8526 77.6571 94.5772 78.6351 107.999 84.2147C113.313 86.432 118.883 89.3607 124.37 92.934C143.707 105.538 154.569 121.354 148.643 128.251C146.55 130.685 142.633 131.68 137.603 131.402C128.382 130.885 115.394 126.072 102.891 117.92C83.5426 105.31 72.6749 89.4941 78.6068 82.5975H78.6012Z" fill="url(#paint12_linear_866_10951)"/>
<path d="M68.7183 75.8015C78.4118 64.5313 106.452 68.5603 131.353 84.7988C140.691 90.8895 148.264 97.825 153.567 104.716" stroke="black" stroke-width="0.706033" stroke-miterlimit="10" stroke-linecap="round"/>
<path d="M158.107 111.557C163.093 120.571 163.75 128.962 158.903 134.597C158.396 135.181 157.846 135.731 157.239 136.237C157.122 136.337 157 136.431 156.877 136.531C156.71 136.67 156.532 136.803 156.349 136.931C156.015 137.165 155.67 137.398 155.308 137.62C155.13 137.726 154.946 137.837 154.763 137.932C154.535 138.065 154.301 138.187 154.067 138.309C153.889 138.404 153.705 138.493 153.516 138.576C153.5 138.576 153.483 138.593 153.466 138.598C153.255 138.693 153.049 138.787 152.832 138.876C152.453 139.043 152.075 139.193 151.674 139.332C151.502 139.393 151.329 139.454 151.146 139.51C151.012 139.56 150.879 139.604 150.745 139.643C150.506 139.727 150.261 139.793 150.016 139.86C149.026 140.132 147.991 140.36 146.911 140.532C146.638 140.577 146.366 140.621 146.093 140.66C144.986 140.81 143.851 140.905 142.671 140.949C142.432 140.96 142.203 140.977 141.959 140.971C141.469 140.988 140.974 140.988 140.473 140.988C140.017 140.988 139.555 140.977 139.098 140.955C138.698 140.938 138.286 140.916 137.874 140.888C137.635 140.871 137.385 140.855 137.134 140.838C136.489 140.788 135.838 140.721 135.175 140.655C133.879 140.51 132.554 140.321 131.197 140.082C130.835 140.021 130.468 139.954 130.112 139.882C129.271 139.721 128.42 139.538 127.557 139.338C126.433 139.082 125.298 138.793 124.146 138.465C123 138.154 121.837 137.798 120.669 137.415C119.834 137.154 119.005 136.87 118.159 136.564C117.68 136.392 117.202 136.214 116.729 136.037C116.289 135.881 115.844 135.709 115.404 135.525C114.52 135.181 113.635 134.819 112.739 134.442C112.294 134.253 111.849 134.064 111.409 133.858C110.958 133.658 110.519 133.458 110.068 133.252C109.484 132.991 108.911 132.719 108.332 132.43C107.876 132.208 107.419 131.985 106.957 131.757C106.406 131.485 105.861 131.202 105.31 130.913C105.054 130.779 104.793 130.64 104.537 130.507C101.754 129.029 98.9944 127.395 96.2622 125.617" stroke="black" stroke-width="0.706033" stroke-miterlimit="10" stroke-linecap="round"/>
<path d="M119.8 85.1328C122.293 86.4666 124.797 87.9392 127.267 89.5509C127.969 90.0066 128.664 90.4734 129.343 90.9402" stroke="black" stroke-width="0.706033" stroke-miterlimit="10" stroke-linecap="round"/>
<path d="M86.5957 76.7241C89.0998 76.3018 91.9989 76.3018 95.1819 76.6852" stroke="black" stroke-width="0.706033" stroke-miterlimit="10" stroke-linecap="round"/>
<path d="M129.344 90.9389C147.791 103.632 157.401 119.537 150.902 127.089C144.163 134.925 122.661 130.813 102.874 117.914C83.0859 105.016 72.5021 88.2047 79.2408 80.3745" stroke="black" stroke-width="0.706033" stroke-miterlimit="10" stroke-linecap="round"/>
<path d="M122.444 146.841C120.229 146.363 117.953 145.763 115.644 145.041C112.155 143.957 108.583 142.606 104.988 140.989C100.052 138.778 95.0662 136.077 90.2083 132.909C65.3068 116.671 52.9645 94.3692 62.6525 83.1045L68.3784 76.2246C61.6175 84.7328 66.7925 99.1373 80.0919 112.564L87.5429 119.271C90.2473 121.461 93.1631 123.578 96.2682 125.612C98.9948 127.391 101.76 129.024 104.543 130.503C104.799 130.642 105.06 130.781 105.316 130.908C105.862 131.197 106.412 131.481 106.963 131.753C107.425 131.981 107.881 132.203 108.338 132.426C108.916 132.714 109.49 132.981 110.074 133.248C110.525 133.454 110.964 133.659 111.415 133.854C111.86 134.048 112.3 134.248 112.745 134.437C113.641 134.815 114.526 135.176 115.41 135.521C115.856 135.693 116.295 135.865 116.735 136.032C117.213 136.21 117.686 136.388 118.165 136.56C119.005 136.866 119.84 137.149 120.674 137.41C121.837 137.788 122.995 138.144 124.152 138.461C125.299 138.783 126.434 139.066 127.563 139.333C128.42 139.533 129.277 139.717 130.118 139.878C130.474 139.95 130.841 140.022 131.203 140.078C132.56 140.317 133.879 140.506 135.181 140.65C135.844 140.723 136.495 140.784 137.14 140.834C137.39 140.856 137.635 140.867 137.88 140.884C138.292 140.912 138.704 140.928 139.104 140.95C139.566 140.967 140.028 140.978 140.479 140.984C140.98 140.984 141.475 140.984 141.965 140.967C142.198 140.967 142.438 140.956 142.677 140.945C143.862 140.9 144.997 140.806 146.099 140.656C146.372 140.617 146.644 140.578 146.917 140.528C147.991 140.361 149.032 140.133 150.022 139.856C150.267 139.789 150.512 139.717 150.751 139.639C150.89 139.606 151.024 139.561 151.152 139.506C151.33 139.455 151.508 139.389 151.68 139.328C152.075 139.189 152.459 139.039 152.838 138.872C153.055 138.783 153.266 138.689 153.472 138.594C153.489 138.594 153.506 138.577 153.522 138.572C153.706 138.489 153.895 138.4 154.073 138.305C154.312 138.183 154.541 138.061 154.769 137.927C154.958 137.827 155.136 137.722 155.314 137.616C155.676 137.394 156.021 137.16 156.355 136.927C156.538 136.794 156.716 136.666 156.883 136.527C157.006 136.427 157.128 136.332 157.245 136.232C157.851 135.732 158.402 135.182 158.909 134.593L152.849 141.89C148.397 147.063 140.073 149.014 129.956 148.03C127.547 147.797 125.037 147.397 122.45 146.836L122.444 146.841Z" fill="url(#paint13_linear_866_10951)" stroke="black" stroke-width="0.706033" stroke-miterlimit="10" stroke-linecap="round"/>
<path d="M115.643 145.04C112.154 143.956 108.582 142.606 104.987 140.989L110.067 133.248C110.518 133.453 110.958 133.659 111.408 133.853C111.854 134.048 112.293 134.248 112.738 134.437C113.634 134.815 114.519 135.176 115.404 135.52C115.849 135.693 116.289 135.865 116.728 136.032C117.207 136.21 117.68 136.387 118.158 136.56C118.998 136.865 119.833 137.149 120.668 137.41L115.643 145.046V145.04Z" fill="black"/>
<path d="M122.445 146.841L127.553 139.327C128.41 139.527 129.267 139.711 130.107 139.872C130.463 139.944 130.831 140.016 131.192 140.072C132.55 140.311 133.869 140.5 135.171 140.644L129.951 148.03C127.542 147.796 125.032 147.396 122.445 146.835V146.841Z" fill="black"/>
<path d="M112.827 112.809C115.848 113.948 118.464 114.076 119.899 113.298C121.485 114.648 123.489 115.899 125.586 116.765C130.188 118.672 133.922 118.222 133.839 115.676L133.672 114.476L140.394 117.155L140.077 114.837L133.355 112.159L133.093 110.263L139.815 112.942L139.498 110.625L132.776 107.946L132.136 103.311L127.245 101.361L127.651 104.312L119.66 101.127L119.254 98.1764L114.886 96.4369L115.292 99.3878L106.177 95.7534L105.838 93.2971L100.651 90.7852L101.052 93.7139L101.286 95.3977L94.5415 92.7135L94.8587 95.0309L101.603 97.7151L101.865 99.6101L95.1202 96.926L95.4374 99.2434L102.182 101.928V101.95L102.349 103.128C102.399 106.229 107.529 110.803 112.827 112.803V112.809ZM128.202 108.318L128.625 111.375C128.903 112.692 127.211 113.037 124.952 112.142C122.698 111.242 120.706 109.43 120.634 108.191L120.211 105.134L128.202 108.318ZM107.307 103.973L106.728 99.7602L115.843 103.395L116.421 107.607C116.366 108.824 114.524 109.041 112.181 108.107C109.839 107.174 107.718 105.373 107.307 103.973Z" fill="white"/>
<path d="M267.557 125.44C270.007 121.479 265.186 114.069 256.791 108.891C248.395 103.712 239.602 102.725 237.153 106.687C234.703 110.648 239.523 118.057 247.919 123.236C256.315 128.415 265.107 129.402 267.557 125.44Z" fill="white"/>
<path d="M240.867 108.314C242.275 106.674 246.159 107.002 250.605 108.853C252.363 109.586 254.211 110.559 256.025 111.743C262.429 115.916 266.03 121.157 264.065 123.441C263.37 124.246 262.073 124.58 260.41 124.485C257.355 124.313 253.053 122.718 248.913 120.017C242.503 115.838 238.908 110.603 240.872 108.319L240.867 108.314Z" fill="url(#paint14_linear_866_10951)"/>
<path d="M237.593 106.063C240.804 102.328 250.091 103.668 258.338 109.042C261.431 111.059 263.941 113.354 265.694 115.638" stroke="black" stroke-width="0.706033" stroke-miterlimit="10" stroke-linecap="round"/>
<path d="M267.203 117.911C268.855 120.895 269.072 123.674 267.464 125.541C267.297 125.736 267.114 125.919 266.913 126.086C266.874 126.119 266.835 126.153 266.791 126.18C266.735 126.225 266.674 126.269 266.618 126.314C266.507 126.392 266.396 126.469 266.273 126.542C266.212 126.575 266.156 126.614 266.09 126.647C266.012 126.692 265.939 126.731 265.856 126.775C265.795 126.803 265.734 126.836 265.672 126.864C265.672 126.864 265.661 126.869 265.656 126.869C265.589 126.903 265.517 126.931 265.444 126.964C265.322 127.02 265.194 127.07 265.06 127.114C265.005 127.136 264.943 127.153 264.888 127.17C264.843 127.186 264.799 127.203 264.754 127.214C264.676 127.242 264.593 127.264 264.515 127.286C264.187 127.375 263.842 127.453 263.485 127.509C263.396 127.525 263.302 127.536 263.213 127.553C262.846 127.603 262.473 127.636 262.078 127.648C262 127.648 261.922 127.659 261.844 127.653C261.683 127.653 261.516 127.653 261.354 127.653C261.204 127.653 261.048 127.653 260.898 127.642C260.764 127.636 260.631 127.631 260.492 127.62C260.414 127.614 260.33 127.609 260.247 127.603C260.035 127.586 259.818 127.564 259.596 127.542C259.167 127.492 258.728 127.431 258.277 127.353C258.16 127.331 258.038 127.309 257.915 127.286C257.637 127.236 257.353 127.175 257.069 127.108C256.697 127.025 256.318 126.931 255.94 126.819C255.561 126.714 255.178 126.597 254.788 126.469C254.51 126.38 254.237 126.292 253.959 126.186C253.803 126.13 253.642 126.069 253.486 126.014C253.341 125.964 253.191 125.903 253.046 125.847C252.751 125.73 252.462 125.614 252.161 125.486C252.017 125.425 251.867 125.358 251.722 125.291C251.572 125.225 251.427 125.158 251.277 125.091C251.082 125.002 250.893 124.913 250.704 124.819C250.553 124.747 250.403 124.674 250.247 124.597C250.064 124.508 249.886 124.413 249.702 124.319C249.618 124.274 249.529 124.23 249.446 124.185C248.528 123.696 247.61 123.157 246.703 122.568" stroke="black" stroke-width="0.706033" stroke-miterlimit="10" stroke-linecap="round"/>
<path d="M254.517 109.153C255.346 109.592 256.169 110.081 256.993 110.614C257.227 110.764 257.455 110.92 257.677 111.076" stroke="black" stroke-width="0.706033" stroke-miterlimit="10" stroke-linecap="round"/>
<path d="M243.516 106.369C244.345 106.23 245.307 106.23 246.359 106.358" stroke="black" stroke-width="0.706033" stroke-miterlimit="10" stroke-linecap="round"/>
<path d="M257.677 111.081C263.787 115.288 266.969 120.55 264.816 123.057C262.585 125.652 255.462 124.29 248.907 120.017C242.352 115.743 238.846 110.175 241.077 107.58" stroke="black" stroke-width="0.706033" stroke-miterlimit="10" stroke-linecap="round"/>
<path d="M255.39 129.598C254.655 129.437 253.904 129.243 253.136 129.004C251.979 128.642 250.799 128.198 249.608 127.659C247.972 126.925 246.325 126.03 244.711 124.98C236.465 119.601 232.375 112.215 235.585 108.486L237.483 106.208C235.246 109.025 236.954 113.799 241.361 118.245L243.827 120.468C244.722 121.19 245.685 121.896 246.715 122.568C247.616 123.157 248.534 123.696 249.458 124.185C249.541 124.23 249.63 124.28 249.714 124.319C249.897 124.413 250.076 124.508 250.259 124.597C250.409 124.674 250.565 124.747 250.715 124.819C250.905 124.913 251.099 125.002 251.289 125.091C251.439 125.158 251.584 125.225 251.734 125.291C251.878 125.358 252.029 125.419 252.173 125.486C252.468 125.614 252.763 125.73 253.058 125.847C253.208 125.903 253.353 125.964 253.498 126.014C253.654 126.075 253.815 126.13 253.971 126.186C254.249 126.286 254.527 126.381 254.8 126.469C255.184 126.597 255.568 126.714 255.952 126.82C256.33 126.925 256.709 127.02 257.081 127.109C257.365 127.175 257.649 127.236 257.927 127.286C258.044 127.309 258.166 127.336 258.289 127.353C258.74 127.431 259.174 127.498 259.608 127.542C259.83 127.564 260.042 127.586 260.259 127.603C260.342 127.609 260.426 127.614 260.504 127.62C260.643 127.631 260.776 127.636 260.91 127.642C261.06 127.648 261.216 127.653 261.366 127.653C261.533 127.653 261.694 127.653 261.856 127.653C261.934 127.653 262.012 127.653 262.089 127.648C262.479 127.631 262.857 127.603 263.225 127.553C263.314 127.542 263.403 127.525 263.497 127.509C263.853 127.453 264.198 127.375 264.527 127.286C264.61 127.264 264.688 127.242 264.766 127.214C264.811 127.203 264.855 127.186 264.9 127.17C264.961 127.153 265.016 127.131 265.072 127.114C265.206 127.07 265.328 127.02 265.456 126.964C265.528 126.936 265.595 126.903 265.668 126.87C265.668 126.87 265.679 126.864 265.684 126.864C265.745 126.836 265.807 126.808 265.868 126.775C265.946 126.736 266.024 126.692 266.102 126.647C266.163 126.614 266.224 126.581 266.285 126.542C266.408 126.469 266.519 126.392 266.63 126.314C266.691 126.269 266.747 126.225 266.803 126.18C266.842 126.147 266.886 126.119 266.925 126.086C267.125 125.919 267.309 125.736 267.476 125.541L265.467 127.959C263.993 129.67 261.233 130.321 257.883 129.993C257.087 129.915 256.252 129.782 255.395 129.598H255.39Z" fill="url(#paint15_linear_866_10951)" stroke="black" stroke-width="0.706033" stroke-miterlimit="10" stroke-linecap="round"/>
<path d="M253.133 128.996C251.976 128.635 250.796 128.191 249.605 127.651L251.286 125.084C251.436 125.151 251.581 125.217 251.731 125.284C251.876 125.351 252.026 125.412 252.171 125.479C252.466 125.606 252.761 125.723 253.056 125.84C253.206 125.895 253.35 125.956 253.495 126.006C253.651 126.068 253.812 126.123 253.968 126.179C254.246 126.279 254.525 126.373 254.797 126.462L253.133 128.991V128.996Z" fill="black"/>
<path d="M255.388 129.598L257.079 127.108C257.363 127.175 257.647 127.236 257.925 127.286C258.042 127.308 258.164 127.336 258.287 127.353C258.738 127.431 259.172 127.497 259.606 127.542L257.875 129.987C257.079 129.909 256.245 129.776 255.388 129.593V129.598Z" fill="black"/>
<path d="M252.203 118.321C253.205 118.699 254.073 118.743 254.546 118.482C255.069 118.932 255.737 119.343 256.432 119.632C257.957 120.266 259.193 120.116 259.165 119.271L259.109 118.876L261.335 119.766L261.229 118.999L259.003 118.11L258.914 117.482L261.14 118.371L261.034 117.604L258.809 116.715L258.597 115.181L256.978 114.536L257.111 115.514L254.463 114.458L254.329 113.48L252.882 112.902L253.016 113.88L249.994 112.68L249.883 111.869L248.164 111.035L248.297 112.002L248.375 112.558L246.144 111.669L246.249 112.436L248.481 113.325L248.57 113.953L246.338 113.064L246.444 113.83L248.675 114.72L248.731 115.114C248.748 116.142 250.445 117.659 252.203 118.321ZM257.295 116.831L257.434 117.843C257.529 118.282 256.967 118.393 256.215 118.098C255.47 117.798 254.808 117.198 254.785 116.793L254.646 115.781L257.295 116.837V116.831ZM250.373 115.392L250.178 113.997L253.199 115.198L253.394 116.592C253.378 116.998 252.765 117.07 251.992 116.759C251.218 116.448 250.512 115.853 250.378 115.392H250.373Z" fill="white"/>
<path d="M225.481 91.4702C238.476 83.2629 245.021 70.3093 240.1 62.5377C235.178 54.7661 220.654 55.1193 207.66 63.3267C194.665 71.5341 188.12 84.4876 193.041 92.2593C197.963 100.031 212.487 99.6776 225.481 91.4702Z" fill="white"/>
<path d="M233.637 64.5419C230.882 61.4298 224.422 61.7633 217.377 64.8642C214.589 66.098 211.712 67.7596 208.93 69.8158C199.136 77.068 194.312 86.4765 198.152 90.8168C199.509 92.3506 201.769 93.0453 204.551 92.9897C209.648 92.8841 216.515 90.2388 222.847 85.5485C232.646 78.2907 237.471 68.8822 233.631 64.5419H233.637Z" fill="url(#paint16_linear_866_10951)"/>
<path d="M238.617 60.619C232.335 53.5223 217.021 55.3451 204.406 64.6925C199.676 68.1936 195.998 72.2615 193.577 76.3461" stroke="black" stroke-width="0.706033" stroke-miterlimit="10" stroke-linecap="round"/>
<path d="M191.579 80.4136C189.504 85.7986 189.788 90.9057 192.926 94.4513C199.209 101.548 214.522 99.7307 227.137 90.3834" stroke="black" stroke-width="0.706033" stroke-miterlimit="10" stroke-linecap="round"/>
<path d="M210.866 65.1538C209.58 65.9096 208.301 66.7543 207.049 67.6824C206.692 67.9436 206.342 68.2159 206.002 68.4826" stroke="black" stroke-width="0.706033" stroke-miterlimit="10" stroke-linecap="round"/>
<path d="M228.723 60.7737C227.293 60.4625 225.679 60.3902 223.932 60.557" stroke="black" stroke-width="0.706033" stroke-miterlimit="10" stroke-linecap="round"/>
<path d="M206.002 68.4827C196.709 75.8128 192.592 85.2991 196.804 90.0561C201.172 94.991 212.836 92.9681 222.863 85.5436C232.89 78.119 237.476 68.0992 233.113 63.1699" stroke="black" stroke-width="0.706033" stroke-miterlimit="10" stroke-linecap="round"/>
<path d="M231.512 86.7164C230.176 87.989 228.718 89.2172 227.138 90.3842C214.523 99.726 199.209 101.549 192.927 94.4521L196.878 99.0424C203.16 106.139 218.474 104.322 231.089 94.9745C243.704 85.6327 248.845 72.3008 242.563 65.2041L238.612 60.6138C243.32 65.9377 241.611 74.7626 235.134 82.7874" fill="url(#paint17_linear_866_10951)"/>
<path d="M231.512 86.7164C230.176 87.989 228.718 89.2172 227.138 90.3842C214.523 99.726 199.209 101.549 192.927 94.4521L196.878 99.0424C203.16 106.139 218.474 104.322 231.089 94.9745C243.704 85.6327 248.845 72.3008 242.563 65.2041L238.612 60.6138C243.32 65.9377 241.611 74.7626 235.134 82.7874" stroke="black" stroke-width="0.706033" stroke-miterlimit="10" stroke-linecap="round"/>
<path d="M201.765 84.3826L214.97 82.1874L209.695 78.8809L201.765 84.3826Z" fill="white"/>
<path d="M210.485 71.3779L201.765 84.382L209.695 78.8803L210.485 71.3779Z" fill="white"/>
<path d="M216.206 81.3311L223.278 69.4663L211.726 70.5166L217.836 73.2397L216.206 81.3311Z" fill="white"/>
<path d="M210.485 71.3779L209.695 78.8803L214.97 82.1869L216.6 74.0954L210.485 71.3779Z" fill="white"/>
<path d="M275.348 106.404C279.811 103.585 282.058 99.1369 280.368 96.4677C278.677 93.7985 273.69 93.9194 269.227 96.7377C264.765 99.5561 262.518 104.005 264.208 106.674C265.898 109.343 270.886 109.222 275.348 106.404Z" fill="white"/>
<path d="M278.151 97.1648C277.205 96.0978 274.985 96.209 272.57 97.276C271.613 97.6983 270.622 98.2707 269.671 98.9765C266.31 101.466 264.651 104.695 265.97 106.19C266.438 106.718 267.211 106.957 268.168 106.935C269.921 106.896 272.275 105.99 274.451 104.378C277.817 101.889 279.47 98.6542 278.151 97.1648Z" fill="url(#paint18_linear_866_10951)"/>
<path d="M279.859 95.8192C277.7 93.3851 272.441 94.0075 268.112 97.2196C266.487 98.42 265.224 99.8204 264.395 101.221" stroke="black" stroke-width="0.706033" stroke-miterlimit="10" stroke-linecap="round"/>
<path d="M263.706 102.615C262.994 104.465 263.088 106.216 264.168 107.433C266.327 109.867 271.585 109.245 275.915 106.038" stroke="black" stroke-width="0.706033" stroke-miterlimit="10" stroke-linecap="round"/>
<path d="M270.333 97.3745C269.894 97.6357 269.454 97.9247 269.02 98.2414C268.897 98.3304 268.775 98.4248 268.658 98.5138" stroke="black" stroke-width="0.706033" stroke-miterlimit="10" stroke-linecap="round"/>
<path d="M276.46 95.8752C275.97 95.7696 275.414 95.7419 274.813 95.803" stroke="black" stroke-width="0.706033" stroke-miterlimit="10" stroke-linecap="round"/>
<path d="M268.657 98.5201C265.468 101.038 264.055 104.294 265.496 105.928C266.993 107.623 271 106.928 274.444 104.377C277.888 101.827 279.463 98.3867 277.961 96.6973" stroke="black" stroke-width="0.706033" stroke-miterlimit="10" stroke-linecap="round"/>
<path d="M277.417 104.778C276.96 105.217 276.454 105.639 275.914 106.039C271.58 109.246 266.321 109.874 264.167 107.434L265.525 109.012C267.684 111.446 272.943 110.824 277.272 107.617C281.607 104.411 283.371 99.8317 281.212 97.3976L279.854 95.8193C281.473 97.6477 280.883 100.676 278.658 103.433" fill="url(#paint19_linear_866_10951)"/>
<path d="M277.417 104.778C276.96 105.217 276.454 105.639 275.914 106.039C271.58 109.246 266.321 109.874 264.167 107.434L265.525 109.012C267.684 111.446 272.943 110.824 277.272 107.617C281.607 104.411 283.371 99.8317 281.212 97.3976L279.854 95.8193C281.473 97.6477 280.883 100.676 278.658 103.433" stroke="black" stroke-width="0.706033" stroke-miterlimit="10" stroke-linecap="round"/>
<path d="M267.204 103.976L271.739 103.221L269.925 102.087L267.204 103.976Z" fill="white"/>
<path d="M270.198 99.5088L267.204 103.977L269.925 102.087L270.198 99.5088Z" fill="white"/>
<path d="M272.162 102.926L274.589 98.8584L270.621 99.2141L272.725 100.153L272.162 102.926Z" fill="white"/>
<path d="M270.197 99.5088L269.925 102.087L271.739 103.221L272.295 100.448L270.197 99.5088Z" fill="white"/>
<path d="M156.181 172.126C155.697 169.559 155.719 166.847 156.326 164.135L169.786 104.005" stroke="url(#paint20_linear_866_10951)" stroke-width="0.706033" stroke-miterlimit="10" stroke-linecap="round"/>
<path d="M250.49 56.1508C250.49 56.1508 248.559 39.1177 254.029 37.5116C259.499 35.9056 261.753 42.6521 260.467 46.1921C260.467 46.1921 266.905 44.5861 266.905 50.6935C266.905 56.801 250.49 56.1563 250.49 56.1563V56.1508Z" fill="url(#paint21_linear_866_10951)"/>
<path d="M175.583 70.2888C175.553 71.7327 175.378 73.1903 175.041 74.6503L155.573 159.25C153.11 169.959 143.01 176.523 133.023 173.916L133.018 173.915C123.032 171.302 116.931 160.508 119.394 149.8L138.861 65.2002C138.993 64.6173 139.15 64.0516 139.328 63.4919C140.018 61.342 141.021 59.3882 142.275 57.6736C146.657 51.6671 154.061 48.6225 161.411 50.5405C165.984 51.7326 169.742 54.6425 172.236 58.4748C174.049 61.2502 175.19 64.5139 175.5 67.9614C175.573 68.7269 175.599 69.5083 175.583 70.2888Z" fill="white"/>
</g>
<defs>
<linearGradient id="paint0_linear_866_10951" x1="184.984" y1="107.687" x2="235.501" y2="62.9198" gradientUnits="userSpaceOnUse">
<stop stop-color="#0046FE"/>
<stop offset="1" stop-color="#00BDFF"/>
</linearGradient>
<linearGradient id="paint1_linear_866_10951" x1="245.047" y1="86.4229" x2="225.731" y2="87.2989" gradientUnits="userSpaceOnUse">
<stop stop-color="#0046FE"/>
<stop offset="1" stop-color="#00BDFF"/>
</linearGradient>
<linearGradient id="paint2_linear_866_10951" x1="250.437" y1="114.651" x2="296.933" y2="90.7871" gradientUnits="userSpaceOnUse">
<stop stop-color="#0046FE"/>
<stop offset="1" stop-color="#00BDFF"/>
</linearGradient>
<linearGradient id="paint3_linear_866_10951" x1="192.31" y1="153.958" x2="229.722" y2="108.531" gradientUnits="userSpaceOnUse">
<stop stop-color="#0046FE"/>
<stop offset="1" stop-color="#00BDFF"/>
</linearGradient>
<linearGradient id="paint4_linear_866_10951" x1="47.1889" y1="78.3589" x2="76.0609" y2="71.2535" gradientUnits="userSpaceOnUse">
<stop stop-color="#2D69FD"/>
<stop offset="1" stop-color="#00F2A5"/>
</linearGradient>
<linearGradient id="paint5_linear_866_10951" x1="44.1234" y1="89.6289" x2="82.2012" y2="80.7605" gradientUnits="userSpaceOnUse">
<stop stop-color="#2D69FD"/>
<stop offset="1" stop-color="#00F2A5"/>
</linearGradient>
<linearGradient id="paint6_linear_866_10951" x1="69.0493" y1="170.671" x2="109.824" y2="126.423" gradientUnits="userSpaceOnUse">
<stop stop-color="#0046FE"/>
<stop offset="1" stop-color="#00BDFF"/>
</linearGradient>
<linearGradient id="paint7_linear_866_10951" x1="116.896" y1="73.6327" x2="43.653" y2="83.4286" gradientUnits="userSpaceOnUse">
<stop stop-color="#0046FE"/>
<stop offset="1" stop-color="#00BDFF"/>
</linearGradient>
<linearGradient id="paint8_linear_866_10951" x1="117.2" y1="92.7442" x2="149.886" y2="79.4832" gradientUnits="userSpaceOnUse">
<stop stop-color="#0046FE"/>
<stop offset="1" stop-color="#00BDFF"/>
</linearGradient>
<linearGradient id="paint9_linear_866_10951" x1="14.8727" y1="94.8489" x2="62.0022" y2="43.9155" gradientUnits="userSpaceOnUse">
<stop stop-color="#0046FE"/>
<stop offset="1" stop-color="#00BDFF"/>
</linearGradient>
<linearGradient id="paint10_linear_866_10951" x1="132.704" y1="193.328" x2="195.315" y2="183.741" gradientUnits="userSpaceOnUse">
<stop stop-color="#2D69FD"/>
<stop offset="1" stop-color="#00F2A5"/>
</linearGradient>
<linearGradient id="paint11_linear_866_10951" x1="100.135" y1="232.19" x2="212.569" y2="211.711" gradientUnits="userSpaceOnUse">
<stop stop-color="#2D69FD"/>
<stop offset="1" stop-color="#00F2A5"/>
</linearGradient>
<linearGradient id="paint12_linear_866_10951" x1="82.5979" y1="177.735" x2="165.245" y2="162.397" gradientUnits="userSpaceOnUse">
<stop stop-color="#2D69FD"/>
<stop offset="1" stop-color="#00F2A5"/>
</linearGradient>
<linearGradient id="paint13_linear_866_10951" x1="66.9726" y1="212.358" x2="179.407" y2="191.878" gradientUnits="userSpaceOnUse">
<stop stop-color="#2D69FD"/>
<stop offset="1" stop-color="#00F2A5"/>
</linearGradient>
<linearGradient id="paint14_linear_866_10951" x1="242.194" y1="139.84" x2="269.565" y2="134.763" gradientUnits="userSpaceOnUse">
<stop stop-color="#2D69FD"/>
<stop offset="1" stop-color="#00F2A5"/>
</linearGradient>
<linearGradient id="paint15_linear_866_10951" x1="237.016" y1="151.302" x2="274.267" y2="144.515" gradientUnits="userSpaceOnUse">
<stop stop-color="#2D69FD"/>
<stop offset="1" stop-color="#00F2A5"/>
</linearGradient>
<linearGradient id="paint16_linear_866_10951" x1="198.369" y1="77.6797" x2="234.951" y2="77.6797" gradientUnits="userSpaceOnUse">
<stop stop-color="#7B61FF"/>
<stop offset="1" stop-color="#F3A6EB"/>
</linearGradient>
<linearGradient id="paint17_linear_866_10951" x1="195.036" y1="81.9926" x2="245.243" y2="81.9926" gradientUnits="userSpaceOnUse">
<stop stop-color="#7B61FF"/>
<stop offset="1" stop-color="#F3A6EB"/>
</linearGradient>
<linearGradient id="paint18_linear_866_10951" x1="266.045" y1="101.677" x2="278.605" y2="101.677" gradientUnits="userSpaceOnUse">
<stop stop-color="#7B61FF"/>
<stop offset="1" stop-color="#F3A6EB"/>
</linearGradient>
<linearGradient id="paint19_linear_866_10951" x1="264.892" y1="103.158" x2="282.133" y2="103.158" gradientUnits="userSpaceOnUse">
<stop stop-color="#7B61FF"/>
<stop offset="1" stop-color="#F3A6EB"/>
</linearGradient>
<linearGradient id="paint20_linear_866_10951" x1="158.673" y1="242.86" x2="178.071" y2="241.835" gradientUnits="userSpaceOnUse">
<stop stop-color="#0046FE"/>
<stop offset="1" stop-color="#00BDFF"/>
</linearGradient>
<linearGradient id="paint21_linear_866_10951" x1="253.559" y1="75.8084" x2="275.759" y2="70.7334" gradientUnits="userSpaceOnUse">
<stop stop-color="#0046FE"/>
<stop offset="1" stop-color="#00BDFF"/>
</linearGradient>
<clipPath id="clip0_866_10951">
<rect width="284" height="188.642" fill="white"/>
</clipPath>
</defs>
</svg>
