<svg width="25" height="24" viewBox="0 0 25 24" fill="none" xmlns="http://www.w3.org/2000/svg">
<path d="M5.91666 7.65H20.9167C21.0758 7.65 21.2284 7.71321 21.3409 7.82574C21.4534 7.93826 21.5167 8.09087 21.5167 8.25V18.75C21.5167 18.9091 21.4534 19.0617 21.3409 19.1743C21.2284 19.2868 21.0758 19.35 20.9167 19.35H5.91877C5.56078 19.3481 5.21796 19.205 4.96479 18.9519C4.71162 18.6987 4.56857 18.3559 4.56666 17.9979V6.9487C4.62099 7.02601 4.68221 7.09901 4.74993 7.16673C5.05937 7.47616 5.47905 7.65 5.91666 7.65ZM4.56667 6C4.56913 5.64277 4.71211 5.30081 4.96479 5.04813C5.21746 4.79546 5.55943 4.65247 5.91666 4.65001L5.91876 4.65C5.9193 4.65 5.91984 4.64999 5.92038 4.64999L4.56667 6ZM15.4166 15.1837C15.7496 15.4062 16.1411 15.525 16.5417 15.525C17.0787 15.525 17.5938 15.3116 17.9735 14.9319C18.3533 14.5521 18.5667 14.0371 18.5667 13.5C18.5667 13.0995 18.4479 12.708 18.2254 12.375C18.0029 12.042 17.6866 11.7824 17.3166 11.6291C16.9466 11.4759 16.5394 11.4358 16.1466 11.5139C15.7538 11.592 15.393 11.7849 15.1098 12.0681C14.8266 12.3513 14.6337 12.7121 14.5556 13.1049C14.4774 13.4978 14.5175 13.9049 14.6708 14.2749C14.8241 14.645 15.0836 14.9612 15.4166 15.1837Z" stroke="black" stroke-width="1.8"/>
</svg>
