<svg width="24" height="24" viewBox="0 0 24 24" fill="none" xmlns="http://www.w3.org/2000/svg">
<path d="M19.6196 8.91589L19.6209 8.91696C19.9247 9.17232 20.1 9.54879 20.1 9.94801V19.75C20.1 19.9754 20.0104 20.1916 19.851 20.3511C19.6916 20.5105 19.4754 20.6 19.25 20.6H16.25C16.0246 20.6 15.8084 20.5105 15.649 20.3511C15.4896 20.1916 15.4 19.9754 15.4 19.75V14.75C15.4 14.3124 15.2262 13.8927 14.9167 13.5833C14.6073 13.2739 14.1876 13.1 13.75 13.1H10.25C9.81239 13.1 9.39271 13.2739 9.08327 13.5833C8.77384 13.8927 8.6 14.3124 8.6 14.75V19.75C8.6 19.9754 8.51045 20.1916 8.35104 20.3511C8.19163 20.5105 7.97543 20.6 7.75 20.6H4.75C4.63838 20.6 4.52785 20.578 4.42472 20.5353C4.32159 20.4926 4.22789 20.43 4.14896 20.3511C4.07003 20.2721 4.00742 20.1784 3.9647 20.0753C3.92199 19.9722 3.9 19.8616 3.9 19.75V9.94701C3.9 9.54919 4.07503 9.17214 4.37989 8.91529L4.38031 8.91494L11.13 3.2212C11.1301 3.22111 11.1302 3.22103 11.1303 3.22094C11.3737 3.01592 11.6817 2.90348 12 2.90348C12.3184 2.90348 12.6265 3.01601 12.87 3.2212L19.6196 8.91589Z" stroke="black" stroke-width="1.8"/>
</svg>
