<svg width="84" height="30" viewBox="0 0 84 30" fill="none" xmlns="http://www.w3.org/2000/svg">
<g clip-path="url(#clip0_925_9808)">
<path d="M65.3423 22.8162C63.9509 24.1781 62.2567 24.8641 60.2498 24.8641C58.2432 24.8641 56.549 24.1781 55.1673 22.8162C53.7859 21.4541 53.09 19.7839 53.09 17.8056C53.09 15.8272 53.7859 14.157 55.1673 12.795C56.549 11.433 58.2432 10.7471 60.2498 10.7471C62.2567 10.7471 63.9509 11.433 65.3423 12.795C66.734 14.157 67.4298 15.8272 67.4298 17.8056C67.4298 19.7839 66.734 21.4541 65.3423 22.8162ZM57.6279 20.45C58.3238 21.146 59.1911 21.4939 60.2398 21.4939C61.2886 21.4939 62.1659 21.146 62.8717 20.45C63.5777 19.7541 63.9307 18.8693 63.9307 17.8056C63.9307 16.7418 63.5777 15.857 62.8717 15.1611C62.1659 14.4652 61.2886 14.1173 60.2398 14.1173C59.1911 14.1173 58.3238 14.4652 57.6279 15.1611C56.9321 15.857 56.5892 16.7418 56.5892 17.8056C56.5892 18.8693 56.9321 19.7641 57.6279 20.45Z" fill="#070707"/>
<path d="M69.8906 24.4869V4.98145H73.3898V24.4869H69.8906Z" fill="#070707"/>
<path d="M47.1002 4.98145V11.7119C46.011 11.0756 44.7908 10.7575 43.4094 10.7575C41.4027 10.7575 39.7085 11.4435 38.3269 12.8055C36.9454 14.1675 36.2496 15.8377 36.2496 17.816C36.2496 19.7944 36.9454 21.4646 38.3269 22.8267C39.7085 24.1885 41.4027 24.8746 43.4094 24.8746C45.416 24.8746 47.1102 24.1885 48.5019 22.8267C49.8935 21.4646 50.5894 19.7944 50.5894 17.816V4.98145H47.1002ZM46.0414 20.4505C45.3354 21.1465 44.4581 21.4944 43.4094 21.4944C42.3606 21.4944 41.4933 21.1465 40.7975 20.4505C40.1017 19.7546 39.7589 18.8698 39.7589 17.8061C39.7589 16.7324 40.1017 15.8575 40.7975 15.1616C41.4933 14.4657 42.3606 14.1178 43.4094 14.1178C44.4581 14.1178 45.3354 14.4657 46.0414 15.1616C46.7473 15.8575 47.1002 16.7423 47.1002 17.8061C47.1002 18.8798 46.7473 19.7646 46.0414 20.4505Z" fill="#070707"/>
<path d="M83.8875 8.71959C81.9715 8.5804 81.0135 9.33596 81.0135 10.9863V11.1155H83.8875V14.426H81.0135V24.477H77.5142V14.4459H75.5579V11.1354H77.5142V11.0061C77.5142 9.11725 78.0488 7.68567 79.1177 6.70144C80.1865 5.71723 81.7698 5.28975 83.8875 5.41898V8.71959Z" fill="#070707"/>
<path d="M29.4429 9.80267C26.5487 10.3097 23.6748 11.0652 20.9116 12.0594C19.0864 12.7155 17.2914 13.481 15.567 14.346C16.4544 13.4015 17.4729 12.5664 18.5721 11.8805C18.8242 11.7214 18.9654 11.453 18.9553 11.1647C18.9452 10.8863 18.7839 10.6378 18.5419 10.5085C16.1317 9.24594 13.3989 8.64944 10.656 8.78863C8.56858 8.89798 6.5719 9.41494 4.71642 10.3196C4.44413 10.4588 4.27271 10.7073 4.26263 11.0056C4.25254 11.3038 4.41388 11.5723 4.67606 11.7214C7.05594 13.0436 9.03246 14.9723 10.3837 17.3085C7.68117 19.0782 5.13994 21.1162 2.82058 23.3829C1.22727 21.1162 0.309605 18.4618 0.158341 15.698C0.128088 15.0419 0.12809 14.3957 0.178511 13.7694C0.269269 12.5764 0.511288 11.3834 0.894488 10.2401C2.871 4.37457 8.18538 0.378052 14.4477 0.0599222C14.72 0.0499807 14.9922 0.0400391 15.2645 0.0400391C18.1385 0.0400391 20.8612 0.825422 23.1906 2.24707C23.5133 2.43596 23.826 2.64473 24.1285 2.86344C24.2091 2.92309 24.2798 2.9728 24.3604 3.03244C24.431 3.09211 24.5116 3.14182 24.5823 3.20146C26.7504 4.86169 28.4446 7.11844 29.4429 9.80267Z" fill="white"/>
<path d="M26.2361 20.5798C21.3754 20.9575 16.7266 22.0115 12.3702 23.6319C12.0878 23.7412 11.7954 23.8506 11.513 23.96C9.56677 24.7254 7.68102 25.6102 5.85577 26.6044C7.53984 27.9167 9.50627 28.881 11.6441 29.3979C11.8962 29.4577 12.1483 29.5173 12.4105 29.5669C13.5803 29.7856 14.8005 29.8752 16.0408 29.8056C20.2258 29.5869 23.9267 27.7079 26.5184 24.8546C27.6981 23.5623 28.6361 22.061 29.3015 20.4307C28.7267 20.4406 28.1419 20.4605 27.5671 20.4903C27.1336 20.5201 26.6898 20.55 26.2361 20.5798Z" fill="url(#paint0_linear_925_9808)"/>
<path d="M4.70634 11.7117C4.15172 11.4035 4.17189 10.6281 4.73659 10.3497C6.53159 9.47485 8.53834 8.92806 10.6661 8.81871C13.4998 8.66958 16.2023 9.30583 18.5419 10.5286C19.0663 10.807 19.0764 11.5427 18.5721 11.8509C17.4226 12.5667 16.3738 13.4316 15.4662 14.4257C17.2309 13.541 19.0562 12.7556 20.9319 12.0795C23.6748 11.0854 26.5387 10.3298 29.4833 9.81285C27.2748 3.80815 21.2748 -0.327548 14.4779 0.0204079C8.07447 0.348479 2.81051 4.56371 0.904596 10.2205C0.521396 11.3439 0.279371 12.5369 0.188614 13.7597C0.138193 14.3959 0.128107 15.0421 0.168444 15.6983C0.319707 18.5714 1.2878 21.2158 2.85084 23.4229C5.17022 21.1562 7.71145 19.1082 10.4443 17.3187C9.0728 14.9725 7.07614 13.0339 4.70634 11.7117Z" fill="url(#paint1_linear_925_9808)"/>
<g opacity="0.2">
<path d="M29.4727 9.82263C28.7467 9.95186 28.0206 10.091 27.3046 10.2501C24.9752 4.47407 19.1062 0.537194 12.4607 0.875207C11.0187 0.95474 9.62705 1.22316 8.32617 1.67053C10.1716 0.726084 12.259 0.149472 14.4675 0.0301735C21.2744 -0.317783 27.2644 3.81792 29.4727 9.82263Z" fill="white"/>
</g>
<path d="M25.248 17.5866C20.5992 18.3124 16.1823 19.6545 12.0679 21.5234C11.9671 21.5632 11.8763 21.613 11.7755 21.6528C9.30484 22.7959 6.95522 24.1282 4.73669 25.6295C5.09972 25.9774 5.47284 26.2955 5.86611 26.6036C7.68128 25.6095 9.56703 24.7247 11.5234 23.9593C11.8057 23.8499 12.0881 23.7405 12.3805 23.6311C16.7369 22.0107 21.3857 20.9568 26.2463 20.5791C26.69 20.5393 27.1338 20.5095 27.5875 20.4896C28.1723 20.4598 28.7471 20.4399 29.3219 20.4299C29.7557 19.3562 30.0682 18.2229 30.2396 17.0498C28.5455 17.1592 26.8817 17.3282 25.248 17.5866Z" fill="url(#paint2_linear_925_9808)"/>
</g>
<defs>
<linearGradient id="paint0_linear_925_9808" x1="7.65117" y1="38.1872" x2="32.3373" y2="30.0691" gradientUnits="userSpaceOnUse">
<stop stop-color="#2D69FD"/>
<stop offset="1" stop-color="#00F2A5"/>
</linearGradient>
<linearGradient id="paint1_linear_925_9808" x1="2.39029" y1="44.2548" x2="35.7146" y2="38.7523" gradientUnits="userSpaceOnUse">
<stop stop-color="#2D69FD"/>
<stop offset="1" stop-color="#00F2A5"/>
</linearGradient>
<linearGradient id="paint2_linear_925_9808" x1="6.68962" y1="35.1006" x2="33.1674" y2="25.7837" gradientUnits="userSpaceOnUse">
<stop stop-color="#2D69FD"/>
<stop offset="1" stop-color="#00F2A5"/>
</linearGradient>
<clipPath id="clip0_925_9808">
<rect width="83.9583" height="30" fill="white"/>
</clipPath>
</defs>
</svg>
