<svg width="281" height="281" viewBox="0 0 281 281" fill="none" xmlns="http://www.w3.org/2000/svg">
<circle opacity="0.2" cx="140.5" cy="140.5" r="140.5" fill="#CEDCFF"/>
<circle opacity="0.5" cx="141" cy="141" r="107" fill="#CEDCFF"/>
<circle cx="141" cy="141" r="74" fill="#CEDCFF"/>
<path d="M154.576 151.73C154.933 152.077 155.218 152.491 155.416 152.948C155.613 153.406 155.72 153.899 155.728 154.398C155.737 154.898 155.648 155.394 155.467 155.859C155.285 156.323 155.014 156.747 154.67 157.106C154.32 157.47 153.902 157.761 153.44 157.962C152.978 158.163 152.481 158.269 151.978 158.276C150.999 158.262 150.061 157.879 149.349 157.201C147.096 155.032 144.103 153.822 140.99 153.822C137.878 153.822 134.885 155.032 132.632 157.201C132.277 157.547 131.857 157.82 131.397 158.003C130.937 158.186 130.446 158.275 129.952 158.267C129.458 158.258 128.97 158.151 128.517 157.952C128.064 157.752 127.654 157.465 127.311 157.106C126.967 156.747 126.698 156.323 126.516 155.858C126.335 155.394 126.247 154.898 126.255 154.398C126.264 153.899 126.37 153.407 126.567 152.949C126.764 152.491 127.049 152.077 127.405 151.73C131.063 148.197 135.929 146.225 140.99 146.225C146.052 146.225 150.918 148.197 154.576 151.73ZM140.99 131.051C131.924 131.017 123.213 134.609 116.761 141.043C116.408 141.388 116.126 141.801 115.931 142.257C115.737 142.714 115.633 143.205 115.628 143.701C115.622 144.198 115.713 144.691 115.897 145.152C116.081 145.613 116.353 146.033 116.699 146.387C117.043 146.744 117.455 147.03 117.909 147.227C118.364 147.424 118.852 147.528 119.346 147.534C119.841 147.54 120.332 147.447 120.79 147.261C121.249 147.075 121.667 146.799 122.02 146.45C127.091 141.444 133.9 138.641 140.99 138.641C148.081 138.641 154.89 141.444 159.961 146.45C160.663 147.144 161.608 147.531 162.59 147.525C163.091 147.524 163.587 147.423 164.049 147.228C164.511 147.033 164.93 146.747 165.282 146.387C165.628 146.033 165.9 145.613 166.084 145.152C166.268 144.691 166.359 144.198 166.353 143.701C166.348 143.205 166.244 142.714 166.05 142.257C165.855 141.801 165.573 141.388 165.22 141.043C158.768 134.609 150.057 131.017 140.99 131.051ZM175.863 130.292C166.56 121.053 154.036 115.876 140.99 115.876C127.945 115.876 115.421 121.053 106.118 130.292C105.408 131 105.006 131.965 105 132.973C104.994 133.981 105.385 134.95 106.087 135.667C106.788 136.384 107.743 136.79 108.741 136.796C109.739 136.802 110.698 136.407 111.408 135.699C119.296 127.855 129.921 123.458 140.99 123.458C152.06 123.458 162.685 127.855 170.573 135.699C171.271 136.402 172.216 136.8 173.202 136.806C173.953 136.814 174.689 136.595 175.315 136.176C175.942 135.758 176.43 135.16 176.716 134.459C177.002 133.757 177.074 132.986 176.922 132.243C176.77 131.5 176.401 130.821 175.863 130.292ZM140.99 160.141C140 160.141 139.032 160.438 138.208 160.994C137.384 161.55 136.742 162.34 136.363 163.265C135.984 164.189 135.885 165.206 136.078 166.188C136.271 167.169 136.748 168.071 137.449 168.778C138.149 169.486 139.042 169.967 140.013 170.163C140.985 170.358 141.992 170.258 142.907 169.875C143.822 169.492 144.605 168.843 145.155 168.011C145.705 167.179 145.999 166.201 145.999 165.201C145.999 163.859 145.471 162.572 144.532 161.623C143.593 160.674 142.319 160.141 140.99 160.141Z" fill="white"/>
<line x1="4.90913" y1="-4.90913" x2="63.9427" y2="-4.90913" transform="matrix(0.529913 -0.848052 0.848044 0.529925 126.588 169.583)" stroke="#CEDCFF" stroke-width="9.81826" stroke-linecap="round"/>
<line x1="3.27275" y1="-3.27275" x2="70.6936" y2="-3.27275" transform="matrix(0.529913 -0.848052 0.848044 0.529925 126.382 171.752)" stroke="#4E7EFF" stroke-width="6.54551" stroke-linecap="round"/>
</svg>
