<svg width="281" height="281" viewBox="0 0 281 281" fill="none" xmlns="http://www.w3.org/2000/svg">
<circle opacity="0.2" cx="140.5" cy="140.5" r="140.5" fill="#CEDCFF"/>
<circle opacity="0.5" cx="141" cy="141" r="107" fill="#CEDCFF"/>
<circle cx="141" cy="141" r="74" fill="#CEDCFF"/>
<path d="M173.004 119.795H114.483C113.707 119.795 112.963 119.482 112.414 118.923C111.865 118.365 111.557 117.608 111.557 116.818C111.557 116.028 111.865 115.271 112.414 114.713C112.963 114.154 113.707 113.841 114.483 113.841H164.226C165.002 113.841 165.746 113.527 166.295 112.969C166.844 112.41 167.152 111.653 167.152 110.863C167.152 110.074 166.844 109.316 166.295 108.758C165.746 108.2 165.002 107.886 164.226 107.886H114.483C112.158 107.896 109.931 108.84 108.287 110.513C106.643 112.186 105.715 114.452 105.705 116.818V164.456C105.715 166.822 106.643 169.088 108.287 170.761C109.931 172.434 112.158 173.379 114.483 173.388H173.004C174.556 173.388 176.045 172.761 177.142 171.644C178.24 170.528 178.856 169.013 178.856 167.434V125.75C178.856 124.171 178.24 122.656 177.142 121.54C176.045 120.423 174.556 119.795 173.004 119.795ZM159.837 151.058C158.969 151.058 158.12 150.796 157.399 150.305C156.677 149.815 156.114 149.117 155.782 148.301C155.45 147.485 155.363 146.587 155.532 145.721C155.702 144.854 156.12 144.059 156.733 143.434C157.347 142.809 158.129 142.384 158.981 142.212C159.832 142.039 160.715 142.128 161.517 142.466C162.319 142.804 163.004 143.376 163.486 144.111C163.969 144.845 164.226 145.709 164.226 146.592C164.226 147.776 163.764 148.912 162.94 149.75C162.117 150.587 161.001 151.058 159.837 151.058Z" fill="white"/>
<rect x="162.5" y="153.5" width="29" height="29" rx="14.5" fill="white"/>
<path d="M176.996 173H177.01" stroke="#CEDCFF" stroke-width="2.5" stroke-linecap="round" stroke-linejoin="round"/>
<path d="M176.996 162V167.5" stroke="#CEDCFF" stroke-width="2.5" stroke-linecap="round" stroke-linejoin="round"/>
<rect x="162.5" y="153.5" width="29" height="29" rx="14.5" stroke="#CEDCFF" stroke-width="3"/>
</svg>
