<svg width="274" height="232" viewBox="0 0 274 232" fill="none" xmlns="http://www.w3.org/2000/svg">
<path d="M135.843 95.719L135.405 95.6968C125.268 95.1814 114.875 102.704 112.192 112.499C109.509 122.295 115.552 130.653 125.689 131.168L126.127 131.19C136.264 131.706 146.657 124.183 149.34 114.388C152.023 104.593 145.98 96.2344 135.843 95.719Z" fill="white" stroke="#231F1E" stroke-width="0.737175"/>
<path d="M134.54 94.9365L134.102 94.9143C124.371 94.4196 114.395 101.641 111.819 111.043L111.819 111.043C109.244 120.446 115.045 128.469 124.775 128.963L125.213 128.986C134.944 129.48 144.92 122.259 147.496 112.857L147.496 112.857C150.071 103.454 144.271 95.4312 134.54 94.9365Z" fill="url(#paint0_linear_925_9900)" stroke="#231F1E" stroke-width="0.737175"/>
<path d="M132.402 106.993L129.375 118.044C129.348 118.142 129.457 118.198 129.549 118.132L135.307 113.964" stroke="white" stroke-width="1.14089" stroke-linecap="round"/>
<path d="M127.094 118.199L130.121 107.148C130.148 107.05 130.037 106.994 129.947 107.06L124.188 111.228" stroke="white" stroke-width="1.14089" stroke-linecap="round"/>
<path d="M229.09 148.044L38.6999 142.743C25.5275 142.376 12.3118 152.456 9.18199 165.256C6.05215 178.057 14.1933 188.731 27.3658 189.098L217.756 194.399C230.928 194.766 244.144 184.686 247.274 171.886C250.404 159.085 242.263 148.411 229.09 148.044Z" fill="url(#paint1_linear_925_9900)" stroke="#231F1E" stroke-width="0.736874"/>
<path d="M226.802 145.113L36.412 139.812C23.6464 139.456 10.8389 149.224 7.80574 161.629C4.77256 174.035 12.6623 184.379 25.4279 184.734L215.818 190.035C228.583 190.391 241.391 180.623 244.424 168.218C247.457 155.812 239.567 145.468 226.802 145.113Z" fill="#F6F9FC" stroke="#231F1E" stroke-width="0.736874"/>
<mask id="mask0_925_9900" style="mask-type:luminance" maskUnits="userSpaceOnUse" x="14" y="149" width="34" height="27">
<path d="M47.3934 149.847L20.8762 149.108L14.5756 174.877L41.0928 175.615L47.3934 149.847Z" fill="white"/>
</mask>
<g mask="url(#mask0_925_9900)">
<path d="M34.1359 149.477C41.4591 149.681 45.984 155.616 44.2442 162.73C42.5042 169.846 35.1584 175.45 27.8353 175.246C20.5133 175.041 15.9871 169.108 17.727 161.992C19.4667 154.876 26.8139 149.273 34.1359 149.477Z" fill="#F5AC37"/>
<path d="M31.2523 163.284L36.2904 163.425C36.3978 163.428 36.4485 163.429 36.4897 163.292C36.6526 162.796 36.7752 162.294 36.856 161.795C36.8795 161.698 36.8399 161.657 36.7319 161.654L26.7053 161.375C26.5812 161.371 26.5381 161.411 26.5103 161.523L26.1599 162.956C26.1146 163.141 26.1146 163.141 26.3134 163.147L31.2523 163.284ZM36.7363 159.968C36.7595 159.931 36.7694 159.892 36.7638 159.855C36.7232 159.675 36.665 159.501 36.5883 159.339C36.4807 159.061 36.3368 158.805 36.1582 158.573C36.0811 158.434 35.9834 158.308 35.8655 158.201C35.2933 157.587 34.5434 157.143 33.6786 156.908C33.2408 156.793 32.78 156.731 32.3053 156.722L27.8555 156.599C27.7315 156.596 27.703 156.643 27.6774 156.748L26.9785 159.607C26.9489 159.727 26.9409 159.76 27.0985 159.764L36.6609 160.03C36.6609 160.03 36.7478 160.016 36.7762 159.969L36.7363 159.968ZM35.4841 165.088C35.3469 165.069 35.205 165.066 35.0604 165.077L25.871 164.821C25.7468 164.817 25.7051 164.817 25.6657 164.978L24.9824 167.772C24.9509 167.902 24.943 167.933 25.1089 167.938L29.3516 168.056C29.5508 168.076 29.757 168.069 29.9658 168.033C30.592 168.007 31.2293 167.894 31.8592 167.696C32.0865 167.632 32.3119 167.545 32.5305 167.44L32.5884 167.441C33.7058 166.966 34.7069 166.199 35.4534 165.244C35.4534 165.244 35.541 165.124 35.4837 165.09L35.4841 165.088ZM22.9235 169.335L22.9352 169.288L23.394 167.412L23.5496 166.776L24.0123 164.883C24.0379 164.778 24.0417 164.763 23.9092 164.759L22.111 164.709C22.0114 164.706 21.9702 164.706 22.0016 164.576L22.3757 163.046L24.2982 163.099C24.4056 163.103 24.4473 163.104 24.4807 162.967L24.8509 161.454C24.8746 161.356 24.8805 161.332 24.748 161.328L22.9497 161.279C22.85 161.276 22.8089 161.275 22.8404 161.146L23.1869 159.73C23.2085 159.641 23.2144 159.617 23.3467 159.621L25.1283 159.67C25.2524 159.674 25.2859 159.674 25.3233 159.522L26.3845 155.181C26.416 155.053 26.424 155.02 26.5898 155.025L32.8045 155.197C33.2512 155.228 33.6876 155.287 34.1114 155.38C34.9848 155.569 35.785 155.911 36.4767 156.386C36.9344 156.705 37.3344 157.086 37.6671 157.522C37.9143 157.862 38.1226 158.229 38.2918 158.618C38.458 159.011 38.5735 159.43 38.6379 159.868C38.6313 159.981 38.7238 160.059 38.8442 160.044L40.3275 160.085C40.5178 160.091 40.5178 160.091 40.4828 160.268L40.1597 161.588C40.1283 161.717 40.0709 161.748 39.9378 161.745L38.794 161.712C38.6782 161.71 38.6449 161.709 38.6178 161.854C38.5432 162.346 38.4228 162.838 38.2576 163.327C38.2241 163.464 38.2201 163.481 38.3783 163.485L39.6866 163.521C39.7268 163.595 39.6512 163.666 39.6334 163.739C39.6189 163.833 39.5958 163.927 39.5647 164.021L39.3263 164.995C39.2929 165.131 39.2418 165.171 39.117 165.168L37.5508 165.124C37.4466 165.101 37.3239 165.166 37.2731 165.271C36.6697 166.203 35.8665 167.031 34.9301 167.686C34.5882 167.924 34.2356 168.149 33.8742 168.354C33.4972 168.53 33.1271 168.714 32.7496 168.857C32.0569 169.114 31.3512 169.297 30.6462 169.406C29.9794 169.5 29.3185 169.533 28.6698 169.507L22.9187 169.346L22.9206 169.338L22.9235 169.335Z" fill="#FEFEFD"/>
</g>
<path d="M52.3074 163.569L54.3439 155.24L57.6251 155.332C58.2446 155.348 58.7361 155.458 59.0998 155.659C59.4671 155.858 59.7126 156.123 59.8369 156.453C59.9638 156.784 59.9768 157.156 59.8761 157.568C59.7931 157.908 59.6552 158.195 59.4624 158.432C59.2701 158.668 59.0428 158.857 58.7802 158.999C58.5178 159.142 58.2391 159.243 57.9442 159.3L57.9243 159.381C58.2244 159.406 58.4938 159.505 58.7324 159.677C58.9744 159.849 59.1482 160.086 59.2538 160.389C59.3596 160.692 59.3606 161.055 59.2573 161.478C59.1518 161.909 58.9496 162.294 58.6505 162.633C58.3522 162.967 57.9626 163.228 57.4818 163.415C57.0009 163.6 56.4326 163.684 55.7769 163.666L52.3074 163.569ZM54.1683 162.351L55.8382 162.398C56.4019 162.413 56.8333 162.321 57.1327 162.119C57.4355 161.914 57.6273 161.646 57.7082 161.315C57.7685 161.069 57.7602 160.845 57.683 160.643C57.6065 160.439 57.4664 160.277 57.2627 160.157C57.0596 160.034 56.7976 159.968 56.4767 159.959L54.765 159.912L54.1683 162.351ZM55.0305 158.825L56.5664 158.869C56.8343 158.876 57.0872 158.836 57.3253 158.746C57.564 158.654 57.7662 158.522 57.9322 158.35C58.1014 158.174 58.2159 157.965 58.2756 157.72C58.3545 157.398 58.3023 157.129 58.1189 156.914C57.9384 156.698 57.6193 156.584 57.1618 156.571L55.5924 156.528L55.0305 158.825ZM61.4037 156.71L61.713 155.446L68.5516 155.636L68.2423 156.901L65.593 156.826L63.8658 163.891L62.3256 163.848L64.0529 156.783L61.4037 156.71ZM76.1395 158.676L74.5742 158.633C74.5906 158.382 74.5623 158.159 74.4894 157.963C74.4171 157.764 74.3084 157.594 74.1629 157.454C74.0175 157.314 73.8387 157.207 73.6264 157.132C73.4178 157.056 73.1822 157.014 72.9199 157.006C72.454 156.994 72.0132 157.095 71.5976 157.313C71.1827 157.529 70.82 157.851 70.5095 158.282C70.1998 158.71 69.9683 159.237 69.8152 159.864C69.6594 160.501 69.6299 161.04 69.7269 161.483C69.8273 161.923 70.0289 162.259 70.3316 162.491C70.6379 162.72 71.0226 162.842 71.4858 162.854C71.7424 162.862 71.9904 162.835 72.2295 162.777C72.472 162.715 72.6986 162.622 72.9089 162.497C73.1221 162.371 73.3133 162.215 73.4824 162.029C73.6544 161.843 73.7939 161.628 73.901 161.386L75.4643 161.438C75.3089 161.831 75.0912 162.2 74.811 162.541C74.5336 162.884 74.2062 163.183 73.8288 163.44C73.452 163.694 73.036 163.89 72.581 164.027C72.1268 164.161 71.6443 164.222 71.1338 164.208C70.3803 164.187 69.7494 163.999 69.2407 163.643C68.7321 163.288 68.3859 162.786 68.2019 162.137C68.018 161.486 68.0354 160.714 68.2542 159.821C68.4736 158.923 68.8328 158.16 69.3318 157.532C69.8314 156.902 70.4184 156.426 71.0928 156.104C71.7671 155.782 72.4782 155.631 73.2259 155.651C73.703 155.665 74.1307 155.742 74.509 155.883C74.8875 156.025 75.2062 156.227 75.4654 156.488C75.7253 156.745 75.914 157.059 76.0316 157.428C76.1527 157.795 76.1887 158.211 76.1395 158.676Z" fill="black"/>
<path d="M51.4796 174.483C51.1113 174.473 50.797 174.393 50.5368 174.242C50.2765 174.091 50.0879 173.889 49.9706 173.637C49.8533 173.384 49.8252 173.098 49.886 172.78L50.6393 172.802C50.5995 173.084 50.6742 173.323 50.8633 173.514C51.055 173.703 51.3152 173.803 51.6436 173.812C51.9073 173.82 52.1563 173.766 52.3907 173.652C52.6273 173.537 52.8298 173.377 52.9981 173.171C53.1691 172.963 53.2872 172.726 53.3523 172.459C53.4189 172.187 53.4166 171.942 53.3454 171.725C53.2767 171.506 53.1508 171.332 52.9677 171.202C52.7846 171.071 52.5562 171.001 52.2826 170.993C52.0864 170.985 51.8772 171.009 51.6552 171.064C51.4336 171.117 51.2443 171.189 51.0876 171.278L50.3802 171.173L51.5212 168.108L54.861 168.202L54.6969 168.873L52.01 168.798L51.3336 170.634L51.3712 170.635C51.5279 170.537 51.7139 170.458 51.929 170.395C52.1443 170.335 52.3597 170.307 52.5752 170.313C52.9686 170.323 53.2967 170.425 53.5596 170.616C53.8251 170.806 54.0071 171.061 54.1058 171.38C54.2067 171.701 54.2076 172.064 54.1086 172.468C54.0112 172.866 53.8321 173.22 53.5714 173.528C53.3133 173.834 53.0019 174.073 52.6376 174.246C52.2736 174.416 51.8877 174.494 51.4796 174.483ZM56.9452 174.635C56.4722 174.622 56.1 174.487 55.8284 174.227C55.5573 173.965 55.3923 173.593 55.3335 173.11C55.275 172.625 55.3288 172.044 55.4948 171.364C55.6599 170.69 55.8887 170.115 56.1813 169.642C56.4766 169.167 56.8214 168.808 57.2158 168.565C57.6128 168.32 58.0456 168.205 58.5143 168.217C58.9831 168.23 59.3528 168.37 59.6233 168.632C59.8965 168.894 60.0622 169.267 60.1207 169.751C60.1818 170.234 60.1297 170.814 59.9646 171.488C59.7985 172.168 59.5689 172.745 59.2758 173.22C58.9832 173.693 58.6397 174.05 58.2454 174.294C57.8515 174.535 57.418 174.649 56.9452 174.635ZM57.1092 173.964C57.5779 173.977 57.9958 173.768 58.3626 173.335C58.7295 172.904 59.0124 172.281 59.2113 171.468C59.3435 170.927 59.3965 170.465 59.3703 170.081C59.346 169.697 59.2474 169.403 59.0742 169.197C58.9034 168.992 58.663 168.886 58.3533 168.877C57.8886 168.864 57.4712 169.076 57.1007 169.514C56.7308 169.95 56.4466 170.574 56.2482 171.386C56.1159 171.926 56.0622 172.387 56.0869 172.769C56.1116 173.15 56.2096 173.443 56.3811 173.646C56.5547 173.85 56.7975 173.955 57.1092 173.964ZM63.957 173.565L64.0377 173.236C64.0933 173.008 64.1923 172.802 64.3348 172.614C64.48 172.426 64.6595 172.278 64.8736 172.169C65.0903 172.059 65.3325 172.007 65.6004 172.014C65.8725 172.022 66.0863 172.087 66.2422 172.207C66.3985 172.326 66.5004 172.482 66.5478 172.676C66.5957 172.868 66.5918 173.078 66.5361 173.305L66.4556 173.635C66.3999 173.863 66.3006 174.071 66.1576 174.26C66.0171 174.446 65.8396 174.594 65.6251 174.705C65.413 174.814 65.1732 174.864 64.9053 174.857C64.6332 174.849 64.4181 174.786 64.2596 174.667C64.1018 174.546 63.9978 174.389 63.9478 174.197C63.8983 174.003 63.9014 173.793 63.957 173.565ZM64.6779 173.254L64.5974 173.583C64.5511 173.773 64.5557 173.944 64.6109 174.096C64.6667 174.247 64.8076 174.325 65.0336 174.332C65.2533 174.338 65.4264 174.268 65.5526 174.123C65.6814 173.974 65.769 173.806 65.8153 173.617L65.8958 173.287C65.9421 173.098 65.9394 172.928 65.8878 172.778C65.8367 172.624 65.6982 172.546 65.4721 172.539C65.2524 172.533 65.0761 172.604 64.943 172.751C64.8125 172.897 64.7241 173.064 64.6779 173.254ZM61.6295 169.901L61.71 169.571C61.7657 169.344 61.8648 169.137 62.0073 168.95C62.1524 168.763 62.332 168.614 62.5461 168.505C62.7628 168.394 63.0051 168.343 63.2728 168.351C63.5449 168.358 63.7589 168.422 63.9147 168.543C64.0709 168.662 64.1728 168.818 64.2202 169.012C64.2681 169.204 64.2643 169.414 64.2085 169.641L64.128 169.971C64.0724 170.199 63.973 170.407 63.83 170.596C63.6896 170.782 63.5122 170.93 63.2975 171.041C63.0856 171.15 62.8456 171.2 62.5778 171.193C62.3058 171.185 62.0905 171.122 61.9322 171.003C61.7742 170.882 61.6702 170.725 61.6203 170.534C61.5707 170.34 61.5738 170.129 61.6295 169.901ZM62.3504 169.589L62.2698 169.919C62.2236 170.108 62.2281 170.279 62.2833 170.432C62.3391 170.583 62.4801 170.662 62.706 170.668C62.9258 170.674 63.0987 170.605 63.225 170.459C63.3539 170.311 63.4414 170.142 63.4877 169.953L63.5682 169.623C63.6145 169.434 63.6118 169.265 63.5602 169.114C63.5091 168.96 63.3706 168.88 63.1446 168.875C62.9248 168.869 62.7485 168.94 62.6155 169.087C62.4849 169.233 62.3967 169.4 62.3504 169.589ZM60.7075 174.654L66.6546 168.531L67.3702 168.55L61.4233 174.674L60.7075 174.654ZM70.1744 174.918L71.7018 168.671L72.4803 168.693L71.1169 174.268L74.1051 174.352L73.941 175.023L70.1744 174.918ZM75.3036 169.447L75.4676 168.775L80.2889 168.91L80.1249 169.582L78.1034 169.524L76.7401 175.1L75.9617 175.079L77.325 169.503L75.3036 169.447ZM81.7541 168.95L82.3767 174.262L82.452 174.265L85.6462 169.059L86.4623 169.082L82.5745 175.262L81.7709 175.241L80.9379 168.927L81.7541 168.95Z" fill="black"/>
<path d="M97.4798 158.202C97.8359 157.931 98.3022 157.944 98.5215 158.231L101.494 162.128L106.319 158.448C106.675 158.177 107.141 158.19 107.361 158.477C107.58 158.765 107.469 159.218 107.113 159.489L101.644 163.661C101.288 163.932 100.821 163.92 100.602 163.632L97.2323 159.214C97.013 158.927 97.1238 158.474 97.4798 158.202Z" fill="#0D0D0D"/>
<path d="M197.737 162.514L195.701 170.843L194.148 170.8L195.825 163.938L195.776 163.937L193.467 165.125L193.804 163.742L196.26 162.472L197.737 162.514ZM201.006 171.149C200.317 171.13 199.768 170.944 199.356 170.592C198.949 170.237 198.691 169.733 198.582 169.084C198.478 168.431 198.537 167.65 198.76 166.743C198.984 165.834 199.306 165.066 199.723 164.435C200.146 163.803 200.642 163.325 201.216 163.003C201.792 162.681 202.424 162.529 203.11 162.548C203.795 162.567 204.344 162.752 204.756 163.102C205.168 163.452 205.427 163.95 205.532 164.598C205.641 165.244 205.585 166.021 205.364 166.927C205.141 167.838 204.819 168.611 204.395 169.25C203.975 169.886 203.477 170.365 202.9 170.691C202.327 171.016 201.696 171.169 201.006 171.149ZM201.318 169.877C201.853 169.892 202.339 169.647 202.774 169.144C203.212 168.637 203.553 167.884 203.798 166.883C203.96 166.222 204.025 165.664 203.992 165.21C203.96 164.755 203.842 164.411 203.638 164.176C203.435 163.938 203.156 163.814 202.803 163.804C202.269 163.79 201.785 164.036 201.35 164.542C200.914 165.046 200.574 165.794 200.329 166.786C200.163 167.45 200.095 168.011 200.124 168.468C200.156 168.925 200.274 169.272 200.476 169.509C200.681 169.745 200.961 169.867 201.318 169.877ZM207.478 170.024L207.313 170.47C207.192 170.81 207.037 171.155 206.851 171.504C206.666 171.857 206.483 172.181 206.301 172.477C206.119 172.771 205.973 173.003 205.866 173.173L204.844 173.144C204.924 172.98 205.031 172.756 205.168 172.473C205.308 172.19 205.452 171.872 205.603 171.52C205.754 171.166 205.886 170.806 205.998 170.441L206.138 169.986L207.478 170.024ZM211.676 171.446C210.986 171.427 210.436 171.242 210.025 170.888C209.618 170.533 209.36 170.031 209.252 169.381C209.148 168.728 209.206 167.948 209.428 167.039C209.654 166.132 209.974 165.362 210.393 164.732C210.814 164.099 211.312 163.623 211.885 163.3C212.461 162.978 213.092 162.825 213.779 162.844C214.465 162.865 215.014 163.048 215.426 163.398C215.837 163.748 216.096 164.247 216.202 164.894C216.311 165.541 216.254 166.318 216.033 167.223C215.81 168.135 215.487 168.909 215.065 169.547C214.645 170.182 214.147 170.663 213.57 170.987C212.996 171.313 212.364 171.466 211.676 171.446ZM211.986 170.173C212.523 170.189 213.008 169.944 213.443 169.441C213.882 168.933 214.223 168.18 214.467 167.18C214.628 166.518 214.694 165.961 214.661 165.507C214.63 165.053 214.512 164.708 214.308 164.473C214.105 164.235 213.826 164.112 213.471 164.102C212.939 164.087 212.454 164.333 212.018 164.84C211.583 165.343 211.244 166.091 210.998 167.084C210.833 167.748 210.764 168.308 210.793 168.765C210.825 169.221 210.942 169.569 211.145 169.807C211.349 170.041 211.629 170.163 211.986 170.173ZM219.536 171.665C218.848 171.646 218.297 171.46 217.887 171.108C217.478 170.753 217.221 170.249 217.113 169.6C217.008 168.947 217.068 168.166 217.289 167.259C217.514 166.35 217.836 165.581 218.253 164.951C218.675 164.319 219.172 163.841 219.745 163.519C220.322 163.197 220.953 163.045 221.639 163.064C222.326 163.083 222.875 163.268 223.286 163.618C223.698 163.968 223.957 164.466 224.063 165.114C224.171 165.76 224.115 166.537 223.893 167.443C223.67 168.353 223.348 169.127 222.925 169.766C222.505 170.402 222.008 170.881 221.431 171.207C220.857 171.531 220.226 171.684 219.536 171.665ZM219.848 170.393C220.383 170.408 220.868 170.163 221.303 169.659C221.742 169.153 222.083 168.4 222.328 167.399C222.49 166.738 222.554 166.18 222.523 165.726C222.49 165.271 222.372 164.927 222.168 164.692C221.965 164.454 221.686 164.33 221.332 164.32C220.799 164.306 220.314 164.552 219.879 165.058C219.445 165.562 219.104 166.31 218.859 167.302C218.693 167.966 218.626 168.526 218.654 168.984C218.685 169.441 218.803 169.788 219.006 170.025C219.21 170.261 219.49 170.383 219.848 170.393ZM227.397 171.885C226.708 171.866 226.157 171.679 225.747 171.327C225.34 170.971 225.081 170.469 224.973 169.818C224.869 169.167 224.928 168.386 225.15 167.477C225.375 166.569 225.696 165.8 226.114 165.171C226.535 164.538 227.033 164.06 227.606 163.738C228.182 163.415 228.813 163.264 229.501 163.283C230.186 163.302 230.735 163.486 231.147 163.836C231.559 164.186 231.818 164.685 231.923 165.332C232.032 165.98 231.975 166.755 231.755 167.662C231.531 168.572 231.208 169.347 230.786 169.984C230.366 170.62 229.868 171.1 229.291 171.426C228.717 171.75 228.086 171.904 227.397 171.885ZM227.708 170.612C228.244 170.626 228.73 170.382 229.165 169.878C229.603 169.372 229.944 168.618 230.189 167.618C230.351 166.956 230.416 166.398 230.383 165.944C230.351 165.49 230.233 165.145 230.029 164.911C229.826 164.673 229.547 164.55 229.192 164.539C228.66 164.524 228.176 164.77 227.74 165.277C227.305 165.781 226.965 166.529 226.719 167.521C226.554 168.185 226.486 168.746 226.515 169.202C226.547 169.659 226.663 170.006 226.867 170.244C227.07 170.479 227.352 170.602 227.708 170.612Z" fill="black"/>
<path d="M248.028 39.4159L57.6406 34.0336C44.4682 33.6612 31.2481 43.7351 28.1126 56.5342L28.1126 56.5343C24.9771 69.3334 33.1135 80.011 46.2859 80.3834L236.674 85.7657C249.846 86.1381 263.066 76.0642 266.202 63.2651L266.202 63.265C269.337 50.4659 261.201 39.7883 248.028 39.4159Z" fill="url(#paint2_linear_925_9900)" stroke="#231F1E" stroke-width="0.736874"/>
<path d="M245.741 36.482L55.354 31.0997C42.5884 30.7388 29.7766 40.5016 26.7379 52.9055C23.6992 65.3093 31.5844 75.6572 44.35 76.0181L234.737 81.4003C247.503 81.7612 260.314 71.9984 263.353 59.5946C266.392 47.1907 258.507 36.8428 245.741 36.482Z" fill="#F6F9FC" stroke="#231F1E" stroke-width="0.736874"/>
<path d="M46.763 66.5299C54.0855 66.7369 61.4344 61.137 63.1775 54.0219C64.9205 46.907 60.3975 40.9714 53.0751 40.7643C45.7526 40.5574 38.4037 46.1574 36.6606 53.2723C34.9176 60.3874 39.4406 66.323 46.763 66.5299Z" fill="#26A17B"/>
<path d="M51.0416 54.8762L51.0421 54.8742C50.949 54.8779 50.4692 54.8913 49.4162 54.8616C48.5742 54.8378 47.9894 54.7983 47.783 54.782L47.7825 54.7842C44.5786 54.5538 42.2975 53.9387 42.4583 53.2821C42.6186 52.6277 45.1704 52.1471 48.4401 52.0998L47.916 54.2394C48.1234 54.2598 48.7223 54.3122 49.56 54.3359C50.5661 54.3644 51.0793 54.3372 51.1751 54.3316L51.6987 52.194C54.8958 52.4263 57.1705 53.0411 57.0101 53.6957C56.8498 54.3501 54.305 54.8288 51.0411 54.8784M51.7531 51.9724L52.2219 50.0587L56.7302 50.1861L57.4451 47.2679L45.1714 46.9209L44.4565 49.8392L48.9648 49.9666L48.496 51.8804C44.7917 51.9405 41.8652 52.5667 41.6582 53.4118C41.4512 54.2568 44.0347 55.039 47.6562 55.3081L46.1533 61.4431L49.4126 61.5351L50.9155 55.4003C54.6133 55.3401 57.5356 54.7137 57.7426 53.8686C57.949 53.0257 55.3724 52.2416 51.7546 51.9746" fill="white"/>
<path d="M77.6947 50.7192L79.2473 50.763L77.9144 56.204C77.7684 56.8005 77.4948 57.3209 77.0936 57.7655C76.6953 58.2101 76.2041 58.5524 75.62 58.7925C75.0365 59.03 74.396 59.1387 73.6985 59.1191C72.9982 59.0992 72.4179 58.9559 71.958 58.6891C71.4986 58.4194 71.1808 58.0542 71.0043 57.5933C70.8279 57.1325 70.8127 56.6039 70.9588 56.0074L72.2918 50.5664L73.8444 50.6103L72.5424 55.9252C72.4573 56.2722 72.4597 56.5836 72.5496 56.8591C72.6422 57.1347 72.8133 57.3537 73.0628 57.5164C73.3129 57.6764 73.6347 57.762 74.0282 57.773C74.4216 57.7841 74.7805 57.7178 75.1052 57.5742C75.4331 57.4278 75.7085 57.2214 75.9311 56.9546C76.1537 56.6879 76.3076 56.3811 76.3926 56.0341L77.6947 50.7192ZM85.0321 53.2319C85.0802 52.8756 84.9832 52.5944 84.7415 52.3883C84.5027 52.1823 84.153 52.0728 83.6927 52.0598C83.3691 52.0506 83.0798 52.0903 82.8249 52.1786C82.5701 52.2668 82.3614 52.3907 82.1988 52.5498C82.0361 52.709 81.9279 52.893 81.874 53.1017C81.8315 53.2751 81.8351 53.4267 81.8848 53.5564C81.9373 53.6862 82.0237 53.7979 82.144 53.8914C82.2651 53.9821 82.4048 54.0598 82.5631 54.1244C82.7216 54.1889 82.8836 54.2439 83.0495 54.2896L83.8052 54.5075C84.111 54.5899 84.3977 54.6977 84.6657 54.8308C84.9365 54.964 85.1673 55.1288 85.3579 55.3253C85.5514 55.5218 85.685 55.7562 85.7588 56.0287C85.8324 56.301 85.8252 56.6174 85.7369 56.978C85.6173 57.4659 85.3838 57.892 85.036 58.2561C84.689 58.6176 84.2472 58.8958 83.7106 59.0909C83.1775 59.2833 82.5677 59.3697 81.8813 59.3503C81.2145 59.3316 80.6601 59.2148 80.2183 59.0003C79.7791 58.7859 79.4687 58.4823 79.2867 58.0895C79.1076 57.6969 79.0746 57.2237 79.1877 56.67L80.7154 56.7131C80.6666 57.0038 80.6995 57.2477 80.8143 57.4449C80.9289 57.6419 81.1043 57.7915 81.3406 57.8938C81.5796 57.9961 81.8609 58.0518 82.1846 58.0609C82.5222 58.0705 82.8299 58.0301 83.1076 57.9396C83.389 57.8465 83.6237 57.714 83.812 57.5419C84.0009 57.367 84.1259 57.1604 84.1871 56.9219C84.2375 56.7049 84.2158 56.5241 84.122 56.3796C84.0288 56.2323 83.8781 56.1079 83.6698 56.0064C83.4649 55.9024 83.2183 55.8081 82.93 55.7234L82.0146 55.4518C81.3519 55.2557 80.8593 54.9729 80.5369 54.6035C80.2178 54.2314 80.1313 53.7471 80.2775 53.1507C80.3977 52.66 80.6397 52.2341 81.0034 51.8732C81.3699 51.5123 81.8153 51.2369 82.3394 51.047C82.8642 50.8543 83.4265 50.7666 84.0264 50.7834C84.6347 50.8007 85.1423 50.9187 85.5494 51.1378C85.96 51.3541 86.2518 51.6476 86.4251 52.0182C86.5991 52.3863 86.6328 52.8049 86.5263 53.2741L85.0321 53.2319ZM89.4528 59.4374L86.5482 59.3554L88.5885 51.0271L91.5516 51.1109C92.4026 51.1349 93.0927 51.3224 93.6221 51.673C94.1548 52.0212 94.5097 52.5103 94.687 53.1403C94.8641 53.7705 94.8467 54.518 94.6349 55.3829C94.4223 56.2503 94.0736 56.9912 93.589 57.6054C93.107 58.2196 92.514 58.6846 91.8102 59.0004C91.109 59.3164 90.3232 59.4621 89.4528 59.4374ZM88.4207 58.0939L89.6972 58.13C90.2943 58.1468 90.8182 58.0552 91.269 57.855C91.7204 57.6522 92.0983 57.3421 92.4029 56.9249C92.708 56.5048 92.9386 55.9763 93.0947 55.3393C93.2509 54.7022 93.2799 54.1706 93.1819 53.7448C93.0847 53.3162 92.8648 52.992 92.5227 52.7721C92.1838 52.5496 91.7242 52.4301 91.1438 52.4138L89.8214 52.3764L88.4207 58.0939ZM103.776 54.2859L102.211 54.2416C102.228 53.991 102.199 53.7677 102.127 53.5719C102.054 53.3732 101.946 53.2036 101.8 53.063C101.655 52.9224 101.476 52.815 101.264 52.7407C101.055 52.6639 100.82 52.6218 100.557 52.6143C100.092 52.6012 99.6508 52.7033 99.2351 52.9209C98.82 53.1358 98.4572 53.4585 98.1466 53.8892C97.8366 54.3172 97.605 54.8443 97.4516 55.4706C97.2955 56.1078 97.2659 56.6473 97.3626 57.0897C97.4627 57.5292 97.6642 57.8653 97.9668 58.0977C98.273 58.3274 98.6576 58.4488 99.1207 58.4619C99.3774 58.4691 99.6254 58.4434 99.8645 58.3847C100.107 58.3233 100.334 58.23 100.544 58.105C100.757 57.98 100.949 57.8243 101.118 57.638C101.29 57.4517 101.429 57.2374 101.537 56.9947L103.1 57.0471C102.944 57.4412 102.726 57.809 102.446 58.1505C102.169 58.4921 101.841 58.7914 101.463 59.0482C101.087 59.3023 100.671 59.498 100.216 59.6353C99.7612 59.7698 99.2787 59.8299 98.7682 59.8155C98.0149 59.7942 97.3839 59.6058 96.8754 59.2502C96.3669 58.8946 96.0209 58.392 95.8372 57.7426C95.6535 57.0932 95.6713 56.3211 95.8905 55.4265C96.1103 54.5292 96.4698 53.7667 96.9691 53.1394C97.4691 52.5092 98.0563 52.0332 98.7308 51.7111C99.4053 51.3888 100.116 51.2383 100.864 51.2595C101.341 51.2729 101.769 51.3505 102.147 51.4922C102.525 51.634 102.844 51.8354 103.103 52.0967C103.363 52.3552 103.552 52.669 103.669 53.038C103.79 53.4045 103.826 53.8205 103.776 54.2859Z" fill="black"/>
<path d="M115.428 53.5478C115.784 53.2764 116.251 53.2896 116.47 53.5772L119.44 57.4756L124.267 53.7977C124.623 53.5262 125.09 53.5394 125.309 53.8271C125.528 54.1147 125.417 54.5678 125.061 54.8393L119.589 59.0085C119.233 59.28 118.767 59.2668 118.548 58.9791L115.18 54.56C114.961 54.2723 115.072 53.8191 115.428 53.5478Z" fill="#0D0D0D"/>
<path d="M216.67 53.8698L214.63 62.1981L213.077 62.1543L214.758 55.294L214.708 55.2925L212.399 56.4803L212.738 55.0977L215.193 53.8281L216.67 53.8698ZM219.936 62.5078C219.246 62.4883 218.697 62.3022 218.287 61.9493C217.878 61.5938 217.621 61.0911 217.513 60.4411C217.409 59.7885 217.469 59.0081 217.691 58.0998C217.916 57.1917 218.238 56.4228 218.657 55.7932C219.078 55.1609 219.576 54.6836 220.149 54.3613C220.726 54.0391 221.357 53.8877 222.043 53.9071C222.729 53.9265 223.278 54.1112 223.69 54.4614C224.102 54.8115 224.359 55.3101 224.466 55.9573C224.573 56.6046 224.516 57.381 224.295 58.2866C224.071 59.1975 223.749 59.9718 223.326 60.6095C222.906 61.2446 222.408 61.7246 221.831 62.0495C221.257 62.3745 220.626 62.5272 219.936 62.5078ZM220.248 61.235C220.784 61.2501 221.268 61.0059 221.705 60.5022C222.143 59.996 222.484 59.2427 222.73 58.2423C222.892 57.5808 222.957 57.023 222.925 56.569C222.892 56.1149 222.775 55.7703 222.572 55.5353C222.369 55.2976 222.09 55.1736 221.735 55.1636C221.203 55.1486 220.718 55.3942 220.282 55.9005C219.847 56.4042 219.506 57.1521 219.26 58.1442C219.095 58.8084 219.027 59.3687 219.055 59.8254C219.087 60.2822 219.203 60.6294 219.406 60.8672C219.61 61.1023 219.89 61.2249 220.248 61.235ZM226.408 61.3846L226.244 61.8303C226.121 62.1709 225.967 62.5158 225.78 62.8655C225.595 63.2178 225.411 63.5416 225.23 63.8367C225.048 64.1318 224.903 64.3638 224.794 64.5328L223.772 64.5039C223.852 64.3396 223.961 64.1161 224.097 63.8334C224.236 63.5507 224.382 63.2326 224.533 62.8793C224.684 62.526 224.816 62.1667 224.928 61.8013L225.069 61.3467L226.408 61.3846ZM230.605 62.8094C229.916 62.7899 229.366 62.6038 228.955 62.2509C228.548 61.8955 228.291 61.3927 228.183 60.7427C228.079 60.0901 228.137 59.3097 228.36 58.4014C228.585 57.4933 228.907 56.7244 229.325 56.0948C229.747 55.4625 230.244 54.9852 230.818 54.6629C231.394 54.3407 232.025 54.1893 232.712 54.2087C233.398 54.2281 233.947 54.4128 234.359 54.763C234.77 55.1131 235.029 55.6117 235.134 56.2591C235.243 56.9062 235.186 57.6826 234.964 58.5882C234.741 59.4991 234.418 60.2734 233.994 60.9111C233.575 61.5462 233.076 62.0262 232.5 62.3511C231.925 62.6761 231.294 62.8288 230.605 62.8094ZM230.917 61.5366C231.452 61.5517 231.938 61.3075 232.373 60.8038C232.811 60.2976 233.154 59.5443 233.398 58.5439C233.561 57.8824 233.625 57.3246 233.594 56.8706C233.562 56.4165 233.444 56.0719 233.24 55.8369C233.037 55.5992 232.758 55.4753 232.404 55.4652C231.871 55.4502 231.386 55.6958 230.95 56.2021C230.515 56.7058 230.176 57.4537 229.93 58.4458C229.764 59.11 229.695 59.6703 229.724 60.127C229.755 60.5838 229.873 60.9311 230.076 61.1688C230.28 61.4039 230.56 61.5265 230.917 61.5366ZM238.466 63.0317C237.776 63.0122 237.227 62.8259 236.816 62.4731C236.408 62.1176 236.151 61.615 236.043 60.965C235.939 60.3123 235.999 59.5319 236.22 58.6237C236.446 57.7156 236.768 56.9467 237.186 56.317C237.607 55.6846 238.106 55.2074 238.679 54.8851C239.255 54.5629 239.887 54.4115 240.573 54.4309C241.258 54.4503 241.807 54.6351 242.219 54.9852C242.631 55.3354 242.889 55.834 242.995 56.4812C243.103 57.1285 243.046 57.9049 242.824 58.8104C242.601 59.7213 242.278 60.4957 241.856 61.1333C241.436 61.7685 240.938 62.2485 240.361 62.5734C239.787 62.8983 239.155 63.0511 238.466 63.0317ZM238.777 61.7588C239.314 61.7739 239.798 61.5298 240.234 61.0261C240.673 60.5199 241.014 59.7666 241.26 58.7662C241.422 58.1047 241.487 57.5468 241.455 57.0929C241.422 56.6387 241.304 56.2942 241.101 56.0591C240.898 55.8214 240.62 55.6974 240.265 55.6874C239.732 55.6725 239.248 55.918 238.812 56.4244C238.377 56.9281 238.036 57.6759 237.79 58.668C237.625 59.3322 237.557 59.8926 237.584 60.3492C237.616 60.806 237.733 61.1532 237.936 61.3911C238.14 61.6261 238.42 61.7487 238.777 61.7588ZM246.326 63.2538C245.637 63.2344 245.087 63.0482 244.676 62.6953C244.269 62.3399 244.012 61.8372 243.904 61.1872C243.799 60.5346 243.859 59.7541 244.082 58.8459C244.306 57.9378 244.628 57.1689 245.047 56.5392C245.469 55.9069 245.966 55.4296 246.54 55.1073C247.116 54.7852 247.747 54.6338 248.433 54.6532C249.12 54.6726 249.669 54.8573 250.08 55.2074C250.492 55.5576 250.75 56.0562 250.855 56.7034C250.964 57.3507 250.907 58.1271 250.686 59.0327C250.462 59.9435 250.139 60.7178 249.716 61.3556C249.296 61.9906 248.798 62.4707 248.221 62.7956C247.647 63.1205 247.015 63.2733 246.326 63.2538ZM246.638 61.9811C247.174 61.9962 247.659 61.7519 248.094 61.2483C248.533 60.742 248.875 59.9887 249.12 58.9884C249.282 58.3269 249.347 57.7691 249.315 57.3151C249.283 56.861 249.165 56.5164 248.961 56.2814C248.759 56.0437 248.48 55.9197 248.126 55.9097C247.592 55.8946 247.108 56.1403 246.672 56.6466C246.237 57.1503 245.896 57.8981 245.651 58.8903C245.485 59.5543 245.417 60.1148 245.446 60.5715C245.476 61.0282 245.594 61.3755 245.797 61.6133C246.001 61.8484 246.281 61.9709 246.638 61.9811Z" fill="black"/>
<path d="M113.811 210.776C113.71 204.409 98.9866 199.45 80.9259 199.698C62.8651 199.946 48.3059 205.308 48.4068 211.675C48.5079 218.042 63.2309 223.001 81.2916 222.753C99.3524 222.504 113.912 217.143 113.811 210.776Z" fill="white"/>
<path opacity="0.85" d="M55.859 210.145C56.1866 207.278 62.2237 204.833 70.6908 203.696C74.0483 203.245 77.7686 203.002 81.6835 203.021C95.477 203.085 106.286 206.371 105.82 210.367C105.661 211.778 104.108 213.081 101.568 214.193C96.9092 216.208 88.9288 217.525 80.0067 217.492C66.2019 217.427 55.3927 214.141 55.859 210.145Z" fill="url(#paint3_linear_925_9900)"/>
<path d="M66.4452 207.521C66.6044 206.11 68.1568 204.807 70.6971 203.695C74.0544 203.244 77.7745 203.002 81.6893 203.019C95.4823 203.085 106.291 206.37 105.825 210.365C105.665 211.775 104.113 213.079 101.573 214.19C98.2269 214.641 94.4954 214.884 90.5805 214.865C76.7763 214.801 65.9789 211.516 66.4338 207.521H66.4452Z" fill="url(#paint4_linear_925_9900)"/>
<path d="M48.6873 210.028C49.4408 203.491 64.4708 198.261 82.2387 198.342C88.8974 198.373 95.0118 199.149 99.9907 200.449" stroke="#070707" stroke-width="1.00595" stroke-miterlimit="10" stroke-linecap="round"/>
<path d="M104.577 201.866C110.153 204.032 113.401 206.993 113.025 210.249C112.272 216.76 97.2615 221.972 79.5036 221.892" stroke="#070707" stroke-width="1.00595" stroke-miterlimit="10" stroke-linecap="round"/>
<path d="M76.7502 201.247C78.4301 201.149 80.1576 201.095 81.9226 201.106C82.4235 201.107 82.9249 201.119 83.415 201.131" stroke="#070707" stroke-width="1.00595" stroke-miterlimit="10" stroke-linecap="round"/>
<path d="M57.6867 206.086C58.7535 205.332 60.1643 204.631 61.8409 204.019" stroke="#070707" stroke-width="1.00595" stroke-miterlimit="10" stroke-linecap="round"/>
<path d="M83.4006 201.085C96.7956 201.393 107.018 205.018 106.513 209.395C105.982 213.932 94.1087 217.554 79.9974 217.492C65.8861 217.43 54.8621 213.694 55.3937 209.169" stroke="#070707" stroke-width="1.00595" stroke-miterlimit="10" stroke-linecap="round"/>
<path d="M48.707 211.28L48.6691 210.018C48.6223 210.445 48.6309 210.858 48.707 211.28Z" fill="url(#paint5_linear_925_9900)" stroke="#070707" stroke-width="1.00595" stroke-miterlimit="10" stroke-linecap="round"/>
<path d="M98.1622 219.81L98.5841 228.502C107.039 226.405 112.813 222.927 113.279 218.955L113.015 210.224C112.549 214.218 106.708 217.721 98.1736 219.81H98.1622Z" fill="url(#paint6_linear_925_9900)" stroke="#070707" stroke-width="1.00595" stroke-miterlimit="10" stroke-linecap="round"/>
<path d="M89.4673 221.334L89.8904 230.047C92.9865 229.687 95.9045 229.167 98.5546 228.513L98.1327 219.821C95.4826 220.475 92.5641 220.985 89.4673 221.334Z" fill="#070707" stroke="#070707" stroke-width="1.00595" stroke-miterlimit="10" stroke-linecap="round"/>
<path d="M48.7059 211.258L48.9321 218.725C48.4434 222.933 54.0312 226.648 62.8473 228.768L62.4217 220C54.5924 218.083 49.3378 214.913 48.7059 211.258Z" fill="url(#paint7_linear_925_9900)" stroke="#070707" stroke-width="1.00595" stroke-miterlimit="10" stroke-linecap="round"/>
<path d="M79.453 221.891C77.2344 221.877 75.0806 221.792 73.0026 221.626L67.0424 220.913C65.4257 220.648 63.8865 220.335 62.4359 219.973L62.8619 228.753C67.6722 229.909 73.4498 230.608 79.718 230.633C81.1853 230.637 82.6283 230.607 84.0584 230.543L83.6344 221.808C82.2611 221.868 80.8641 221.907 79.453 221.891Z" fill="#070707" stroke="#070707" stroke-width="1.00595" stroke-miterlimit="10" stroke-linecap="round"/>
<path d="M83.6473 221.78L84.0706 230.501C86.0539 230.414 87.9999 230.262 89.8747 230.045L89.4519 221.334C87.5771 221.551 85.6419 221.693 83.6473 221.78Z" fill="url(#paint8_linear_925_9900)" stroke="#070707" stroke-width="1.00595" stroke-miterlimit="10" stroke-linecap="round"/>
<path d="M67.6406 209.562L80.0299 214.882L76.8016 210.223L67.6406 209.562Z" fill="white"/>
<path d="M81.4993 214.945L92.5634 211.319L82.0656 206.12L86.2563 210.862L81.4993 214.945Z" fill="white"/>
<path d="M80.6137 206.046L67.6406 209.549L76.8142 210.212L80.047 214.877L84.8062 210.791L80.6137 206.046Z" fill="white"/>
<path d="M141.609 30.5064L157.47 24.8623L173.222 30.5064L157.419 41.4435L141.609 30.5064Z" fill="#070707"/>
<path d="M172.828 28.4827L157.702 2.27148V38.0901L172.828 28.4827Z" fill="white" stroke="black" stroke-width="0.583275"/>
<path d="M157.419 1.18359V38.6217L141.609 28.58L157.419 1.18359Z" fill="url(#paint9_linear_925_9900)"/>
<path d="M157.411 57.9023V41.4429L173.222 30.5059L157.411 57.9023Z" fill="#070707"/>
<path d="M157.419 57.9023V41.4429L141.609 30.5059L157.419 57.9023Z" fill="url(#paint10_linear_925_9900)"/>
<path d="M210.528 196.256C210.714 190.494 197.578 185.413 181.192 184.907C164.805 184.401 151.372 188.662 151.188 194.424C151.003 200.186 164.137 205.267 180.524 205.773C196.911 206.279 210.345 202.018 210.528 196.256Z" fill="white"/>
<path opacity="0.8" d="M158.002 193.351C158.426 190.777 164.008 188.811 171.736 188.121C174.8 187.848 178.185 187.777 181.735 187.949C194.24 188.557 203.898 191.953 203.299 195.54C203.093 196.807 201.627 197.921 199.275 198.824C194.963 200.455 187.667 201.326 179.578 200.941C167.062 200.334 157.404 196.939 158.002 193.351Z" fill="url(#paint11_linear_925_9900)"/>
<path d="M167.702 191.405C167.908 190.138 169.374 189.024 171.726 188.121C174.791 187.848 178.175 187.777 181.724 187.949C194.23 188.557 203.887 191.953 203.289 195.54C203.082 196.807 201.618 197.921 199.265 198.824C196.211 199.096 192.816 199.167 189.266 198.996C176.751 198.388 167.103 194.993 167.692 191.405H167.702Z" fill="url(#paint12_linear_925_9900)"/>
<path d="M178.878 189.899L172.227 197.244L174.598 197.592L177.121 194.807L180.604 195.319L182.209 193.547L178.726 193.035L181.247 190.249L178.878 189.899Z" fill="white"/>
<path d="M181.819 194.477C179.732 196.782 177.552 198.579 176.951 198.49C176.348 198.401 177.553 196.461 179.64 194.157C181.726 191.853 183.906 190.057 184.508 190.145C185.109 190.234 183.906 192.174 181.819 194.477ZM185.153 189.66C184.377 189.546 181.849 191.55 179.506 194.138C177.162 196.725 175.892 198.915 176.668 199.029C177.351 199.129 179.394 197.587 181.471 195.45L186.474 196.186L188.079 194.414L183.079 193.677C184.924 191.488 185.84 189.76 185.153 189.66Z" fill="white"/>
<path d="M151.502 192.913C152.472 187.056 166.329 182.941 182.435 183.722C188.471 184.016 193.982 184.958 198.44 186.326" stroke="#070707" stroke-width="1.00595" stroke-miterlimit="10" stroke-linecap="round"/>
<path d="M202.536 187.828C207.498 190.007 210.315 192.814 209.831 195.743C208.861 201.6 195.013 205.715 178.908 204.934" stroke="#070707" stroke-width="1.00595" stroke-miterlimit="10" stroke-linecap="round"/>
<path d="M177.329 186.114C178.857 186.093 180.425 186.114 182.025 186.195C182.479 186.215 182.933 186.246 183.376 186.276" stroke="#070707" stroke-width="1.00595" stroke-miterlimit="10" stroke-linecap="round"/>
<path d="M159.83 189.711C160.831 189.074 162.142 188.496 163.69 188.009" stroke="#070707" stroke-width="1.00595" stroke-miterlimit="10" stroke-linecap="round"/>
<path d="M183.375 186.275C195.509 187.085 204.62 190.765 203.97 194.696C203.289 198.77 192.362 201.567 179.567 200.948C166.772 200.331 156.94 196.52 157.62 192.457" stroke="#070707" stroke-width="1.00595" stroke-miterlimit="10" stroke-linecap="round"/>
<path d="M151.483 194.059L151.504 192.914C151.442 193.299 151.432 193.673 151.483 194.059Z" fill="url(#paint13_linear_925_9900)" stroke="#070707" stroke-width="1.00595" stroke-miterlimit="10" stroke-linecap="round"/>
<path d="M195.932 203.827V211.713C203.701 210.151 209.098 207.232 209.696 203.656L209.841 195.74C209.242 199.338 203.783 202.277 195.942 203.827H195.932Z" fill="url(#paint14_linear_925_9900)" stroke="#070707" stroke-width="1.00595" stroke-miterlimit="10" stroke-linecap="round"/>
<path d="M187.997 204.852V212.757C190.824 212.554 193.497 212.199 195.932 211.712V203.828C193.497 204.315 190.824 204.66 187.997 204.852Z" fill="#070707" stroke="#070707" stroke-width="1.00595" stroke-miterlimit="10" stroke-linecap="round"/>
<path d="M151.482 194.059L151.358 200.828C150.729 204.618 155.641 208.206 163.554 210.476V202.521C156.528 200.473 151.896 197.393 151.482 194.059Z" fill="url(#paint15_linear_925_9900)" stroke="#070707" stroke-width="1.00595" stroke-miterlimit="10" stroke-linecap="round"/>
<path d="M178.907 204.935C176.895 204.834 174.945 204.671 173.068 204.438L167.691 203.556C166.237 203.253 164.854 202.908 163.555 202.522V210.478C167.867 211.714 173.078 212.576 178.763 212.85C180.094 212.91 181.405 212.941 182.704 212.941V205.025C181.457 205.025 180.188 205.006 178.907 204.935Z" fill="#070707" stroke="#070707" stroke-width="1.00595" stroke-miterlimit="10" stroke-linecap="round"/>
<path d="M182.705 205.023V212.938C184.51 212.938 186.285 212.877 187.998 212.756V204.851C186.285 204.972 184.52 205.023 182.705 205.023Z" fill="url(#paint16_linear_925_9900)" stroke="#070707" stroke-width="1.00595" stroke-miterlimit="10" stroke-linecap="round"/>
<defs>
<linearGradient id="paint0_linear_925_9900" x1="104.297" y1="164.873" x2="155.098" y2="165.05" gradientUnits="userSpaceOnUse">
<stop stop-color="#0046FE"/>
<stop offset="1" stop-color="#00BDFF"/>
</linearGradient>
<linearGradient id="paint1_linear_925_9900" x1="19.0335" y1="165.53" x2="235.43" y2="218.442" gradientUnits="userSpaceOnUse">
<stop stop-color="#7B61FF"/>
<stop offset="1" stop-color="#F3A6EB"/>
</linearGradient>
<linearGradient id="paint2_linear_925_9900" x1="59.3896" y1="128.105" x2="211.034" y2="-32.2409" gradientUnits="userSpaceOnUse">
<stop stop-color="#0046FE"/>
<stop offset="1" stop-color="#00BDFF"/>
</linearGradient>
<linearGradient id="paint3_linear_925_9900" x1="57.9007" y1="211.266" x2="105.78" y2="208.946" gradientUnits="userSpaceOnUse">
<stop stop-color="#7B61FF"/>
<stop offset="1" stop-color="#F3A6EB"/>
</linearGradient>
<linearGradient id="paint4_linear_925_9900" x1="68.0982" y1="209.739" x2="105.735" y2="207.914" gradientUnits="userSpaceOnUse">
<stop stop-color="#7B61FF"/>
<stop offset="1" stop-color="#F3A6EB"/>
</linearGradient>
<linearGradient id="paint5_linear_925_9900" x1="48.6435" y1="210.651" x2="48.6991" y2="210.648" gradientUnits="userSpaceOnUse">
<stop stop-color="#7B61FF"/>
<stop offset="1" stop-color="#F3A6EB"/>
</linearGradient>
<linearGradient id="paint6_linear_925_9900" x1="98.7731" y1="219.672" x2="113.439" y2="218.96" gradientUnits="userSpaceOnUse">
<stop stop-color="#7B61FF"/>
<stop offset="1" stop-color="#F3A6EB"/>
</linearGradient>
<linearGradient id="paint7_linear_925_9900" x1="49.4923" y1="220.289" x2="62.4053" y2="219.663" gradientUnits="userSpaceOnUse">
<stop stop-color="#7B61FF"/>
<stop offset="1" stop-color="#F3A6EB"/>
</linearGradient>
<linearGradient id="paint8_linear_925_9900" x1="84.0887" y1="226.036" x2="89.6669" y2="225.765" gradientUnits="userSpaceOnUse">
<stop stop-color="#7B61FF"/>
<stop offset="1" stop-color="#F3A6EB"/>
</linearGradient>
<linearGradient id="paint9_linear_925_9900" x1="153.034" y1="34.5519" x2="141.927" y2="13.1256" gradientUnits="userSpaceOnUse">
<stop stop-color="#7B61FF"/>
<stop offset="1" stop-color="#F3A6EB"/>
</linearGradient>
<linearGradient id="paint10_linear_925_9900" x1="158.446" y1="39.8665" x2="144.854" y2="53.1039" gradientUnits="userSpaceOnUse">
<stop stop-color="#7B61FF"/>
<stop offset="1" stop-color="#F3A6EB"/>
</linearGradient>
<linearGradient id="paint11_linear_925_9900" x1="161.449" y1="212.75" x2="205.329" y2="192.841" gradientUnits="userSpaceOnUse">
<stop stop-color="#2D69FD"/>
<stop offset="1" stop-color="#00F2A5"/>
</linearGradient>
<linearGradient id="paint12_linear_925_9900" x1="170.396" y1="209.08" x2="205.795" y2="194.27" gradientUnits="userSpaceOnUse">
<stop stop-color="#2D69FD"/>
<stop offset="1" stop-color="#00F2A5"/>
</linearGradient>
<linearGradient id="paint13_linear_925_9900" x1="151.455" y1="195.078" x2="151.517" y2="195.077" gradientUnits="userSpaceOnUse">
<stop stop-color="#2D69FD"/>
<stop offset="1" stop-color="#00F2A5"/>
</linearGradient>
<linearGradient id="paint14_linear_925_9900" x1="230.551" y1="214.441" x2="228.527" y2="198.723" gradientUnits="userSpaceOnUse">
<stop stop-color="#2D69FD"/>
<stop offset="1" stop-color="#00F2A5"/>
</linearGradient>
<linearGradient id="paint15_linear_925_9900" x1="122.724" y1="215.363" x2="132.403" y2="228.335" gradientUnits="userSpaceOnUse">
<stop stop-color="#2D69FD"/>
<stop offset="1" stop-color="#00F2A5"/>
</linearGradient>
<linearGradient id="paint16_linear_925_9900" x1="175.231" y1="230.097" x2="185.523" y2="230.939" gradientUnits="userSpaceOnUse">
<stop stop-color="#2D69FD"/>
<stop offset="1" stop-color="#00F2A5"/>
</linearGradient>
</defs>
</svg>
