<svg width="256" height="261" viewBox="0 0 256 261" fill="none" xmlns="http://www.w3.org/2000/svg">
<path d="M180.236 209.395L189.022 215.655L193.523 212.806L191.835 207.733L180.236 209.395Z" fill="#9BB3EE"/>
<path d="M158.353 228.244L240.379 179.469C245.831 176.228 243.635 169.685 235.467 164.855L234.901 164.521L130.941 103.091C122.773 98.2712 111.734 96.9907 106.271 100.236L31.0661 144.953L30.3562 144.001C30.3562 144.001 21.6835 132.448 21.6167 132.355C21.3748 132.036 17.3831 135.627 17.0077 136.054C15.9429 137.268 15.1198 138.646 14.6054 140.18C10.7526 151.594 20.5879 158.543 29.1628 163.61L133.688 225.374C141.857 230.204 152.901 231.485 158.358 228.244H158.353Z" fill="url(#paint0_linear_925_9823)" stroke="black" stroke-width="1.54319" stroke-miterlimit="10" stroke-linecap="round"/>
<path d="M131.054 208.736L26.5289 146.973C26.0043 146.659 25.5053 146.34 25.0372 146.015C11.7092 137.723 15.2534 147.59 15.2534 147.59L15.2431 147.574C12.7328 140.738 14.847 136.504 21.6164 132.353L24.6823 130.532L103.642 83.5782C109.095 80.3375 120.149 81.6237 128.313 86.4487L232.838 148.212C241.007 153.032 243.203 159.585 237.75 162.826L155.735 211.596C150.277 214.842 139.228 213.55 131.06 208.731L131.054 208.736Z" fill="#F6F9FC" stroke="black" stroke-width="1.54319" stroke-miterlimit="10" stroke-linecap="round"/>
<path d="M116.081 110.734C110.119 107.046 100.283 107.144 94.1108 110.95C87.9378 114.757 87.7681 120.837 93.7301 124.525L143.935 155.589C155.262 151.083 159.727 148.769 169.14 144.715L116.081 110.729V110.734Z" fill="#070707" stroke="black" stroke-width="1.54319" stroke-miterlimit="10" stroke-linecap="round"/>
<path d="M185.467 213.017L188.991 214.709C190.822 215.589 192.946 214.267 192.972 212.235L193.142 198.182C193.188 194.519 191.053 191.181 187.71 189.684L176.47 184.653C174.053 183.572 173.929 180.188 176.254 178.933L195.961 168.275C198.352 166.984 201.223 166.927 203.661 168.131L215.009 173.722C218.254 175.322 220.255 178.676 220.127 182.292L220.667 191.68C220.538 195.219 218.666 198.464 215.667 200.352L191.892 214.565" fill="#070707"/>
<path d="M185.467 213.017L188.991 214.709C190.822 215.589 192.946 214.267 192.972 212.235L193.142 198.182C193.188 194.519 191.053 191.181 187.71 189.684L176.47 184.653C174.053 183.572 173.929 180.188 176.254 178.933L195.961 168.275C198.352 166.984 201.223 166.927 203.661 168.131L215.009 173.722C218.254 175.322 220.255 178.676 220.127 182.292L220.667 191.68C220.538 195.219 218.666 198.464 215.667 200.352L191.892 214.565" stroke="black" stroke-width="1.54319" stroke-miterlimit="10" stroke-linecap="round"/>
<path d="M63.4332 171.64C70.4827 159.429 69.5027 145.665 61.2433 140.896C52.9838 136.127 40.5734 142.161 33.5236 154.371C26.4738 166.581 27.4544 180.346 35.7137 185.115C43.9729 189.883 56.3832 183.85 63.4332 171.64Z" fill="white"/>
<path d="M37.8871 179.621C34.2606 177.358 33.6022 171.437 35.7009 164.755C36.5394 162.111 37.7997 159.349 39.4869 156.643C45.4281 147.117 54.3529 141.947 59.4144 145.105C61.1997 146.221 62.2694 148.227 62.64 150.769C63.319 155.429 61.6628 161.911 57.82 168.073C51.8735 177.61 42.9488 182.775 37.8923 179.621H37.8871Z" fill="url(#paint1_linear_925_9823)"/>
<path d="M34.625 184.483C26.3535 179.329 25.8597 165.199 33.5139 152.925C36.3842 148.322 39.9901 144.633 43.8172 142.092" stroke="black" stroke-width="0.514396" stroke-miterlimit="10" stroke-linecap="round"/>
<path d="M47.697 139.941C52.913 137.611 58.206 137.457 62.3421 140.034C70.6131 145.188 71.1123 159.319 63.4579 171.592" stroke="black" stroke-width="0.514396" stroke-miterlimit="10" stroke-linecap="round"/>
<path d="M34.9911 158.789C35.5673 157.554 36.2411 156.315 36.9973 155.096C37.2133 154.751 37.4345 154.406 37.6608 154.072" stroke="black" stroke-width="0.514396" stroke-miterlimit="10" stroke-linecap="round"/>
<path d="M33.2524 175.439C32.7071 174.164 32.3882 172.693 32.2853 171.088" stroke="black" stroke-width="0.514396" stroke-miterlimit="10" stroke-linecap="round"/>
<path d="M37.6603 154.077C43.7559 145.003 52.8761 140.471 58.4162 143.928C64.1617 147.514 63.8946 158.326 57.8146 168.079C51.7342 177.832 42.1407 182.832 36.3949 179.246" stroke="black" stroke-width="0.514396" stroke-miterlimit="10" stroke-linecap="round"/>
<path d="M60.3614 175.883C61.4622 174.561 62.5012 173.126 63.4585 171.592C71.1123 159.319 70.6137 145.194 62.3421 140.034L67.6713 143.265C75.9423 148.419 76.4415 162.549 68.7871 174.823C61.1333 187.096 48.227 192.868 39.9555 187.714L34.6263 184.483C40.8299 188.351 49.6415 186.072 56.8893 179.509" fill="url(#paint2_linear_925_9823)"/>
<path d="M60.3614 175.883C61.4622 174.561 62.5012 173.126 63.4585 171.592C71.1123 159.319 70.6137 145.194 62.3421 140.034L67.6713 143.265C75.9423 148.419 76.4415 162.549 68.7871 174.823C61.1333 187.096 48.227 192.868 39.9555 187.714L34.6263 184.483C40.8299 188.351 49.6415 186.072 56.8893 179.509" stroke="black" stroke-width="0.514396" stroke-miterlimit="10" stroke-linecap="round"/>
<path d="M54.4522 150.718L54.2524 162.026L50.3578 157.822L54.4522 150.718Z" fill="white"/>
<path d="M43.333 159.054L54.4511 150.718L50.3567 157.822L43.333 159.054Z" fill="white"/>
<path d="M53.6145 163.134L43.3476 169.987L42.6961 160.162L46.1581 165.117L53.6145 163.134Z" fill="white"/>
<path d="M43.333 159.054L50.3567 157.822L54.2514 162.026L46.7949 164.009L43.333 159.054Z" fill="white"/>
<path d="M68.1079 160.719L73.4371 164.129L72.1254 168.255L66.7244 164.86L68.1079 160.719Z" fill="black"/>
<path d="M125.433 200.712C126.432 191.985 116.518 183.683 103.289 182.168C90.0598 180.654 78.5259 186.501 77.5269 195.228C76.528 203.956 86.4424 212.258 99.6715 213.772C112.901 215.286 124.434 209.44 125.433 200.712Z" fill="white"/>
<path d="M82.0575 196.088C82.5979 192.121 87.4124 189.282 93.9298 188.516C96.5121 188.217 99.3564 188.232 102.314 188.639C112.741 190.064 120.581 195.712 119.825 201.247C119.557 203.202 118.25 204.884 116.218 206.18C112.494 208.551 106.316 209.621 99.5729 208.7C89.1409 207.276 81.3012 201.627 82.0575 196.093V196.088Z" fill="url(#paint3_linear_925_9823)"/>
<path d="M76.6511 195.161C77.886 186.113 89.7733 180.269 103.204 182.106C108.24 182.795 112.777 184.462 116.419 186.761" stroke="black" stroke-width="0.514396" stroke-miterlimit="10" stroke-linecap="round"/>
<path d="M119.743 189.252C123.74 192.816 125.9 197.281 125.283 201.808C124.048 210.857 112.161 216.705 98.735 214.869" stroke="black" stroke-width="0.514396" stroke-miterlimit="10" stroke-linecap="round"/>
<path d="M98.7606 185.62C100.042 185.641 101.353 185.739 102.686 185.918C103.066 185.97 103.442 186.026 103.812 186.094" stroke="black" stroke-width="0.514396" stroke-miterlimit="10" stroke-linecap="round"/>
<path d="M83.8586 190.522C84.7435 189.566 85.8749 188.727 87.2128 188.027" stroke="black" stroke-width="0.514396" stroke-miterlimit="10" stroke-linecap="round"/>
<path d="M103.812 186.094C113.91 187.822 121.281 193.882 120.453 199.946C119.594 206.237 110.247 210.152 99.5739 208.696C88.9054 207.24 80.9477 200.96 81.8064 194.669" stroke="black" stroke-width="0.514396" stroke-miterlimit="10" stroke-linecap="round"/>
<path d="M124.568 207.605L125.283 201.808C124.511 207.451 119.594 211.843 112.747 213.906C112.556 213.963 112.423 214.127 112.412 214.328L112.125 219.004C112.104 219.333 112.428 219.59 112.742 219.482C119.218 217.332 123.817 213.053 124.563 207.605H124.568Z" fill="url(#paint4_linear_925_9823)" stroke="black" stroke-width="0.514396" stroke-miterlimit="10" stroke-linecap="round"/>
<path d="M112.104 219.359L112.393 214.657C112.413 214.333 112.109 214.091 111.795 214.173C109.995 214.647 108.077 214.97 106.071 215.11C105.834 215.125 105.649 215.31 105.633 215.547L105.33 220.366C105.309 220.655 105.556 220.896 105.839 220.871C107.922 220.691 109.913 220.32 111.765 219.78C111.955 219.724 112.089 219.554 112.104 219.353V219.359Z" fill="black" stroke="black" stroke-width="0.514396" stroke-miterlimit="10" stroke-linecap="round"/>
<path d="M105.318 220.501L105.622 215.665C105.637 215.382 105.411 215.156 105.128 215.166C104.29 215.202 103.436 215.208 102.572 215.181C102.32 215.176 102.109 215.362 102.088 215.614L101.692 220.48C101.672 220.753 101.883 220.989 102.155 220.994C103.076 221.015 103.981 220.994 104.877 220.948C105.113 220.932 105.303 220.742 105.318 220.506V220.501Z" fill="url(#paint5_linear_925_9823)" stroke="black" stroke-width="0.514396" stroke-miterlimit="10" stroke-linecap="round"/>
<path d="M88.5806 217.301L88.8121 212.317C88.8227 212.126 88.7147 211.952 88.545 211.874C80.6796 208.124 75.7622 201.705 76.6521 195.167L75.9369 200.964C75.0421 207.528 80.0007 213.968 87.9122 217.713C88.2155 217.857 88.565 217.641 88.5806 217.307V217.301Z" fill="url(#paint6_linear_925_9823)" stroke="black" stroke-width="0.514396" stroke-miterlimit="10" stroke-linecap="round"/>
<path d="M98.0146 220.666C99.0898 220.81 100.149 220.908 101.199 220.959C101.451 220.969 101.672 220.779 101.693 220.522L102.089 215.651C102.11 215.383 101.909 215.157 101.646 215.142C100.689 215.09 99.7176 214.997 98.7348 214.864C97.063 214.637 95.4479 214.298 93.8997 213.866C93.8891 213.866 93.8735 213.86 93.8635 213.855L89.4653 212.292C89.4653 212.292 89.4397 212.282 89.4292 212.276C89.2288 212.189 89.0279 212.096 88.8326 212.004L88.5704 217.672C88.5599 217.868 88.6734 218.053 88.8532 218.13C91.6207 219.329 94.7122 220.208 98.0196 220.661L98.0146 220.666Z" fill="black" stroke="black" stroke-width="0.514396" stroke-miterlimit="10" stroke-linecap="round"/>
<path d="M93.8375 196.628C94.4185 197.337 95.4475 197.975 96.5839 198.397C96.7798 198.469 96.9134 198.67 96.8822 198.875C96.831 199.21 96.939 199.601 97.2323 200.007C98.0966 201.216 100.298 202.24 102.17 202.27L102.747 202.255C102.896 202.255 103.04 202.322 103.133 202.44L104.182 203.824C104.274 203.942 104.419 204.014 104.568 204.009L104.984 203.999C105.37 203.988 105.581 203.546 105.35 203.242L105.123 202.949C104.892 202.641 105.103 202.203 105.488 202.193H105.617C105.766 202.188 105.91 202.255 106.003 202.378L107.052 203.762C107.144 203.88 107.289 203.953 107.438 203.948L107.855 203.937C108.24 203.927 108.451 203.485 108.22 203.181L107.993 202.887C107.762 202.579 107.973 202.142 108.359 202.132L109.681 202.101C110.066 202.09 110.277 201.648 110.046 201.345L109.773 200.985C109.681 200.866 109.536 200.794 109.387 200.799L107.855 200.835C107.705 200.835 107.561 200.768 107.469 200.65L106.579 199.477C106.348 199.169 106.558 198.731 106.944 198.721H107.114C107.5 198.706 107.71 198.268 107.479 197.96L107.309 197.739C107.217 197.621 107.073 197.548 106.924 197.553L105.391 197.589C105.241 197.589 105.098 197.523 105.005 197.404L103.889 195.938C103.657 195.63 103.868 195.192 104.254 195.182C104.603 195.172 104.825 194.801 104.66 194.493L104.444 194.071C104.362 193.911 104.192 193.814 104.012 193.814L102.304 193.855L101.394 193.876C101.245 193.876 101.101 193.808 101.008 193.69L99.9537 192.301C99.8607 192.183 99.7166 192.111 99.5674 192.117L99.1512 192.127C98.7649 192.137 98.554 192.579 98.7855 192.883L99.012 193.181C99.2435 193.489 99.0326 193.927 98.647 193.937H98.5184C98.3693 193.942 98.2251 193.876 98.1327 193.752L97.0781 192.363C96.9852 192.245 96.8416 192.173 96.6919 192.178L96.2756 192.188C95.8899 192.198 95.679 192.641 95.9105 192.945L96.6975 193.984H96.6819L95.8794 194.004C93.5698 193.952 92.6899 195.249 93.8319 196.643L93.8375 196.628ZM104.336 200.156C104.568 200.465 104.357 200.902 103.971 200.912L102.808 200.938C101.954 200.985 100.849 200.516 100.401 199.925C99.9481 199.333 100.324 198.829 101.214 198.834L103.06 198.793C103.209 198.793 103.353 198.86 103.446 198.978L104.336 200.151V200.156ZM97.7259 195.316L100.365 195.254C100.514 195.254 100.658 195.321 100.751 195.44L101.867 196.905C102.099 197.214 101.888 197.651 101.502 197.662L99.5468 197.708C98.6058 197.667 97.5206 197.162 97.0525 196.545C96.5839 195.928 96.8772 195.393 97.7259 195.31V195.316Z" fill="white"/>
<path d="M215.046 152.159L206.332 147.205C204.196 145.989 202.46 142.975 202.46 140.481V129.595L195.29 117.36L203.037 113.555L203.48 113.349C203.735 113.216 204 113.153 204.291 113.153C204.762 113.153 205.295 113.319 205.842 113.627L227.112 125.723C229.248 126.938 230.983 129.952 230.983 132.446V157.267C230.983 158.717 230.639 159.108 229.364 159.794L221.799 163.576L215.049 152.159H215.046Z" fill="white"/>
<path d="M204.292 113.647C204.676 113.647 205.127 113.789 205.597 114.054L226.866 126.15C228.831 127.266 230.487 130.148 230.487 132.443V157.263C230.487 158.512 230.265 158.74 229.142 159.347L221.991 162.923L215.543 152.02L215.407 151.792L215.178 151.662L206.577 146.77C204.613 145.654 202.957 142.773 202.957 140.478V129.455L202.821 129.223L195.988 117.568L203.249 114.001L203.692 113.796L203.712 113.786L203.732 113.776C203.894 113.69 204.08 113.65 204.292 113.65M204.292 112.657C203.918 112.657 203.573 112.739 203.272 112.898L202.818 113.11L194.591 117.151L201.963 129.73V140.481C201.963 143.137 203.808 146.343 206.087 147.638L214.688 152.53L221.607 164.232L229.599 160.234C230.98 159.495 231.481 158.962 231.481 157.27V132.446C231.481 129.79 229.636 126.584 227.357 125.289L206.087 113.193C205.444 112.825 204.835 112.653 204.292 112.653V112.657Z" fill="black"/>
<path d="M197.538 117.372L218.809 129.468C221.087 130.763 222.932 133.966 222.932 136.625V161.446C222.932 164.102 221.087 165.208 218.809 163.913L197.538 151.817C195.26 150.522 193.415 147.319 193.415 144.66V119.836C193.415 117.18 195.26 116.074 197.538 117.369V117.372ZM201.698 129.845V144.08C205.955 146.501 210.19 148.909 214.447 151.33V137.096C210.19 134.674 205.955 132.267 201.698 129.845Z" fill="black"/>
<path d="M201.698 129.846C205.954 132.267 210.19 134.675 214.446 137.096V151.331C210.187 148.909 205.954 146.502 201.698 144.08V129.846ZM211.406 145.306C210.276 142.51 209.18 139.805 208.061 137.036C206.948 138.543 205.861 140.013 204.748 141.52C206.99 142.795 209.16 144.028 211.406 145.306Z" fill="white"/>
<path d="M211.405 145.302C209.16 144.027 206.99 142.792 204.748 141.517C205.861 140.01 206.948 138.539 208.061 137.032C209.18 139.801 210.276 142.507 211.405 145.302Z" fill="black"/>
<path d="M121.589 62.5813C116.471 62.5813 112.098 61.4599 108.575 59.2483L127.607 48.0703C129.192 48.6516 135.745 50.8275 145.05 50.8275C149.459 50.8275 153.815 50.3337 158.08 49.3563L143.687 57.2264C143.605 57.2676 132.689 62.5763 121.589 62.5763V62.5813Z" fill="black"/>
<path d="M127.685 48.9199C129.783 49.6503 136.203 51.605 145.05 51.605C147.88 51.605 150.688 51.4044 153.466 51.0084L143.348 56.543C142.751 56.8313 132.258 61.8161 121.589 61.8161C117.15 61.8161 113.302 60.9518 110.102 59.2488L127.685 48.925M164.788 46.5742C157.566 49.2131 150.791 50.0618 145.05 50.0618C134.567 50.0618 127.535 47.2224 127.535 47.2224L107.129 59.2077C111.404 62.2891 116.532 63.3587 121.594 63.3587C133.014 63.3587 144.063 57.9115 144.063 57.9115L164.793 46.5742H164.788Z" fill="black"/>
<path d="M194.34 81.7891C194.34 81.7891 193.62 119.453 169.973 145.368L145.21 154.982L172.622 94.042L194.34 83.0902V81.7891Z" fill="url(#paint7_linear_925_9823)" stroke="black" stroke-width="1.54319" stroke-miterlimit="10" stroke-linecap="round"/>
<path d="M143.79 155.39C125.519 138.302 116.734 113.235 112.582 95.1433C108.796 78.6624 108.066 64.8407 107.927 60.566C111.301 62.3608 115.597 63.2663 120.73 63.2663C130.586 63.2663 140.843 59.8765 143.605 58.8887C152.119 80.2931 170.745 92.453 173.713 94.2896C172.36 132.54 147.618 152.519 143.785 155.385L143.79 155.39Z" fill="white"/>
<path d="M143.173 59.8658C148.023 71.6507 155.827 80.4777 161.629 85.8843C166.768 90.6731 171.176 93.6155 172.931 94.7163C172.082 115.719 164.078 130.925 157.463 140.024C151.753 147.879 146.074 152.658 143.847 154.381C136.121 147.035 129.49 137.658 124.115 126.496C119.624 117.165 116.002 106.573 113.343 95.0096C109.886 79.9684 108.986 67.1501 108.75 61.8258C112.037 63.2967 116.054 64.0374 120.735 64.0374C130.128 64.0374 139.629 61.0901 143.173 59.8658ZM144.053 57.9062C144.053 57.9062 132.19 62.4948 120.73 62.4948C115.791 62.4948 110.925 61.6405 107.124 59.2024C107.124 59.2024 107.448 123.018 143.728 156.387C143.728 156.387 173.208 136.305 174.505 93.8676C174.505 93.8676 153.126 81.5579 144.053 57.9113V57.9062Z" fill="black"/>
<path d="M172.849 93.9182C170.127 92.6526 151.851 83.3526 143.528 58.8467L164.284 47.71C165.554 52.1955 172.021 70.945 193.599 81.9274L172.844 93.9182H172.849Z" fill="url(#paint8_linear_925_9823)"/>
<path d="M163.805 48.8472C164.53 51.2031 166.094 55.452 169.093 60.4108C172.961 66.7997 180.013 75.5287 191.999 81.9688L172.807 93.0542C169.252 91.3312 152.493 82.1541 144.469 59.2227L163.805 48.8472ZM164.782 46.5684L142.586 58.4764C151.655 86.0125 172.889 94.7827 172.889 94.7827L195.235 81.8764C169.643 69.5667 164.782 46.5684 164.782 46.5684Z" fill="black"/>
<path d="M143.152 97.998C143.152 94.0729 140.251 89.5411 136.665 87.8799C133.08 86.2182 130.179 88.0547 130.179 91.9848C130.179 94.4591 131.331 97.1699 133.08 99.253L131.954 114.983L141.377 119.351L140.251 102.571C142 102.108 143.152 100.467 143.152 97.993V97.998Z" fill="url(#paint9_linear_925_9823)" stroke="black" stroke-width="1.54319" stroke-miterlimit="10" stroke-linecap="round"/>
<path d="M173.02 83.5628C170.63 83.5628 168.691 81.6239 168.691 79.2347V38.9623C168.691 28.3257 163.457 18.3759 154.69 12.3449C152.249 10.6712 149.444 9.78243 146.576 9.78243C144.244 9.78243 141.987 10.348 139.858 11.4676C135.05 13.9955 132.176 18.7511 132.176 24.1819V53.0212C132.176 55.4105 130.237 57.3495 127.848 57.3495C125.459 57.3495 123.519 55.4105 123.519 53.0212V24.1934C123.519 15.6172 128.234 7.80862 135.824 3.81488C139.131 2.07771 142.836 1.1543 146.552 1.1543C151.216 1.1543 155.723 2.55673 159.59 5.21731C170.705 12.8586 177.342 25.4747 177.342 38.9623V79.2347C177.342 81.6239 175.404 83.5628 173.014 83.5628H173.02Z" fill="white"/>
<path d="M146.835 0.000976562V1.73238C151.326 1.73238 155.66 3.08287 159.383 5.64533C170.262 13.125 176.76 25.4756 176.76 38.6804V79.5296C176.76 81.4401 175.207 82.9928 173.297 82.9928C171.387 82.9928 169.834 81.4401 169.834 79.5296V38.6746C169.834 27.7495 164.461 17.5342 155.458 11.3474C152.872 9.56981 149.9 8.63485 146.853 8.63485C144.383 8.63485 141.987 9.23512 139.731 10.4182C134.635 13.1019 131.588 18.1402 131.588 23.9V53.3107C131.588 55.221 130.035 56.7734 128.125 56.7734C126.214 56.7734 124.662 55.221 124.662 53.3107V23.9058C124.662 15.6528 129.199 8.13855 136.505 4.29484C139.685 2.62116 143.257 1.73815 146.83 1.73815V0.000976562M146.835 0.000976562C143.032 0.000976562 139.211 0.912848 135.708 2.75967C127.831 6.90346 122.942 15.0064 122.942 23.9058V53.3107C122.942 56.1791 125.268 58.5048 128.136 58.5048C131.004 58.5048 133.331 56.1791 133.331 53.3107V23.9058C133.331 18.7982 136.026 14.3312 140.545 11.9534C142.565 10.8915 144.717 10.3663 146.859 10.3663C149.513 10.3663 152.151 11.1743 154.482 12.7787C163.012 18.6423 168.108 28.3267 168.108 38.6804V79.5296C168.108 82.3985 170.435 84.7242 173.303 84.7242C176.171 84.7242 178.497 82.3985 178.497 79.5296V38.6746C178.497 24.8985 171.721 12.0169 160.369 4.21405C156.294 1.42072 151.574 0.000976562 146.835 0.000976562Z" fill="black"/>
<defs>
<linearGradient id="paint0_linear_925_9823" x1="60.371" y1="366.671" x2="326.666" y2="246.729" gradientUnits="userSpaceOnUse">
<stop stop-color="#0046FE"/>
<stop offset="1" stop-color="#00BDFF"/>
</linearGradient>
<linearGradient id="paint1_linear_925_9823" x1="35.6542" y1="162.362" x2="62.7886" y2="162.362" gradientUnits="userSpaceOnUse">
<stop stop-color="#7B61FF"/>
<stop offset="1" stop-color="#F3A6EB"/>
</linearGradient>
<linearGradient id="paint2_linear_925_9823" x1="36.2227" y1="164.817" x2="74.2166" y2="164.817" gradientUnits="userSpaceOnUse">
<stop stop-color="#7B61FF"/>
<stop offset="1" stop-color="#F3A6EB"/>
</linearGradient>
<linearGradient id="paint3_linear_925_9823" x1="84.9069" y1="227.456" x2="126.666" y2="217.395" gradientUnits="userSpaceOnUse">
<stop stop-color="#2D69FD"/>
<stop offset="1" stop-color="#00F2A5"/>
</linearGradient>
<linearGradient id="paint4_linear_925_9823" x1="113.131" y1="235.249" x2="128.339" y2="233.759" gradientUnits="userSpaceOnUse">
<stop stop-color="#2D69FD"/>
<stop offset="1" stop-color="#00F2A5"/>
</linearGradient>
<linearGradient id="paint5_linear_925_9823" x1="101.992" y1="226.193" x2="106.544" y2="225.789" gradientUnits="userSpaceOnUse">
<stop stop-color="#2D69FD"/>
<stop offset="1" stop-color="#00F2A5"/>
</linearGradient>
<linearGradient id="paint6_linear_925_9823" x1="76.8268" y1="237.851" x2="91.8852" y2="236.71" gradientUnits="userSpaceOnUse">
<stop stop-color="#2D69FD"/>
<stop offset="1" stop-color="#00F2A5"/>
</linearGradient>
<linearGradient id="paint7_linear_925_9823" x1="155.186" y1="230.983" x2="221.722" y2="219.455" gradientUnits="userSpaceOnUse">
<stop stop-color="#0046FE"/>
<stop offset="1" stop-color="#00BDFF"/>
</linearGradient>
<linearGradient id="paint8_linear_925_9823" x1="153.695" y1="141.898" x2="218.473" y2="123.781" gradientUnits="userSpaceOnUse">
<stop stop-color="#0046FE"/>
<stop offset="1" stop-color="#00BDFF"/>
</linearGradient>
<linearGradient id="paint9_linear_925_9823" x1="132.813" y1="152.664" x2="150.715" y2="150.795" gradientUnits="userSpaceOnUse">
<stop stop-color="#0046FE"/>
<stop offset="1" stop-color="#00BDFF"/>
</linearGradient>
</defs>
</svg>
