<svg width="174" height="242" viewBox="0 0 174 242" fill="none" xmlns="http://www.w3.org/2000/svg">
<g clip-path="url(#clip0_925_10132)">
<path d="M38.8108 89.3429C45.2815 73.5099 44.5965 58.2845 37.2807 55.336C29.9649 52.3874 18.7887 62.8323 12.318 78.6652C5.84726 94.4982 6.53229 109.724 13.8481 112.672C21.1638 115.621 32.34 105.176 38.8108 89.3429Z" fill="white"/>
<path d="M55.6804 33.1355C62.7561 21.8555 63.9926 9.92787 58.4422 6.49436C52.8919 3.06085 42.6565 9.42164 35.5807 20.7016C28.505 31.9816 27.2685 43.9092 32.8189 47.3427C38.3692 50.7762 48.6048 44.4154 55.6804 33.1355Z" fill="white"/>
<path d="M116.486 63.1688C122.15 59.9219 121.315 47.9598 114.625 36.4508C107.933 24.9417 97.9183 18.2439 92.2552 21.4909C86.5922 24.7378 87.4256 36.6998 94.1167 48.2089C100.808 59.718 110.823 66.4157 116.486 63.1688Z" fill="white"/>
<g style="mix-blend-mode:multiply" opacity="0.23">
<path d="M170.154 183.913L77.6906 240.681C73.8851 243.016 67.3792 242.942 63.1596 240.508L9.25061 209.429C5.03103 206.996 4.69703 203.132 8.50266 200.796L100.967 144.029C104.772 141.693 111.278 141.768 115.498 144.201L169.407 175.276C173.627 177.71 173.96 181.572 170.154 183.909V183.913Z" fill="#9CB4EF"/>
</g>
<path d="M170.155 176.919L77.691 233.687C73.8854 236.023 67.3796 235.948 63.16 233.515L9.25097 202.44C5.0314 200.006 4.6974 196.143 8.50302 193.808L100.967 137.039C104.772 134.703 111.278 134.779 115.498 137.212L169.407 168.287C173.627 170.721 173.96 174.584 170.155 176.919Z" fill="url(#paint0_linear_925_10132)"/>
<path d="M170.155 173.183L77.691 229.951C73.8854 232.287 67.3796 232.212 63.16 229.779L9.25097 198.704C5.0314 196.269 4.6974 192.407 8.50302 190.071L100.967 133.303C104.772 130.967 111.278 131.043 115.498 133.476L169.407 164.551C173.627 166.985 173.96 170.847 170.155 173.183Z" stroke="black" stroke-width="1.67264" stroke-miterlimit="10" stroke-linecap="round"/>
<path d="M140.763 148.036L34.5158 213.264L17.2941 203.337L123.541 138.109L140.763 148.036Z" fill="black"/>
<path d="M97.9467 206.901L71.312 223.251L60.8596 217.225L87.4894 200.875L97.9467 206.901Z" fill="white"/>
<path d="M146.183 158.217L121.317 173.482L114.276 169.424L139.146 154.157L146.183 158.217Z" fill="black"/>
<path d="M170.155 157.767L77.691 214.535C73.8854 216.871 67.3795 216.796 63.1599 214.363L9.25098 183.288C5.03139 180.854 4.6974 176.99 8.50302 174.654L100.967 117.887C104.773 115.551 111.278 115.626 115.498 118.06L169.407 149.135C173.626 151.568 173.961 155.431 170.155 157.767Z" fill="url(#paint1_linear_925_10132)"/>
<path d="M170.155 154.03L77.691 210.798C73.8854 213.133 67.3796 213.059 63.16 210.625L9.25097 179.551C5.0314 177.116 4.6974 173.253 8.50302 170.917L100.967 114.15C104.772 111.814 111.278 111.889 115.498 114.323L169.407 145.397C173.627 147.831 173.96 151.694 170.155 154.03Z" stroke="black" stroke-width="1.67264" stroke-miterlimit="10" stroke-linecap="round"/>
<path d="M140.763 128.884L34.5158 194.111L17.2941 184.184L123.541 118.957L140.763 128.884Z" fill="black"/>
<path d="M97.9467 187.748L71.312 204.098L60.8596 198.072L87.4894 181.722L97.9467 187.748Z" fill="white"/>
<path d="M146.183 139.062L121.317 154.328L114.276 150.269L139.146 135.003L146.183 139.062Z" fill="black"/>
<path d="M170.155 139.082L77.691 195.849C73.8854 198.185 67.3795 198.11 63.1599 195.677L9.25098 164.602C5.03139 162.168 4.6974 158.304 8.50302 155.969L100.967 99.2015C104.773 96.8657 111.278 96.9404 115.498 99.3742L169.407 130.449C173.626 132.882 173.961 136.746 170.155 139.082Z" fill="url(#paint2_linear_925_10132)"/>
<path d="M170.155 135.344L77.691 192.111C73.8854 194.447 67.3796 194.372 63.16 191.938L9.25097 160.863C5.0314 158.43 4.6974 154.566 8.50302 152.231L100.967 95.4631C104.772 93.1274 111.278 93.2022 115.498 95.636L169.407 126.711C173.627 129.144 173.96 133.008 170.155 135.344Z" stroke="black" stroke-width="1.67264" stroke-miterlimit="10" stroke-linecap="round"/>
<path d="M140.763 110.197L34.5158 175.426L17.2941 165.499L123.541 100.271L140.763 110.197Z" fill="black"/>
<path d="M97.9467 169.063L71.312 185.413L60.8596 179.387L87.4894 163.037L97.9467 169.063Z" fill="white"/>
<path d="M146.183 120.377L121.317 135.644L114.276 131.584L139.146 116.317L146.183 120.377Z" fill="black"/>
<path d="M102.089 109.953C111.557 104.524 112.68 88.8541 104.598 74.9521C96.5155 61.0501 82.2883 54.1808 72.8206 59.6091C63.3528 65.0373 62.2298 80.7076 70.3122 94.6097C78.3945 108.512 92.6217 115.381 102.089 109.953Z" fill="white"/>
<path d="M99.6029 103.705C103.761 101.131 104.514 94.3853 102.11 86.7801C101.15 83.767 99.7063 80.6278 97.773 77.5493C90.9614 66.702 80.73 60.8207 74.9298 64.413C72.8789 65.6837 71.6604 67.968 71.2324 70.8643C70.4562 76.1711 72.352 83.5474 76.755 90.564C83.5713 101.42 93.8027 107.302 99.6029 103.709V103.705Z" fill="url(#paint3_linear_925_10132)"/>
<path d="M103.342 109.24C112.821 103.368 113.39 87.2837 104.617 73.3112C101.329 68.0698 97.1893 63.8702 92.805 60.9785" stroke="black" stroke-width="0.557548" stroke-miterlimit="10" stroke-linecap="round"/>
<path d="M88.3555 58.5312C82.3766 55.8777 76.3083 55.7003 71.5666 58.6339C62.0877 64.506 61.5139 80.5852 70.2871 94.5622" stroke="black" stroke-width="0.557548" stroke-miterlimit="10" stroke-linecap="round"/>
<path d="M102.92 79.9869C102.256 78.5808 101.489 77.1747 100.619 75.7872C100.37 75.3948 100.121 75.0071 99.8619 74.624" stroke="black" stroke-width="0.557548" stroke-miterlimit="10" stroke-linecap="round"/>
<path d="M104.914 98.9437C105.535 97.4909 105.907 95.8139 106.02 93.9873" stroke="black" stroke-width="0.557548" stroke-miterlimit="10" stroke-linecap="round"/>
<path d="M99.8617 74.6193C92.8714 64.286 82.4189 59.1287 76.0637 63.0668C69.4732 67.145 69.7837 79.4543 76.7551 90.5585C83.7267 101.663 94.7201 107.357 101.311 103.274" stroke="black" stroke-width="0.557548" stroke-miterlimit="10" stroke-linecap="round"/>
<path d="M73.8389 99.4438C72.5782 97.9396 71.3833 96.3092 70.2872 94.5621C61.5141 80.5897 62.088 64.5058 71.5668 58.6338L65.4561 62.315C55.9773 68.1869 55.4035 84.2662 64.1767 98.2433C72.9498 112.216 87.7489 118.788 97.2276 112.916L103.338 109.235C96.2257 113.64 86.126 111.043 77.8185 103.573" fill="url(#paint4_linear_925_10132)"/>
<path d="M73.8389 99.4438C72.5782 97.9396 71.3833 96.3092 70.2872 94.5621C61.5141 80.5897 62.088 64.5058 71.5668 58.6338L65.4561 62.315C55.9773 68.1869 55.4035 84.2662 64.1767 98.2433C72.9498 112.216 87.7489 118.788 97.2276 112.916L103.338 109.235C96.2257 113.64 86.126 111.043 77.8185 103.573" stroke="black" stroke-width="0.557548" stroke-miterlimit="10" stroke-linecap="round"/>
<path d="M14.4015 106.787C11.0711 104.68 10.6571 97.6165 12.8586 89.1563C13.7336 85.8069 15.0132 82.2426 16.6925 78.6735C22.6009 66.098 31.1576 58.2826 35.8053 61.2256C37.447 62.2627 38.3784 64.5097 38.6419 67.5274C39.1216 73.0584 37.3435 81.1962 33.5237 89.3292C27.6108 101.914 19.0539 109.725 14.4062 106.782L14.4015 106.787Z" fill="url(#paint5_linear_925_10132)"/>
<path d="M11.1708 113.243C3.57837 108.436 3.59719 91.4087 11.2084 75.2081C14.0639 69.1351 17.5778 64.0385 21.2564 60.292" stroke="black" stroke-width="0.557548" stroke-miterlimit="10" stroke-linecap="round"/>
<path d="M24.9718 57.0134C29.9534 53.2808 34.9304 52.1737 38.7266 54.5795C39.1217 54.8318 39.4981 55.1121 39.8508 55.4297C39.9214 55.4905 39.9872 55.5558 40.0578 55.6212C40.1566 55.71 40.2507 55.8034 40.3448 55.9015C40.5141 56.0791 40.6835 56.266 40.8481 56.4621C40.928 56.5602 41.0081 56.6583 41.0833 56.761C41.1821 56.8872 41.2762 57.0134 41.3703 57.1441C41.4408 57.2423 41.5114 57.345 41.5772 57.4478C41.5819 57.4572 41.5914 57.4664 41.5961 57.4758C41.6714 57.5926 41.7466 57.7094 41.8172 57.8309C41.9489 58.0411 42.0712 58.256 42.1888 58.4802C42.2405 58.5783 42.2923 58.6764 42.3393 58.7791C42.3816 58.8539 42.4193 58.9287 42.4523 59.008C42.5228 59.1436 42.584 59.2837 42.645 59.4239C42.8944 59.989 43.1202 60.587 43.3131 61.213C43.3648 61.3718 43.4118 61.5307 43.4589 61.6895C43.6424 62.3341 43.7976 63.0022 43.9246 63.7029C43.9528 63.8431 43.9811 63.9785 43.9999 64.1234C44.0516 64.4129 44.0939 64.7073 44.1363 65.0062C44.174 65.2771 44.2068 65.5529 44.2351 65.8284C44.2586 66.0667 44.2821 66.3142 44.301 66.5618C44.3104 66.7066 44.3245 66.8562 44.3338 67.0057C44.3573 67.3934 44.3762 67.7858 44.3903 68.1875C44.4138 68.9723 44.4138 69.7758 44.3856 70.6027C44.3856 70.8222 44.3715 71.0465 44.3573 71.266C44.3338 71.7798 44.2962 72.3031 44.2492 72.8309C44.1927 73.5224 44.1175 74.2231 44.0186 74.9332C43.9293 75.6432 43.8164 76.3625 43.6847 77.0913C43.6 77.6099 43.5012 78.1284 43.3884 78.6562C43.3272 78.9553 43.2613 79.2543 43.1955 79.5532C43.139 79.8288 43.0732 80.1091 43.0026 80.3848C42.8709 80.9407 42.7298 81.4966 42.5792 82.0618C42.5039 82.3421 42.4287 82.6224 42.344 82.9027C42.2641 83.1877 42.1793 83.468 42.0947 83.7529C41.9864 84.122 41.8736 84.4863 41.7513 84.8553C41.6572 85.145 41.5631 85.4347 41.4644 85.7289C41.3468 86.0793 41.2244 86.4296 41.0974 86.78C41.041 86.9435 40.9798 87.1117 40.9186 87.2752C40.2695 89.055 39.5262 90.8396 38.6937 92.6147" stroke="black" stroke-width="0.557548" stroke-miterlimit="10" stroke-linecap="round"/>
<path d="M12.3935 82.0526C12.9768 80.455 13.6494 78.8433 14.4069 77.2317C14.6232 76.7739 14.8396 76.3254 15.0607 75.877" stroke="black" stroke-width="0.557548" stroke-miterlimit="10" stroke-linecap="round"/>
<path d="M10.1926 102.527C9.72689 101.074 9.47757 99.3455 9.43524 97.4209" stroke="black" stroke-width="0.557548" stroke-miterlimit="10" stroke-linecap="round"/>
<path d="M15.0664 75.8812C21.1064 63.8241 29.8231 56.7515 34.9129 59.9748C40.191 63.3149 39.5654 76.4605 33.5159 89.3351C27.4712 102.21 18.2888 109.936 13.0154 106.592" stroke="black" stroke-width="0.557548" stroke-miterlimit="10" stroke-linecap="round"/>
<path d="M49.1939 75.2317C49.0951 76.5911 48.9305 77.9972 48.6952 79.4313C48.3425 81.5989 47.8391 83.8412 47.1758 86.1162C46.2727 89.2414 45.0779 92.4367 43.5913 95.5993C35.9801 111.8 23.6553 121.04 16.0676 116.233L11.4482 113.412C17.1307 116.71 25.33 112.407 32.2497 103.349L35.6366 98.3462C36.7186 96.5523 37.7394 94.637 38.6944 92.6143C39.5269 90.8391 40.2703 89.0546 40.9193 87.2747C40.9805 87.1112 41.0416 86.9431 41.0981 86.7796C41.2251 86.4292 41.3475 86.0788 41.4651 85.7285C41.5638 85.4342 41.658 85.1445 41.752 84.8549C41.8743 84.4858 41.9873 84.1215 42.0954 83.7525C42.1801 83.4675 42.2648 83.1872 42.3447 82.9023C42.4247 82.622 42.5047 82.3417 42.58 82.0614C42.7305 81.4961 42.8716 80.9403 43.0033 80.3844C43.0692 80.1041 43.135 79.8284 43.1962 79.5528C43.262 79.2538 43.3279 78.9549 43.389 78.6558C43.502 78.128 43.6007 77.6094 43.6854 77.0909C43.8124 76.3668 43.9253 75.6474 44.0193 74.9327C44.1135 74.2226 44.1887 73.5219 44.2499 72.8306C44.297 72.3027 44.3345 71.7794 44.3581 71.2655C44.3722 71.0461 44.3816 70.8218 44.3863 70.6023C44.4145 69.7754 44.4145 68.9718 44.391 68.1871C44.3769 67.7853 44.3581 67.3929 44.3345 67.0053C44.3251 66.8557 44.3111 66.7062 44.3017 66.5614C44.2828 66.3138 44.2593 66.0663 44.2358 65.828C44.2075 65.5524 44.1746 65.2767 44.137 65.0058C44.0947 64.7069 44.0523 64.4125 44.0006 64.1229C43.9771 63.9828 43.9535 63.8426 43.9253 63.7025C43.7983 63.0018 43.6431 62.3337 43.4596 61.6891C43.4125 61.5303 43.3656 61.3714 43.3138 61.2126C43.1209 60.5866 42.8951 59.9886 42.6458 59.4234C42.5847 59.2833 42.5188 59.1432 42.453 59.0076C42.42 58.9282 42.3824 58.8535 42.34 58.7787C42.2929 58.676 42.2413 58.5779 42.1895 58.4798C42.0719 58.2556 41.9496 58.0407 41.8179 57.8305C41.7473 57.709 41.6721 57.5922 41.5968 57.4754C41.5921 57.466 41.5827 57.4567 41.5779 57.4473C41.512 57.3446 41.4415 57.2418 41.3709 57.1437C41.2769 57.0129 41.1828 56.8868 41.084 56.7606C41.0088 56.6579 40.9288 56.5598 40.8488 56.4616C40.6842 56.2655 40.5148 56.0787 40.3455 55.9011C40.2514 55.803 40.1573 55.7095 40.0585 55.6208C39.9879 55.5554 39.9221 55.49 39.8515 55.4292C39.4988 55.1116 39.1224 54.8313 38.7272 54.5791L43.6242 57.5641C47.11 59.7738 48.9916 64.562 49.2692 70.663C49.335 72.1158 49.3116 73.6434 49.1939 75.2317Z" fill="url(#paint6_linear_925_10132)" stroke="black" stroke-width="0.557548" stroke-miterlimit="10" stroke-linecap="round"/>
<path d="M48.6954 79.4312C48.3425 81.5989 47.8393 83.8412 47.176 86.1161L42.0956 83.7523C42.1802 83.4675 42.2649 83.1872 42.3449 82.9022C42.4249 82.6219 42.5048 82.3416 42.5801 82.0613C42.7306 81.4961 42.8718 80.9402 43.0035 80.3842C43.0694 80.1039 43.1352 79.8283 43.1963 79.5527C43.2621 79.2538 43.328 78.9548 43.3891 78.6558C43.5021 78.1279 43.6009 77.6094 43.6856 77.0908L48.6954 79.4312Z" fill="black"/>
<path d="M49.1936 75.2321L44.2496 72.831C44.2966 72.3031 44.3343 71.7799 44.3578 71.2661C44.3719 71.0465 44.3813 70.8223 44.386 70.6027C44.4143 69.7758 44.4143 68.9724 44.3908 68.1875L49.2688 70.6634C49.3347 72.1162 49.3112 73.6438 49.1936 75.2321Z" fill="black"/>
<path d="M111.998 58.9327C109.157 59.8156 104.857 56.625 101.014 51.2621C99.4946 49.1366 98.0457 46.6747 96.7898 43.9793C92.3538 34.4916 91.9728 25.8027 95.9383 24.5693C97.3401 24.1349 99.0948 24.6908 100.972 26.0035C104.415 28.414 108.277 33.3798 111.147 39.5133C115.583 49.0059 115.964 57.6948 112.003 58.928L111.998 58.9327Z" fill="url(#paint7_linear_925_10132)"/>
<path d="M114.181 63.918C107.709 65.9314 97.8299 57.6582 92.1192 45.4376C89.9788 40.8549 88.7227 36.3703 88.3371 32.4463" stroke="black" stroke-width="0.557548" stroke-miterlimit="10" stroke-linecap="round"/>
<path d="M88.2383 28.7275C88.4877 24.0654 90.2612 20.6786 93.5023 19.6695C93.8409 19.5668 94.1843 19.4874 94.5419 19.4406C94.6125 19.4313 94.683 19.422 94.7536 19.4173C94.8523 19.4033 94.9511 19.3939 95.0547 19.3892C95.238 19.38 95.4309 19.3706 95.6238 19.3753C95.7179 19.3753 95.8167 19.3753 95.9108 19.3845C96.033 19.3845 96.1507 19.3986 96.273 19.4079C96.3623 19.4173 96.4565 19.4267 96.5505 19.436C96.5599 19.436 96.5694 19.436 96.5741 19.436C96.6775 19.45 96.7811 19.464 96.8892 19.4827C97.0774 19.5107 97.2609 19.5435 97.4443 19.5855C97.5243 19.6042 97.6089 19.6228 97.6889 19.6462C97.7547 19.6603 97.8159 19.6742 97.877 19.6929C97.99 19.7162 98.1029 19.749 98.211 19.7863C98.658 19.9172 99.1189 20.0807 99.5753 20.2721C99.6929 20.3188 99.8058 20.3702 99.9233 20.4217C100.384 20.6272 100.85 20.8654 101.32 21.1318C101.415 21.1832 101.509 21.2345 101.603 21.2906C101.796 21.4027 101.989 21.5194 102.181 21.6409C102.355 21.753 102.534 21.8651 102.708 21.9819C102.859 22.0847 103.014 22.1921 103.164 22.2996C103.254 22.365 103.348 22.4304 103.437 22.4957C103.673 22.6686 103.912 22.8508 104.152 23.0377C104.618 23.4068 105.084 23.7945 105.554 24.2102C105.681 24.3177 105.803 24.4345 105.926 24.5466C106.213 24.8082 106.5 25.0838 106.782 25.3688C107.154 25.7378 107.525 26.1208 107.892 26.5226C108.259 26.9197 108.626 27.3308 108.984 27.7605C109.242 28.0596 109.496 28.3678 109.75 28.6902C109.896 28.8724 110.037 29.0546 110.178 29.2367C110.31 29.4049 110.442 29.5778 110.569 29.7506C110.828 30.0964 111.081 30.4467 111.335 30.8063C111.463 30.9839 111.59 31.1661 111.712 31.3483C111.839 31.5304 111.961 31.7173 112.084 31.9041C112.243 32.1471 112.403 32.3854 112.559 32.6376C112.681 32.8337 112.803 33.0253 112.925 33.2262C113.071 33.4645 113.217 33.7026 113.358 33.9456C113.424 34.0577 113.495 34.1745 113.561 34.2866C114.28 35.5199 114.953 36.8138 115.579 38.1499" stroke="black" stroke-width="0.557548" stroke-miterlimit="10" stroke-linecap="round"/>
<path d="M96.6678 48.0777C96.0233 46.9659 95.4118 45.7981 94.8474 44.5881C94.6874 44.2424 94.5322 43.8968 94.3817 43.5557" stroke="black" stroke-width="0.557548" stroke-miterlimit="10" stroke-linecap="round"/>
<path d="M107.487 59.2746C106.42 58.8355 105.295 58.1441 104.157 57.2285" stroke="black" stroke-width="0.557548" stroke-miterlimit="10" stroke-linecap="round"/>
<path d="M94.3808 43.5546C90.3117 34.249 90.4388 25.8216 94.7807 24.4763C99.2825 23.0795 106.611 29.8157 111.146 39.5231C115.686 49.2304 115.714 58.237 111.217 59.6339" stroke="black" stroke-width="0.557548" stroke-miterlimit="10" stroke-linecap="round"/>
<path d="M110.568 23.7004C111.311 24.415 112.045 25.1952 112.764 26.022C113.851 27.274 114.909 28.6521 115.907 30.1376C117.285 32.1696 118.56 34.4074 119.67 36.7898C125.381 49.0103 124.765 60.5489 118.292 62.5623L114.411 63.8377C119.082 62.1839 120.564 55.4009 118.663 47.0437L117.403 42.6758C116.885 41.1856 116.269 39.6721 115.559 38.1445C114.933 36.8085 114.256 35.5144 113.541 34.2812C113.475 34.1691 113.409 34.0523 113.338 33.9402C113.197 33.6972 113.051 33.459 112.905 33.2207C112.783 33.0199 112.661 32.8283 112.539 32.6322C112.383 32.3846 112.228 32.1417 112.063 31.8987C111.941 31.7119 111.819 31.5297 111.692 31.3429C111.57 31.1607 111.442 30.9784 111.315 30.801C111.061 30.4412 110.807 30.0908 110.549 29.7452C110.417 29.5723 110.29 29.3995 110.158 29.2313C110.017 29.0492 109.876 28.867 109.73 28.6847C109.481 28.3624 109.227 28.0541 108.963 27.7551C108.606 27.33 108.244 26.919 107.872 26.5172C107.505 26.1201 107.134 25.737 106.762 25.3633C106.48 25.0784 106.193 24.8027 105.906 24.5412C105.783 24.4244 105.661 24.3122 105.534 24.2048C105.068 23.7891 104.603 23.3967 104.132 23.0323C103.892 22.8454 103.657 22.6679 103.417 22.4904C103.328 22.425 103.234 22.3596 103.144 22.2942C102.994 22.1867 102.839 22.0793 102.688 21.9765C102.514 21.8597 102.34 21.7429 102.161 21.6355C101.968 21.5141 101.776 21.3973 101.583 21.2852C101.489 21.2291 101.399 21.1777 101.3 21.1264C100.83 20.8601 100.369 20.6218 99.9033 20.4163C99.7904 20.3649 99.6729 20.3181 99.5552 20.2667C99.0989 20.0753 98.6426 19.9117 98.191 19.7809C98.0781 19.7482 97.9653 19.7155 97.857 19.6875C97.7959 19.6688 97.7347 19.6547 97.6688 19.6408C97.5842 19.6174 97.5043 19.5988 97.4243 19.5801C97.2361 19.538 97.0526 19.5053 96.8691 19.4773C96.7657 19.4586 96.6622 19.4445 96.554 19.4306C96.5446 19.4306 96.5352 19.4306 96.5305 19.4306C96.4411 19.4166 96.347 19.4072 96.253 19.4025C96.1306 19.3932 96.013 19.3839 95.8907 19.3792C95.7966 19.3745 95.6978 19.3699 95.6038 19.3699C95.4109 19.3699 95.218 19.3745 95.0345 19.3839C94.9311 19.3885 94.8323 19.3978 94.7335 19.4119C94.663 19.4212 94.5924 19.4259 94.5219 19.4353C94.1643 19.482 93.8209 19.5613 93.4822 19.6641L97.5936 18.3094C100.567 17.3845 104.259 18.6317 107.938 21.4346C108.813 22.1027 109.688 22.8548 110.553 23.6957L110.568 23.7004Z" fill="url(#paint8_linear_925_10132)" stroke="black" stroke-width="0.557548" stroke-miterlimit="10" stroke-linecap="round"/>
<path d="M112.766 26.0234C113.852 27.2753 114.911 28.6534 115.908 30.139L112.069 31.9001C111.947 31.7132 111.825 31.531 111.698 31.3442C111.575 31.162 111.448 30.9799 111.321 30.8023C111.067 30.4426 110.813 30.0923 110.555 29.7466C110.423 29.5737 110.296 29.4008 110.164 29.2326C110.023 29.0505 109.882 28.8683 109.736 28.6862C109.487 28.3639 109.233 28.0555 108.969 27.7566L112.761 26.0234H112.766Z" fill="black"/>
<path d="M110.569 23.7014L106.777 25.3644C106.495 25.0795 106.208 24.8039 105.921 24.5422C105.799 24.4255 105.676 24.3134 105.549 24.2059C105.084 23.7901 104.618 23.3977 104.148 23.0334L107.953 21.4404C108.828 22.1084 109.703 22.8605 110.569 23.7014Z" fill="black"/>
<path d="M35.4565 42.8726C38.1895 44.0451 42.7995 41.3169 47.1838 36.3746C48.9196 34.4172 50.6131 32.1142 52.1466 29.5683C57.5517 20.5897 58.8358 11.9848 55.0255 10.3544C53.6801 9.77516 51.8738 10.1489 49.8698 11.2607C46.196 13.3021 41.8353 17.8428 38.3401 23.6495C32.9351 32.6327 31.6461 41.2376 35.4565 42.8726Z" fill="url(#paint9_linear_925_10132)"/>
<path d="M32.7671 47.6051C38.9953 50.2725 49.683 43.0646 56.6451 31.5026C59.2559 27.1674 60.9682 22.8323 61.7631 18.9736" stroke="black" stroke-width="0.557548" stroke-miterlimit="10" stroke-linecap="round"/>
<path d="M34.0886 21.8315C34.8507 20.5655 35.6598 19.351 36.5019 18.1972C36.5771 18.0897 36.6571 17.9823 36.737 17.8748C36.9017 17.6459 37.071 17.4264 37.2404 17.2021C37.3815 17.0152 37.5273 16.8378 37.6684 16.6556C37.8472 16.422 38.0307 16.1977 38.2141 15.9782C38.3553 15.8054 38.4964 15.6325 38.6422 15.4643C38.7833 15.2915 38.9244 15.128 39.0702 14.9645C39.3619 14.6328 39.6488 14.3105 39.9453 13.9928C40.0864 13.834 40.2369 13.6751 40.3874 13.521C40.5474 13.3528 40.7073 13.1846 40.8673 13.0211C41.1495 12.7269 41.4364 12.4466 41.7234 12.1756C42.1233 11.7879 42.5278 11.4141 42.937 11.0544C43.3416 10.6947 43.7508 10.3491 44.1602 10.0221C44.4705 9.76979 44.7857 9.52687 45.0963 9.2933C45.228 9.19053 45.3644 9.09243 45.5008 8.99433C46.0089 8.62528 46.5121 8.28893 47.0155 7.97127C47.2743 7.81244 47.5283 7.65361 47.7822 7.5088C47.8811 7.45274 47.9798 7.39668 48.0739 7.34062C48.2385 7.2472 48.4032 7.15844 48.5631 7.06968C48.7466 6.97158 48.9348 6.87348 49.123 6.78472C49.3299 6.68662 49.5322 6.58851 49.7345 6.49508C49.8333 6.4437 49.932 6.40632 50.0309 6.36428C50.5248 6.14472 51.0092 5.96254 51.4938 5.80371C51.6114 5.76634 51.7337 5.72896 51.856 5.69159C52.3311 5.54678 52.8015 5.43466 53.2625 5.35058C53.3754 5.32722 53.4884 5.30853 53.606 5.29452C53.6718 5.28051 53.733 5.27116 53.7989 5.26649C53.8835 5.25248 53.9681 5.24313 54.0481 5.23379C54.241 5.21043 54.4245 5.19642 54.6126 5.19175C54.7209 5.18241 54.8243 5.18241 54.9278 5.17773C54.9372 5.17773 54.9466 5.17773 54.9513 5.17773C55.0453 5.17773 55.1395 5.17773 55.2288 5.17773C55.3512 5.17773 55.4688 5.18708 55.5911 5.19175C55.6851 5.19175 55.784 5.20109 55.878 5.21043C56.0709 5.22912 56.2591 5.25715 56.4426 5.28518C56.546 5.30386 56.6401 5.32255 56.7389 5.34591C56.8094 5.35992 56.88 5.37393 56.9458 5.39262C57.294 5.47671 57.628 5.59349 57.9573 5.72896C61.0714 7.06501 62.4826 10.6153 62.2427 15.2774" stroke="black" stroke-width="0.557548" stroke-miterlimit="10" stroke-linecap="round"/>
<path d="M51.8403 33.6608C52.5977 32.6238 53.3268 31.526 54.0183 30.3768C54.2158 30.0498 54.404 29.7228 54.5922 29.4004" stroke="black" stroke-width="0.557548" stroke-miterlimit="10" stroke-linecap="round"/>
<path d="M39.911 43.6804C41.0212 43.3534 42.2113 42.7788 43.4392 41.9893" stroke="black" stroke-width="0.557548" stroke-miterlimit="10" stroke-linecap="round"/>
<path d="M54.5875 29.3946C59.6068 20.5561 60.3642 12.1662 56.1869 10.377C51.8592 8.52245 43.8623 14.4646 38.3349 23.6534C32.8029 32.8421 31.8338 41.7927 36.1616 43.652" stroke="black" stroke-width="0.557548" stroke-miterlimit="10" stroke-linecap="round"/>
<path d="M40.5652 7.97524C39.7513 8.61057 38.9375 9.30662 38.1378 10.0587C36.9241 11.1939 35.7293 12.4552 34.5815 13.8239C33.0009 15.7065 31.5003 17.7947 30.1409 20.0557C23.1834 31.6176 22.5907 43.1608 28.8143 45.8282L32.5399 47.496C28.0663 45.3704 27.3043 38.4707 30.0655 30.3563L31.7778 26.1426C32.4459 24.7132 33.2173 23.2697 34.0875 21.8261C34.8497 20.5601 35.6587 19.3456 36.5008 18.1918C36.576 18.0843 36.656 17.9769 36.7361 17.8695C36.9006 17.6405 37.07 17.421 37.2393 17.1967C37.3804 17.0098 37.5263 16.8324 37.6675 16.6502C37.8461 16.4166 38.0296 16.1923 38.2131 15.9729C38.3542 15.8 38.4953 15.6271 38.6411 15.459C38.7823 15.2908 38.9234 15.1226 39.0692 14.9591C39.3608 14.6274 39.6526 14.3051 39.9442 13.9874C40.0947 13.8286 40.2359 13.6698 40.3864 13.5157C40.5463 13.3475 40.7063 13.1793 40.8662 13.0158C41.1484 12.7215 41.4354 12.4412 41.7223 12.1702C42.1222 11.7872 42.5267 11.4134 42.9359 11.0491C43.3406 10.6894 43.7498 10.3484 44.1591 10.0167C44.4696 9.76442 44.7847 9.5215 45.0952 9.28793C45.2269 9.18516 45.3633 9.08706 45.4997 8.98896C46.0078 8.61991 46.5112 8.28356 47.0144 7.9659C47.2732 7.80707 47.5272 7.64824 47.7812 7.50343C47.88 7.44737 47.9788 7.39131 48.0728 7.33526C48.2376 7.24183 48.4021 7.15307 48.5621 7.06431C48.7456 6.96621 48.9337 6.86811 49.1219 6.77934C49.3288 6.68124 49.5311 6.58314 49.7334 6.48971C49.8322 6.443 49.931 6.40096 50.0298 6.35891C50.5237 6.13935 51.0083 5.95717 51.4928 5.79834C51.6104 5.76097 51.7327 5.7236 51.855 5.68622C52.3301 5.54141 52.8005 5.4293 53.2615 5.34521C53.3745 5.32185 53.492 5.30317 53.6049 5.28915C53.6708 5.27514 53.7319 5.26579 53.7978 5.26112C53.8824 5.24711 53.9672 5.23777 54.0471 5.22842C54.24 5.20507 54.4235 5.19105 54.6115 5.18638C54.7198 5.17704 54.8233 5.17704 54.9267 5.17237C54.9361 5.17237 54.9455 5.17237 54.9503 5.17237C55.0444 5.17237 55.1384 5.17237 55.2279 5.17237C55.3502 5.17237 55.4677 5.18171 55.59 5.18638C55.6842 5.18638 55.7829 5.19572 55.8771 5.20507C56.0698 5.22375 56.258 5.25178 56.4415 5.27981C56.545 5.29849 56.639 5.31718 56.7379 5.34054C56.8084 5.35455 56.879 5.36857 56.9449 5.38725C57.2929 5.47134 57.6269 5.58812 57.9562 5.7236L54.0094 3.95311C51.1494 2.72918 47.3437 3.58873 43.397 5.99454C42.4562 6.56913 41.506 7.22781 40.5604 7.97057L40.5652 7.97524Z" fill="url(#paint10_linear_925_10132)" stroke="black" stroke-width="0.557548" stroke-miterlimit="10" stroke-linecap="round"/>
<path d="M38.1388 10.0642C36.925 11.1994 35.7302 12.4607 34.5825 13.8295L38.214 15.9783C38.3551 15.8056 38.4962 15.6327 38.642 15.4645C38.7833 15.2963 38.9244 15.1281 39.0702 14.9646C39.3618 14.633 39.6535 14.3106 39.9451 13.993C40.0956 13.8342 40.2368 13.6754 40.3873 13.5211C40.5472 13.3529 40.7072 13.1848 40.8671 13.0213C41.1493 12.727 41.4364 12.4467 41.7233 12.1758L38.1341 10.0596L38.1388 10.0642Z" fill="black"/>
<path d="M40.5659 7.97582L44.1645 10.0219C44.475 9.76967 44.7902 9.52675 45.1006 9.29318C45.2323 9.19041 45.3687 9.09231 45.5052 8.99421C46.0132 8.62516 46.5166 8.28881 47.02 7.97115L43.4025 5.99512C42.4616 6.5697 41.5114 7.22839 40.5659 7.97115V7.97582Z" fill="black"/>
<path d="M80.877 72.6064L81.0875 84.5944L85.2464 80.1387L80.877 72.6064Z" fill="white"/>
<path d="M92.7421 81.4416L80.877 72.6064L85.2464 80.1387L92.7421 81.4416Z" fill="white"/>
<path d="M81.7681 85.7691L92.7262 93.0358L93.4227 82.6162L89.7294 87.8723L81.7681 85.7691Z" fill="white"/>
<path d="M92.7408 81.4416L85.2451 80.1387L81.0862 84.5945L89.0476 86.6977L92.7408 81.4416Z" fill="white"/>
<path d="M29.5963 83.8448C30.0245 81.9482 29.8739 80.3833 29.2811 79.5984C29.9586 78.538 30.5324 77.244 30.8759 75.9173C31.6238 73.0163 31.0358 70.8347 29.5164 71.1011L28.8107 71.3019L29.841 67.0742L28.4768 67.4619L27.4466 71.6897L26.3318 72.0073L27.3619 67.7796L25.9978 68.1673L24.9675 72.395L22.2439 73.1705L21.4911 76.249L23.227 75.7585L21.9992 80.785L20.2635 81.2755L19.5908 84.0223L21.3266 83.5318L19.9295 89.2637L18.4853 89.6749L17.4222 92.9729L19.1439 92.4823L20.1364 92.2021L19.1015 96.4437L20.4657 96.0561L21.5005 91.8143L22.6154 91.4967L21.5806 95.7383L22.9447 95.3507L23.9797 91.1089H23.9937L24.6853 90.9081C26.5434 90.6137 28.8484 87.1709 29.5963 83.8495V83.8448ZM25.5837 75.081L27.3808 74.5719C28.1475 74.2963 28.5004 75.2726 28.1522 76.6928C27.8041 78.1129 26.8868 79.449 26.153 79.5984L24.356 80.1077L25.5837 75.081ZM24.7653 87.8856L22.2861 88.591L23.6834 82.8591L26.1624 82.1537C26.8962 82.0836 27.1879 83.1628 26.8256 84.6343C26.4682 86.1058 25.5696 87.5213 24.7606 87.8856H24.7653Z" fill="white"/>
<path d="M41.0601 28.0117C41.3376 27.923 41.4411 28.1612 41.2953 28.5489C41.1447 28.9367 40.8013 29.3244 40.5238 29.4131C40.2463 29.5019 40.1428 29.2637 40.2886 28.8759C40.4392 28.4882 40.7826 28.1004 41.0601 28.0117Z" fill="white"/>
<path d="M51.5737 24.5654C51.8513 24.4767 51.9548 24.7149 51.809 25.1027C51.6584 25.4904 51.315 25.8781 51.0375 25.967C50.76 26.0557 50.6564 25.8174 50.8022 25.4297C50.9528 25.0419 51.2962 24.6543 51.5737 24.5654Z" fill="white"/>
<path d="M39.098 28.8763C39.2766 28.8155 39.3425 28.9743 39.2485 29.2219C39.1543 29.4695 38.9286 29.7217 38.7498 29.7825C38.5711 29.8432 38.5052 29.6844 38.5993 29.4369C38.6934 29.1845 38.9192 28.937 39.098 28.8763Z" fill="white"/>
<path d="M53.3482 24.2005C53.527 24.1398 53.5928 24.2986 53.4987 24.5461C53.4046 24.7985 53.1789 25.046 53.0001 25.1067C52.8213 25.1675 52.7554 25.0087 52.8496 24.761C52.9436 24.5088 53.1694 24.2613 53.3482 24.2005Z" fill="white"/>
<path d="M44.2216 26.3686C44.7768 26.1865 44.9838 26.6676 44.6873 27.4384C44.391 28.2092 43.7042 28.9846 43.1491 29.1668C42.5941 29.349 42.387 28.8679 42.6834 28.0971C42.9797 27.3263 43.6666 26.5508 44.2216 26.3686Z" fill="white"/>
<path d="M48.9493 24.8159C49.5045 24.6337 49.7114 25.115 49.415 25.8857C49.1187 26.6565 48.4318 27.432 47.8768 27.6142C47.3218 27.7963 47.1148 27.3152 47.4111 26.5444C47.7074 25.7737 48.3943 24.9982 48.9493 24.8159Z" fill="white"/>
<path d="M46.4277 21.0004C46.4371 21.2901 46.1924 21.7431 45.8772 22.0187C45.562 22.2897 45.2986 22.2756 45.2892 21.9861C45.2798 21.6964 45.5245 21.2434 45.8397 20.9676C46.1547 20.6967 46.4182 20.7107 46.4277 21.0004Z" fill="white"/>
<path d="M46.8087 31.9926C46.8181 32.2821 46.5734 32.7353 46.2582 33.0109C45.9431 33.2819 45.6797 33.2678 45.6702 32.9783C45.6608 32.6886 45.9054 32.2354 46.2206 31.9598C46.5358 31.6889 46.7992 31.7029 46.8087 31.9926Z" fill="white"/>
<path d="M46.1549 19.2204C46.1596 19.4072 46.0044 19.7016 45.7974 19.8791C45.5951 20.0567 45.4257 20.0473 45.4163 19.8604C45.407 19.6736 45.5668 19.3793 45.7739 19.2017C45.9762 19.0242 46.1455 19.0335 46.1549 19.2204Z" fill="white"/>
<path d="M46.6769 34.1188C46.6816 34.3057 46.5264 34.6 46.3194 34.7775C46.1125 34.9551 45.9478 34.9457 45.9384 34.7588C45.929 34.572 46.0889 34.2776 46.296 34.1001C46.4982 33.9227 46.6675 33.932 46.6769 34.1188Z" fill="white"/>
<path d="M47.1006 23.5376C47.1194 24.1168 46.6302 25.0277 45.9998 25.5696C45.3742 26.1116 44.8474 26.0835 44.8286 25.509C44.8097 24.9296 45.299 24.0187 45.9293 23.4769C46.555 22.935 47.0818 22.963 47.1006 23.5376Z" fill="white"/>
<path d="M47.2688 28.4742C47.2876 29.0534 46.7984 29.9644 46.168 30.5063C45.5424 31.0482 45.0156 31.0201 44.9967 30.4455C44.9779 29.8662 45.4672 28.9553 46.0975 28.4134C46.7232 27.8715 47.2501 27.8995 47.2688 28.4742Z" fill="white"/>
<path d="M51.413 19.9776C51.1449 20.3559 50.7968 20.5755 50.6274 20.4587C50.458 20.3419 50.5428 19.9448 50.8109 19.5617C51.079 19.1787 51.4271 18.9638 51.5965 19.0806C51.7658 19.1974 51.6811 19.5945 51.413 19.9776Z" fill="white"/>
<path d="M41.2861 34.416C41.018 34.7944 40.6698 35.014 40.5005 34.8972C40.3311 34.7804 40.4159 34.3833 40.684 34.0002C40.9521 33.6171 41.3002 33.4023 41.4695 33.5191C41.6389 33.6359 41.5542 34.033 41.2861 34.416Z" fill="white"/>
<path d="M53.1068 17.3342C53.2791 17.0887 53.3323 16.8298 53.2257 16.756C53.119 16.6824 52.8931 16.8217 52.7208 17.0671C52.5485 17.3128 52.4953 17.5716 52.6019 17.6454C52.7085 17.7191 52.9345 17.5798 53.1068 17.3342Z" fill="white"/>
<path d="M39.3785 36.9026C39.5508 36.657 39.604 36.3981 39.4974 36.3245C39.3909 36.2506 39.1648 36.3899 38.9925 36.6356C38.8203 36.8812 38.7671 37.14 38.8736 37.2137C38.9802 37.2875 39.2063 37.1482 39.3785 36.9026Z" fill="white"/>
<path d="M48.9231 24.1521C49.4561 23.392 49.6204 22.5907 49.2901 22.362C48.9596 22.1335 48.2596 22.5643 47.7265 23.3244C47.1933 24.0843 47.0291 24.8857 47.3595 25.1143C47.69 25.3428 48.39 24.9121 48.9231 24.1521Z" fill="white"/>
<path d="M44.3705 30.6432C44.9035 29.8832 45.0679 29.0818 44.7374 28.8533C44.407 28.6246 43.707 29.0555 43.1739 29.8155C42.6408 30.5755 42.4766 31.3769 42.8069 31.6055C43.1373 31.8341 43.8374 31.4032 44.3705 30.6432Z" fill="white"/>
<path d="M44.1984 31.8245C43.8738 31.9319 43.4693 32.385 43.2953 32.8381C43.1212 33.2913 43.2436 33.5763 43.5681 33.4687C43.8927 33.3613 44.2973 32.9082 44.4712 32.4551C44.6453 32.0019 44.523 31.7169 44.1984 31.8245Z" fill="white"/>
<path d="M48.53 20.5109C48.2054 20.6185 47.8009 21.0715 47.6268 21.5247C47.4527 21.9779 47.575 22.2627 47.8996 22.1553C48.2242 22.0479 48.6288 21.5948 48.8029 21.1416C48.9769 20.6885 48.8546 20.4035 48.53 20.5109Z" fill="white"/>
<path d="M42.8054 35.4492C42.5748 35.524 42.2926 35.8417 42.1703 36.164C42.0479 36.4816 42.1327 36.6825 42.3631 36.6078C42.5937 36.533 42.8759 36.2154 42.9982 35.893C43.1206 35.5754 43.0358 35.3745 42.8054 35.4492Z" fill="white"/>
<path d="M49.7352 17.376C49.5048 17.4508 49.2225 17.7684 49.1001 18.0907C48.9779 18.4084 49.0626 18.6092 49.293 18.5345C49.5236 18.4597 49.8058 18.1421 49.9281 17.8198C50.0504 17.502 49.9658 17.3012 49.7352 17.376Z" fill="white"/>
<path d="M42.1234 30.391C42.1093 30.0501 41.8036 30.036 41.4319 30.3537C41.0602 30.6713 40.7733 31.2085 40.7874 31.5495C40.8015 31.8906 41.1073 31.9046 41.479 31.587C41.8458 31.2692 42.1376 30.732 42.1234 30.391Z" fill="white"/>
<path d="M51.3109 22.4301C51.2967 22.0891 50.991 22.0751 50.6193 22.3928C50.2525 22.7104 49.9608 23.2476 49.9749 23.5887C49.9891 23.9297 50.2947 23.9438 50.6664 23.626C51.0333 23.3084 51.325 22.7712 51.3109 22.4301Z" fill="white"/>
<path d="M39.1834 32.9407C39.174 32.7025 38.9577 32.6885 38.6989 32.9127C38.4402 33.137 38.2379 33.5153 38.2426 33.7535C38.252 33.9918 38.4684 34.0058 38.7271 33.7816C38.9859 33.5574 39.1881 33.179 39.1834 32.9407Z" fill="white"/>
<path d="M53.8546 20.2249C53.8452 19.9866 53.6289 19.9727 53.3701 20.1969C53.1114 20.421 52.9091 20.7995 52.9138 21.0377C52.9232 21.276 53.1396 21.29 53.3983 21.0658C53.6571 20.8415 53.8593 20.4632 53.8546 20.2249Z" fill="white"/>
<path d="M43.9758 25.5547C44.291 25.1062 44.385 24.6345 44.1922 24.5036C43.9993 24.3729 43.5853 24.6204 43.2701 25.0689C42.9551 25.5174 42.8609 25.9892 43.0538 26.12C43.2467 26.2554 43.6606 26.0032 43.9758 25.5547Z" fill="white"/>
<path d="M48.827 28.9092C49.1422 28.4608 49.2362 27.9889 49.0433 27.8582C48.8504 27.7273 48.4365 27.9749 48.1213 28.4233C47.8061 28.8718 47.7121 29.3436 47.905 29.4744C48.0978 29.6053 48.5118 29.3576 48.827 28.9092Z" fill="white"/>
<path d="M42.4241 24.4799C42.6453 24.1668 42.7112 23.8351 42.5747 23.7417C42.4382 23.6483 42.1466 23.8257 41.9302 24.1388C41.7139 24.4518 41.6432 24.7835 41.7798 24.8769C41.9162 24.9704 42.2078 24.7928 42.4241 24.4799Z" fill="white"/>
<path d="M50.1666 29.8383C50.3878 29.5252 50.4536 29.1935 50.3172 29.1001C50.1807 29.0067 49.8891 29.1843 49.6727 29.4972C49.4563 29.8102 49.3857 30.1419 49.5221 30.2353C49.6587 30.3288 49.9503 30.1513 50.1666 29.8383Z" fill="white"/>
<path d="M102.769 33.7393L103.084 38.9293C103.131 39.6861 102.938 40.2233 102.557 40.4149C102.171 40.6111 101.626 40.4522 101.033 39.9711L96.9781 36.6823L95.7927 37.285L100.77 41.3258L101.137 41.6248C102.063 42.3769 102.924 42.6291 103.526 42.3208H103.54C104.143 42.0079 104.439 41.1717 104.368 39.9804L104.34 39.5087L103.954 33.1367L102.769 33.7393Z" fill="white"/>
<path d="M110.751 49.244L106.696 45.9552C106.103 45.4741 105.557 45.3153 105.172 45.5114C104.786 45.7076 104.598 46.2402 104.645 46.997L104.96 52.187L103.775 52.7896L103.389 46.4177L103.361 45.9459C103.29 44.7593 103.586 43.9184 104.189 43.6148H104.203C104.805 43.3018 105.661 43.5541 106.592 44.3062L106.959 44.6052L111.936 48.646L110.751 49.2487V49.244Z" fill="white"/>
<path d="M64.9573 82.1826L58.8466 86.0693L60.3473 90.7595L66.5379 86.9009L64.9573 82.1826Z" fill="black"/>
<path d="M61.7861 94.1929L67.9767 90.1895C67.9767 90.1895 70.1782 95.23 72.0081 97.3369L66.5796 101.747C66.5796 101.747 63.2256 97.6219 61.7861 94.1929Z" fill="black"/>
</g>
<defs>
<linearGradient id="paint0_linear_925_10132" x1="39.7529" y1="339.283" x2="236.199" y2="254.677" gradientUnits="userSpaceOnUse">
<stop stop-color="#0046FE"/>
<stop offset="1" stop-color="#00BDFF"/>
</linearGradient>
<linearGradient id="paint1_linear_925_10132" x1="-9.96891" y1="186.08" x2="224.091" y2="143.654" gradientUnits="userSpaceOnUse">
<stop offset="0.310058" stop-color="#7B61FF"/>
<stop offset="1" stop-color="#F3A6EB"/>
</linearGradient>
<linearGradient id="paint2_linear_925_10132" x1="-0.646716" y1="180.759" x2="174.765" y2="260.99" gradientUnits="userSpaceOnUse">
<stop stop-color="#2D69FD"/>
<stop offset="1" stop-color="#00F2A5"/>
</linearGradient>
<linearGradient id="paint3_linear_925_10132" x1="72.3695" y1="84.0613" x2="103.47" y2="84.0613" gradientUnits="userSpaceOnUse">
<stop stop-color="#7B61FF"/>
<stop offset="1" stop-color="#F3A6EB"/>
</linearGradient>
<linearGradient id="paint4_linear_925_10132" x1="59.7843" y1="86.8498" x2="103.338" y2="86.8498" gradientUnits="userSpaceOnUse">
<stop stop-color="#7B61FF"/>
<stop offset="1" stop-color="#F3A6EB"/>
</linearGradient>
<linearGradient id="paint5_linear_925_10132" x1="13.5755" y1="149.022" x2="45.1588" y2="146.601" gradientUnits="userSpaceOnUse">
<stop stop-color="#2D69FD"/>
<stop offset="1" stop-color="#00F2A5"/>
</linearGradient>
<linearGradient id="paint6_linear_925_10132" x1="14.3471" y1="173.471" x2="58.2418" y2="169.989" gradientUnits="userSpaceOnUse">
<stop stop-color="#2D69FD"/>
<stop offset="1" stop-color="#00F2A5"/>
</linearGradient>
<linearGradient id="paint7_linear_925_10132" x1="97.571" y1="95.0627" x2="126.87" y2="90.3614" gradientUnits="userSpaceOnUse">
<stop stop-color="#0046FE"/>
<stop offset="1" stop-color="#00BDFF"/>
</linearGradient>
<linearGradient id="paint8_linear_925_10132" x1="99.5936" y1="111.425" x2="140.406" y2="104.507" gradientUnits="userSpaceOnUse">
<stop stop-color="#0046FE"/>
<stop offset="1" stop-color="#00BDFF"/>
</linearGradient>
<linearGradient id="paint9_linear_925_10132" x1="35.8203" y1="2.2257" x2="69.9265" y2="12.5727" gradientUnits="userSpaceOnUse">
<stop stop-color="#FF6F50"/>
<stop offset="1" stop-color="#F2D65F"/>
</linearGradient>
<linearGradient id="paint10_linear_925_10132" x1="28.0746" y1="-7.08255" x2="75.3233" y2="7.92516" gradientUnits="userSpaceOnUse">
<stop stop-color="#FF6F50"/>
<stop offset="1" stop-color="#F2D65F"/>
</linearGradient>
<clipPath id="clip0_925_10132">
<rect width="173.373" height="242" fill="white" transform="translate(0.537292)"/>
</clipPath>
</defs>
</svg>
