<svg width="234" height="244" viewBox="0 0 234 244" fill="none" xmlns="http://www.w3.org/2000/svg">
<g clip-path="url(#clip0_954_10292)">
<path d="M44.1055 4.14941H226.692C231.014 4.14941 233.991 7.60712 233.319 11.8332L201.815 234.663C201.239 238.889 197.301 242.347 192.979 242.347H10.3929C6.07075 242.347 3.09328 238.889 3.76561 234.663L35.2692 11.8332C35.8455 7.60712 39.7834 4.14941 44.1055 4.14941Z" fill="url(#paint0_linear_954_10292)" stroke="#231F1E" stroke-width="0.620659"/>
<path d="M40.5518 0.788086H223.042C226.98 0.788086 229.765 3.95765 229.189 7.8956L197.685 230.726C197.109 234.664 193.459 237.833 189.521 237.833H7.12725C3.1893 237.833 0.403926 234.664 0.98021 230.726L32.4838 7.8956C32.964 3.95765 36.6138 0.788086 40.5518 0.788086Z" fill="white" stroke="#231F1E" stroke-width="0.620659"/>
<mask id="mask0_954_10292" style="mask-type:luminance" maskUnits="userSpaceOnUse" x="14" y="199" width="16" height="20">
<path d="M16.9241 199.701H29.4103L26.817 218.815H14.4269L16.9241 199.701Z" fill="white"/>
</mask>
<g mask="url(#mask0_954_10292)">
<path d="M23.1672 199.701L22.2067 206.713C22.2067 206.713 22.2067 206.809 22.1107 206.809C21.9186 206.905 21.7265 207.001 21.4383 207.097C21.1502 207.193 20.862 207.385 20.4778 207.481L19.4213 207.961L18.5569 208.345L17.5004 208.826C17.2122 208.922 16.9241 209.114 16.5399 209.21C16.3478 209.306 16.0597 209.402 15.7715 209.498C15.7715 209.498 15.7715 209.498 15.6755 209.498C15.7715 209.306 15.8676 209.21 15.9636 209.114C16.5399 208.345 17.2122 207.481 17.7885 206.713C18.4609 205.848 19.1332 204.984 19.7095 204.119C20.2858 203.351 20.9581 202.487 21.5344 201.718C22.0146 201.142 22.3988 200.566 22.879 199.989C23.1672 199.797 23.1672 199.701 23.1672 199.701Z" fill="url(#paint1_linear_954_10292)"/>
<path d="M27.9695 209.402C27.4893 209.69 26.913 209.978 26.4328 210.266C24.8 211.131 23.1671 211.995 21.5343 212.86C21.5343 212.86 21.5343 212.86 21.4383 212.86V212.764L22.2067 206.905V206.809C22.2067 206.809 22.2067 206.809 22.3027 206.809C22.3988 206.905 22.4948 206.905 22.6869 207.001C23.0711 207.193 23.4553 207.289 23.7434 207.481C24.0316 207.673 24.3197 207.769 24.7039 207.865C24.992 208.057 25.2802 208.153 25.6644 208.345C25.9525 208.441 26.2407 208.633 26.5288 208.73C26.817 208.826 27.1051 209.018 27.3932 209.114C27.4893 209.21 27.6814 209.306 27.9695 209.402Z" fill="url(#paint2_linear_954_10292)"/>
<path d="M20.6699 218.815C20.0936 217.95 19.6134 217.086 19.1331 216.318L17.5964 213.82C17.1161 213.052 16.6359 212.187 16.1557 211.323L15.7715 210.651C15.7715 210.651 15.7715 210.651 15.7715 210.555C15.7715 210.555 15.7715 210.555 15.8675 210.555C16.6359 211.035 17.4043 211.515 18.2687 211.995C19.1331 212.572 20.0936 213.148 20.958 213.724C21.0541 213.82 21.2462 213.916 21.4383 214.012C21.4383 214.012 21.4383 214.012 21.4383 214.108L20.6699 218.815Z" fill="url(#paint3_linear_954_10292)"/>
<path d="M15.8676 209.498C15.8676 209.402 15.8676 209.402 15.8676 209.498C16.1557 209.305 16.5399 209.209 16.828 209.113L18.0766 208.537C18.3648 208.345 18.749 208.249 19.0371 208.153C19.5174 207.961 19.9976 207.769 20.4778 207.577C20.766 207.481 21.1502 207.288 21.4383 207.192C21.6304 207.096 21.9185 207 22.1106 206.904C22.1106 206.904 22.1106 206.904 22.2067 206.904L21.3423 213.051C21.3423 213.051 21.3423 213.051 21.2462 213.051C21.1502 212.955 21.0541 212.955 21.0541 212.859L15.8676 209.498ZM27.7774 210.554C27.7774 210.65 27.7774 210.65 27.7774 210.554C25.5683 213.051 23.4553 215.549 21.3423 217.95C21.1502 218.238 20.862 218.43 20.6699 218.718V218.622L21.2462 214.012V213.916C21.7264 213.724 22.1106 213.436 22.5909 213.243C24.3197 212.379 26.0486 211.515 27.7774 210.554Z" fill="url(#paint4_linear_954_10292)"/>
<path d="M22.3028 206.808L23.2633 199.893V199.797L27.9696 209.402L28.0656 209.498C27.9696 209.402 27.8735 209.402 27.6814 209.306C27.4894 209.21 27.3933 209.113 27.2012 209.113C27.1052 209.113 27.0091 209.017 26.9131 209.017C26.721 208.921 26.6249 208.825 26.4328 208.825C26.3368 208.825 26.2407 208.729 26.1447 208.729L25.5684 208.441C25.4724 208.345 25.3763 208.345 25.2803 208.249C25.0882 208.153 24.9921 208.057 24.8 208.057C24.704 208.057 24.6079 207.961 24.5119 207.961L23.9356 207.673C23.8396 207.577 23.7435 207.577 23.6475 207.481C23.4554 207.385 23.3593 207.289 23.1672 207.289C23.0712 207.193 22.9751 207.193 22.8791 207.096L22.3028 206.808Z" fill="url(#paint5_linear_954_10292)"/>
</g>
<path d="M99.6209 203.641L97.9881 214.974H96.8356L98.4684 203.641H99.6209Z" fill="black"/>
<path d="M183.566 204.793H188.945C189.329 204.793 189.713 205.177 189.617 205.561L188.753 211.997C188.657 212.381 188.273 212.765 187.889 212.765H182.51C182.126 212.765 181.742 212.381 181.838 211.997L182.702 205.561C182.798 205.177 183.182 204.793 183.566 204.793Z" stroke="url(#paint6_linear_954_10292)" stroke-width="1.02867"/>
<path d="M180.877 207.675L180.301 212.285C180.205 213.342 180.877 214.206 181.934 214.206H186.736" stroke="url(#paint7_linear_954_10292)" stroke-width="1.02867" stroke-linecap="round"/>
<path d="M159.209 134.483C188.101 109.182 193.562 68.1612 171.406 42.8607C149.25 17.5602 107.867 17.5608 78.9753 42.862C50.0832 68.1632 44.6226 109.184 66.7786 134.484C88.9346 159.785 130.317 159.784 159.209 134.483Z" fill="#ECF3FD"/>
<path d="M97.0276 81.757C95.9711 81.0847 96.2592 79.4519 97.6039 78.7795C101.83 76.8586 106.44 75.706 111.051 75.4179C117.294 75.1297 122.864 76.4744 127.475 79.1637C128.531 79.74 128.243 81.3728 126.994 82.0452C124.209 83.5819 121.616 85.5029 119.311 87.6159C123.441 85.695 127.763 83.9661 132.085 82.5254C138.424 80.4123 144.955 78.6835 151.487 77.627C148.989 64.5645 137.56 55.6321 122.672 56.4005C116.717 56.6886 110.954 58.5135 105.768 61.491C98.8525 65.4289 92.9936 71.2878 89.3438 78.5874C88.0952 81.0847 87.1347 83.678 86.4624 86.2712C86.0782 87.6159 85.8861 89.0566 85.694 90.4973C84.9256 96.4523 85.9822 102.215 88.5754 107.21V107.306C94.4343 102.407 100.773 97.989 107.401 94.0511C105.192 88.8645 101.638 84.6384 97.0276 81.757Z" fill="url(#paint8_linear_954_10292)"/>
<path fill-rule="evenodd" clip-rule="evenodd" d="M93.858 114.029C93.0897 113.357 92.4173 112.684 91.745 111.916C97.1237 108.65 102.694 105.769 108.553 103.272C108.649 103.272 108.745 103.176 108.937 103.176C109.034 103.08 109.13 103.08 109.322 103.08C118.926 99.0457 129.011 96.0682 139.385 94.5315C143.034 93.9552 146.684 93.571 150.43 93.3789C149.566 95.8761 148.509 98.3734 147.164 100.679C145.051 104.232 142.458 107.498 139.481 110.283C132.757 116.43 124.017 120.56 114.892 121.041C112.203 121.233 109.61 121.041 107.113 120.56C106.536 120.464 106.056 120.368 105.48 120.176C100.87 119.024 96.9316 116.911 93.858 114.029ZM143.226 100.775C142.266 100.871 141.402 100.871 140.441 100.967C141.305 100.871 142.266 100.871 143.226 100.775Z" fill="url(#paint9_linear_954_10292)"/>
<path opacity="0.2" d="M151.487 77.6265C149.854 77.9147 148.221 78.2028 146.588 78.587C143.707 66.1008 132.565 57.5526 117.966 58.2249C114.796 58.417 111.723 58.9933 108.649 59.9538C112.972 57.9368 117.774 56.6882 122.576 56.4001C137.56 55.6317 148.989 64.6601 151.487 77.6265Z" fill="white"/>
<path d="M62.5346 186.915L63.74 180.076H64.762C64.9786 180.076 65.1031 180.176 65.1355 180.376L65.1554 180.916C65.3203 180.774 65.4897 180.645 65.6635 180.53C65.8418 180.414 66.0241 180.314 66.2104 180.23C66.4013 180.145 66.5999 180.081 66.8062 180.036C67.0126 179.992 67.2331 179.97 67.4677 179.97C67.8467 179.97 68.1715 180.034 68.4421 180.163C68.7134 180.287 68.9257 180.465 69.079 180.696C69.2376 180.923 69.3383 181.196 69.3812 181.516C69.4293 181.832 69.4197 182.18 69.3524 182.563L68.5851 186.915H66.9134L67.6807 182.563C67.7543 182.145 67.7118 181.823 67.5533 181.596C67.4 181.365 67.1271 181.249 66.7345 181.249C66.4458 181.249 66.1637 181.314 65.8883 181.443C65.6129 181.572 65.3428 181.747 65.0781 181.969L64.2062 186.915H62.5346ZM73.2133 180.076L72.0079 186.915H70.3362L71.5416 180.076H73.2133ZM73.8151 178.083C73.79 178.226 73.7372 178.359 73.6566 178.483C73.576 178.608 73.4778 178.717 73.3621 178.81C73.2509 178.903 73.1248 178.979 72.9838 179.037C72.8435 179.09 72.699 179.117 72.5501 179.117C72.4057 179.117 72.2728 179.09 72.1513 179.037C72.0352 178.979 71.9379 178.903 71.8596 178.81C71.7813 178.717 71.7238 178.608 71.6871 178.483C71.6549 178.359 71.6513 178.226 71.6764 178.083C71.7022 177.937 71.7536 177.799 71.8304 177.67C71.9118 177.541 72.0081 177.43 72.1193 177.337C72.2305 177.244 72.354 177.17 72.4897 177.117C72.6307 177.059 72.7734 177.03 72.9178 177.03C73.0667 177.03 73.2015 177.059 73.3222 177.117C73.4436 177.17 73.5435 177.244 73.6218 177.337C73.7046 177.43 73.764 177.541 73.7999 177.67C73.8359 177.799 73.8409 177.937 73.8151 178.083ZM79.7329 181.523C79.6723 181.585 79.6141 181.634 79.5582 181.669C79.5068 181.705 79.436 181.723 79.3458 181.723C79.26 181.723 79.1809 181.698 79.1083 181.649C79.0364 181.596 78.9496 181.538 78.8478 181.476C78.7467 181.409 78.6216 181.352 78.4723 181.303C78.3282 181.249 78.1412 181.223 77.9111 181.223C77.6178 181.223 77.3512 181.276 77.1113 181.383C76.8722 181.485 76.661 181.634 76.4776 181.829C76.2988 182.025 76.1486 182.263 76.027 182.543C75.9063 182.818 75.815 183.131 75.7531 183.482C75.6889 183.847 75.67 184.171 75.6966 184.455C75.7277 184.74 75.8004 184.98 75.9149 185.175C76.0301 185.366 76.1847 185.513 76.3788 185.615C76.5736 185.713 76.8041 185.762 77.0703 185.762C77.3365 185.762 77.5563 185.731 77.7297 185.669C77.9084 185.602 78.0608 185.531 78.187 185.455C78.3139 185.375 78.4234 185.304 78.5156 185.242C78.6131 185.175 78.7137 185.142 78.8175 185.142C78.9528 185.142 79.0453 185.193 79.095 185.295L79.4698 185.895C79.2472 186.108 79.0147 186.288 78.7723 186.435C78.5306 186.577 78.2846 186.693 78.0344 186.782C77.7894 186.866 77.5397 186.926 77.2852 186.962C77.0308 186.997 76.7818 187.015 76.5381 187.015C76.1095 187.015 75.7194 186.937 75.3678 186.782C75.017 186.622 74.7261 186.391 74.4951 186.088C74.2686 185.786 74.1103 185.417 74.0201 184.982C73.9352 184.542 73.9421 184.042 74.0408 183.482C74.1293 182.98 74.2833 182.516 74.5029 182.089C74.7278 181.658 75.0098 181.287 75.3489 180.976C75.6887 180.661 76.0841 180.414 76.5351 180.236C76.986 180.059 77.4845 179.97 78.0304 179.97C78.5493 179.97 78.9883 180.052 79.3473 180.216C79.7109 180.381 80.0213 180.616 80.2786 180.923L79.7329 181.523ZM83.7914 177.01L82.7915 182.682H83.1029C83.2157 182.682 83.3064 182.667 83.375 182.636C83.4437 182.605 83.5215 182.547 83.6086 182.463L85.7046 180.363C85.7969 180.274 85.8903 180.205 85.9846 180.156C86.0798 180.103 86.1973 180.076 86.3371 180.076H87.8667L85.2601 182.616C85.1669 182.709 85.0727 182.796 84.9774 182.876C84.8828 182.951 84.7831 183.018 84.6782 183.076C84.7612 183.142 84.8309 183.22 84.8874 183.309C84.944 183.398 84.9993 183.493 85.0535 183.596L86.783 186.915H85.2738C85.1429 186.915 85.0363 186.893 84.9539 186.848C84.8715 186.804 84.8036 186.728 84.7502 186.622L83.4408 184.029C83.3911 183.927 83.3352 183.86 83.273 183.829C83.2108 183.798 83.112 183.782 82.9767 183.782H82.5977L82.0454 186.915H80.3737L82.1197 177.01H83.7914ZM87.5825 186.008C87.6068 185.871 87.6547 185.74 87.7263 185.615C87.8024 185.491 87.8933 185.384 87.9993 185.295C88.1097 185.206 88.2327 185.135 88.3685 185.082C88.5042 185.029 88.6443 185.002 88.7887 185.002C88.9285 185.002 89.0569 185.029 89.1739 185.082C89.2908 185.135 89.3866 185.206 89.4611 185.295C89.5357 185.384 89.5891 185.491 89.6213 185.615C89.6535 185.74 89.6575 185.871 89.6332 186.008C89.6081 186.151 89.5576 186.284 89.4815 186.408C89.4062 186.528 89.3156 186.633 89.2097 186.722C89.1038 186.81 88.9834 186.879 88.8484 186.928C88.7127 186.982 88.5749 187.008 88.435 187.008C88.2906 187.008 88.16 186.982 88.043 186.928C87.9253 186.879 87.8269 186.81 87.7478 186.722C87.6732 186.633 87.6195 186.528 87.5865 186.408C87.5588 186.284 87.5574 186.151 87.5825 186.008ZM95.7488 186.915C95.5323 186.915 95.4078 186.815 95.3753 186.615L95.3563 185.955C95.1837 186.115 95.0071 186.259 94.8265 186.388C94.6458 186.517 94.4548 186.628 94.2533 186.722C94.0564 186.815 93.8476 186.886 93.6269 186.935C93.41 186.988 93.1797 187.015 92.936 187.015C92.557 187.015 92.2233 186.937 91.9349 186.782C91.6465 186.626 91.413 186.402 91.2346 186.108C91.0615 185.811 90.9502 185.444 90.9006 185.009C90.8555 184.573 90.8823 184.076 90.981 183.516C91.0703 183.009 91.2233 182.538 91.4399 182.103C91.6566 181.667 91.9239 181.289 92.242 180.97C92.5601 180.65 92.9176 180.401 93.3144 180.223C93.712 180.041 94.1386 179.95 94.5943 179.95C94.9824 179.95 95.303 180.012 95.5563 180.136C95.8104 180.256 96.0277 180.419 96.2083 180.623L96.8451 177.01H98.5168L96.7708 186.915H95.7488ZM93.7348 185.709C94.0823 185.709 94.3903 185.637 94.659 185.495C94.9278 185.353 95.1935 185.151 95.4563 184.889L95.9968 181.823C95.8472 181.596 95.6679 181.436 95.4587 181.343C95.2541 181.249 95.0232 181.203 94.766 181.203C94.5133 181.203 94.275 181.249 94.051 181.343C93.8315 181.436 93.6327 181.578 93.4546 181.769C93.2819 181.956 93.1313 182.196 93.0029 182.489C92.8753 182.778 92.7766 183.12 92.7069 183.516C92.6364 183.916 92.608 184.255 92.6219 184.535C92.641 184.811 92.6958 185.038 92.7863 185.215C92.8775 185.389 93.0041 185.515 93.166 185.595C93.3286 185.671 93.5183 185.709 93.7348 185.709ZM102.771 179.97C103.29 179.97 103.744 180.052 104.135 180.216C104.53 180.381 104.85 180.614 105.095 180.916C105.339 181.218 105.504 181.587 105.59 182.023C105.676 182.458 105.671 182.945 105.576 183.482C105.481 184.024 105.313 184.513 105.074 184.949C104.835 185.384 104.539 185.755 104.187 186.062C103.836 186.368 103.433 186.604 102.98 186.768C102.531 186.933 102.048 187.015 101.529 187.015C101.01 187.015 100.553 186.933 100.158 186.768C99.7627 186.604 99.441 186.368 99.1927 186.062C98.949 185.755 98.782 185.384 98.6918 184.949C98.6062 184.513 98.6111 184.024 98.7067 183.482C98.8014 182.945 98.9684 182.458 99.2076 182.023C99.4513 181.587 99.7487 181.218 100.1 180.916C100.455 180.614 100.86 180.381 101.313 180.216C101.766 180.052 102.252 179.97 102.771 179.97ZM101.752 185.748C102.33 185.748 102.79 185.557 103.132 185.175C103.479 184.793 103.718 184.233 103.848 183.496C103.978 182.758 103.937 182.196 103.726 181.809C103.519 181.423 103.126 181.229 102.549 181.229C101.962 181.229 101.495 181.425 101.146 181.816C100.798 182.203 100.559 182.762 100.43 183.496C100.301 184.229 100.342 184.789 100.554 185.175C100.766 185.557 101.166 185.748 101.752 185.748ZM109.801 177.01L108.055 186.915H106.384L108.13 177.01H109.801ZM110.248 186.915L111.235 181.316L110.649 181.223C110.522 181.201 110.424 181.156 110.354 181.089C110.29 181.023 110.268 180.93 110.289 180.81L110.407 180.136H111.443L111.532 179.63C111.601 179.239 111.722 178.888 111.894 178.577C112.07 178.266 112.289 178.001 112.548 177.784C112.812 177.566 113.114 177.399 113.455 177.284C113.796 177.168 114.167 177.11 114.569 177.11C114.889 177.11 115.179 177.153 115.44 177.237L115.26 178.063C115.228 178.192 115.153 178.272 115.035 178.303C114.917 178.335 114.783 178.35 114.634 178.35C114.436 178.35 114.254 178.372 114.088 178.417C113.927 178.457 113.784 178.53 113.656 178.637C113.53 178.739 113.422 178.877 113.333 179.05C113.249 179.219 113.185 179.43 113.14 179.683L113.06 180.136H114.868L114.661 181.309H112.908L111.92 186.915H110.248ZM113.623 186.008C113.648 185.871 113.696 185.74 113.767 185.615C113.843 185.491 113.934 185.384 114.04 185.295C114.151 185.206 114.274 185.135 114.409 185.082C114.545 185.029 114.685 185.002 114.83 185.002C114.969 185.002 115.098 185.029 115.215 185.082C115.332 185.135 115.428 185.206 115.502 185.295C115.577 185.384 115.63 185.491 115.662 185.615C115.694 185.74 115.698 185.871 115.674 186.008C115.649 186.151 115.599 186.284 115.522 186.408C115.447 186.528 115.357 186.633 115.251 186.722C115.145 186.81 115.024 186.879 114.889 186.928C114.754 186.982 114.616 187.008 114.476 187.008C114.332 187.008 114.201 186.982 114.084 186.928C113.966 186.879 113.868 186.81 113.789 186.722C113.714 186.633 113.66 186.528 113.627 186.408C113.6 186.284 113.598 186.151 113.623 186.008ZM116.787 180.076H118.113C118.24 180.076 118.341 180.105 118.416 180.163C118.492 180.221 118.533 180.294 118.54 180.383L118.891 184.036C118.91 184.235 118.918 184.431 118.916 184.622C118.919 184.813 118.919 185.004 118.917 185.195C119 185.004 119.085 184.813 119.173 184.622C119.266 184.431 119.361 184.235 119.459 184.036L121.256 180.37C121.299 180.281 121.366 180.207 121.457 180.15C121.549 180.092 121.649 180.063 121.757 180.063H122.495C122.617 180.063 122.713 180.092 122.784 180.15C122.855 180.207 122.896 180.281 122.908 180.37L123.387 184.102C123.412 184.293 123.431 184.48 123.444 184.662C123.462 184.84 123.478 185.02 123.491 185.202C123.556 185.011 123.623 184.82 123.693 184.629C123.767 184.438 123.852 184.24 123.947 184.036L125.619 180.383C125.657 180.294 125.725 180.221 125.82 180.163C125.916 180.105 126.021 180.076 126.134 180.076H127.399L123.994 186.915H122.647C122.503 186.915 122.416 186.817 122.388 186.622L121.832 182.669C121.814 182.54 121.799 182.411 121.785 182.283C121.777 182.149 121.773 182.018 121.773 181.889C121.723 182.023 121.67 182.156 121.615 182.289C121.561 182.418 121.501 182.549 121.437 182.682L119.477 186.622C119.38 186.817 119.241 186.915 119.06 186.915H117.781L116.787 180.076ZM132.576 186.915H131.825C131.667 186.915 131.547 186.893 131.464 186.848C131.383 186.799 131.332 186.704 131.312 186.562L131.249 186.075C131.045 186.231 130.847 186.368 130.655 186.488C130.467 186.604 130.276 186.702 130.082 186.782C129.887 186.862 129.685 186.922 129.475 186.962C129.265 187.002 129.036 187.022 128.787 187.022C128.494 187.022 128.23 186.984 127.995 186.908C127.761 186.828 127.568 186.711 127.415 186.555C127.266 186.399 127.163 186.206 127.104 185.975C127.045 185.744 127.043 185.475 127.097 185.169C127.143 184.911 127.255 184.658 127.434 184.409C127.619 184.156 127.889 183.929 128.244 183.729C128.601 183.525 129.057 183.356 129.613 183.222C130.169 183.089 130.843 183.014 131.636 182.996L131.706 182.596C131.787 182.138 131.747 181.8 131.587 181.583C131.432 181.361 131.168 181.249 130.793 181.249C130.522 181.249 130.291 181.281 130.1 181.343C129.908 181.405 129.738 181.476 129.589 181.556C129.444 181.632 129.31 181.7 129.187 181.763C129.063 181.825 128.933 181.856 128.798 181.856C128.685 181.856 128.593 181.827 128.522 181.769C128.451 181.712 128.398 181.64 128.364 181.556L128.152 181.03C129.077 180.31 130.104 179.95 131.232 179.95C131.638 179.95 131.987 180.016 132.28 180.15C132.577 180.279 132.816 180.461 132.995 180.696C133.176 180.927 133.294 181.205 133.349 181.529C133.41 181.854 133.406 182.209 133.337 182.596L132.576 186.915ZM129.508 185.888C129.68 185.888 129.84 185.873 129.99 185.842C130.14 185.811 130.284 185.764 130.421 185.702C130.563 185.64 130.7 185.564 130.833 185.475C130.972 185.382 131.113 185.273 131.256 185.149L131.46 183.996C130.968 184.018 130.553 184.06 130.212 184.122C129.877 184.18 129.602 184.255 129.387 184.349C129.172 184.442 129.011 184.551 128.903 184.675C128.8 184.8 128.736 184.935 128.71 185.082C128.659 185.371 128.708 185.577 128.858 185.702C129.012 185.826 129.229 185.888 129.508 185.888ZM137.746 177.01L136 186.915H134.328L136.074 177.01H137.746ZM141.421 177.01L139.675 186.915H138.003L139.749 177.01H141.421ZM145.663 179.97C146.101 179.97 146.491 180.039 146.832 180.176C147.177 180.314 147.46 180.516 147.679 180.783C147.899 181.045 148.049 181.369 148.13 181.756C148.212 182.138 148.209 182.576 148.122 183.069C148.1 183.193 148.075 183.298 148.047 183.382C148.023 183.462 147.992 183.527 147.952 183.576C147.917 183.62 147.872 183.653 147.819 183.676C147.766 183.693 147.701 183.702 147.625 183.702H143.334C143.26 184.404 143.361 184.92 143.636 185.249C143.912 185.577 144.326 185.742 144.876 185.742C145.147 185.742 145.385 185.711 145.59 185.649C145.799 185.586 145.983 185.517 146.14 185.442C146.303 185.366 146.443 185.297 146.563 185.235C146.686 185.173 146.8 185.142 146.904 185.142C146.972 185.142 147.028 185.155 147.073 185.182C147.118 185.209 147.154 185.246 147.181 185.295L147.563 185.895C147.34 186.108 147.101 186.288 146.845 186.435C146.59 186.577 146.328 186.693 146.06 186.782C145.797 186.866 145.531 186.926 145.263 186.962C145 186.997 144.746 187.015 144.503 187.015C144.02 187.015 143.585 186.937 143.197 186.782C142.81 186.622 142.49 186.388 142.237 186.082C141.986 185.771 141.811 185.389 141.715 184.935C141.62 184.478 141.625 183.949 141.731 183.349C141.813 182.882 141.967 182.445 142.193 182.036C142.419 181.623 142.701 181.265 143.038 180.963C143.381 180.656 143.774 180.414 144.215 180.236C144.662 180.059 145.145 179.97 145.663 179.97ZM145.489 181.149C145.002 181.149 144.597 181.285 144.274 181.556C143.951 181.827 143.707 182.211 143.543 182.709H146.683C146.721 182.496 146.727 182.296 146.701 182.109C146.676 181.918 146.615 181.752 146.518 181.609C146.421 181.467 146.288 181.356 146.117 181.276C145.947 181.192 145.737 181.149 145.489 181.149ZM151.062 187.022C150.462 187.022 150.029 186.855 149.763 186.522C149.498 186.184 149.417 185.72 149.521 185.129L150.194 181.309H149.49C149.4 181.309 149.326 181.281 149.269 181.223C149.216 181.165 149.2 181.078 149.22 180.963L149.335 180.31L150.484 180.13L151.164 178.263C151.198 178.175 151.251 178.106 151.323 178.057C151.399 178.008 151.487 177.983 151.586 177.983H152.452L152.073 180.136H153.9L153.693 181.309H151.866L151.213 185.015C151.175 185.229 151.2 185.395 151.287 185.515C151.374 185.635 151.508 185.695 151.689 185.695C151.792 185.695 151.88 185.684 151.952 185.662C152.028 185.635 152.094 185.609 152.148 185.582C152.207 185.555 152.259 185.531 152.303 185.509C152.349 185.482 152.392 185.469 152.432 185.469C152.482 185.469 152.52 185.482 152.547 185.509C152.575 185.531 152.602 185.566 152.63 185.615L152.99 186.415C152.711 186.615 152.404 186.766 152.071 186.868C151.737 186.97 151.401 187.022 151.062 187.022Z" fill="black"/>
<path d="M103.162 213.732L104.095 208.435H104.887C105.055 208.435 105.151 208.513 105.176 208.668L105.192 209.086C105.32 208.976 105.451 208.876 105.585 208.787C105.723 208.697 105.865 208.62 106.009 208.554C106.157 208.489 106.311 208.439 106.47 208.405C106.63 208.37 106.801 208.353 106.983 208.353C107.276 208.353 107.528 208.403 107.738 208.503C107.948 208.599 108.112 208.737 108.231 208.916C108.354 209.091 108.432 209.303 108.465 209.551C108.502 209.795 108.495 210.065 108.443 210.361L107.848 213.732H106.553L107.148 210.361C107.205 210.038 107.172 209.788 107.049 209.613C106.93 209.434 106.719 209.344 106.415 209.344C106.191 209.344 105.973 209.394 105.759 209.494C105.546 209.594 105.337 209.73 105.132 209.902L104.457 213.732H103.162ZM111.433 208.435L110.499 213.732H109.205L110.138 208.435H111.433ZM111.899 206.892C111.88 207.002 111.839 207.105 111.776 207.202C111.714 207.298 111.638 207.382 111.548 207.455C111.462 207.527 111.365 207.585 111.255 207.63C111.147 207.671 111.035 207.692 110.919 207.692C110.808 207.692 110.705 207.671 110.611 207.63C110.521 207.585 110.445 207.527 110.385 207.455C110.324 207.382 110.279 207.298 110.251 207.202C110.226 207.105 110.223 207.002 110.243 206.892C110.263 206.778 110.302 206.672 110.362 206.572C110.425 206.472 110.5 206.386 110.586 206.314C110.672 206.241 110.768 206.185 110.873 206.143C110.982 206.099 111.092 206.076 111.204 206.076C111.32 206.076 111.424 206.099 111.517 206.143C111.612 206.185 111.689 206.241 111.75 206.314C111.814 206.386 111.86 206.472 111.888 206.572C111.915 206.672 111.919 206.778 111.899 206.892ZM116.483 209.556C116.436 209.604 116.391 209.642 116.348 209.669C116.308 209.697 116.253 209.711 116.183 209.711C116.117 209.711 116.055 209.692 115.999 209.654C115.944 209.613 115.876 209.568 115.797 209.52C115.719 209.468 115.622 209.423 115.507 209.385C115.395 209.344 115.25 209.323 115.072 209.323C114.845 209.323 114.638 209.365 114.452 209.447C114.267 209.527 114.104 209.642 113.962 209.793C113.823 209.945 113.707 210.129 113.613 210.346C113.519 210.559 113.448 210.802 113.4 211.074C113.351 211.356 113.336 211.607 113.357 211.827C113.381 212.048 113.437 212.233 113.526 212.385C113.615 212.533 113.735 212.647 113.885 212.726C114.036 212.801 114.214 212.839 114.421 212.839C114.627 212.839 114.797 212.815 114.931 212.767C115.07 212.715 115.188 212.66 115.286 212.602C115.384 212.54 115.469 212.485 115.54 212.437C115.616 212.385 115.694 212.359 115.774 212.359C115.879 212.359 115.95 212.399 115.989 212.478L116.279 212.942C116.107 213.108 115.927 213.247 115.739 213.361C115.552 213.471 115.361 213.56 115.167 213.629C114.978 213.695 114.784 213.741 114.587 213.769C114.39 213.796 114.197 213.81 114.008 213.81C113.676 213.81 113.374 213.75 113.102 213.629C112.83 213.505 112.605 213.326 112.426 213.092C112.251 212.858 112.128 212.573 112.058 212.235C111.992 211.894 111.998 211.507 112.074 211.074C112.143 210.685 112.262 210.325 112.432 209.995C112.606 209.661 112.825 209.373 113.087 209.132C113.351 208.888 113.657 208.697 114.006 208.559C114.355 208.422 114.741 208.353 115.164 208.353C115.566 208.353 115.906 208.417 116.184 208.544C116.466 208.671 116.706 208.854 116.906 209.091L116.483 209.556ZM119.627 206.061L118.852 210.454H119.093C119.181 210.454 119.251 210.442 119.304 210.418C119.357 210.394 119.418 210.349 119.485 210.284L121.108 208.657C121.18 208.589 121.252 208.535 121.325 208.497C121.399 208.456 121.49 208.435 121.598 208.435H122.783L120.764 210.402C120.692 210.475 120.619 210.542 120.545 210.604C120.472 210.662 120.395 210.714 120.313 210.759C120.378 210.81 120.432 210.871 120.476 210.939C120.519 211.008 120.562 211.082 120.604 211.161L121.944 213.732H120.775C120.673 213.732 120.591 213.715 120.527 213.681C120.463 213.646 120.411 213.588 120.369 213.505L119.355 211.497C119.317 211.418 119.273 211.366 119.225 211.342C119.177 211.318 119.1 211.306 118.996 211.306H118.702L118.274 213.732H116.979L118.332 206.061H119.627ZM122.563 213.03C122.582 212.924 122.619 212.822 122.674 212.726C122.733 212.629 122.804 212.547 122.886 212.478C122.971 212.409 123.067 212.354 123.172 212.313C123.277 212.271 123.385 212.251 123.497 212.251C123.606 212.251 123.705 212.271 123.796 212.313C123.886 212.354 123.96 212.409 124.018 212.478C124.076 212.547 124.117 212.629 124.142 212.726C124.167 212.822 124.17 212.924 124.151 213.03C124.132 213.14 124.093 213.244 124.034 213.34C123.976 213.433 123.905 213.514 123.823 213.583C123.741 213.652 123.648 213.705 123.544 213.743C123.438 213.784 123.332 213.805 123.223 213.805C123.112 213.805 123.01 213.784 122.92 213.743C122.829 213.705 122.752 213.652 122.691 213.583C122.633 213.514 122.592 213.433 122.566 213.34C122.545 213.244 122.544 213.14 122.563 213.03ZM128.888 213.732C128.721 213.732 128.624 213.655 128.599 213.5L128.584 212.989C128.451 213.113 128.314 213.225 128.174 213.325C128.034 213.424 127.886 213.51 127.73 213.583C127.578 213.655 127.416 213.71 127.245 213.748C127.077 213.789 126.898 213.81 126.71 213.81C126.416 213.81 126.158 213.75 125.934 213.629C125.711 213.509 125.53 213.335 125.392 213.108C125.258 212.877 125.172 212.593 125.133 212.256C125.098 211.919 125.119 211.533 125.195 211.099C125.265 210.707 125.383 210.342 125.551 210.005C125.719 209.668 125.926 209.375 126.172 209.127C126.419 208.879 126.695 208.687 127.003 208.549C127.311 208.408 127.641 208.337 127.994 208.337C128.295 208.337 128.543 208.386 128.739 208.482C128.936 208.575 129.104 208.701 129.244 208.859L129.738 206.061H131.032L129.68 213.732H128.888ZM127.328 212.798C127.598 212.798 127.836 212.743 128.044 212.633C128.252 212.523 128.458 212.366 128.662 212.163L129.08 209.788C128.965 209.613 128.826 209.489 128.664 209.416C128.505 209.344 128.326 209.308 128.127 209.308C127.931 209.308 127.747 209.344 127.573 209.416C127.403 209.489 127.249 209.599 127.111 209.747C126.978 209.891 126.861 210.077 126.761 210.304C126.663 210.528 126.586 210.793 126.532 211.099C126.478 211.409 126.456 211.672 126.466 211.889C126.481 212.103 126.524 212.278 126.594 212.416C126.664 212.55 126.762 212.648 126.888 212.71C127.014 212.769 127.161 212.798 127.328 212.798ZM134.327 208.353C134.729 208.353 135.082 208.417 135.384 208.544C135.69 208.671 135.938 208.852 136.127 209.086C136.317 209.32 136.445 209.606 136.511 209.943C136.577 210.28 136.574 210.657 136.5 211.074C136.426 211.494 136.297 211.872 136.111 212.209C135.926 212.547 135.697 212.834 135.425 213.072C135.152 213.309 134.84 213.491 134.489 213.619C134.142 213.746 133.767 213.81 133.365 213.81C132.964 213.81 132.61 213.746 132.303 213.619C131.997 213.491 131.748 213.309 131.556 213.072C131.367 212.834 131.238 212.547 131.168 212.209C131.102 211.872 131.105 211.494 131.179 211.074C131.253 210.657 131.382 210.28 131.567 209.943C131.756 209.606 131.987 209.32 132.258 209.086C132.534 208.852 132.847 208.671 133.198 208.544C133.549 208.417 133.925 208.353 134.327 208.353ZM133.538 212.829C133.986 212.829 134.342 212.681 134.607 212.385C134.876 212.089 135.061 211.655 135.162 211.084C135.262 210.513 135.231 210.077 135.067 209.778C134.907 209.478 134.603 209.329 134.155 209.329C133.701 209.329 133.339 209.48 133.069 209.783C132.799 210.082 132.615 210.516 132.514 211.084C132.414 211.652 132.446 212.085 132.61 212.385C132.775 212.681 133.084 212.829 133.538 212.829ZM139.773 206.061L138.421 213.732H137.126L138.478 206.061H139.773ZM140.119 213.732L140.883 209.396L140.43 209.323C140.331 209.306 140.255 209.272 140.201 209.22C140.151 209.169 140.134 209.096 140.151 209.003L140.242 208.482H141.045L141.114 208.09C141.167 207.787 141.26 207.515 141.394 207.274C141.531 207.033 141.7 206.828 141.9 206.66C142.105 206.491 142.339 206.362 142.603 206.272C142.867 206.183 143.154 206.138 143.465 206.138C143.714 206.138 143.939 206.171 144.14 206.236L144.001 206.876C143.977 206.976 143.918 207.038 143.827 207.062C143.735 207.086 143.632 207.098 143.516 207.098C143.363 207.098 143.222 207.116 143.093 207.15C142.969 207.181 142.857 207.238 142.759 207.32C142.661 207.4 142.578 207.506 142.509 207.64C142.444 207.771 142.394 207.935 142.359 208.131L142.297 208.482H143.697L143.537 209.391H142.179L141.414 213.732H140.119ZM142.733 213.03C142.752 212.924 142.789 212.822 142.845 212.726C142.904 212.629 142.974 212.547 143.056 212.478C143.142 212.409 143.237 212.354 143.342 212.313C143.447 212.271 143.556 212.251 143.668 212.251C143.776 212.251 143.876 212.271 143.966 212.313C144.057 212.354 144.131 212.409 144.189 212.478C144.246 212.547 144.288 212.629 144.313 212.726C144.338 212.822 144.341 212.924 144.322 213.03C144.302 213.14 144.263 213.244 144.204 213.34C144.146 213.433 144.076 213.514 143.994 213.583C143.912 213.652 143.819 213.705 143.714 213.743C143.609 213.784 143.502 213.805 143.394 213.805C143.282 213.805 143.181 213.784 143.09 213.743C142.999 213.705 142.923 213.652 142.862 213.583C142.804 213.514 142.762 213.433 142.737 213.34C142.715 213.244 142.714 213.14 142.733 213.03ZM145.184 208.435H146.211C146.309 208.435 146.387 208.458 146.446 208.503C146.504 208.547 146.536 208.604 146.542 208.673L146.813 211.502C146.828 211.657 146.835 211.808 146.833 211.956C146.835 212.104 146.835 212.252 146.833 212.4C146.898 212.252 146.964 212.104 147.032 211.956C147.104 211.808 147.178 211.657 147.254 211.502L148.646 208.663C148.679 208.594 148.731 208.537 148.801 208.492C148.872 208.448 148.95 208.425 149.033 208.425H149.605C149.699 208.425 149.774 208.448 149.829 208.492C149.884 208.537 149.916 208.594 149.925 208.663L150.296 211.554C150.315 211.702 150.33 211.846 150.34 211.987C150.354 212.125 150.366 212.264 150.376 212.406C150.427 212.258 150.479 212.11 150.533 211.962C150.591 211.814 150.656 211.66 150.729 211.502L152.025 208.673C152.055 208.604 152.107 208.547 152.181 208.503C152.255 208.458 152.336 208.435 152.423 208.435H153.404L150.766 213.732H149.723C149.611 213.732 149.544 213.657 149.522 213.505L149.092 210.444C149.078 210.344 149.066 210.244 149.055 210.144C149.049 210.041 149.046 209.94 149.046 209.84C149.007 209.943 148.966 210.046 148.923 210.149C148.881 210.249 148.836 210.351 148.786 210.454L147.268 213.505C147.192 213.657 147.084 213.732 146.945 213.732H145.954L145.184 208.435ZM157.414 213.732H156.832C156.709 213.732 156.616 213.715 156.552 213.681C156.489 213.643 156.45 213.569 156.434 213.459L156.385 213.082C156.228 213.202 156.074 213.309 155.925 213.402C155.78 213.491 155.632 213.567 155.482 213.629C155.331 213.691 155.174 213.738 155.011 213.769C154.849 213.8 154.671 213.815 154.479 213.815C154.252 213.815 154.047 213.786 153.865 213.727C153.684 213.665 153.534 213.574 153.416 213.454C153.301 213.333 153.22 213.183 153.175 213.004C153.13 212.825 153.128 212.617 153.17 212.38C153.205 212.18 153.292 211.984 153.431 211.791C153.574 211.595 153.783 211.42 154.058 211.265C154.334 211.106 154.688 210.976 155.118 210.872C155.549 210.769 156.071 210.711 156.685 210.697L156.74 210.387C156.802 210.032 156.772 209.771 156.648 209.602C156.528 209.43 156.323 209.344 156.033 209.344C155.823 209.344 155.644 209.368 155.496 209.416C155.347 209.465 155.215 209.52 155.099 209.582C154.988 209.64 154.884 209.693 154.788 209.742C154.692 209.79 154.592 209.814 154.487 209.814C154.4 209.814 154.329 209.792 154.274 209.747C154.219 209.702 154.178 209.647 154.151 209.582L153.987 209.174C154.703 208.616 155.499 208.337 156.372 208.337C156.687 208.337 156.958 208.389 157.184 208.492C157.414 208.592 157.599 208.733 157.738 208.916C157.878 209.095 157.969 209.31 158.013 209.561C158.059 209.812 158.056 210.088 158.003 210.387L157.414 213.732ZM155.037 212.937C155.17 212.937 155.295 212.925 155.411 212.901C155.527 212.877 155.638 212.841 155.744 212.793C155.854 212.745 155.961 212.686 156.064 212.617C156.171 212.545 156.28 212.461 156.391 212.364L156.549 211.471C156.168 211.488 155.846 211.521 155.583 211.569C155.323 211.614 155.11 211.672 154.944 211.745C154.777 211.817 154.652 211.901 154.569 211.998C154.489 212.094 154.439 212.199 154.419 212.313C154.379 212.536 154.418 212.696 154.533 212.793C154.653 212.889 154.821 212.937 155.037 212.937ZM161.418 206.061L160.065 213.732H158.771L160.123 206.061H161.418ZM164.264 206.061L162.912 213.732H161.617L162.969 206.061H164.264ZM167.551 208.353C167.89 208.353 168.191 208.406 168.455 208.513C168.723 208.62 168.942 208.776 169.112 208.983C169.282 209.186 169.399 209.437 169.461 209.736C169.524 210.032 169.522 210.371 169.455 210.754C169.438 210.85 169.418 210.931 169.396 210.996C169.379 211.058 169.354 211.108 169.323 211.146C169.296 211.18 169.262 211.206 169.22 211.223C169.179 211.237 169.129 211.244 169.07 211.244H165.746C165.689 211.788 165.767 212.187 165.981 212.442C166.194 212.696 166.514 212.824 166.941 212.824C167.15 212.824 167.335 212.8 167.493 212.751C167.656 212.703 167.798 212.65 167.92 212.591C168.046 212.533 168.155 212.48 168.247 212.431C168.343 212.383 168.431 212.359 168.511 212.359C168.564 212.359 168.607 212.369 168.642 212.39C168.677 212.411 168.705 212.44 168.726 212.478L169.022 212.942C168.849 213.108 168.664 213.247 168.466 213.361C168.268 213.471 168.065 213.56 167.858 213.629C167.654 213.695 167.448 213.741 167.241 213.769C167.037 213.796 166.84 213.81 166.652 213.81C166.278 213.81 165.94 213.75 165.64 213.629C165.34 213.505 165.093 213.325 164.897 213.087C164.702 212.846 164.567 212.55 164.493 212.199C164.419 211.845 164.423 211.435 164.505 210.97C164.568 210.609 164.688 210.27 164.862 209.953C165.037 209.633 165.256 209.356 165.517 209.122C165.783 208.885 166.087 208.697 166.429 208.559C166.775 208.422 167.149 208.353 167.551 208.353ZM167.416 209.267C167.038 209.267 166.724 209.372 166.474 209.582C166.224 209.792 166.035 210.089 165.908 210.475H168.34C168.369 210.31 168.374 210.155 168.354 210.01C168.335 209.862 168.288 209.733 168.213 209.623C168.138 209.513 168.034 209.427 167.902 209.365C167.77 209.299 167.608 209.267 167.416 209.267ZM171.732 213.815C171.267 213.815 170.932 213.686 170.726 213.428C170.52 213.166 170.458 212.807 170.539 212.349L171.06 209.391H170.515C170.445 209.391 170.388 209.368 170.343 209.323C170.302 209.279 170.29 209.212 170.305 209.122L170.394 208.616L171.284 208.477L171.811 207.031C171.838 206.962 171.878 206.909 171.934 206.871C171.993 206.833 172.061 206.814 172.138 206.814H172.809L172.515 208.482H173.93L173.77 209.391H172.355L171.849 212.261C171.82 212.426 171.839 212.555 171.906 212.648C171.974 212.741 172.078 212.788 172.217 212.788C172.298 212.788 172.366 212.779 172.421 212.762C172.481 212.741 172.532 212.721 172.574 212.7C172.619 212.679 172.659 212.66 172.694 212.643C172.729 212.622 172.762 212.612 172.794 212.612C172.832 212.612 172.862 212.622 172.882 212.643C172.904 212.66 172.925 212.688 172.946 212.726L173.225 213.345C173.009 213.5 172.772 213.617 172.513 213.696C172.255 213.775 171.994 213.815 171.732 213.815Z" fill="black"/>
<path d="M40.0942 210C39.9977 210.547 39.8156 211.055 39.5479 211.523C39.2807 211.987 38.9494 212.39 38.5538 212.731C38.1583 213.072 37.7076 213.338 37.2018 213.531C36.6966 213.72 36.1575 213.815 35.5843 213.815C35.0112 213.815 34.5036 213.72 34.0617 213.531C33.6239 213.338 33.2655 213.072 32.9865 212.731C32.7111 212.39 32.5217 211.987 32.4184 211.523C32.3157 211.055 32.3126 210.547 32.409 210C32.5055 209.453 32.6873 208.947 32.9544 208.482C33.2222 208.014 33.5538 207.609 33.9494 207.269C34.3485 206.928 34.8006 206.663 35.3058 206.474C35.815 206.281 36.3562 206.185 36.9294 206.185C37.5026 206.185 38.008 206.281 38.4459 206.474C38.8837 206.666 39.2403 206.933 39.5158 207.274C39.7918 207.611 39.9812 208.014 40.0839 208.482C40.1872 208.947 40.1907 209.453 40.0942 210ZM38.6473 210C38.7195 209.59 38.7282 209.224 38.6734 208.9C38.6227 208.573 38.5143 208.296 38.3481 208.069C38.182 207.842 37.961 207.668 37.6852 207.548C37.4128 207.427 37.0914 207.367 36.721 207.367C36.3505 207.367 36.0062 207.427 35.6879 207.548C35.3696 207.668 35.0856 207.842 34.8358 208.069C34.5896 208.296 34.3817 208.573 34.2123 208.9C34.0434 209.224 33.9229 209.59 33.8507 210C33.7785 210.409 33.7695 210.778 33.8237 211.105C33.8785 211.428 33.9889 211.703 34.1551 211.931C34.3253 212.154 34.5484 212.326 34.8242 212.447C35.1 212.567 35.4232 212.628 35.7936 212.628C36.1641 212.628 36.5067 212.567 36.8215 212.447C37.1398 212.326 37.4218 212.154 37.6674 211.931C37.9136 211.703 38.1194 211.428 38.2848 211.105C38.4543 210.778 38.5751 210.409 38.6473 210ZM42.8933 209.891L41.1155 206.267H42.5205C42.6183 206.267 42.6858 206.281 42.7229 206.308C42.7641 206.333 42.797 206.374 42.8216 206.432L44.0631 209.174C44.0884 209.129 44.1152 209.086 44.1435 209.045C44.1723 209 44.2047 208.955 44.2405 208.91L46.2507 206.458C46.3501 206.331 46.4609 206.267 46.5832 206.267H47.9357L44.864 209.835L46.6879 213.732H45.2777C45.1834 213.732 45.1107 213.708 45.0598 213.66C45.0124 213.612 44.9749 213.557 44.9474 213.495L43.6954 210.635C43.6742 210.676 43.6515 210.716 43.6273 210.754C43.6038 210.788 43.5805 210.821 43.5576 210.852L41.4089 213.495C41.3601 213.553 41.3032 213.608 41.2382 213.66C41.1738 213.708 41.0996 213.732 41.0158 213.732H39.6947L42.8933 209.891ZM54.9022 210C54.8057 210.547 54.6245 211.05 54.3586 211.507C54.0927 211.965 53.7629 212.359 53.3691 212.69C52.9754 213.02 52.5265 213.276 52.0225 213.459C51.5186 213.641 50.98 213.732 50.4069 213.732H47.5131L48.8291 206.267H51.7228C52.296 206.267 52.8021 206.36 53.2411 206.546C53.6808 206.728 54.0392 206.985 54.3165 207.315C54.5944 207.642 54.7856 208.035 54.8901 208.492C54.9946 208.95 54.9987 209.453 54.9022 210ZM53.4606 210C53.5328 209.59 53.5415 209.224 53.4867 208.9C53.4325 208.573 53.322 208.298 53.1552 208.074C52.9891 207.847 52.7681 207.673 52.4923 207.553C52.2199 207.432 51.8985 207.372 51.5281 207.372H50.055L49.1286 212.628H50.6016C50.9721 212.628 51.3147 212.567 51.6295 212.447C51.9478 212.326 52.2298 212.154 52.4754 211.931C52.7216 211.703 52.9292 211.428 53.0981 211.105C53.2675 210.778 53.3884 210.409 53.4606 210ZM55.3458 213.732L56.6618 206.267H59.2777C59.774 206.267 60.1886 206.314 60.5217 206.407C60.8583 206.499 61.1233 206.632 61.3166 206.804C61.5135 206.976 61.6428 207.184 61.7045 207.429C61.7663 207.673 61.7702 207.948 61.7162 208.255C61.6852 208.43 61.6293 208.599 61.5484 208.761C61.468 208.919 61.3595 209.069 61.2228 209.21C61.0902 209.348 60.9283 209.473 60.737 209.587C60.5492 209.7 60.3313 209.797 60.0832 209.876C61.084 210.106 61.507 210.661 61.3523 211.538C61.2965 211.855 61.1838 212.147 61.0141 212.416C60.8445 212.684 60.6253 212.917 60.3566 213.113C60.0884 213.306 59.7734 213.457 59.4115 213.567C59.0496 213.677 58.6485 213.732 58.2081 213.732H55.3458ZM57.333 210.459L56.9471 212.648H58.3783C58.6404 212.648 58.8643 212.617 59.0499 212.555C59.2391 212.493 59.3952 212.411 59.5182 212.307C59.6448 212.204 59.7429 212.084 59.8126 211.946C59.8858 211.808 59.936 211.662 59.9633 211.507C59.9919 211.346 59.9911 211.201 59.9611 211.074C59.9318 210.943 59.8691 210.833 59.773 210.743C59.6776 210.65 59.5467 210.58 59.3805 210.532C59.2142 210.483 59.007 210.459 58.7589 210.459H57.333ZM57.5023 209.499H58.6293C59.1081 209.499 59.4868 209.413 59.7652 209.241C60.0437 209.069 60.216 208.795 60.2821 208.42C60.3507 208.031 60.2877 207.754 60.0932 207.589C59.8986 207.424 59.5637 207.341 59.0884 207.341H57.8827L57.5023 209.499ZM61.9162 213.03C61.935 212.924 61.9721 212.822 62.0276 212.726C62.0865 212.629 62.157 212.547 62.239 212.478C62.3245 212.409 62.4198 212.354 62.525 212.313C62.6301 212.271 62.7386 212.251 62.8504 212.251C62.9588 212.251 63.0582 212.271 63.1488 212.313C63.2394 212.354 63.3136 212.409 63.3713 212.478C63.4291 212.547 63.4704 212.629 63.4954 212.726C63.5203 212.822 63.5234 212.924 63.5046 213.03C63.4852 213.14 63.446 213.244 63.3871 213.34C63.3288 213.433 63.2586 213.514 63.1766 213.583C63.0945 213.652 63.0013 213.705 62.8967 213.743C62.7916 213.784 62.6848 213.805 62.5765 213.805C62.4647 213.805 62.3635 213.784 62.2729 213.743C62.1817 213.705 62.1055 213.652 62.0442 213.583C61.9865 213.514 61.9448 213.433 61.9193 213.34C61.8978 213.244 61.8968 213.14 61.9162 213.03ZM64.2711 213.03C64.2899 212.924 64.327 212.822 64.3825 212.726C64.4414 212.629 64.5119 212.547 64.5939 212.478C64.6794 212.409 64.7748 212.354 64.8799 212.313C64.985 212.271 65.0935 212.251 65.2054 212.251C65.3137 212.251 65.4132 212.271 65.5037 212.313C65.5943 212.354 65.6685 212.409 65.7262 212.478C65.784 212.547 65.8254 212.629 65.8503 212.726C65.8753 212.822 65.8783 212.924 65.8595 213.03C65.8401 213.14 65.8009 213.244 65.742 213.34C65.6837 213.433 65.6135 213.514 65.5315 213.583C65.4495 213.652 65.3562 213.705 65.2516 213.743C65.1465 213.784 65.0398 213.805 64.9314 213.805C64.8196 213.805 64.7184 213.784 64.6278 213.743C64.5366 213.705 64.4604 213.652 64.3992 213.583C64.3414 213.514 64.2997 213.433 64.2742 213.34C64.2527 213.244 64.2517 213.14 64.2711 213.03ZM66.626 213.03C66.6448 212.924 66.682 212.822 66.7374 212.726C66.7963 212.629 66.8668 212.547 66.9488 212.478C67.0344 212.409 67.1297 212.354 67.2348 212.313C67.34 212.271 67.4485 212.251 67.5603 212.251C67.6686 212.251 67.7681 212.271 67.8587 212.313C67.9492 212.354 68.0234 212.409 68.0812 212.478C68.1389 212.547 68.1803 212.629 68.2052 212.726C68.2302 212.822 68.2333 212.924 68.2144 213.03C68.195 213.14 68.1559 213.244 68.0969 213.34C68.0386 213.433 67.9684 213.514 67.8864 213.583C67.8044 213.652 67.7111 213.705 67.6066 213.743C67.5014 213.784 67.3947 213.805 67.2864 213.805C67.1745 213.805 67.0733 213.784 66.9827 213.743C66.8916 213.705 66.8153 213.652 66.7541 213.583C66.6963 213.514 66.6547 213.433 66.6291 213.34C66.6076 213.244 66.6066 213.14 66.626 213.03ZM71.5005 213.815C71.109 213.815 70.7599 213.763 70.4531 213.66C70.1498 213.557 69.8995 213.411 69.7022 213.221C69.5049 213.032 69.3652 212.803 69.2833 212.535C69.2048 212.266 69.1947 211.967 69.2529 211.636C69.3306 211.196 69.5062 210.824 69.7797 210.521C70.0539 210.215 70.4364 209.988 70.9273 209.84C70.5836 209.688 70.3437 209.473 70.2076 209.194C70.075 208.916 70.0433 208.58 70.1125 208.188C70.1622 207.905 70.2663 207.642 70.4247 207.398C70.5866 207.153 70.7882 206.942 71.0294 206.763C71.2712 206.58 71.546 206.439 71.8537 206.339C72.1654 206.236 72.4961 206.185 72.8455 206.185C73.195 206.185 73.5057 206.236 73.7776 206.339C74.0536 206.439 74.2803 206.58 74.4578 206.763C74.636 206.942 74.7612 207.153 74.8334 207.398C74.9092 207.642 74.9222 207.905 74.8724 208.188C74.8033 208.58 74.6515 208.916 74.4171 209.194C74.1828 209.473 73.8687 209.688 73.4751 209.84C73.9138 209.988 74.2163 210.215 74.3824 210.521C74.5492 210.824 74.5938 211.196 74.5161 211.636C74.4579 211.967 74.3404 212.266 74.1638 212.535C73.9907 212.803 73.7721 213.032 73.5081 213.221C73.244 213.411 72.9404 213.557 72.5972 213.66C72.2575 213.763 71.8919 213.815 71.5005 213.815ZM71.6761 212.819C71.8893 212.819 72.0814 212.789 72.2525 212.731C72.4242 212.669 72.5736 212.585 72.7007 212.478C72.8314 212.371 72.9377 212.244 73.0197 212.096C73.1017 211.948 73.1579 211.788 73.1882 211.616C73.2604 211.206 73.1997 210.896 73.0061 210.686C72.8124 210.476 72.5129 210.371 72.1075 210.371C71.7021 210.371 71.3655 210.476 71.0979 210.686C70.8302 210.896 70.6603 211.206 70.5881 211.616C70.5577 211.788 70.5575 211.948 70.5873 212.096C70.6171 212.244 70.6768 212.371 70.7664 212.478C70.8594 212.585 70.9808 212.669 71.1307 212.731C71.2811 212.789 71.4629 212.819 71.6761 212.819ZM72.284 209.37C72.4937 209.37 72.676 209.337 72.8308 209.272C72.9856 209.206 73.1161 209.12 73.2223 209.014C73.3291 208.904 73.4121 208.78 73.4713 208.642C73.5346 208.501 73.5793 208.356 73.6054 208.208C73.6303 208.067 73.6312 207.933 73.6082 207.806C73.5853 207.678 73.5368 207.566 73.4629 207.47C73.3897 207.37 73.2883 207.291 73.1588 207.233C73.0293 207.174 72.8685 207.145 72.6763 207.145C72.4841 207.145 72.3129 207.174 72.1628 207.233C72.0127 207.291 71.8816 207.37 71.7697 207.47C71.6618 207.566 71.574 207.678 71.5061 207.806C71.4417 207.933 71.3971 208.067 71.3722 208.208C71.3461 208.356 71.3381 208.501 71.3482 208.642C71.3623 208.78 71.4034 208.904 71.4714 209.014C71.5399 209.12 71.6401 209.206 71.7719 209.272C71.9036 209.337 72.0743 209.37 72.284 209.37ZM80.9614 206.809C80.9292 206.992 80.8437 207.14 80.7049 207.253C80.5695 207.367 80.3655 207.424 80.0929 207.424H78.0065L77.4591 208.983C77.8137 208.914 78.1326 208.879 78.4156 208.879C78.8141 208.879 79.1532 208.938 79.4332 209.055C79.7166 209.172 79.9432 209.334 80.113 209.54C80.2828 209.747 80.3955 209.989 80.4512 210.268C80.5075 210.544 80.5075 210.841 80.451 211.161C80.3813 211.557 80.2459 211.919 80.045 212.246C79.8476 212.573 79.6024 212.853 79.3095 213.087C79.0172 213.318 78.6869 213.497 78.3184 213.624C77.9535 213.751 77.5683 213.815 77.1629 213.815C76.9253 213.815 76.7041 213.791 76.4994 213.743C76.2947 213.695 76.105 213.631 75.9302 213.552C75.7596 213.469 75.603 213.376 75.4604 213.273C75.3219 213.166 75.2001 213.054 75.0949 212.937L75.5889 212.395C75.6934 212.278 75.8155 212.22 75.9553 212.22C76.0427 212.22 76.1252 212.247 76.2029 212.302C76.284 212.357 76.3783 212.418 76.4856 212.483C76.5929 212.548 76.7203 212.609 76.8679 212.664C77.0154 212.719 77.201 212.746 77.4247 212.746C77.6624 212.746 77.8787 212.708 78.0738 212.633C78.2689 212.557 78.4377 212.452 78.5801 212.318C78.7267 212.18 78.8461 212.018 78.9383 211.833C79.0346 211.643 79.1021 211.438 79.141 211.218C79.2125 210.812 79.1478 210.495 78.9467 210.268C78.7497 210.038 78.4188 209.922 77.954 209.922C77.587 209.922 77.2068 209.988 76.8133 210.119L76.046 209.891L77.3139 206.267H81.0569L80.9614 206.809ZM83.9417 210.754C83.6796 210.754 83.4306 210.709 83.1948 210.619C82.9589 210.53 82.7572 210.396 82.5895 210.217C82.4259 210.034 82.3081 209.81 82.236 209.545C82.1645 209.277 82.1603 208.964 82.2234 208.606C82.2822 208.272 82.4004 207.959 82.5778 207.666C82.7551 207.374 82.9768 207.117 83.2428 206.897C83.5088 206.677 83.8121 206.503 84.1525 206.376C84.493 206.248 84.8555 206.185 85.2399 206.185C85.6278 206.185 85.9649 206.245 86.2513 206.365C86.5411 206.486 86.7752 206.654 86.9537 206.871C87.1356 207.088 87.2576 207.348 87.3195 207.651C87.3849 207.954 87.3858 208.286 87.3221 208.647C87.2814 208.878 87.2219 209.096 87.1436 209.303C87.0688 209.509 86.9759 209.709 86.865 209.902C86.7583 210.091 86.6364 210.277 86.4994 210.459C86.363 210.638 86.2141 210.819 86.0526 211.001L83.8879 213.438C83.8139 213.521 83.7123 213.591 83.5832 213.65C83.4582 213.705 83.3205 213.732 83.1702 213.732H81.9802L84.8445 210.836C84.9167 210.764 84.9851 210.693 85.0496 210.624C85.1142 210.556 85.177 210.487 85.238 210.418C85.0439 210.528 84.8368 210.612 84.6168 210.671C84.3974 210.726 84.1724 210.754 83.9417 210.754ZM86.1024 208.518C86.1382 208.315 86.1386 208.134 86.1036 207.976C86.0692 207.814 86.0041 207.678 85.9082 207.568C85.8122 207.458 85.6891 207.374 85.5386 207.315C85.3917 207.257 85.2238 207.227 85.0351 207.227C84.8394 207.227 84.6571 207.26 84.4883 207.326C84.3201 207.387 84.1701 207.475 84.0383 207.589C83.9099 207.702 83.8021 207.838 83.7147 207.997C83.628 208.152 83.5683 208.322 83.5355 208.508C83.4621 208.924 83.5143 209.243 83.6922 209.463C83.8741 209.68 84.1661 209.788 84.568 209.788C84.7777 209.788 84.9687 209.755 85.1409 209.69C85.3167 209.625 85.4706 209.535 85.6024 209.422C85.7343 209.308 85.8418 209.174 85.925 209.019C86.0117 208.864 86.0709 208.697 86.1024 208.518ZM91.327 206.185C91.6765 206.185 91.9822 206.234 92.2442 206.334C92.5103 206.431 92.7275 206.567 92.8957 206.742C93.0646 206.914 93.1808 207.117 93.2444 207.351C93.3115 207.585 93.3211 207.838 93.2732 208.11C93.2313 208.348 93.1663 208.558 93.0783 208.74C92.9943 208.919 92.888 209.076 92.7595 209.21C92.6345 209.344 92.4887 209.458 92.322 209.551C92.1589 209.644 91.9775 209.721 91.7778 209.783C92.2073 209.924 92.5084 210.139 92.6811 210.428C92.8538 210.717 92.9016 211.08 92.8245 211.518C92.759 211.889 92.6312 212.218 92.441 212.504C92.2509 212.789 92.0197 213.03 91.7475 213.226C91.4758 213.419 91.1739 213.565 90.8418 213.665C90.5132 213.765 90.1741 213.815 89.8246 213.815C89.4437 213.815 89.1193 213.772 88.8514 213.686C88.5834 213.6 88.3595 213.473 88.1795 213.304C87.9996 213.135 87.8577 212.929 87.754 212.684C87.6503 212.44 87.5743 212.158 87.5259 211.838L88.1382 211.605C88.2433 211.564 88.3466 211.543 88.4479 211.543C88.5388 211.543 88.6159 211.562 88.6791 211.6C88.7458 211.638 88.792 211.693 88.8177 211.765C88.8594 211.886 88.9066 212.005 88.9594 212.122C89.0156 212.239 89.088 212.344 89.1764 212.437C89.2655 212.526 89.3748 212.6 89.5043 212.659C89.6378 212.714 89.8025 212.741 89.9982 212.741C90.2184 212.741 90.4167 212.707 90.5931 212.638C90.7701 212.566 90.9227 212.473 91.0511 212.359C91.183 212.246 91.2872 212.12 91.3639 211.982C91.4447 211.841 91.4975 211.7 91.5224 211.559C91.554 211.38 91.5633 211.218 91.5503 211.074C91.5379 210.926 91.4797 210.8 91.3756 210.697C91.2715 210.593 91.1092 210.513 90.8889 210.454C90.672 210.396 90.3714 210.366 89.987 210.366L90.1471 209.458C90.4658 209.454 90.7348 209.425 90.9542 209.37C91.1736 209.315 91.3529 209.239 91.4923 209.143C91.6357 209.043 91.744 208.924 91.8172 208.787C91.8904 208.649 91.9415 208.497 91.9706 208.332C92.0331 207.978 91.9823 207.711 91.8181 207.532C91.6546 207.35 91.4033 207.258 91.0643 207.258C90.7568 207.258 90.4874 207.339 90.2562 207.501C90.0256 207.659 89.8479 207.864 89.7232 208.115C89.6582 208.246 89.5839 208.341 89.5002 208.399C89.4171 208.454 89.3161 208.482 89.1973 208.482C89.1414 208.482 89.0829 208.477 89.0218 208.466L88.3612 208.348C88.4768 207.99 88.6333 207.677 88.8309 207.408C89.0291 207.136 89.2558 206.911 89.5111 206.732C89.7704 206.549 90.053 206.413 90.3588 206.324C90.6688 206.231 90.9915 206.185 91.327 206.185Z" fill="black"/>
</g>
<defs>
<linearGradient id="paint0_linear_954_10292" x1="-16.559" y1="150.907" x2="257.465" y2="130.837" gradientUnits="userSpaceOnUse">
<stop stop-color="#0046FE"/>
<stop offset="1" stop-color="#00BDFF"/>
</linearGradient>
<linearGradient id="paint1_linear_954_10292" x1="15.8284" y1="204.419" x2="22.9194" y2="204.776" gradientUnits="userSpaceOnUse">
<stop stop-color="#2D69FD"/>
<stop offset="1" stop-color="#00F2A5"/>
</linearGradient>
<linearGradient id="paint2_linear_954_10292" x1="21.1857" y1="209.833" x2="28.2583" y2="209.849" gradientUnits="userSpaceOnUse">
<stop stop-color="#2D69FD"/>
<stop offset="1" stop-color="#00F2A5"/>
</linearGradient>
<linearGradient id="paint3_linear_954_10292" x1="14.516" y1="214.55" x2="21.5796" y2="214.803" gradientUnits="userSpaceOnUse">
<stop stop-color="#2D69FD"/>
<stop offset="1" stop-color="#00F2A5"/>
</linearGradient>
<linearGradient id="paint4_linear_954_10292" x1="14.1595" y1="212.802" x2="28.196" y2="212.82" gradientUnits="userSpaceOnUse">
<stop stop-color="#2D69FD"/>
<stop offset="1" stop-color="#00F2A5"/>
</linearGradient>
<linearGradient id="paint5_linear_954_10292" x1="21.9243" y1="204.458" x2="28.9427" y2="204.813" gradientUnits="userSpaceOnUse">
<stop stop-color="#2D69FD"/>
<stop offset="1" stop-color="#00F2A5"/>
</linearGradient>
<linearGradient id="paint6_linear_954_10292" x1="180.978" y1="209.32" x2="190.289" y2="209.463" gradientUnits="userSpaceOnUse">
<stop stop-color="#2D69FD"/>
<stop offset="1" stop-color="#00F2A5"/>
</linearGradient>
<linearGradient id="paint7_linear_954_10292" x1="179.719" y1="210.95" x2="187.585" y2="210.931" gradientUnits="userSpaceOnUse">
<stop stop-color="#2D69FD"/>
<stop offset="1" stop-color="#00F2A5"/>
</linearGradient>
<linearGradient id="paint8_linear_954_10292" x1="79.0592" y1="85.2487" x2="155.109" y2="88.5392" gradientUnits="userSpaceOnUse">
<stop stop-color="#2D69FD"/>
<stop offset="1" stop-color="#00F2A5"/>
</linearGradient>
<linearGradient id="paint9_linear_954_10292" x1="77.8054" y1="114.23" x2="153.855" y2="117.52" gradientUnits="userSpaceOnUse">
<stop stop-color="#2D69FD"/>
<stop offset="1" stop-color="#00F2A5"/>
</linearGradient>
<clipPath id="clip0_954_10292">
<rect width="233.395" height="243" fill="white" transform="translate(0.5 0.5)"/>
</clipPath>
</defs>
</svg>
