<svg width="328" height="226" viewBox="0 0 328 226" fill="none" xmlns="http://www.w3.org/2000/svg">
<mask id="mask0_925_9992" style="mask-type:luminance" maskUnits="userSpaceOnUse" x="15" y="15" width="297" height="196">
<path d="M311.946 15.3877H15.2176V210.54H311.946V15.3877Z" fill="white"/>
</mask>
<g mask="url(#mask0_925_9992)">
<path d="M235.411 102.043C235.411 103.532 235.248 105.039 234.905 106.551L215.096 194.166C212.591 205.256 201.463 212.235 190.254 209.758H190.247C179.039 207.274 171.98 196.276 174.486 185.186L194.295 97.5706C194.428 96.967 194.591 96.3806 194.777 95.7999C195.498 93.5692 196.573 91.5341 197.933 89.7404C202.69 83.4567 210.887 80.1625 219.138 81.9849C224.271 83.1175 228.533 86.038 231.405 89.9359C233.492 92.7587 234.841 96.0988 235.265 99.6461C235.364 100.434 235.411 101.238 235.411 102.043Z" fill="black"/>
<path d="M262.33 100.353C260.533 102.538 258.667 104.677 256.609 106.562C250.277 104.694 243.236 102.343 235.265 99.6463C233.824 99.1634 232.353 98.6633 230.852 98.1574C212.835 92.0576 200.969 93.7019 194.776 95.8002C195.497 93.5696 196.574 91.5344 197.934 89.7407C206.562 85.6072 219.12 86.7799 231.405 89.9362C242.079 92.6785 253.033 96.8869 262.33 100.353Z" fill="url(#paint0_linear_925_9992)"/>
<path d="M262.882 100.56C262.702 100.491 262.51 100.422 262.33 100.354C260.539 102.538 258.673 104.677 256.609 106.562C260.661 107.758 264.423 108.758 267.947 109.523C270.202 107.678 272.161 105.574 273.458 102.981C270.103 102.693 266.568 101.934 262.882 100.56Z" fill="black"/>
<path d="M262.882 100.56C262.702 100.491 262.51 100.422 262.33 100.354C260.539 102.538 258.673 104.677 256.609 106.562C260.661 107.758 264.423 108.758 267.947 109.523C270.202 107.678 272.161 105.574 273.458 102.981C270.103 102.693 266.568 101.934 262.882 100.56Z" fill="url(#paint1_linear_925_9992)"/>
<path d="M307.486 89.3379C307.486 89.3379 293.765 104.734 273.457 102.98C272.166 105.567 270.2 107.677 267.945 109.523C277.526 111.598 285.346 111.938 292.48 109.781C307.078 105.372 311.945 98.157 311.945 98.157L307.486 89.3379Z" fill="url(#paint2_linear_925_9992)"/>
<path d="M270.992 159.5C270.992 159.5 265.718 154.286 251.125 158.298C236.527 162.306 235.312 154.291 221.12 155.09C206.928 155.889 202.875 157.097 202.875 157.097L202.067 145.069C202.067 145.069 220.312 144.271 227.614 146.272C234.91 148.278 241.398 151.486 249.51 149.882C257.62 148.278 263.701 147.875 271.405 149.882L270.998 159.505L270.992 159.5Z" fill="url(#paint3_linear_925_9992)"/>
<path d="M79.362 84.6103C89.0055 81.0032 95.4261 74.4269 93.7028 69.9218C91.9793 65.4167 82.7646 64.6887 73.121 68.2959C63.4775 71.9029 57.0569 78.4792 58.7803 82.9844C60.5037 87.4894 69.7183 88.2175 79.362 84.6103Z" fill="white"/>
<path d="M62.4739 80.9722C62.0145 78.7876 64.7587 75.8096 69.125 73.3375C70.8576 72.3602 72.8344 71.4633 74.9739 70.7217C82.5147 68.1116 89.1542 68.468 89.7937 71.5207C90.0205 72.5959 89.4682 73.8664 88.3286 75.1714C86.2414 77.563 82.1774 80.0811 77.2995 81.7714C69.7529 84.3814 63.1133 84.025 62.4739 80.978V80.9722Z" fill="url(#paint4_linear_925_9992)"/>
<path d="M58.5198 82.231C57.4675 77.2466 64.4966 70.4856 74.2059 67.1224C77.8513 65.8634 81.3513 65.2598 84.363 65.2598" stroke="black" stroke-width="0.730396" stroke-miterlimit="10" stroke-linecap="round"/>
<path d="M87.2063 65.4561C90.7354 65.985 93.1772 67.5602 93.7006 70.0553C93.7529 70.314 93.7878 70.5785 93.7994 70.8487C93.7994 70.9004 93.7994 70.9522 93.7994 71.0096C93.7994 71.0844 93.7994 71.1591 93.7994 71.2396C93.7994 71.3776 93.7819 71.5214 93.7703 71.665C93.7645 71.734 93.7529 71.8088 93.7413 71.8778C93.7296 71.9698 93.7122 72.056 93.7006 72.148C93.6889 72.217 93.6714 72.286 93.6598 72.355C93.6598 72.355 93.6598 72.3665 93.6598 72.3722C93.6424 72.4469 93.6249 72.5274 93.6017 72.6022C93.5668 72.7401 93.5261 72.8724 93.4855 73.0104C93.468 73.0678 93.4447 73.131 93.4214 73.1886C93.4098 73.2345 93.3924 73.2805 93.3749 73.3266C93.3459 73.4071 93.3168 73.4875 93.282 73.5679C93.1482 73.8956 92.9913 74.2233 92.811 74.551C92.7645 74.6374 92.7179 74.7178 92.6714 74.7983C92.4796 75.126 92.2645 75.4595 92.0261 75.7872C91.9795 75.8561 91.9331 75.9193 91.8807 75.9826C91.782 76.1206 91.6772 76.2528 91.5726 76.3908C91.4737 76.5115 91.3749 76.638 91.2761 76.7587C91.1889 76.8622 91.0959 76.9714 91.0029 77.0749C90.9447 77.1382 90.8924 77.2014 90.8343 77.2647C90.6831 77.4257 90.532 77.5924 90.3691 77.7591C90.0552 78.081 89.7237 78.4029 89.3749 78.7191C89.2819 78.8053 89.1889 78.8916 89.0901 78.9721C88.8691 79.1676 88.6366 79.3573 88.404 79.5528C88.0959 79.8058 87.776 80.053 87.4447 80.2944C87.1191 80.5416 86.7761 80.7831 86.4214 81.0187C86.1715 81.1913 85.9214 81.358 85.6598 81.519C85.5144 81.611 85.3632 81.7029 85.2121 81.7949C85.0784 81.8811 84.9331 81.9674 84.7935 82.0479C84.5144 82.2146 84.2238 82.3813 83.9331 82.5423C83.7877 82.6228 83.6423 82.7033 83.4912 82.7837C83.34 82.8642 83.1947 82.9447 83.0435 83.0195C82.8458 83.1229 82.6539 83.2206 82.4505 83.3185C82.2935 83.3931 82.1365 83.4736 81.9738 83.5483C81.7819 83.6403 81.59 83.7324 81.3923 83.8186C81.3051 83.8588 81.2062 83.9048 81.1191 83.945C80.1249 84.3878 79.0958 84.8017 78.0318 85.1696" stroke="black" stroke-width="0.730396" stroke-miterlimit="10" stroke-linecap="round"/>
<path d="M71.8637 70.3251C72.7532 69.9285 73.6892 69.5548 74.6543 69.2213C74.9276 69.1236 75.2009 69.0374 75.4742 68.9512" stroke="black" stroke-width="0.730396" stroke-miterlimit="10" stroke-linecap="round"/>
<path d="M62.55 77.5743C62.9628 76.8096 63.5732 76.0221 64.3523 75.2402" stroke="black" stroke-width="0.730396" stroke-miterlimit="10" stroke-linecap="round"/>
<path d="M75.474 68.9512C82.852 66.5999 89.2474 67.3185 89.9508 70.6587C90.6543 73.999 85.0148 79.0984 77.2938 81.766C69.5728 84.4335 62.7239 83.7953 61.9972 80.3344" stroke="black" stroke-width="0.730396" stroke-miterlimit="10" stroke-linecap="round"/>
<path d="M89.3693 82.5013C88.7705 83.0015 88.1252 83.4959 87.4391 83.9673C86.4042 84.686 85.2821 85.3758 84.0786 86.0083C82.4275 86.8879 80.6367 87.6697 78.7414 88.3308C69.0262 91.694 60.2994 90.3775 59.2471 85.3989L58.5668 82.4093C59.4797 86.0197 64.5262 87.6295 71.0204 86.8246L74.4332 86.2037C75.6018 85.9278 76.7995 85.5771 78.0147 85.1632C79.0786 84.7952 80.1134 84.387 81.1018 83.9386C81.1949 83.8983 81.2879 83.8581 81.3751 83.8121C81.5728 83.7259 81.7647 83.6339 81.9565 83.5419C82.1193 83.4672 82.2763 83.3867 82.4333 83.3119C82.6368 83.2142 82.8286 83.1165 83.0263 83.0129C83.1775 82.9325 83.3286 82.8578 83.474 82.7773C83.6194 82.6968 83.7705 82.6163 83.9158 82.5359C84.2065 82.3749 84.4914 82.2082 84.7763 82.0414C84.9158 81.9552 85.0553 81.8747 85.1949 81.7885C85.3461 81.6964 85.4914 81.6044 85.6426 81.5125C85.9042 81.3458 86.16 81.1848 86.4042 81.0123C86.753 80.7766 87.0961 80.5351 87.4275 80.2879C87.7588 80.0465 88.0787 79.7935 88.3868 79.5463C88.6252 79.3566 88.8519 79.1611 89.0728 78.9656C89.1716 78.8852 89.2647 78.7989 89.3577 78.7127C89.7123 78.3965 90.038 78.0745 90.3519 77.7526C90.5147 77.5859 90.6658 77.4249 90.817 77.2582C90.8751 77.1949 90.9333 77.1317 90.9857 77.0685C91.0787 76.965 91.1716 76.8557 91.2589 76.7523C91.3635 76.6316 91.4624 76.5108 91.5554 76.3844C91.66 76.2464 91.7647 76.1141 91.8635 75.9762C91.91 75.9129 91.9624 75.8439 92.0089 75.7807C92.2473 75.453 92.4624 75.1195 92.6542 74.7918C92.7008 74.7113 92.7473 74.6251 92.7938 74.5446C92.974 74.2169 93.1309 73.8892 93.2647 73.5615C93.2996 73.481 93.3286 73.4005 93.3577 73.3201C93.3751 73.2741 93.3926 73.2281 93.4042 73.182C93.4275 73.1246 93.445 73.0614 93.4682 73.0038C93.5147 72.8659 93.5554 72.7337 93.5844 72.5957C93.6077 72.5209 93.6251 72.4404 93.6426 72.3658C93.6426 72.3658 93.6426 72.3542 93.6426 72.3485C93.6601 72.2795 93.6717 72.2105 93.6834 72.1415C93.7008 72.0496 93.7124 71.9633 93.724 71.8714C93.7357 71.8024 93.7473 71.7276 93.7531 71.6586C93.7705 71.5149 93.7763 71.3711 93.7821 71.2332C93.7821 71.1584 93.7821 71.0837 93.7821 71.0032C93.7821 70.9514 93.7821 70.894 93.7821 70.8422C93.7705 70.5721 93.7357 70.3075 93.6834 70.0488L94.4101 73.2166C94.8927 75.5047 93.6717 78.1722 91.2647 80.7076C90.6949 81.3113 90.0554 81.9092 89.3519 82.4956L89.3693 82.5013Z" fill="url(#paint5_linear_925_9992)" stroke="black" stroke-width="0.730396" stroke-miterlimit="10" stroke-linecap="round"/>
<path d="M87.4388 83.9745C86.4038 84.6932 85.2818 85.3831 84.0783 86.0154L83.026 83.0202C83.1771 82.9397 83.3283 82.865 83.4736 82.7845C83.619 82.704 83.7702 82.6235 83.9155 82.543C84.2061 82.3821 84.4911 82.2153 84.776 82.0486C84.9155 81.9624 85.055 81.8819 85.1945 81.7957C85.3457 81.7037 85.4911 81.6116 85.6422 81.5196C85.9038 81.3529 86.1596 81.192 86.4038 81.0195L87.4388 83.9745Z" fill="black"/>
<path d="M89.3695 82.5006L88.387 79.5456C88.6254 79.3559 88.8521 79.1605 89.073 78.965C89.1718 78.8845 89.2649 78.7982 89.3579 78.712C89.7126 78.3958 90.0382 78.0738 90.3521 77.752L91.2824 80.7127C90.7126 81.3164 90.073 81.9142 89.3695 82.5006Z" fill="black"/>
<path d="M77.9915 77.9999C78.945 77.4192 79.5323 76.7351 79.6195 76.1832C80.323 76.0337 81.0904 75.752 81.7707 75.3668C83.2648 74.516 83.9277 73.4121 83.2125 72.9005L82.8462 72.6934L84.9974 71.4287L84.2939 71.032L82.1427 72.2967L81.5672 71.9691L83.7184 70.7043L83.0148 70.3076L80.8636 71.5725L79.4566 70.779L77.8869 71.6989L78.7823 72.2048L76.2183 73.7054L75.3229 73.1993L73.9218 74.0216L74.8171 74.5275L71.8984 76.2407L71.1543 75.8209L69.3694 76.7006L70.259 77.2007L70.7706 77.4882L68.6078 78.753L69.3113 79.1497L71.4741 77.8849L72.0496 78.2126L69.8868 79.4774L70.5903 79.8741L72.7531 78.6092H72.759L73.1136 78.8162C73.9741 79.4487 76.3171 79.0174 77.9799 77.9941L77.9915 77.9999ZM80.0032 72.889L80.9334 73.4121C81.352 73.6134 81.0904 74.1422 80.3695 74.5677C79.6485 74.9931 78.7299 75.154 78.3753 74.9126L77.445 74.3895L80.0032 72.889ZM74.3985 77.6492L73.1194 76.9248L76.038 75.2116L77.3172 75.936C77.6427 76.2061 77.3114 76.7523 76.5613 77.1892C75.8113 77.632 74.8695 77.8274 74.3985 77.6492Z" fill="white"/>
<path d="M160.462 73.0103C160.462 73.5794 160.439 74.1428 160.392 74.7177C160.311 75.6491 160.166 76.5804 159.956 77.5175L157.84 86.8885L140.363 164.173L140.148 165.133C139.689 167.18 138.933 169.083 137.933 170.819C133.531 178.477 124.444 182.743 115.305 180.725C109.444 179.431 104.723 175.809 101.903 171.061C100.27 168.319 99.2814 165.202 99.0779 161.942C98.95 160.045 99.0953 158.102 99.5372 156.153L112.799 97.5012L114.804 88.6189L119.346 68.5432C121.851 57.4533 132.979 50.474 144.189 52.9518C153.874 55.0904 160.462 63.5876 160.462 73.0103Z" fill="black"/>
<path d="M157.556 72.4351C157.556 73.0043 157.533 73.5676 157.487 74.1425C157.405 75.0739 157.259 76.0053 157.051 76.9424L154.934 86.3133L137.458 163.598L137.242 164.558C136.783 166.605 136.027 168.507 135.026 170.243C130.626 177.902 121.539 182.168 112.398 180.15C106.538 178.856 101.817 175.234 98.9975 170.485C97.3638 167.743 96.3754 164.627 96.172 161.367C96.044 159.47 96.1894 157.527 96.6312 155.578L109.893 96.9261L111.899 88.0438L116.44 67.9681C118.945 56.8782 130.073 49.8988 141.282 52.3766C150.969 54.5153 157.556 63.0124 157.556 72.4351Z" stroke="#070707" stroke-width="0.730396" stroke-miterlimit="10" stroke-linecap="round"/>
<path d="M192.614 122.982L198.357 97.5706C200.864 86.4806 211.986 79.5013 223.201 81.9791C234.416 84.457 241.474 95.4549 238.968 106.545L219.16 194.161C216.655 205.25 205.532 212.23 194.317 209.752C185.939 207.901 179.881 201.295 178.398 193.448" stroke="#070707" stroke-width="0.730396" stroke-miterlimit="10" stroke-linecap="round"/>
<path d="M140.364 164.173L140.149 165.134C139.69 167.18 138.934 169.083 137.934 170.819C135.086 170.353 130.858 170.52 125.684 173.274C115.876 178.494 107.58 174.05 101.905 171.06C101.888 171.05 101.87 171.043 101.853 171.032C96.1783 168.036 87.4748 167.289 81.0446 172.153L73.8584 164.3C73.8584 164.3 85.5852 157.188 97.312 161.305C97.9224 161.517 98.5097 161.73 99.0795 161.943C109.522 165.795 114.05 169.043 122.656 166.916C129.086 165.329 134.94 163.926 140.364 164.173Z" fill="url(#paint6_linear_925_9992)"/>
<path d="M114.806 88.621C107.422 88.3392 99.5909 87.2412 91.7478 85.7637C87.8118 86.2926 84.2187 87.7701 80.9745 89.9202C85.5734 91.185 90.6025 92.6683 96.1781 94.347C101.986 96.1005 107.544 97.0893 112.8 97.5033C125.992 98.5496 137.283 95.9682 145.87 92.6855C141.498 90.4262 136.719 88.8797 131.882 87.4481C126.649 88.5289 120.882 88.8451 114.806 88.621Z" fill="url(#paint7_linear_925_9992)"/>
<path d="M134.38 86.8666C133.561 87.0851 132.729 87.2748 131.88 87.4473C136.718 88.8788 141.497 90.4196 145.87 92.6847C150.8 90.799 154.846 88.6833 157.84 86.8897L159.957 77.5186C160.166 76.5816 160.311 75.6502 160.393 74.7246C154.962 78.6225 146.201 83.7334 134.38 86.8666Z" fill="url(#paint8_linear_925_9992)"/>
<path d="M57.9678 77.8863C34.1364 71.9016 15.2176 89.1085 15.2176 89.1085L20.1363 94.7195C40.9504 82.5028 52.8167 82.1693 80.9738 89.919C84.218 87.7689 87.811 86.2914 91.7471 85.7625C80.0319 83.5549 68.2935 80.4733 57.9678 77.8863Z" fill="url(#paint9_linear_925_9992)"/>
<path d="M216.219 174.875C223.944 162.507 208.737 139.37 182.254 123.196C155.77 107.022 128.04 103.937 120.315 116.304C112.591 128.671 127.797 151.808 154.281 167.982C180.764 184.156 208.496 187.241 216.219 174.875Z" fill="white"/>
<path d="M131.991 121.353C136.433 116.242 148.684 117.254 162.706 123.027C168.259 125.32 174.079 128.35 179.811 132.046C200.015 145.085 211.364 161.447 205.172 168.582C202.986 171.1 198.893 172.129 193.637 171.842C184.003 171.307 170.434 166.328 157.37 157.894C137.154 144.85 125.8 128.487 131.997 121.353H131.991Z" fill="black"/>
<path d="M151.167 126.287C153.353 123.769 157.446 122.74 162.702 123.027C168.254 125.322 174.074 128.351 179.807 132.048C200.01 145.087 211.36 161.448 205.167 168.584C202.981 171.101 198.889 172.131 193.633 171.843C188.079 169.554 182.26 166.519 176.539 162.828C156.324 149.784 144.975 133.428 151.167 126.287Z" fill="url(#paint10_linear_925_9992)"/>
<path d="M121.672 114.323C131.8 102.665 161.096 106.833 187.114 123.631C196.87 129.932 204.783 137.107 210.323 144.236" stroke="black" stroke-width="0.730396" stroke-miterlimit="10" stroke-linecap="round"/>
<path d="M215.062 151.312C220.271 160.638 220.958 169.318 215.893 175.148C215.365 175.752 214.789 176.321 214.155 176.844C214.033 176.947 213.905 177.045 213.777 177.149C213.603 177.293 213.417 177.431 213.225 177.563C212.876 177.804 212.516 178.045 212.138 178.275C211.952 178.385 211.759 178.499 211.568 178.597C211.33 178.735 211.086 178.862 210.841 178.988C210.655 179.086 210.464 179.178 210.266 179.264C210.248 179.264 210.231 179.282 210.213 179.287C209.992 179.385 209.777 179.483 209.55 179.574C209.155 179.748 208.76 179.903 208.341 180.046C208.161 180.109 207.981 180.173 207.789 180.23C207.649 180.281 207.509 180.328 207.371 180.369C207.12 180.455 206.865 180.524 206.609 180.592C205.573 180.874 204.492 181.11 203.364 181.288C203.08 181.334 202.795 181.38 202.509 181.42C201.353 181.575 200.167 181.673 198.934 181.719C198.684 181.731 198.446 181.748 198.19 181.742C197.678 181.759 197.161 181.759 196.638 181.759C196.161 181.759 195.678 181.748 195.201 181.725C194.782 181.707 194.353 181.685 193.923 181.656C193.673 181.638 193.41 181.621 193.149 181.604C192.475 181.552 191.795 181.484 191.103 181.415C189.748 181.265 188.364 181.069 186.946 180.823C186.568 180.759 186.184 180.69 185.812 180.615C184.934 180.448 184.044 180.259 183.143 180.052C181.969 179.787 180.783 179.488 179.579 179.149C178.381 178.827 177.166 178.459 175.946 178.062C175.073 177.792 174.207 177.499 173.323 177.183C172.824 177.004 172.323 176.82 171.829 176.637C171.37 176.476 170.905 176.297 170.445 176.108C169.521 175.752 168.597 175.378 167.66 174.987C167.195 174.792 166.73 174.596 166.271 174.383C165.801 174.176 165.341 173.97 164.87 173.756C164.26 173.486 163.661 173.204 163.056 172.906C162.58 172.676 162.103 172.446 161.62 172.21C161.044 171.928 160.475 171.635 159.899 171.336C159.632 171.198 159.359 171.054 159.091 170.916C156.184 169.387 153.301 167.697 150.446 165.857" stroke="black" stroke-width="0.730396" stroke-miterlimit="10" stroke-linecap="round"/>
<path d="M175.043 123.977C177.649 125.356 180.265 126.88 182.846 128.547C183.579 129.019 184.305 129.502 185.014 129.985" stroke="black" stroke-width="0.730396" stroke-miterlimit="10" stroke-linecap="round"/>
<path d="M140.346 115.277C142.962 114.84 145.991 114.84 149.317 115.237" stroke="black" stroke-width="0.730396" stroke-miterlimit="10" stroke-linecap="round"/>
<path d="M185.015 129.983C204.288 143.115 214.329 159.569 207.538 167.381C200.497 175.488 178.032 171.234 157.358 157.89C136.683 144.546 125.625 127.155 132.666 119.055" stroke="black" stroke-width="0.730396" stroke-miterlimit="10" stroke-linecap="round"/>
<path d="M177.801 187.814C175.486 187.32 173.109 186.699 170.696 185.952C167.051 184.83 163.317 183.434 159.561 181.76C154.404 179.472 149.196 176.678 144.12 173.401C118.102 156.602 105.207 133.532 115.329 121.878L121.312 114.761C114.247 123.563 119.654 138.464 133.55 152.354L141.335 159.292C144.16 161.558 147.207 163.749 150.452 165.853C153.3 167.692 156.19 169.383 159.097 170.912C159.365 171.055 159.638 171.199 159.905 171.332C160.475 171.63 161.05 171.924 161.626 172.206C162.109 172.441 162.586 172.671 163.062 172.901C163.666 173.2 164.265 173.476 164.876 173.752C165.347 173.964 165.807 174.177 166.277 174.378C166.742 174.58 167.201 174.786 167.666 174.982C168.603 175.373 169.527 175.746 170.451 176.104C170.916 176.281 171.376 176.46 171.835 176.632C172.335 176.816 172.83 177 173.329 177.179C174.207 177.494 175.079 177.788 175.952 178.058C177.167 178.449 178.375 178.817 179.585 179.145C180.783 179.477 181.969 179.771 183.149 180.047C184.045 180.254 184.94 180.444 185.817 180.611C186.19 180.685 186.574 180.76 186.952 180.817C188.37 181.065 189.748 181.26 191.109 181.409C191.801 181.485 192.481 181.548 193.155 181.6C193.416 181.622 193.672 181.634 193.929 181.651C194.359 181.679 194.788 181.697 195.207 181.72C195.69 181.737 196.172 181.748 196.644 181.755C197.167 181.755 197.684 181.755 198.196 181.737C198.44 181.737 198.69 181.726 198.94 181.714C200.178 181.669 201.364 181.571 202.515 181.416C202.801 181.375 203.086 181.335 203.37 181.283C204.492 181.111 205.579 180.874 206.615 180.587C206.87 180.518 207.126 180.444 207.376 180.363C207.522 180.329 207.661 180.282 207.794 180.225C207.98 180.174 208.167 180.105 208.347 180.041C208.76 179.897 209.161 179.742 209.556 179.57C209.783 179.477 210.004 179.381 210.219 179.283C210.236 179.283 210.254 179.265 210.272 179.259C210.463 179.173 210.661 179.081 210.847 178.983C211.097 178.856 211.335 178.731 211.574 178.593C211.772 178.49 211.958 178.38 212.143 178.271C212.522 178.041 212.882 177.799 213.231 177.558C213.423 177.42 213.609 177.287 213.783 177.143C213.911 177.04 214.039 176.943 214.161 176.839C214.795 176.322 215.371 175.753 215.899 175.143L209.568 182.692C204.916 188.044 196.219 190.062 185.649 189.045C183.132 188.803 180.51 188.389 177.806 187.808L177.801 187.814Z" fill="url(#paint11_linear_925_9992)" stroke="black" stroke-width="0.730396" stroke-miterlimit="10" stroke-linecap="round"/>
<path d="M170.695 185.952C167.049 184.83 163.316 183.433 159.561 181.76L164.869 173.752C165.34 173.964 165.799 174.177 166.27 174.378C166.736 174.58 167.194 174.786 167.66 174.982C168.595 175.373 169.52 175.746 170.444 176.103C170.91 176.281 171.369 176.46 171.828 176.632C172.328 176.816 172.822 177 173.323 177.179C174.2 177.494 175.073 177.788 175.944 178.058L170.695 185.957V185.952Z" fill="black"/>
<path d="M177.799 187.814L183.137 180.041C184.032 180.248 184.928 180.438 185.805 180.605C186.177 180.679 186.561 180.755 186.939 180.812C188.358 181.059 189.735 181.254 191.096 181.403L185.642 189.044C183.125 188.802 180.504 188.389 177.799 187.808V187.814Z" fill="black"/>
<path d="M167.759 152.606C170.916 153.785 173.648 153.917 175.148 153.112C176.806 154.51 178.899 155.804 181.09 156.7C185.898 158.672 189.8 158.206 189.712 155.573L189.538 154.331L196.561 157.103L196.23 154.705L189.207 151.934L188.933 149.974L195.957 152.745L195.625 150.347L188.602 147.576L187.934 142.782L182.823 140.764L183.248 143.816L174.899 140.522L174.474 137.47L169.909 135.67L170.335 138.722L160.811 134.963L160.456 132.421L155.038 129.823L155.456 132.853L155.701 134.595L148.654 131.818L148.985 134.215L156.032 136.992L156.305 138.953L149.258 136.176L149.59 138.573L156.637 141.35V141.373L156.811 142.591C156.864 145.799 162.224 150.531 167.759 152.601V152.606ZM183.822 147.961L184.265 151.123C184.555 152.486 182.788 152.842 180.427 151.916C178.072 150.985 175.991 149.111 175.916 147.829L175.474 144.667L183.822 147.961ZM161.991 143.465L161.387 139.108L170.91 142.868L171.515 147.225C171.456 148.484 169.532 148.708 167.084 147.743C164.637 146.778 162.421 144.915 161.991 143.465Z" fill="white"/>
<path d="M181.57 154.365C189.294 141.997 174.087 118.86 147.603 102.687C121.121 86.5127 93.3898 83.4269 85.6655 95.7939C77.9411 108.161 93.1484 131.298 119.631 147.472C146.115 163.646 173.846 166.731 181.57 154.365Z" fill="white"/>
<path d="M97.3412 100.836C101.783 95.7248 114.033 96.7366 128.057 102.509C133.609 104.802 139.429 107.832 145.161 111.529C165.365 124.568 176.713 140.929 170.522 148.064C168.336 150.583 164.242 151.612 158.987 151.324C149.353 150.789 135.784 145.811 122.72 137.377C102.504 124.332 91.1492 107.97 97.347 100.836H97.3412Z" fill="url(#paint12_linear_925_9992)"/>
<path d="M87.0165 93.8052C97.1444 82.1462 126.441 86.3141 152.459 103.113C162.214 109.414 170.127 116.589 175.668 123.718" stroke="black" stroke-width="0.730396" stroke-miterlimit="10" stroke-linecap="round"/>
<path d="M180.412 130.794C185.621 140.118 186.307 148.8 181.243 154.629C180.714 155.233 180.138 155.802 179.505 156.325C179.382 156.429 179.255 156.527 179.127 156.63C178.952 156.773 178.766 156.912 178.575 157.043C178.225 157.285 177.864 157.527 177.487 157.757C177.301 157.866 177.109 157.981 176.917 158.079C176.678 158.216 176.434 158.343 176.191 158.469C176.005 158.567 175.812 158.66 175.615 158.746C175.597 158.746 175.58 158.763 175.562 158.768C175.342 158.866 175.127 158.964 174.9 159.056C174.505 159.228 174.109 159.384 173.691 159.527C173.51 159.591 173.33 159.654 173.138 159.711C172.999 159.763 172.859 159.809 172.719 159.849C172.469 159.935 172.213 160.005 171.958 160.074C170.923 160.355 169.841 160.59 168.714 160.769C168.428 160.815 168.144 160.862 167.859 160.901C166.702 161.056 165.516 161.154 164.283 161.201C164.033 161.211 163.795 161.229 163.539 161.223C163.028 161.24 162.51 161.24 161.987 161.24C161.511 161.24 161.027 161.229 160.551 161.206C160.132 161.189 159.702 161.166 159.272 161.137C159.021 161.12 158.76 161.103 158.498 161.085C157.824 161.034 157.143 160.965 156.451 160.896C155.098 160.746 153.714 160.551 152.295 160.303C151.917 160.241 151.533 160.172 151.161 160.096C150.284 159.93 149.394 159.74 148.493 159.534C147.318 159.269 146.132 158.97 144.929 158.631C143.731 158.309 142.516 157.941 141.294 157.544C140.423 157.274 139.556 156.981 138.673 156.664C138.172 156.486 137.673 156.302 137.179 156.118C136.72 155.957 136.255 155.779 135.795 155.589C134.871 155.233 133.946 154.859 133.01 154.468C132.545 154.273 132.08 154.077 131.621 153.864C131.149 153.658 130.691 153.451 130.219 153.238C129.609 152.968 129.01 152.686 128.405 152.387C127.928 152.157 127.451 151.927 126.969 151.691C126.393 151.409 125.824 151.117 125.248 150.818C124.98 150.68 124.708 150.536 124.44 150.398C121.533 148.869 118.649 147.178 115.795 145.339" stroke="black" stroke-width="0.730396" stroke-miterlimit="10" stroke-linecap="round"/>
<path d="M140.388 103.458C142.992 104.838 145.608 106.361 148.19 108.029C148.922 108.5 149.649 108.983 150.359 109.465" stroke="black" stroke-width="0.730396" stroke-miterlimit="10" stroke-linecap="round"/>
<path d="M105.695 94.7597C108.312 94.3227 111.341 94.3227 114.667 94.7194" stroke="black" stroke-width="0.730396" stroke-miterlimit="10" stroke-linecap="round"/>
<path d="M150.359 109.465C169.632 122.595 179.673 139.049 172.883 146.862C165.842 154.969 143.377 150.714 122.702 137.372C102.028 124.028 90.9694 106.637 98.0101 98.5361" stroke="black" stroke-width="0.730396" stroke-miterlimit="10" stroke-linecap="round"/>
<path d="M143.15 167.296C140.836 166.802 138.458 166.181 136.046 165.434C132.399 164.313 128.667 162.916 124.911 161.242C119.754 158.954 114.545 156.161 109.469 152.884C83.452 136.084 70.5565 113.014 80.6786 101.361L86.6613 94.2432C79.5973 103.045 85.0043 117.946 98.8997 131.837L106.685 138.776C109.51 141.04 112.557 143.231 115.801 145.335C118.65 147.175 121.54 148.865 124.446 150.394C124.713 150.538 124.987 150.682 125.255 150.814C125.824 151.113 126.4 151.406 126.975 151.688C127.458 151.924 127.934 152.153 128.411 152.383C129.016 152.682 129.615 152.958 130.226 153.235C130.696 153.447 131.155 153.66 131.627 153.861C132.092 154.062 132.551 154.269 133.016 154.465C133.952 154.855 134.877 155.229 135.801 155.586C136.266 155.764 136.726 155.942 137.185 156.114C137.685 156.298 138.179 156.482 138.679 156.661C139.557 156.976 140.429 157.27 141.301 157.54C142.516 157.931 143.725 158.299 144.935 158.627C146.133 158.96 147.319 159.254 148.499 159.529C149.395 159.737 150.289 159.926 151.167 160.093C151.54 160.167 151.924 160.243 152.301 160.3C153.72 160.547 155.097 160.743 156.458 160.892C157.15 160.967 157.83 161.03 158.505 161.082C158.766 161.105 159.022 161.117 159.278 161.134C159.708 161.162 160.138 161.18 160.557 161.203C161.039 161.22 161.522 161.232 161.993 161.237C162.517 161.237 163.033 161.237 163.546 161.22C163.79 161.22 164.039 161.208 164.289 161.197C165.528 161.151 166.714 161.053 167.865 160.898C168.151 160.857 168.435 160.817 168.72 160.766C169.842 160.594 170.929 160.358 171.965 160.069C172.22 160.001 172.476 159.926 172.725 159.846C172.871 159.811 173.011 159.765 173.144 159.708C173.33 159.656 173.516 159.587 173.696 159.524C174.109 159.38 174.511 159.225 174.906 159.052C175.133 158.96 175.353 158.863 175.569 158.765C175.586 158.765 175.603 158.748 175.621 158.741C175.813 158.655 176.011 158.564 176.196 158.466C176.447 158.34 176.685 158.213 176.924 158.075C177.121 157.972 177.307 157.862 177.493 157.753C177.871 157.523 178.231 157.282 178.58 157.04C178.773 156.902 178.959 156.77 179.133 156.627C179.26 156.522 179.388 156.425 179.511 156.321C180.145 155.804 180.719 155.235 181.249 154.626L174.918 162.174C170.266 167.526 161.569 169.544 150.999 168.527C148.481 168.285 145.859 167.872 143.156 167.291L143.15 167.296Z" fill="url(#paint13_linear_925_9992)" stroke="black" stroke-width="0.730396" stroke-miterlimit="10" stroke-linecap="round"/>
<path d="M136.044 165.432C132.399 164.312 128.666 162.914 124.91 161.241L130.219 153.232C130.689 153.446 131.149 153.659 131.62 153.86C132.085 154.061 132.545 154.268 133.01 154.464C133.946 154.854 134.87 155.228 135.795 155.584C136.26 155.763 136.719 155.941 137.178 156.113C137.678 156.297 138.172 156.481 138.673 156.659C139.551 156.975 140.422 157.269 141.294 157.539L136.044 165.439V165.432Z" fill="black"/>
<path d="M143.149 167.296L148.485 159.523C149.381 159.73 150.276 159.921 151.154 160.086C151.526 160.162 151.91 160.236 152.288 160.294C153.706 160.542 155.085 160.736 156.445 160.886L150.991 168.527C148.474 168.285 145.852 167.871 143.149 167.29V167.296Z" fill="black"/>
<path d="M133.101 132.09C136.259 133.269 138.991 133.4 140.492 132.595C142.149 133.993 144.241 135.287 146.433 136.183C151.242 138.155 155.143 137.69 155.056 135.057L154.881 133.815L161.905 136.586L161.573 134.188L154.55 131.417L154.277 129.457L161.3 132.228L160.968 129.831L153.945 127.059L153.277 122.265L148.166 120.247L148.59 123.299L140.242 120.005L139.817 116.953L135.253 115.154L135.678 118.206L126.155 114.447L125.8 111.905L120.381 109.307L120.8 112.336L121.044 114.078L113.997 111.302L114.328 113.699L121.375 116.475L121.649 118.436L114.602 115.659L114.933 118.056L121.98 120.834V120.856L122.154 122.076C122.206 125.283 127.567 130.015 133.101 132.084V132.09ZM149.166 127.445L149.608 130.607C149.899 131.969 148.132 132.325 145.77 131.4C143.416 130.469 141.334 128.594 141.259 127.312L140.817 124.151L149.166 127.445ZM127.334 122.95L126.729 118.591L136.254 122.351L136.857 126.709C136.799 127.968 134.875 128.192 132.428 127.226C129.979 126.261 127.765 124.398 127.334 122.95Z" fill="white"/>
<path d="M294.766 145.158C297.326 141.06 292.289 133.394 283.517 128.037C274.745 122.679 265.559 121.658 262.999 125.756C260.439 129.854 265.476 137.52 274.248 142.877C283.02 148.235 292.206 149.255 294.766 145.158Z" fill="white"/>
<path d="M266.876 127.437C268.348 125.742 272.406 126.081 277.051 127.995C278.888 128.754 280.818 129.76 282.714 130.985C289.405 135.302 293.168 140.724 291.115 143.087C290.388 143.92 289.034 144.265 287.295 144.167C284.103 143.989 279.609 142.339 275.284 139.545C268.585 135.222 264.83 129.806 266.882 127.443L266.876 127.437Z" fill="url(#paint14_linear_925_9992)"/>
<path d="M263.457 125.109C266.812 121.246 276.516 122.632 285.132 128.191C288.364 130.278 290.986 132.652 292.818 135.015" stroke="black" stroke-width="0.730396" stroke-miterlimit="10" stroke-linecap="round"/>
<path d="M294.394 137.365C296.121 140.453 296.347 143.327 294.667 145.259C294.493 145.46 294.301 145.65 294.092 145.822C294.052 145.856 294.011 145.891 293.964 145.92C293.905 145.966 293.842 146.012 293.784 146.058C293.668 146.138 293.551 146.219 293.423 146.293C293.36 146.328 293.302 146.369 293.232 146.403C293.15 146.449 293.075 146.489 292.987 146.535C292.923 146.563 292.859 146.598 292.796 146.627C292.796 146.627 292.784 146.632 292.778 146.632C292.709 146.668 292.632 146.696 292.557 146.73C292.429 146.788 292.295 146.84 292.156 146.886C292.097 146.909 292.034 146.926 291.976 146.943C291.93 146.961 291.882 146.978 291.836 146.99C291.755 147.018 291.668 147.041 291.586 147.064C291.243 147.156 290.882 147.236 290.51 147.294C290.418 147.311 290.319 147.323 290.226 147.34C289.842 147.392 289.452 147.427 289.04 147.437C288.958 147.437 288.876 147.449 288.796 147.444C288.627 147.444 288.452 147.444 288.283 147.444C288.127 147.444 287.964 147.444 287.807 147.432C287.668 147.427 287.528 147.42 287.383 147.409C287.301 147.403 287.214 147.397 287.127 147.392C286.906 147.375 286.679 147.351 286.446 147.329C285.999 147.277 285.539 147.213 285.069 147.133C284.946 147.11 284.819 147.088 284.691 147.064C284.401 147.012 284.104 146.949 283.808 146.88C283.418 146.794 283.022 146.696 282.627 146.581C282.232 146.472 281.831 146.351 281.424 146.219C281.132 146.126 280.848 146.035 280.557 145.925C280.394 145.868 280.226 145.805 280.062 145.748C279.912 145.696 279.755 145.633 279.604 145.575C279.295 145.454 278.993 145.333 278.68 145.201C278.528 145.139 278.371 145.069 278.22 145C278.063 144.931 277.912 144.862 277.755 144.793C277.552 144.702 277.354 144.609 277.156 144.511C276.998 144.437 276.842 144.362 276.679 144.282C276.487 144.189 276.301 144.091 276.11 143.993C276.022 143.948 275.929 143.902 275.842 143.856C274.883 143.35 273.924 142.792 272.976 142.183" stroke="black" stroke-width="0.730396" stroke-miterlimit="10" stroke-linecap="round"/>
<path d="M281.138 128.306C282.004 128.76 282.865 129.266 283.725 129.818C283.969 129.973 284.208 130.133 284.44 130.294" stroke="black" stroke-width="0.730396" stroke-miterlimit="10" stroke-linecap="round"/>
<path d="M269.643 125.426C270.509 125.282 271.515 125.282 272.613 125.414" stroke="black" stroke-width="0.730396" stroke-miterlimit="10" stroke-linecap="round"/>
<path d="M284.441 130.3C290.824 134.652 294.149 140.097 291.9 142.689C289.568 145.374 282.126 143.966 275.277 139.545C268.428 135.124 264.766 129.363 267.097 126.678" stroke="black" stroke-width="0.730396" stroke-miterlimit="10" stroke-linecap="round"/>
<path d="M282.051 149.456C281.284 149.289 280.498 149.088 279.696 148.84C278.487 148.467 277.254 148.007 276.01 147.449C274.3 146.69 272.579 145.765 270.894 144.679C262.277 139.113 258.005 131.473 261.359 127.615L263.341 125.258C261.004 128.173 262.789 133.111 267.393 137.71L269.97 140.01C270.905 140.757 271.911 141.488 272.986 142.183C273.929 142.792 274.888 143.351 275.853 143.857C275.94 143.902 276.033 143.953 276.12 143.994C276.313 144.092 276.498 144.189 276.69 144.282C276.848 144.362 277.01 144.437 277.167 144.512C277.364 144.609 277.568 144.701 277.766 144.793C277.923 144.862 278.074 144.932 278.231 145.001C278.382 145.069 278.539 145.133 278.69 145.202C278.998 145.334 279.307 145.455 279.614 145.575C279.772 145.632 279.922 145.696 280.074 145.747C280.237 145.811 280.405 145.868 280.568 145.926C280.859 146.029 281.149 146.127 281.434 146.219C281.836 146.351 282.237 146.472 282.638 146.581C283.034 146.69 283.428 146.788 283.818 146.881C284.115 146.95 284.411 147.012 284.702 147.064C284.824 147.087 284.952 147.116 285.079 147.134C285.551 147.213 286.004 147.282 286.458 147.328C286.69 147.352 286.911 147.375 287.138 147.392C287.225 147.397 287.312 147.404 287.394 147.409C287.54 147.421 287.678 147.426 287.818 147.432C287.975 147.438 288.138 147.443 288.295 147.443C288.469 147.443 288.638 147.443 288.806 147.443C288.888 147.443 288.97 147.443 289.051 147.438C289.457 147.421 289.853 147.392 290.236 147.34C290.33 147.328 290.423 147.311 290.522 147.294C290.894 147.237 291.255 147.156 291.597 147.064C291.684 147.041 291.766 147.018 291.848 146.989C291.894 146.977 291.94 146.96 291.986 146.943C292.051 146.926 292.109 146.903 292.167 146.886C292.307 146.84 292.434 146.788 292.569 146.731C292.644 146.702 292.714 146.668 292.789 146.633C292.789 146.633 292.801 146.628 292.806 146.628C292.871 146.599 292.934 146.57 292.998 146.535C293.08 146.495 293.162 146.449 293.242 146.403C293.307 146.368 293.37 146.334 293.435 146.294C293.562 146.219 293.678 146.138 293.795 146.058C293.859 146.012 293.917 145.966 293.975 145.92C294.016 145.885 294.062 145.857 294.103 145.823C294.312 145.649 294.505 145.46 294.679 145.259L292.579 147.76C291.039 149.53 288.155 150.203 284.655 149.864C283.823 149.783 282.952 149.645 282.056 149.456H282.051Z" fill="url(#paint15_linear_925_9992)" stroke="black" stroke-width="0.730396" stroke-miterlimit="10" stroke-linecap="round"/>
<path d="M279.697 148.835C278.487 148.461 277.255 148.002 276.011 147.443L277.766 144.787C277.923 144.856 278.075 144.926 278.231 144.995C278.383 145.064 278.54 145.127 278.691 145.196C278.999 145.328 279.307 145.449 279.615 145.57C279.772 145.627 279.924 145.69 280.075 145.742C280.237 145.805 280.406 145.862 280.569 145.92C280.859 146.024 281.15 146.122 281.435 146.213L279.697 148.829V148.835Z" fill="black"/>
<path d="M282.051 149.457L283.818 146.882C284.115 146.951 284.411 147.014 284.703 147.066C284.824 147.088 284.952 147.118 285.08 147.135C285.551 147.215 286.005 147.284 286.458 147.33L284.65 149.86C283.818 149.779 282.946 149.641 282.051 149.452V149.457Z" fill="black"/>
<path d="M278.726 137.791C279.772 138.182 280.679 138.228 281.173 137.958C281.72 138.424 282.417 138.849 283.144 139.149C284.737 139.804 286.028 139.649 285.999 138.775L285.941 138.366L288.266 139.286L288.155 138.493L285.83 137.573L285.737 136.923L288.063 137.843L287.952 137.05L285.626 136.13L285.406 134.544L283.714 133.876L283.853 134.888L281.086 133.796L280.946 132.784L279.435 132.187L279.574 133.198L276.417 131.956L276.301 131.117L274.504 130.255L274.644 131.255L274.726 131.829L272.393 130.91L272.504 131.703L274.835 132.624L274.929 133.273L272.597 132.353L272.708 133.147L275.039 134.066L275.097 134.475C275.115 135.538 276.888 137.107 278.726 137.791ZM284.045 136.25L284.191 137.297C284.29 137.752 283.702 137.867 282.918 137.561C282.138 137.251 281.446 136.63 281.423 136.211L281.277 135.164L284.045 136.257V136.25ZM276.812 134.762L276.609 133.319L279.766 134.561L279.97 136.004C279.952 136.424 279.312 136.498 278.504 136.176C277.696 135.854 276.958 135.239 276.819 134.762H276.812Z" fill="white"/>
<path d="M250.803 110.014C264.381 101.523 271.219 88.1227 266.078 80.0829C260.936 72.0431 245.76 72.4085 232.183 80.8991C218.606 89.3897 211.768 102.79 216.91 110.83C222.052 118.87 237.226 118.504 250.803 110.014Z" fill="white"/>
<path d="M259.327 82.1555C256.449 78.9361 249.699 79.281 242.339 82.489C239.426 83.7653 236.42 85.4843 233.514 87.6114C223.281 95.1139 218.24 104.847 222.251 109.337C223.671 110.924 226.031 111.643 228.938 111.585C234.264 111.476 241.438 108.739 248.054 103.887C258.293 96.3787 263.334 86.6456 259.322 82.1555H259.327Z" fill="url(#paint16_linear_925_9992)"/>
<path d="M264.531 78.0984C257.966 70.7568 241.966 72.6425 228.786 82.3124C223.844 85.9343 220.001 90.1425 217.472 94.3681" stroke="black" stroke-width="0.730396" stroke-miterlimit="10" stroke-linecap="round"/>
<path d="M215.385 98.5762C213.217 104.147 213.513 109.43 216.792 113.098C223.356 120.44 239.356 118.56 252.536 108.89" stroke="black" stroke-width="0.730396" stroke-miterlimit="10" stroke-linecap="round"/>
<path d="M235.535 82.7881C234.192 83.5699 232.856 84.4438 231.547 85.4039C231.176 85.6741 230.809 85.9557 230.455 86.2318" stroke="black" stroke-width="0.730396" stroke-miterlimit="10" stroke-linecap="round"/>
<path d="M254.192 78.2578C252.699 77.9359 251.012 77.8611 249.187 78.0336" stroke="black" stroke-width="0.730396" stroke-miterlimit="10" stroke-linecap="round"/>
<path d="M230.454 86.2315C220.745 93.8144 216.442 103.628 220.844 108.55C225.408 113.654 237.594 111.562 248.07 103.881C258.547 96.2003 263.338 85.8347 258.779 80.7354" stroke="black" stroke-width="0.730396" stroke-miterlimit="10" stroke-linecap="round"/>
<path d="M257.106 105.095C255.711 106.412 254.188 107.682 252.537 108.889C239.357 118.554 223.357 120.439 216.792 113.097L220.92 117.847C227.484 125.188 243.485 123.308 256.665 113.639C269.845 103.974 275.217 90.182 268.654 82.8406L264.525 78.0918C269.444 83.5994 267.659 92.729 260.891 101.031" fill="url(#paint17_linear_925_9992)"/>
<path d="M257.106 105.095C255.711 106.412 254.188 107.682 252.537 108.889C239.357 118.554 223.357 120.439 216.792 113.097L220.92 117.847C227.484 125.188 243.485 123.308 256.665 113.639C269.845 103.974 275.217 90.182 268.654 82.8406L264.525 78.0918C269.444 83.5994 267.659 92.729 260.891 101.031" stroke="black" stroke-width="0.730396" stroke-miterlimit="10" stroke-linecap="round"/>
<path d="M226.025 102.683L239.822 100.412L234.31 96.9912L226.025 102.683Z" fill="white"/>
<path d="M235.136 89.2295L226.025 102.682L234.31 96.9908L235.136 89.2295Z" fill="white"/>
<path d="M241.113 99.5261L248.502 87.252L236.433 88.3385L242.816 91.1555L241.113 99.5261Z" fill="white"/>
<path d="M235.134 89.2295L234.309 96.9908L239.821 100.411L241.524 92.0408L235.134 89.2295Z" fill="white"/>
<path d="M302.907 125.463C307.569 122.548 309.917 117.946 308.151 115.185C306.385 112.423 301.173 112.548 296.511 115.463C291.849 118.38 289.501 122.982 291.267 125.743C293.033 128.505 298.244 128.379 302.907 125.463Z" fill="white"/>
<path d="M305.835 115.906C304.847 114.802 302.527 114.917 300.005 116.02C299.004 116.457 297.969 117.05 296.975 117.779C293.463 120.355 291.731 123.695 293.108 125.242C293.597 125.788 294.405 126.035 295.405 126.012C297.237 125.972 299.696 125.035 301.97 123.368C305.487 120.792 307.214 117.446 305.835 115.906Z" fill="url(#paint18_linear_925_9992)"/>
<path d="M307.62 114.514C305.364 111.997 299.87 112.64 295.347 115.963C293.649 117.205 292.33 118.654 291.463 120.103" stroke="black" stroke-width="0.730396" stroke-miterlimit="10" stroke-linecap="round"/>
<path d="M290.742 121.545C289.999 123.459 290.098 125.27 291.226 126.529C293.481 129.047 298.975 128.403 303.499 125.086" stroke="black" stroke-width="0.730396" stroke-miterlimit="10" stroke-linecap="round"/>
<path d="M297.666 116.124C297.208 116.394 296.748 116.693 296.294 117.02C296.167 117.113 296.039 117.211 295.916 117.302" stroke="black" stroke-width="0.730396" stroke-miterlimit="10" stroke-linecap="round"/>
<path d="M304.068 114.571C303.557 114.461 302.974 114.433 302.347 114.496" stroke="black" stroke-width="0.730396" stroke-miterlimit="10" stroke-linecap="round"/>
<path d="M295.915 117.307C292.585 119.912 291.107 123.281 292.614 124.971C294.177 126.725 298.364 126.006 301.962 123.367C305.561 120.729 307.207 117.17 305.637 115.422" stroke="black" stroke-width="0.730396" stroke-miterlimit="10" stroke-linecap="round"/>
<path d="M305.069 123.782C304.592 124.236 304.063 124.673 303.499 125.087C298.97 128.404 293.476 129.054 291.226 126.53L292.644 128.163C294.9 130.681 300.394 130.037 304.918 126.72C309.447 123.403 311.29 118.666 309.033 116.147L307.615 114.515C309.307 116.406 308.691 119.539 306.366 122.391" fill="url(#paint19_linear_925_9992)"/>
<path d="M305.069 123.782C304.592 124.236 304.063 124.673 303.499 125.087C298.97 128.404 293.476 129.054 291.226 126.53L292.644 128.163C294.9 130.681 300.394 130.037 304.918 126.72C309.447 123.403 311.29 118.666 309.033 116.147L307.615 114.515C309.307 116.406 308.691 119.539 306.366 122.391" stroke="black" stroke-width="0.730396" stroke-miterlimit="10" stroke-linecap="round"/>
<path d="M294.4 122.952L299.138 122.171L297.242 120.998L294.4 122.952Z" fill="white"/>
<path d="M297.527 118.331L294.4 122.953L297.242 120.999L297.527 118.331Z" fill="white"/>
<path d="M299.581 121.866L302.115 117.658L297.971 118.026L300.168 118.998L299.581 121.866Z" fill="white"/>
<path d="M297.529 118.331L297.244 120.999L299.139 122.172L299.721 119.303L297.529 118.331Z" fill="white"/>
<path d="M178.399 193.454C177.893 190.798 177.917 187.992 178.551 185.186L192.614 122.981" stroke="url(#paint20_linear_925_9992)" stroke-width="0.730396" stroke-miterlimit="10" stroke-linecap="round"/>
<path d="M276.933 73.4762C276.933 73.4762 274.916 55.8553 280.631 54.1939C286.347 52.5323 288.701 59.5117 287.358 63.1739C287.358 63.1739 294.084 61.5124 294.084 67.8306C294.084 74.1488 276.933 73.4819 276.933 73.4819V73.4762Z" fill="url(#paint21_linear_925_9992)"/>
<path d="M190.021 20.7026C191.159 19.6185 191.193 17.8288 190.098 16.7052C189.003 15.5814 187.193 15.5492 186.056 16.6332L166.446 35.3191C165.309 36.4031 165.274 38.1927 166.369 39.3165C167.464 40.4402 169.275 40.4724 170.412 39.3884L190.021 20.7026Z" fill="url(#paint22_linear_925_9992)"/>
<path d="M170.795 24.2423C173.267 24.2423 175.272 22.2603 175.272 19.8155C175.272 17.3706 173.267 15.3887 170.795 15.3887C168.322 15.3887 166.318 17.3706 166.318 19.8155C166.318 22.2603 168.322 24.2423 170.795 24.2423Z" fill="url(#paint23_linear_925_9992)"/>
<path d="M185.58 40.1084C188.052 40.1084 190.057 38.1265 190.057 35.6816C190.057 33.2368 188.052 31.2549 185.58 31.2549C183.108 31.2549 181.103 33.2368 181.103 35.6816C181.103 38.1265 183.108 40.1084 185.58 40.1084Z" fill="url(#paint24_linear_925_9992)"/>
<path d="M106.184 56.834C105.812 56.834 105.516 56.5351 105.516 56.1729C105.516 55.8107 105.818 55.5117 106.184 55.5117C106.551 55.5117 106.853 55.8107 106.853 56.1729C106.853 56.5351 106.551 56.834 106.184 56.834Z" fill="black"/>
<path d="M110.207 52.3894C109.579 52.3894 109.067 51.8835 109.067 51.2625C109.067 50.6417 109.579 50.1357 110.207 50.1357C110.835 50.1357 111.346 50.6417 111.346 51.2625C111.346 51.8835 110.835 52.3894 110.207 52.3894Z" fill="black"/>
<path d="M114.707 48.2093C113.904 48.2093 113.248 47.5654 113.248 46.7662C113.248 45.9671 113.899 45.3232 114.707 45.3232C115.515 45.3232 116.166 45.9671 116.166 46.7662C116.166 47.5654 115.515 48.2093 114.707 48.2093Z" fill="black"/>
<path d="M119.614 44.3534C118.702 44.3534 117.963 43.6233 117.963 42.7207C117.963 41.8181 118.702 41.0879 119.614 41.0879C120.527 41.0879 121.265 41.8181 121.265 42.7207C121.265 43.6233 120.527 44.3534 119.614 44.3534Z" fill="black"/>
<path d="M124.887 40.862C123.928 40.862 123.154 40.0974 123.154 39.1488C123.154 38.2002 123.928 37.4355 124.887 37.4355C125.846 37.4355 126.619 38.2002 126.619 39.1488C126.619 40.0974 125.846 40.862 124.887 40.862Z" fill="black"/>
<path d="M130.475 37.782C129.521 37.782 128.747 37.0175 128.747 36.0747C128.747 35.1318 129.521 34.3672 130.475 34.3672C131.428 34.3672 132.201 35.1318 132.201 36.0747C132.201 37.0175 131.428 37.782 130.475 37.782Z" fill="black"/>
<path d="M136.322 35.109C135.439 35.109 134.718 34.3961 134.718 33.5223C134.718 32.6484 135.439 31.9355 136.322 31.9355C137.206 31.9355 137.927 32.6484 137.927 33.5223C137.927 34.3961 137.206 35.109 136.322 35.109Z" fill="black"/>
<path d="M142.375 32.849C141.613 32.849 140.997 32.2397 140.997 31.4866C140.997 30.7334 141.613 30.124 142.375 30.124C143.137 30.124 143.752 30.7334 143.752 31.4866C143.752 32.2397 143.137 32.849 142.375 32.849Z" fill="black"/>
<path d="M148.579 30.9797C148.015 30.9797 147.555 30.5256 147.555 29.9679C147.555 29.4102 148.015 28.9561 148.579 28.9561C149.143 28.9561 149.602 29.4102 149.602 29.9679C149.602 30.5256 149.143 30.9797 148.579 30.9797Z" fill="black"/>
<path d="M154.893 29.439C154.615 29.439 154.393 29.2148 154.393 28.9446C154.393 28.6745 154.62 28.4502 154.893 28.4502C155.167 28.4502 155.394 28.6745 155.394 28.9446C155.394 29.2148 155.167 29.439 154.893 29.439Z" fill="black"/>
<path d="M239.121 56.834C238.748 56.834 238.452 56.5351 238.452 56.1729C238.452 55.8107 238.755 55.5117 239.121 55.5117C239.487 55.5117 239.789 55.8107 239.789 56.1729C239.789 56.5351 239.487 56.834 239.121 56.834Z" fill="black"/>
<path d="M235.091 52.3893C234.462 52.3893 233.951 51.8834 233.951 51.2625C233.951 50.6417 234.462 50.1357 235.091 50.1357C235.718 50.1357 236.229 50.6417 236.229 51.2625C236.229 51.8834 235.718 52.3893 235.091 52.3893Z" fill="black"/>
<path d="M230.596 48.2102C229.794 48.2102 229.137 47.5664 229.137 46.7672C229.137 45.9681 229.788 45.3242 230.596 45.3242C231.404 45.3242 232.055 45.9681 232.055 46.7672C232.055 47.5664 231.404 48.2102 230.596 48.2102Z" fill="black"/>
<path d="M225.683 44.3534C224.77 44.3534 224.032 43.6233 224.032 42.7207C224.032 41.8181 224.77 41.0879 225.683 41.0879C226.596 41.0879 227.334 41.8181 227.334 42.7207C227.334 43.6233 226.596 44.3534 225.683 44.3534Z" fill="black"/>
<path d="M220.411 40.862C219.451 40.862 218.679 40.0974 218.679 39.1488C218.679 38.2002 219.451 37.4355 220.411 37.4355C221.37 37.4355 222.144 38.2002 222.144 39.1488C222.144 40.0974 221.37 40.862 220.411 40.862Z" fill="black"/>
<path d="M214.829 37.783C213.876 37.783 213.102 37.0184 213.102 36.0755C213.102 35.1328 213.876 34.3682 214.829 34.3682C215.783 34.3682 216.556 35.1328 216.556 36.0755C216.556 37.0184 215.783 37.783 214.829 37.783Z" fill="black"/>
<path d="M208.981 35.109C208.091 35.109 207.376 34.3961 207.376 33.5223C207.376 32.6484 208.097 31.9355 208.981 31.9355C209.865 31.9355 210.586 32.6484 210.586 33.5223C210.586 34.3961 209.865 35.109 208.981 35.109Z" fill="black"/>
<path d="M202.927 32.849C202.165 32.849 201.55 32.2397 201.55 31.4866C201.55 30.7334 202.165 30.124 202.927 30.124C203.689 30.124 204.306 30.7334 204.306 31.4866C204.306 32.2397 203.689 32.849 202.927 32.849Z" fill="black"/>
<path d="M196.718 30.9797C196.154 30.9797 195.695 30.5256 195.695 29.9679C195.695 29.4103 196.154 28.9561 196.718 28.9561C197.282 28.9561 197.741 29.4103 197.741 29.9679C197.741 30.5256 197.282 30.9797 196.718 30.9797Z" fill="black"/>
<path d="M190.41 29.44C190.686 29.44 190.91 29.2186 190.91 28.9456C190.91 28.6724 190.686 28.4512 190.41 28.4512C190.134 28.4512 189.91 28.6724 189.91 28.9456C189.91 29.2186 190.134 29.44 190.41 29.44Z" fill="black"/>
<path d="M198.671 88.1028C198.64 89.5966 198.457 91.1045 198.104 92.6148L177.764 180.134C175.191 191.212 164.638 198.003 154.204 195.306L154.199 195.305C143.765 192.603 137.391 181.436 139.964 170.358L160.304 82.8386C160.441 82.2356 160.605 81.6504 160.792 81.0714C161.513 78.8474 162.561 76.8261 163.869 75.0524C168.449 68.8386 176.184 65.6889 183.864 67.6731C188.642 68.9063 192.568 71.9166 195.175 75.8812C197.068 78.7523 198.261 82.1287 198.584 85.695C198.661 86.487 198.687 87.2953 198.671 88.1028Z" fill="white"/>
</g>
<defs>
<linearGradient id="paint0_linear_925_9992" x1="208.494" y1="126.791" x2="260.814" y2="79.9638" gradientUnits="userSpaceOnUse">
<stop stop-color="#0046FE"/>
<stop offset="1" stop-color="#00BDFF"/>
</linearGradient>
<linearGradient id="paint1_linear_925_9992" x1="271.246" y1="104.794" x2="251.064" y2="105.718" gradientUnits="userSpaceOnUse">
<stop stop-color="#0046FE"/>
<stop offset="1" stop-color="#00BDFF"/>
</linearGradient>
<linearGradient id="paint2_linear_925_9992" x1="276.879" y1="133.996" x2="325.257" y2="108.918" gradientUnits="userSpaceOnUse">
<stop stop-color="#0046FE"/>
<stop offset="1" stop-color="#00BDFF"/>
</linearGradient>
<linearGradient id="paint3_linear_925_9992" x1="216.146" y1="174.658" x2="254.773" y2="127.288" gradientUnits="userSpaceOnUse">
<stop stop-color="#0046FE"/>
<stop offset="1" stop-color="#00BDFF"/>
</linearGradient>
<linearGradient id="paint4_linear_925_9992" x1="64.5236" y1="96.4516" x2="94.6551" y2="88.9625" gradientUnits="userSpaceOnUse">
<stop stop-color="#2D69FD"/>
<stop offset="1" stop-color="#00F2A5"/>
</linearGradient>
<linearGradient id="paint5_linear_925_9992" x1="61.3196" y1="108.11" x2="101.063" y2="98.7619" gradientUnits="userSpaceOnUse">
<stop stop-color="#2D69FD"/>
<stop offset="1" stop-color="#00F2A5"/>
</linearGradient>
<linearGradient id="paint6_linear_925_9992" x1="87.3624" y1="191.947" x2="129.508" y2="145.756" gradientUnits="userSpaceOnUse">
<stop stop-color="#0046FE"/>
<stop offset="1" stop-color="#00BDFF"/>
</linearGradient>
<linearGradient id="paint7_linear_925_9992" x1="137.353" y1="91.5625" x2="60.8542" y2="101.896" gradientUnits="userSpaceOnUse">
<stop stop-color="#0046FE"/>
<stop offset="1" stop-color="#00BDFF"/>
</linearGradient>
<linearGradient id="paint8_linear_925_9992" x1="137.67" y1="111.334" x2="171.724" y2="97.3796" gradientUnits="userSpaceOnUse">
<stop stop-color="#0046FE"/>
<stop offset="1" stop-color="#00BDFF"/>
</linearGradient>
<linearGradient id="paint9_linear_925_9992" x1="30.7569" y1="113.511" x2="79.4729" y2="60.3383" gradientUnits="userSpaceOnUse">
<stop stop-color="#0046FE"/>
<stop offset="1" stop-color="#00BDFF"/>
</linearGradient>
<linearGradient id="paint10_linear_925_9992" x1="153.871" y1="215.388" x2="219.258" y2="205.276" gradientUnits="userSpaceOnUse">
<stop stop-color="#2D69FD"/>
<stop offset="1" stop-color="#00F2A5"/>
</linearGradient>
<linearGradient id="paint11_linear_925_9992" x1="119.843" y1="255.591" x2="237.241" y2="233.995" gradientUnits="userSpaceOnUse">
<stop stop-color="#2D69FD"/>
<stop offset="1" stop-color="#00F2A5"/>
</linearGradient>
<linearGradient id="paint12_linear_925_9992" x1="101.517" y1="199.257" x2="187.811" y2="183.082" gradientUnits="userSpaceOnUse">
<stop stop-color="#2D69FD"/>
<stop offset="1" stop-color="#00F2A5"/>
</linearGradient>
<linearGradient id="paint13_linear_925_9992" x1="85.1924" y1="235.073" x2="202.59" y2="213.478" gradientUnits="userSpaceOnUse">
<stop stop-color="#2D69FD"/>
<stop offset="1" stop-color="#00F2A5"/>
</linearGradient>
<linearGradient id="paint14_linear_925_9992" x1="268.263" y1="160.052" x2="296.843" y2="154.698" gradientUnits="userSpaceOnUse">
<stop stop-color="#2D69FD"/>
<stop offset="1" stop-color="#00F2A5"/>
</linearGradient>
<linearGradient id="paint15_linear_925_9992" x1="262.854" y1="171.909" x2="301.748" y2="164.752" gradientUnits="userSpaceOnUse">
<stop stop-color="#2D69FD"/>
<stop offset="1" stop-color="#00F2A5"/>
</linearGradient>
<linearGradient id="paint16_linear_925_9992" x1="222.479" y1="95.7467" x2="260.7" y2="95.7467" gradientUnits="userSpaceOnUse">
<stop stop-color="#7B61FF"/>
<stop offset="1" stop-color="#F3A6EB"/>
</linearGradient>
<linearGradient id="paint17_linear_925_9992" x1="218.996" y1="100.208" x2="271.453" y2="100.208" gradientUnits="userSpaceOnUse">
<stop stop-color="#7B61FF"/>
<stop offset="1" stop-color="#F3A6EB"/>
</linearGradient>
<linearGradient id="paint18_linear_925_9992" x1="293.187" y1="120.573" x2="306.31" y2="120.573" gradientUnits="userSpaceOnUse">
<stop stop-color="#7B61FF"/>
<stop offset="1" stop-color="#F3A6EB"/>
</linearGradient>
<linearGradient id="paint19_linear_925_9992" x1="291.982" y1="122.107" x2="309.997" y2="122.107" gradientUnits="userSpaceOnUse">
<stop stop-color="#7B61FF"/>
<stop offset="1" stop-color="#F3A6EB"/>
</linearGradient>
<linearGradient id="paint20_linear_925_9992" x1="181.003" y1="266.628" x2="201.269" y2="265.547" gradientUnits="userSpaceOnUse">
<stop stop-color="#0046FE"/>
<stop offset="1" stop-color="#00BDFF"/>
</linearGradient>
<linearGradient id="paint21_linear_925_9992" x1="280.141" y1="93.8121" x2="303.313" y2="88.4621" gradientUnits="userSpaceOnUse">
<stop stop-color="#0046FE"/>
<stop offset="1" stop-color="#00BDFF"/>
</linearGradient>
<linearGradient id="paint22_linear_925_9992" x1="142.46" y1="76.2294" x2="196.322" y2="81.3891" gradientUnits="userSpaceOnUse">
<stop stop-color="#2D69FD"/>
<stop offset="1" stop-color="#00F2A5"/>
</linearGradient>
<linearGradient id="paint23_linear_925_9992" x1="186.914" y1="35.8269" x2="191.202" y2="14.3648" gradientUnits="userSpaceOnUse">
<stop stop-color="#2D69FD"/>
<stop offset="1" stop-color="#00F2A5"/>
</linearGradient>
<linearGradient id="paint24_linear_925_9992" x1="201.7" y1="51.6931" x2="205.987" y2="30.2309" gradientUnits="userSpaceOnUse">
<stop stop-color="#2D69FD"/>
<stop offset="1" stop-color="#00F2A5"/>
</linearGradient>
</defs>
</svg>
