<svg width="270" height="214" viewBox="0 0 270 214" fill="none" xmlns="http://www.w3.org/2000/svg">
<g clip-path="url(#clip0_925_10382)">
<path d="M88.9602 199.67L29.8916 165.722C25.4741 163.101 25.0858 158.934 29.0178 156.418L161.1 82.0902C165.036 79.5741 171.804 79.6591 176.221 82.2843L231.241 114.027C235.658 116.648 236.046 120.815 232.114 123.331L104.082 199.864C100.146 202.38 93.3781 202.295 88.9602 199.67Z" fill="#C2D6FF"/>
<path d="M234.825 99.4077C234.825 97.5995 233.62 95.743 231.241 94.3271L176.222 62.5837C171.804 59.9624 165.036 59.8734 161.1 62.3895L29.0182 136.713C27.1614 137.899 26.2674 139.452 26.3078 141.038C26.3078 141.07 26.3078 141.103 26.3078 141.139C26.3078 141.171 26.3078 141.203 26.3078 141.24C26.3078 141.272 26.3078 141.309 26.3078 141.341C26.3078 141.373 26.3078 141.41 26.3078 141.442C26.3078 141.475 26.3078 141.507 26.3078 141.543C26.3078 141.576 26.3078 141.608 26.3078 141.645C26.3078 141.677 26.3078 141.709 26.3078 141.745C26.3078 141.778 26.3078 141.81 26.3078 141.847C26.3078 141.879 26.3078 141.911 26.3078 141.948C26.3078 141.98 26.3078 142.016 26.3078 142.049C26.3078 142.081 26.3078 142.118 26.3078 142.15C26.3078 142.183 26.3078 142.215 26.3078 142.251C26.3078 142.283 26.3078 142.316 26.3078 142.353C26.3078 142.385 26.3078 142.417 26.3078 142.453C26.3078 142.486 26.3078 142.518 26.3078 142.554C26.3078 142.587 26.3078 142.619 26.3078 142.656C26.3078 142.688 26.3078 142.721 26.3078 142.757C26.3078 142.789 26.3078 142.826 26.3078 142.858C26.3078 142.891 26.3078 142.926 26.3078 142.959C26.3078 142.991 26.3078 143.024 26.3078 143.061C26.3078 143.092 26.3078 143.125 26.3078 143.161C26.3078 143.194 26.3078 143.226 26.3078 143.262C26.3078 143.295 26.3078 143.327 26.3078 143.364C26.3078 143.396 26.3078 143.429 26.3078 143.464C26.3078 143.497 26.3078 143.534 26.3078 143.566C26.3078 143.599 26.3078 143.634 26.3078 143.667C26.3078 143.699 26.3078 143.732 26.3078 143.768C26.3078 143.8 26.3078 143.833 26.3078 143.869C26.3078 143.902 26.3078 143.934 26.3078 143.97C26.3078 144.002 26.3078 144.035 26.3078 144.072C26.3078 144.104 26.3078 144.137 26.3078 144.172C26.3078 144.205 26.3078 144.242 26.3078 144.274C26.3078 144.306 26.3078 144.342 26.3078 144.375C26.3078 144.407 26.3078 144.444 26.3078 144.476C26.3078 144.508 26.3078 144.54 26.3078 144.577C26.3078 144.61 26.3078 144.642 26.3078 144.678C26.3078 144.71 26.3078 144.743 26.3078 144.78C26.3078 144.812 26.3078 144.844 26.3078 144.88C26.3078 144.913 26.3078 144.95 26.3078 144.982C26.3078 145.014 26.3078 145.05 26.3078 145.083C26.3078 145.115 26.3078 145.148 26.3078 145.184C26.3078 145.216 26.3078 145.248 26.3078 145.285C26.3078 145.318 26.3078 145.35 26.3078 145.386C26.3078 145.418 26.3078 145.451 26.3078 145.488C26.3078 145.52 26.3078 145.552 26.3078 145.588C26.3078 145.621 26.3078 145.657 26.3078 145.69C26.3078 145.722 26.3078 145.758 26.3078 145.791C26.3078 145.823 26.3078 145.86 26.3078 145.892C26.3078 145.924 26.3078 145.956 26.3078 145.993C26.3078 146.026 26.3078 146.058 26.3078 146.094C26.3078 146.126 26.3078 146.159 26.3078 146.195C26.3078 146.228 26.3078 146.26 26.3078 146.296C26.3078 146.329 26.3078 146.361 26.3078 146.398C26.3078 146.43 26.3078 146.466 26.3078 146.499C26.3078 146.531 26.3078 146.568 26.3078 146.6C26.3078 146.632 26.3078 146.664 26.3078 146.701C26.3078 146.733 26.3078 146.766 26.3078 146.802C26.3078 146.834 26.3078 146.867 26.3078 146.903C26.3078 146.936 26.3078 146.968 26.3078 147.004C26.3078 147.037 26.3078 147.069 26.3078 147.106C26.3078 147.138 26.3078 147.174 26.3078 147.207C26.3078 147.239 26.3078 147.276 26.3078 147.308C26.3078 147.34 26.3078 147.376 26.3078 147.409C26.3078 147.441 26.3078 147.474 26.3078 147.51C26.3078 147.542 26.3078 147.575 26.3078 147.611C26.3078 147.644 26.3078 147.676 26.3078 147.712C26.3078 147.745 26.3078 147.777 26.3078 147.814C26.3078 147.846 26.3078 147.882 26.3078 147.914C26.3078 147.947 26.3078 147.984 26.3078 148.016C26.3078 148.048 26.3078 148.08 26.3078 148.117C26.3078 148.149 26.3078 148.182 26.3078 148.218C26.3078 148.25 26.3078 148.283 26.3078 148.319C26.3078 148.352 26.3078 148.384 26.3078 148.42C26.3078 148.452 26.3078 148.485 26.3078 148.522C26.3078 148.554 26.3078 148.59 26.3078 148.622C26.3078 148.655 26.3078 148.692 26.3078 148.724C26.3078 148.756 26.3078 148.788 26.3078 148.825C26.3078 148.857 26.3078 148.89 26.3078 148.925C26.3078 148.958 26.3078 148.99 26.3078 149.027C26.3078 149.06 26.3078 149.092 26.3078 149.128C26.3078 149.16 26.3078 149.193 26.3078 149.23C26.3078 149.262 26.3078 149.294 26.3078 149.33C26.3078 149.363 26.3078 149.399 26.3078 149.432C26.3078 149.463 26.3078 149.5 26.3078 149.533C26.3078 149.565 26.3078 149.598 26.3078 149.633C26.3078 149.666 26.3078 149.698 26.3078 149.735C26.3078 149.768 26.3078 149.8 26.3078 149.836C26.3078 149.868 26.3078 149.901 26.3078 149.938C26.3078 149.97 26.3078 150.002 26.3078 150.038C26.3078 150.071 26.3078 150.107 26.3078 150.14C26.3078 150.171 26.3078 150.208 26.3078 150.241C26.3078 150.273 26.3078 150.306 26.3078 150.341C26.3078 150.374 26.3078 150.406 26.3078 150.443C26.3078 150.476 26.3078 150.508 26.3078 150.544C26.3078 150.576 26.3078 150.609 26.3078 150.645C26.3078 150.677 26.3078 150.709 26.3078 150.746C26.3078 150.779 26.3078 150.815 26.3078 150.847C26.3078 150.879 26.3078 150.916 26.3078 150.949C26.3078 150.981 26.3078 151.017 26.3078 151.049C26.3078 151.082 26.3078 151.114 26.3078 151.151C26.3078 152.959 27.5133 154.815 29.892 156.231L88.9612 190.184C93.3783 192.805 100.146 192.894 104.082 190.378L232.115 113.849C233.972 112.664 234.861 111.11 234.825 109.521C234.825 109.489 234.825 109.457 234.825 109.42C234.825 109.387 234.825 109.355 234.825 109.319C234.825 109.287 234.825 109.254 234.825 109.217C234.825 109.185 234.825 109.152 234.825 109.117C234.825 109.084 234.825 109.052 234.825 109.015C234.825 108.983 234.825 108.951 234.825 108.914C234.825 108.882 234.825 108.849 234.825 108.813C234.825 108.781 234.825 108.749 234.825 108.712C234.825 108.679 234.825 108.647 234.825 108.611C234.825 108.579 234.825 108.546 234.825 108.509C234.825 108.477 234.825 108.445 234.825 108.409C234.825 108.376 234.825 108.344 234.825 108.307C234.825 108.275 234.825 108.243 234.825 108.206C234.825 108.174 234.825 108.141 234.825 108.105C234.825 108.073 234.825 108.036 234.825 108.004C234.825 107.971 234.825 107.939 234.825 107.903C234.825 107.871 234.825 107.838 234.825 107.802C234.825 107.769 234.825 107.737 234.825 107.701C234.825 107.668 234.825 107.636 234.825 107.599C234.825 107.567 234.825 107.535 234.825 107.498C234.825 107.466 234.825 107.433 234.825 107.397C234.825 107.365 234.825 107.329 234.825 107.296C234.825 107.264 234.825 107.231 234.825 107.195C234.825 107.163 234.825 107.13 234.825 107.094C234.825 107.061 234.825 107.029 234.825 106.993C234.825 106.96 234.825 106.928 234.825 106.891C234.825 106.859 234.825 106.827 234.825 106.791C234.825 106.758 234.825 106.726 234.825 106.689C234.825 106.657 234.825 106.621 234.825 106.588C234.825 106.556 234.825 106.523 234.825 106.487C234.825 106.455 234.825 106.422 234.825 106.386C234.825 106.353 234.825 106.321 234.825 106.285C234.825 106.252 234.825 106.22 234.825 106.183C234.825 106.151 234.825 106.119 234.825 106.083C234.825 106.05 234.825 106.018 234.825 105.981C234.825 105.949 234.825 105.913 234.825 105.88C234.825 105.848 234.825 105.815 234.825 105.779C234.825 105.747 234.825 105.714 234.825 105.678C234.825 105.645 234.825 105.613 234.825 105.577C234.825 105.545 234.825 105.512 234.825 105.475C234.825 105.443 234.825 105.411 234.825 105.375C234.825 105.342 234.825 105.31 234.825 105.273C234.825 105.241 234.825 105.209 234.825 105.172C234.825 105.14 234.825 105.107 234.825 105.071C234.825 105.039 234.825 105.007 234.825 104.97C234.825 104.937 234.825 104.905 234.825 104.869C234.825 104.837 234.825 104.804 234.825 104.767C234.825 104.735 234.825 104.703 234.825 104.667C234.825 104.634 234.825 104.602 234.825 104.565C234.825 104.533 234.825 104.501 234.825 104.464C234.825 104.432 234.825 104.395 234.825 104.363C234.825 104.331 234.825 104.299 234.825 104.262C234.825 104.229 234.825 104.197 234.825 104.161C234.825 104.129 234.825 104.096 234.825 104.06C234.825 104.027 234.825 103.995 234.825 103.959C234.825 103.926 234.825 103.894 234.825 103.857C234.825 103.825 234.825 103.793 234.825 103.756C234.825 103.724 234.825 103.687 234.825 103.656C234.825 103.623 234.825 103.591 234.825 103.554C234.825 103.521 234.825 103.489 234.825 103.453C234.825 103.421 234.825 103.388 234.825 103.352C234.825 103.319 234.825 103.287 234.825 103.251C234.825 103.218 234.825 103.186 234.825 103.149C234.825 103.118 234.825 103.085 234.825 103.048C234.825 103.016 234.825 102.98 234.825 102.948C234.825 102.915 234.825 102.883 234.825 102.846C234.825 102.814 234.825 102.781 234.825 102.745C234.825 102.713 234.825 102.68 234.825 102.644C234.825 102.611 234.825 102.58 234.825 102.543C234.825 102.51 234.825 102.478 234.825 102.442C234.825 102.41 234.825 102.377 234.825 102.341C234.825 102.308 234.825 102.276 234.825 102.24C234.825 102.207 234.825 102.175 234.825 102.138C234.825 102.106 234.825 102.073 234.825 102.037C234.825 102.005 234.825 101.972 234.825 101.936C234.825 101.904 234.825 101.872 234.825 101.835C234.825 101.803 234.825 101.77 234.825 101.734C234.825 101.702 234.825 101.669 234.825 101.633C234.825 101.6 234.825 101.568 234.825 101.532C234.825 101.499 234.825 101.463 234.825 101.43C234.825 101.398 234.825 101.366 234.825 101.329C234.825 101.297 234.825 101.264 234.825 101.228C234.825 101.196 234.825 101.164 234.825 101.127C234.825 101.095 234.825 101.062 234.825 101.026C234.825 100.994 234.825 100.961 234.825 100.925C234.825 100.892 234.825 100.86 234.825 100.824C234.825 100.791 234.825 100.755 234.825 100.722C234.825 100.69 234.825 100.658 234.825 100.622C234.825 100.589 234.825 100.557 234.825 100.52C234.825 100.488 234.825 100.456 234.825 100.419C234.825 100.387 234.825 100.354 234.825 100.318C234.825 100.286 234.825 100.253 234.825 100.217C234.825 100.184 234.825 100.152 234.825 100.116C234.825 100.084 234.825 100.047 234.825 100.014C234.825 99.9823 234.825 99.9496 234.825 99.9137C234.825 99.8809 234.825 99.849 234.825 99.8123C234.825 99.7796 234.825 99.7476 234.825 99.711C234.825 99.679 234.825 99.6463 234.825 99.6104C234.825 99.5776 234.825 99.5457 234.825 99.509C234.825 99.4763 234.825 99.4443 234.825 99.4077Z" fill="url(#paint0_linear_925_10382)" stroke="#070707" stroke-width="1.01715" stroke-miterlimit="10"/>
<path d="M88.9602 179.97L29.8916 146.019C25.4741 143.397 25.0858 139.231 29.0178 136.714L161.1 62.391C165.036 59.8748 171.804 59.9598 176.221 62.5852L231.241 94.3287C235.658 96.95 236.046 101.116 232.114 103.632L104.082 180.165C100.146 182.681 93.3781 182.597 88.9602 179.97Z" fill="#80A8FF" stroke="#070707" stroke-width="1.01715" stroke-miterlimit="10"/>
<path d="M96.9259 179.57C94.4542 179.57 92.0028 178.955 90.1986 177.883L31.1014 143.915C29.6451 143.049 28.7511 141.945 28.7349 140.974C28.7187 139.974 29.6694 139.19 30.2762 138.793L162.35 64.4739L162.407 64.4375C163.847 63.5152 165.979 62.9893 168.256 62.9893C170.728 62.9893 173.179 63.6041 174.983 64.6762L230.027 96.4354C231.488 97.3009 232.382 98.4096 232.398 99.3804C232.414 100.392 231.439 101.185 230.833 101.577L102.775 178.118C101.335 179.04 99.2034 179.566 96.9259 179.566V179.57Z" fill="white"/>
<path d="M78.0749 165.54L52.6989 150.888C51.9465 150.455 52.0031 149.67 52.8243 149.136C53.6455 148.602 54.9198 148.521 55.6722 148.954L81.0484 163.606C81.8008 164.039 81.7439 164.824 80.9229 165.358C80.1019 165.891 78.827 165.973 78.0749 165.54Z" fill="#4C74FF"/>
<path d="M132.772 87.3534L62.2143 43.5472C60.1471 42.2649 60.6488 40.0197 63.3348 38.5352L115.612 9.6034C118.294 8.11876 122.145 7.95291 124.212 9.2353L194.77 53.0455C196.837 54.3279 196.335 56.573 193.649 58.0576L141.372 86.9892C138.69 88.4738 134.839 88.6399 132.772 87.3573V87.3534Z" fill="white" stroke="#070707" stroke-width="1.01715" stroke-miterlimit="10"/>
<path d="M120.574 15.9453L75.1824 41.0664" stroke="#0052FE" stroke-width="1.01715" stroke-miterlimit="10" stroke-linecap="round"/>
<path opacity="0.5" d="M69.1348 77.8186C65.5506 79.8008 61.3112 81.039 57.1122 81.4998C51.3963 82.1228 45.7693 81.3095 42.0113 78.9759C41.8171 78.8542 41.631 78.7326 41.453 78.6071L55.8906 70.6181L76.667 68.6318C76.4688 71.8074 73.888 75.1892 69.1388 77.8186H69.1348Z" fill="#0052FE"/>
<path d="M101.803 26.9766L113.627 28.9304L112.94 32.0048L122.863 34.3956L122.054 39.8162L125.67 40.7183L126.997 45.5808L143.215 44.0678L139.792 49.4884L152.483 51.1713L151.819 60.4552L174.46 58.0847L174.707 61.4705L182.579 60.4309" stroke="url(#paint1_linear_925_10382)" stroke-width="1.52572" stroke-miterlimit="10" stroke-linecap="round"/>
<path d="M94.6592 31.9639L95.9332 39.7591L107.794 40.6612L107.972 43.4646L112.911 43.8367L113.308 51.0859L117.718 51.1304L116.925 54.6781L127.353 51.187L126.722 59.415L135.528 58.6869L133.554 61.2314L139.958 59.5526L136.414 64.6254L152.05 65.7135L148.421 72.0768L154.949 73.44" stroke="url(#paint2_linear_925_10382)" stroke-width="1.52572" stroke-miterlimit="10" stroke-linecap="round"/>
<path d="M259.909 70.2741L223.996 50.0316V4.38477L259.909 24.6232V70.2741Z" fill="#070707"/>
<path d="M224.857 4.40423L232.762 0.456055L268.486 19.6185L259.918 24.1613L224.857 4.40423Z" fill="white"/>
<path d="M232.754 0.910187L267.628 19.6195L259.922 23.7012L225.719 4.42552L232.754 0.910187ZM232.766 0L223.996 4.38507L259.909 24.6236L269.347 19.6236L232.766 0Z" fill="#070707"/>
<path d="M260.314 24.8649L268.931 20.2979L268.287 64.0393L260.314 69.5045V24.8649Z" fill="white"/>
<path d="M268.518 20.9774L267.887 63.8248L260.719 68.7358V25.1116L268.518 20.9774ZM269.347 19.6222L259.91 24.6222V70.269L268.688 64.2536L269.347 19.6182V19.6222Z" fill="#070707"/>
<path d="M219.923 50.6302L252.81 69.8008C252.81 69.8008 259.951 65.5735 259.951 52.8875L259.91 24.6232L223.996 4.38477V40.2946C223.996 40.2946 224.15 47.3415 219.918 50.6302H219.923Z" fill="url(#paint3_linear_925_10382)"/>
<path d="M267.466 42.8313L267.07 20.7037C267.07 20.4812 267.244 20.2951 267.466 20.2911C267.689 20.287 267.875 20.465 267.879 20.6875C267.879 20.6875 267.466 42.8192 267.466 42.8273V42.8313Z" fill="#070707"/>
<path d="M263.333 32.8719L262.949 22.9125C262.94 22.6899 263.114 22.4999 263.337 22.4917C263.572 22.4796 263.77 22.6779 263.757 22.9125L263.333 32.8719Z" fill="#070707"/>
<path d="M262.862 55.5166L263.28 67.6444C263.287 67.8668 263.113 68.057 262.887 68.061C262.653 68.0691 262.459 67.8749 262.47 67.6444L262.862 55.5166Z" fill="#070707"/>
<path d="M227.665 2.90035L244.255 12.5766L227.269 3.60828C226.795 3.34534 227.184 2.63741 227.661 2.90035H227.665Z" fill="#070707"/>
<path d="M249.708 13.2324L265.444 21.3918C265.642 21.4929 265.719 21.7396 265.618 21.9379C265.517 22.1361 265.27 22.213 265.072 22.1118C265.056 22.1037 249.724 13.2405 249.708 13.2324Z" fill="#070707"/>
<g opacity="0.5">
<path d="M115.999 16.5225L112.391 14.2328L115.061 12.7441L118.674 15.0338L115.999 16.5225Z" fill="#0052FE"/>
<path d="M108.5 20.6932L104.892 18.4076L107.566 16.9189L111.174 19.2086L108.5 20.6932Z" fill="#0052FE"/>
<path d="M101.004 24.8679L97.3915 22.5824L100.065 21.0938L103.674 23.3834L101.004 24.8679Z" fill="#0052FE"/>
<path d="M93.5044 29.0428L89.8959 26.7573L92.5656 25.2686L96.1741 27.5582L93.5044 29.0428Z" fill="#0052FE"/>
<path d="M86.0043 33.2176L82.3958 30.9321L85.0694 29.4434L88.6779 31.733L86.0043 33.2176Z" fill="#0052FE"/>
<path d="M78.505 37.3914L74.8964 35.1018L77.5703 33.6172L81.1786 35.9068L78.505 37.3914Z" fill="#0052FE"/>
<path d="M71.0084 41.5662L67.4 39.2766L70.0699 37.792L73.6783 40.0776L71.0084 41.5662Z" fill="#0052FE"/>
</g>
<path d="M82.4239 66.0859L41.2225 40.5077C39.1554 39.2254 35.3083 39.3912 32.6223 40.8758L3.67029 56.8951C0.988275 58.3797 0.486662 60.6208 2.55379 61.9031L43.7548 87.4814C45.822 88.764 49.669 88.598 52.351 87.1134L81.3027 71.09C83.9888 69.6013 84.4909 67.3602 82.4278 66.0778L82.4239 66.0859Z" fill="#EDF3FF" stroke="#070707" stroke-width="1.01715" stroke-miterlimit="10"/>
<path d="M38.4435 48.09L34.0526 45.7604C33.2281 45.3217 33.3595 44.4491 34.3501 43.8102L34.4743 43.7288C35.4649 43.09 36.9377 42.9253 37.7621 43.364L42.1531 45.6935C42.9776 46.1323 42.8462 47.0049 41.8556 47.6437L41.7313 47.7251C40.7408 48.364 39.268 48.5287 38.4435 48.09Z" fill="url(#paint4_linear_925_10382)" stroke="#070707" stroke-width="0.508573" stroke-miterlimit="10"/>
<path d="M71.2101 68.5805L66.9868 65.9592C66.1939 65.4656 66.3841 64.604 67.4156 64.0336L67.5451 63.9608C68.5766 63.3904 70.0571 63.3257 70.85 63.8192L75.0733 66.4406C75.8661 66.9341 75.676 67.7957 74.6445 68.3661L74.515 68.4389C73.4835 69.0093 72.0029 69.074 71.2101 68.5805Z" fill="white"/>
<path d="M41.7332 65.7285L27.2997 73.7179C24.8199 71.9825 23.6994 69.7616 23.8571 67.4356L41.7332 65.7325V65.7285Z" fill="white" stroke="#070707" stroke-width="0.508573" stroke-miterlimit="10"/>
<path d="M57.9146 56.7711L41.7335 65.7233L40.528 55.0316C46.8871 53.7938 53.5092 54.3399 57.9146 56.7711Z" fill="white" stroke="#070707" stroke-width="0.508573" stroke-miterlimit="10"/>
<path d="M62.5106 63.7413L41.734 65.7276L57.9151 56.7754C58.1214 56.8886 58.3196 57.006 58.5098 57.1232C61.3698 58.8991 62.6683 61.2575 62.5106 63.7454V63.7413Z" fill="white" stroke="#070707" stroke-width="0.508573" stroke-miterlimit="10"/>
<path d="M41.9191 62.4027H41.9151L24.0391 64.1098C24.2535 60.9383 26.8343 57.5726 31.5673 54.9513C34.3302 53.4222 37.4896 52.3381 40.7177 51.707L41.9232 62.3987L41.9191 62.4027Z" fill="url(#paint5_linear_925_10382)" stroke="#070707" stroke-width="0.508573" stroke-miterlimit="10"/>
<path d="M41.9199 62.4023L41.7379 65.7276L23.8578 67.4347L24.0399 64.1094L41.9199 62.4023Z" fill="url(#paint6_linear_925_10382)" stroke="#070707" stroke-width="0.508573" stroke-miterlimit="10"/>
<path d="M243.053 27.1993C242.524 26.8231 242.321 26.0706 242.589 25.48C242.694 25.2454 242.345 25.0391 242.241 25.2777C241.872 26.0989 240.711 26.467 239.967 25.9088C239.421 25.5003 239.3 24.7357 239.542 24.1289L239.979 23.51C240.121 23.3118 239.825 23.1257 239.66 23.2632C239.433 23.4533 239.271 23.696 239.162 23.9631L238.07 25.5083C237.936 24.8004 237.616 24.0642 236.795 24.0358C236.407 24.0237 236.136 24.2138 235.942 24.4889C235.97 24.3393 235.982 24.1855 235.974 24.0358C236.043 23.5221 236.096 23.0084 235.954 22.4946C235.748 21.7624 235.165 21.0828 234.336 21.2163C233.446 21.3579 232.754 22.2398 232.54 23.0691C232.475 23.3239 232.455 23.5828 232.475 23.8376C232.225 24.048 231.966 24.2421 231.666 24.3837C231.245 24.578 230.639 24.6386 230.278 24.2867C229.862 23.8781 229.943 23.1135 229.959 22.5836C229.999 21.2729 230.254 19.9825 230.696 18.7487C230.784 18.5019 230.392 18.3967 230.307 18.6394C229.971 19.578 229.744 20.5529 229.631 21.5439C229.57 22.0618 229.546 22.5836 229.55 23.1014C229.554 23.4938 229.583 23.9023 229.765 24.2584C230.125 24.9461 230.986 25.0593 231.658 24.8166C231.994 24.6952 232.277 24.497 232.548 24.2745C232.657 24.6548 232.876 25.0027 233.207 25.2616C233.794 25.7227 234.667 25.8845 235.319 25.4598C235.379 25.4193 235.436 25.3748 235.488 25.3263C235.497 25.4719 235.513 25.6135 235.545 25.7591C235.586 25.9453 235.906 25.9573 235.934 25.7591C236.002 25.298 236.136 24.497 236.719 24.4364C237.059 24.3999 237.357 24.6669 237.503 24.9501C237.677 25.2818 237.71 25.6702 237.742 26.0342C237.762 26.2365 238.001 26.3052 238.118 26.1353C238.422 25.7066 238.725 25.2737 239.028 24.8449C239.061 25.3748 239.287 25.8886 239.72 26.2163C240.412 26.7381 241.424 26.641 242.079 26.1152C242.103 26.6693 242.374 27.1993 242.847 27.535C243.062 27.6847 243.264 27.3368 243.049 27.1871L243.053 27.1993ZM233.563 22.0901C233.911 21.7503 234.441 21.455 234.922 21.6977C235.279 21.8757 235.477 22.2721 235.573 22.6402C235.619 22.8101 235.634 22.9841 235.638 23.154C235.299 22.7616 234.752 22.6079 234.194 22.7373C233.669 22.8587 233.264 23.1702 232.876 23.5019C232.928 22.972 233.187 22.4582 233.567 22.0901H233.563ZM234.667 25.298C233.972 25.4193 233.212 24.9622 232.965 24.3069C232.928 24.2057 232.9 24.1006 232.883 23.9954C233.183 23.7365 233.486 23.4736 233.843 23.2956C234.227 23.1014 234.728 22.9841 235.12 23.2187C235.372 23.3684 235.513 23.6394 235.558 23.9186C235.566 23.9671 235.566 24.0156 235.57 24.0601C235.57 24.0803 235.566 24.1006 235.562 24.1208C235.541 24.2624 235.525 24.4081 235.509 24.5496C235.384 24.9218 235.092 25.2252 234.667 25.298Z" fill="white"/>
<path d="M246.16 28.024C245.816 27.7974 245.476 27.5669 245.132 27.3403C245.043 27.2796 244.906 27.3201 244.858 27.4131C244.805 27.5142 244.838 27.6275 244.93 27.6882C245.274 27.9148 245.614 28.1453 245.958 28.3718C246.047 28.4326 246.184 28.3921 246.233 28.2991C246.286 28.1979 246.253 28.0847 246.16 28.024Z" fill="white"/>
<path d="M248.038 31.0227C247.184 30.3593 247.047 28.9717 247.795 28.1748C247.973 27.9847 247.686 27.6975 247.508 27.8876C246.622 28.8302 246.723 30.5049 247.751 31.3059C247.953 31.4636 248.24 31.1805 248.038 31.0186V31.0227Z" fill="white"/>
<path d="M253.931 31.1046C253.482 30.5908 253.284 29.9152 253.353 29.2396C253.353 28.9727 252.976 28.9848 252.948 29.2396C252.944 29.8181 252.56 30.3885 252.001 30.5705C251.435 30.7566 250.808 30.5463 250.44 30.0891C250.278 29.8869 249.991 30.1741 250.153 30.3764C250.614 30.9508 251.46 31.2016 252.155 30.9467C252.519 30.8133 252.822 30.5624 253.033 30.2469C253.146 30.6676 253.353 31.06 253.643 31.3917C253.813 31.5899 254.101 31.3028 253.931 31.1046Z" fill="white"/>
<path d="M256.177 31.0518C256.055 31.0518 255.987 31.1448 255.974 31.254C255.917 31.7112 255.861 32.1683 255.804 32.6254C255.792 32.7346 255.906 32.8276 256.007 32.8276C256.128 32.8276 256.196 32.7346 256.209 32.6254C256.266 32.1683 256.322 31.7112 256.379 31.254C256.391 31.1448 256.277 31.0518 256.177 31.0518Z" fill="white"/>
<path d="M230.492 32.5834C229.311 32.6683 228.296 31.3576 228.677 30.233C228.762 29.9862 228.369 29.8811 228.288 30.1238C227.827 31.4831 229.061 33.089 230.492 32.9838C230.751 32.9636 230.751 32.5591 230.492 32.5793V32.5834Z" fill="white"/>
<path d="M232.552 33.8858C232.467 33.8089 232.35 33.8089 232.265 33.8858C232.099 34.0354 231.933 34.1811 231.763 34.3308C231.751 34.3227 231.747 34.3105 231.73 34.3025C231.642 34.2539 231.504 34.2741 231.455 34.3752L231.253 34.7959C231.209 34.889 231.221 34.9901 231.306 35.0589C231.387 35.1237 231.496 35.1115 231.573 35.0427C231.897 34.7514 232.224 34.4642 232.548 34.1729C232.629 34.1042 232.625 33.9586 232.548 33.8858H232.552Z" fill="white"/>
<path d="M245.861 38.6036C245.829 38.9434 245.275 38.7695 245.125 38.6481C244.833 38.4216 244.631 38.0859 244.295 37.916C244.219 37.8755 244.134 37.8512 244.045 37.835C243.778 37.2566 242.904 37.2404 242.402 36.9572C241.694 36.5526 241.189 35.8124 241.095 34.9993C241.08 34.8375 240.881 34.7161 240.752 34.8577C240.129 35.5373 239.146 35.8488 238.248 35.5899C237.403 35.3472 236.747 34.6312 236.541 33.7816C236.508 33.6441 236.302 33.5753 236.201 33.6927C235.663 34.3399 235.003 34.8496 234.251 35.2258C234.15 34.8577 234.044 34.4856 233.944 34.1175C233.875 33.8666 233.482 33.9718 233.556 34.2266L233.931 35.5737C233.968 35.7113 234.109 35.7477 234.227 35.695C235 35.3513 235.683 34.8456 236.257 34.2307C236.577 35.064 237.277 35.7355 238.143 35.9863C239.049 36.2493 240.052 36.0025 240.768 35.4038C240.934 36.0673 241.31 36.6578 241.86 37.0826C242.184 37.3335 242.548 37.4993 242.94 37.6085C243.147 37.6651 243.397 37.7217 243.563 37.8714C243.551 37.8755 243.535 37.8755 243.519 37.8835C243.3 37.9685 243.066 38.1991 243.114 38.458C243.163 38.7331 243.531 38.7857 243.75 38.7047C243.944 38.632 244.065 38.4742 244.105 38.2922C244.146 38.3083 244.182 38.3245 244.206 38.3447C244.518 38.5632 244.716 38.911 245.052 39.0972C245.509 39.348 246.209 39.1942 246.266 38.6117C246.29 38.3528 245.885 38.3528 245.861 38.6117V38.6036Z" fill="white"/>
<path d="M248.506 39.6162C248.516 39.6211 248.516 39.6211 248.506 39.6162V39.6162Z" fill="white"/>
<path d="M248.789 39.3256C248.344 38.9737 247.778 38.8321 247.22 38.9414C247.114 38.9616 247.05 39.091 247.078 39.1881C247.11 39.3014 247.22 39.3499 247.325 39.3297C247.353 39.3256 247.382 39.3176 247.41 39.3135C247.382 39.3135 247.458 39.3095 247.466 39.3095C247.527 39.3054 247.584 39.3054 247.645 39.3054C247.765 39.3054 247.822 39.3176 247.939 39.3459C248.045 39.3701 248.146 39.4066 248.223 39.443C248.275 39.4672 248.328 39.4955 248.377 39.5279C248.401 39.5441 248.425 39.5603 248.449 39.5765C248.462 39.5846 248.473 39.5927 248.486 39.6007C248.494 39.6048 248.494 39.6088 248.498 39.6088C248.583 39.6776 248.7 39.6897 248.781 39.6088C248.85 39.54 248.866 39.3904 248.781 39.3216L248.789 39.3256Z" fill="white"/>
<path d="M250.982 40.0435C250.982 40.0435 250.946 40.003 250.926 39.9827C250.921 39.9747 250.918 39.9747 250.918 39.9707C250.918 39.9707 250.918 39.9707 250.918 39.9666C250.91 39.9544 250.901 39.9423 250.893 39.9342C250.861 39.8857 250.829 39.8372 250.804 39.7845C250.772 39.7198 250.772 39.7158 250.748 39.6511C250.727 39.5944 250.716 39.5378 250.703 39.4812C250.703 39.469 250.699 39.4529 250.695 39.4407C250.695 39.4366 250.695 39.4286 250.695 39.4286C250.695 39.4043 250.691 39.38 250.687 39.3517C250.687 39.295 250.687 39.2344 250.687 39.1778C250.687 39.1616 250.687 39.1454 250.691 39.1251C250.691 39.1212 250.691 39.1171 250.691 39.1131C250.691 39.0887 250.699 39.0604 250.703 39.0362C250.716 38.9755 250.736 38.9149 250.756 38.8582C250.792 38.757 250.716 38.6357 250.614 38.6074C250.501 38.575 250.404 38.6478 250.368 38.7489C250.169 39.287 250.311 39.918 250.699 40.3307C250.772 40.4116 250.91 40.4075 250.986 40.3307C251.067 40.2497 251.063 40.1243 250.986 40.0435H250.982Z" fill="white"/>
<path d="M254.608 39.0977C254.515 38.859 254.122 38.9601 254.219 39.2069C254.547 40.0523 254.389 41.0273 253.831 41.7311L253.75 41.5127C253.661 41.2699 253.269 41.3751 253.362 41.6219C253.43 41.8039 253.499 41.99 253.568 42.1721C253.621 42.3136 253.791 42.3743 253.908 42.261C254.733 41.4642 255.029 40.1777 254.616 39.1017L254.608 39.0977Z" fill="white"/>
<path d="M243.616 47.971C243.373 47.5705 243.13 47.17 242.887 46.7655C242.834 46.6805 242.697 46.6239 242.612 46.6927C241.917 47.2227 240.893 47.2631 240.189 46.717C239.656 46.3004 239.392 45.5844 239.473 44.9168C239.566 44.7267 239.623 44.5204 239.631 44.306C239.635 44.1158 239.336 44.0147 239.255 44.2049C239.174 44.3909 239.129 44.5852 239.097 44.7834C238.769 45.3982 237.896 45.7178 237.334 45.1919C237.05 44.929 236.896 44.5204 236.933 44.1321C236.949 43.9459 237.014 43.776 237.119 43.6183C237.253 43.4201 237.43 43.238 237.463 42.9913C237.523 42.522 237.086 42.34 236.698 42.3076C236.112 42.2591 235.521 42.2429 234.931 42.1822C233.745 42.0569 232.568 41.8343 231.415 41.535C230.08 41.1871 228.778 40.7219 227.523 40.1475C227.289 40.0423 227.083 40.3902 227.321 40.4953C229.671 41.5674 232.18 42.2672 234.748 42.5625C235.376 42.6353 236.007 42.6636 236.637 42.7041C236.888 42.7202 237.171 42.7769 237.005 43.0883C236.885 43.3109 236.706 43.4808 236.617 43.7235C236.334 44.5042 236.759 45.4872 237.548 45.7744C238.094 45.9726 238.676 45.7987 239.089 45.4306C239.153 46.0253 239.425 46.5956 239.906 46.988C240.679 47.6191 241.823 47.6636 242.657 47.1417C242.863 47.4856 243.069 47.8254 243.276 48.1692C243.409 48.3917 243.762 48.1894 243.624 47.967L243.616 47.971Z" fill="white"/>
<path d="M252.144 50.6091C250.833 50.4149 249.587 49.9254 248.495 49.173C248.28 49.0234 248.078 49.3753 248.293 49.5209C249.408 50.2896 250.695 50.7993 252.038 50.9975C252.293 51.0339 252.402 50.6455 252.148 50.6091H252.144Z" fill="white"/>
<path d="M253.479 52.564C253.466 52.5397 253.45 52.5195 253.426 52.5073C253.405 52.4912 253.385 52.479 253.357 52.4709C253.341 52.4709 253.32 52.4669 253.304 52.4629C253.268 52.4629 253.235 52.4709 253.203 52.4912C253.191 52.5033 253.174 52.5114 253.163 52.5235C253.139 52.5478 253.122 52.5802 253.11 52.6125C253.102 52.6692 253.089 52.7218 253.082 52.7784C253.074 52.8067 253.074 52.831 253.082 52.8593C253.082 52.8876 253.089 52.9118 253.106 52.9362C253.118 52.9604 253.135 52.9766 253.159 52.9928C253.179 53.009 253.199 53.0211 253.227 53.0292C253.244 53.0292 253.264 53.0332 253.28 53.0373C253.316 53.0373 253.348 53.0292 253.381 53.009C253.394 52.9968 253.409 52.9887 253.422 52.9766C253.446 52.9523 253.462 52.92 253.474 52.8876C253.482 52.831 253.494 52.7784 253.503 52.7218C253.511 52.6935 253.511 52.6692 253.503 52.6408C253.503 52.6125 253.494 52.5883 253.479 52.564Z" fill="white"/>
<path d="M229.174 47.1911C228.264 46.6369 227.103 46.6207 226.157 47.0859C225.922 47.1992 226.128 47.5511 226.359 47.4338C227.176 47.0293 228.187 47.0616 228.968 47.539C229.676 47.9678 230.161 48.7364 230.25 49.5576C230.279 49.8125 230.683 49.8165 230.655 49.5576C230.546 48.5868 230.008 47.7008 229.17 47.187L229.174 47.1911Z" fill="white"/>
<path d="M239.809 53.8703C239.462 54.465 238.608 53.8703 238.333 53.5102C237.948 53.0046 237.641 52.3857 237.018 52.1429C236.27 51.8517 235.461 52.3492 234.724 52.0499C234.291 51.876 234.34 51.516 234.263 51.1235C234.215 50.8687 234.065 50.6584 233.851 50.5208C233.365 50.2053 232.646 50.3024 232.338 50.812C232.204 51.0346 232.552 51.2409 232.685 51.0144C232.964 50.5491 233.774 50.7029 233.871 51.2287C233.936 51.5766 233.911 51.9043 234.182 52.1713C234.401 52.3897 234.709 52.4908 235.007 52.5273C235.776 52.6243 236.626 52.1632 237.269 52.774C237.734 53.219 237.961 53.8703 238.51 54.2263C239.02 54.558 239.806 54.6672 240.161 54.0685C240.294 53.842 239.943 53.6397 239.813 53.8663L239.809 53.8703Z" fill="white"/>
<path d="M244.631 54.9658C243.725 55.3016 242.637 55.698 241.727 55.1519C241.391 54.9496 241.144 54.622 241.124 54.2255C241.104 53.8695 241.237 53.5176 241.561 53.3396C241.787 53.2142 241.585 52.8663 241.358 52.9917C240.954 53.2142 240.74 53.643 240.72 54.092C240.695 54.5896 240.925 55.0467 241.314 55.3541C242.33 56.1592 243.656 55.7586 244.744 55.3541C244.987 55.2651 244.882 54.8727 244.635 54.9658H244.631Z" fill="white"/>
<path d="M245.622 56.2045C245.622 56.2045 245.598 56.1964 245.586 56.1923C245.561 56.1802 245.537 56.1681 245.513 56.1518C245.513 56.1518 245.509 56.1518 245.505 56.1479C245.505 56.1479 245.485 56.1316 245.481 56.1276C245.46 56.1114 245.444 56.0912 245.424 56.071C245.42 56.0629 245.387 56.0386 245.411 56.0548C245.436 56.071 245.404 56.0427 245.396 56.0305C245.379 56.0103 245.367 55.986 245.355 55.9617C245.347 55.9496 245.343 55.9375 245.339 55.9253C245.339 55.9213 245.339 55.9172 245.335 55.9132C245.326 55.893 245.326 55.897 245.339 55.9253C245.331 55.9253 245.315 55.8566 245.315 55.8484C245.307 55.8242 245.302 55.7959 245.294 55.7716C245.294 55.7716 245.294 55.7635 245.294 55.7595C245.294 55.7514 245.294 55.7514 245.294 55.7514C245.294 55.7433 245.294 55.7312 245.294 55.7312C245.294 55.7029 245.294 55.6785 245.294 55.6502C245.294 55.6381 245.294 55.6219 245.294 55.6098C245.298 55.5855 245.302 55.5572 245.311 55.533C245.311 55.5208 245.319 55.5086 245.322 55.4966C245.322 55.4885 245.326 55.4844 245.326 55.4803C245.339 55.4601 245.359 55.4237 245.359 55.4197C245.363 55.4116 245.372 55.4035 245.379 55.3914C245.379 55.3873 245.387 55.3833 245.392 55.3792C245.46 55.2983 245.476 55.1688 245.392 55.092C245.315 55.0232 245.181 55.0071 245.104 55.092C244.688 55.5693 244.91 56.4027 245.525 56.5888C245.626 56.6211 245.751 56.5524 245.775 56.4472C245.8 56.3379 245.744 56.2328 245.634 56.1964L245.622 56.2045Z" fill="white"/>
<path d="M249.183 57.7405C249.174 57.7082 249.154 57.6758 249.13 57.6516C249.118 57.6394 249.102 57.6313 249.089 57.6192C249.057 57.5989 249.024 57.5908 248.988 57.5908H248.818C248.79 57.5908 248.765 57.5949 248.741 57.607C248.717 57.6151 248.693 57.6272 248.677 57.6475C248.656 57.6677 248.645 57.688 248.636 57.7122C248.624 57.7365 248.616 57.7608 248.62 57.7891C248.62 57.8052 248.624 57.8255 248.628 57.8416C248.636 57.874 248.656 57.9064 248.68 57.9307C248.693 57.9428 248.709 57.9509 248.721 57.963C248.754 57.9832 248.786 57.9914 248.822 57.9914H248.992C249.02 57.9914 249.045 57.9873 249.069 57.9751C249.094 57.9671 249.118 57.9549 249.133 57.9347C249.154 57.9145 249.166 57.8943 249.174 57.87C249.187 57.8457 249.194 57.8215 249.19 57.7932C249.19 57.7769 249.186 57.7567 249.183 57.7405Z" fill="white"/>
<path d="M145.279 204.991L137.087 213.632L149.644 208.729L254.259 128.86L251.301 124.475L145.275 204.991H145.279Z" fill="#C2D6FF"/>
<path d="M254.186 125.891L148.678 205.822L138.168 209.68L144.717 200.599L250.222 120.648C250.396 120.511 250.594 120.41 250.804 120.349C251.019 120.288 251.241 120.273 251.46 120.301C251.679 120.329 251.889 120.397 252.083 120.511C252.273 120.62 252.443 120.77 252.577 120.944L254.542 123.545C254.676 123.723 254.773 123.921 254.825 124.135C254.878 124.35 254.89 124.573 254.858 124.791C254.825 125.009 254.749 125.22 254.631 125.409C254.518 125.6 254.365 125.762 254.186 125.891Z" fill="url(#paint7_linear_925_10382)"/>
<path opacity="0.2" d="M138.155 209.664L144.705 200.582L250.222 120.643C250.395 120.506 250.594 120.405 250.804 120.344C251.018 120.283 251.241 120.268 251.459 120.296C251.677 120.324 251.888 120.392 252.082 120.506C252.272 120.615 252.442 120.765 252.576 120.939L252.83 121.315L146.545 201.836L138.159 209.66L138.155 209.664Z" fill="#070707"/>
<path d="M254.186 125.891L148.678 205.822L138.168 209.68L144.717 200.599L250.222 120.648C250.396 120.511 250.594 120.41 250.804 120.349C251.019 120.288 251.241 120.273 251.46 120.301C251.679 120.329 251.889 120.397 252.083 120.511C252.273 120.62 252.443 120.77 252.577 120.944L254.542 123.545C254.676 123.723 254.773 123.921 254.825 124.135C254.878 124.35 254.89 124.573 254.858 124.791C254.825 125.009 254.749 125.22 254.631 125.409C254.518 125.6 254.365 125.762 254.186 125.891Z" stroke="#263238" stroke-width="0.640802" stroke-linecap="round" stroke-linejoin="round"/>
<path d="M250.974 122.72L147.37 201.153C147.253 201.242 147.152 201.356 147.079 201.481C147.007 201.606 146.958 201.748 146.933 201.898C146.913 202.044 146.922 202.192 146.958 202.334C146.994 202.476 147.063 202.61 147.152 202.73L147.589 203.382" fill="url(#paint8_linear_925_10382)"/>
<path d="M250.974 122.72L147.37 201.153C147.253 201.242 147.152 201.356 147.079 201.481C147.007 201.606 146.958 201.748 146.933 201.898C146.913 202.044 146.922 202.192 146.958 202.334C146.994 202.476 147.063 202.61 147.152 202.73L147.589 203.382" stroke="#263238" stroke-width="0.640802" stroke-linecap="round" stroke-linejoin="round"/>
<g opacity="0.5">
<path opacity="0.2" d="M189.348 54.0953L125.647 14.8724C125.562 14.8198 125.444 14.7874 125.299 14.7753C125.154 14.7631 124.987 14.7753 124.806 14.7995C124.623 14.8279 124.433 14.8764 124.239 14.9452C124.049 15.014 123.859 15.0949 123.689 15.1879L76.242 40.9603C75.8942 41.1505 75.6312 41.3729 75.5058 41.5792C75.3805 41.7855 75.4047 41.9635 75.5746 42.0687L139.28 81.2918C139.45 81.3971 139.753 81.4212 140.117 81.3643C140.481 81.3035 140.881 81.1663 141.23 80.9799L188.68 55.2077C188.854 55.1147 189.008 55.0095 189.133 54.9043C189.259 54.7991 189.356 54.69 189.417 54.5888C189.477 54.4876 189.501 54.3906 189.489 54.3057C189.477 54.2207 189.424 54.1519 189.339 54.0993L189.348 54.0953ZM116.618 35.3576L121.044 38.08L115.926 40.8551L111.497 38.1286L116.618 35.3576ZM111.327 38.0032L106.861 35.2848L111.982 32.5057L116.411 35.2322L111.327 38.0032ZM121.242 38.2095L125.675 40.936L120.554 43.7152L116.125 40.9886L121.242 38.2095ZM144.587 52.1172L140.158 49.3907L145.275 46.6116L149.708 49.338L144.587 52.1172ZM149.878 49.4715L154.312 52.198L149.19 54.9771L144.761 52.2506L149.878 49.4715ZM130.469 43.9215L134.902 46.648L129.781 49.4271L125.38 46.6722L130.465 43.9215H130.469ZM125.178 46.567L120.748 43.8405L125.862 41.0533L130.295 43.7799L125.182 46.567H125.178ZM135.117 46.7572L139.538 49.4756L134.417 52.2547L129.988 49.5282L135.117 46.7572ZM139.749 49.605L144.182 52.3316L139.061 55.1106L134.632 52.3841L139.749 49.605ZM139.955 49.2652L135.525 46.5387L140.643 43.7596L145.072 46.4902L139.955 49.2652ZM135.323 46.4174L130.894 43.6908L136.011 40.9118L140.444 43.6342L135.327 46.4174H135.323ZM130.667 43.5776L126.241 40.8471L131.395 38.0436L135.829 40.7702L130.667 43.5776ZM126.06 40.7095L121.63 37.983L126.747 35.2039L131.181 37.9304L126.06 40.7095ZM120.137 43.9254L115.028 46.7005L110.599 43.974L115.72 41.1949L120.137 43.9254ZM120.336 44.0468L124.765 46.7733L119.643 49.5525L115.214 46.826L120.336 44.0468ZM124.967 46.8947L129.397 49.6212L124.276 52.4004L119.846 49.6738L124.963 46.8947H124.967ZM129.595 49.7426L134.02 52.4731L128.903 55.2482L124.474 52.5217L129.595 49.7426ZM134.218 52.5945L138.648 55.321L133.527 58.1001L129.097 55.3736L134.218 52.5945ZM138.851 55.4424L143.28 58.1689L138.159 60.948L133.73 58.2214L138.851 55.4424ZM139.247 55.228L144.364 52.4488L148.798 55.1753L143.676 57.9545L139.247 55.228ZM148.992 55.2967L153.426 58.0232L148.305 60.8024L143.875 58.0759L148.992 55.2967ZM153.624 58.1446L158.053 60.8752L152.94 63.6502L148.511 60.9237L153.628 58.1446H153.624ZM154.025 57.9302L159.142 55.1511L163.559 57.8938L158.462 60.6648L154.021 57.9343L154.025 57.9302ZM153.827 57.8088L149.401 55.0783L154.518 52.2991L158.948 55.0298L153.827 57.8088ZM154.907 52.0807L160.028 49.3016L164.457 52.0281L159.364 54.8194L154.907 52.0807ZM154.712 51.9593L150.287 49.2288L155.4 46.4498L159.83 49.1763L154.712 51.9554V51.9593ZM150.089 49.1075L145.654 46.381L150.776 43.6019L155.206 46.3284L150.089 49.1075ZM145.456 46.2596L141.019 43.5412L146.14 40.7621L150.57 43.4886L145.456 46.2596ZM140.833 43.4077L136.411 40.6852L141.528 37.9062L145.954 40.6367L140.833 43.4117V43.4077ZM136.205 40.5679L131.776 37.8414L136.889 35.0502L141.347 37.7888L136.205 40.572V40.5679ZM131.573 37.72L127.139 34.9895L132.261 32.2104L136.678 34.945L131.578 37.716L131.573 37.72ZM126.962 34.8641L122.532 32.1376L127.649 29.3585L132.075 32.0891L126.962 34.8681V34.8641ZM126.561 35.0825L121.44 37.8616L117.01 35.1352L122.128 32.356L126.561 35.0825ZM116.812 35.0138L112.387 32.2832L117.504 29.5041L121.933 32.2346L116.812 35.0138ZM112.189 32.1619L107.759 29.4353L112.876 26.6563L117.31 29.3828L112.189 32.1619ZM111.788 32.3803L106.667 35.1594L102.237 32.4329L107.358 29.6538L111.788 32.3803ZM106.254 35.3859L101.132 38.165L96.7027 35.4385L101.825 32.6594L106.254 35.3859ZM106.448 35.5114L110.878 38.2379L105.757 41.017L101.331 38.2864L106.448 35.5114ZM111.08 38.3592L115.513 41.0776L110.392 43.8567L105.963 41.1221L111.08 38.3592ZM109.98 44.0873L104.859 46.8664L100.433 44.1358L105.554 41.3568L109.98 44.0873ZM110.178 44.2086L114.607 46.9351L109.51 49.7102L105.077 46.9837L110.178 44.2086ZM114.805 47.0565L119.235 49.783L114.114 52.5621L109.684 49.8357L114.805 47.0565ZM119.441 49.8882L123.899 52.6269L118.778 55.406L114.316 52.6835L119.438 49.8923L119.441 49.8882ZM124.074 52.7361L128.503 55.4626L123.381 58.2417L118.952 55.5151L124.074 52.7361ZM128.705 55.5839L133.131 58.3145L128.014 61.0895L123.584 58.363L128.705 55.5839ZM133.329 58.4359L137.758 61.1623L132.637 63.9415L128.208 61.215L133.329 58.4359ZM137.956 61.2837L142.395 64.0183L137.273 66.7974L132.843 64.0709L137.956 61.2837ZM138.357 61.0653L143.474 58.2902L147.932 61.0127L142.811 63.7918L138.357 61.0653ZM148.102 61.1381L152.532 63.8646L147.41 66.6437L142.981 63.9172L148.102 61.1381ZM152.755 63.99L157.184 66.7165L152.062 69.4956L147.633 66.7691L152.755 63.99ZM153.151 63.7756L158.268 60.9965L162.701 63.723L157.548 66.5143L153.151 63.7756ZM158.684 60.77L163.802 57.9909L168.236 60.7174L163.086 63.5086L158.684 60.77ZM164.219 57.7603L169.291 55.0014L173.721 57.728L168.62 60.503L164.215 57.7603H164.219ZM164.028 57.6389L159.595 54.9124L164.716 52.1333L169.101 54.8841L164.032 57.643L164.028 57.6389ZM165.112 51.9149L170.197 49.16L174.635 51.8785L169.518 54.6575L165.112 51.9149ZM164.923 51.7935L160.488 49.067L165.61 46.2879L170.036 49.0184L164.923 51.7976V51.7935ZM160.294 48.9457L155.816 46.2394L160.938 43.4603L165.367 46.1868L160.294 48.9457ZM155.663 46.0978L151.229 43.3713L156.351 40.5922L160.78 43.3187L155.663 46.0978ZM151.039 43.2459L146.561 40.5396L151.682 37.7605L156.112 40.487L151.039 43.2459ZM146.407 40.398L141.973 37.6715L147.038 34.9207L151.468 37.6472L146.407 40.398ZM141.743 37.5663L137.313 34.8357L142.426 32.0607L146.856 34.7872L141.739 37.5663H141.743ZM137.119 34.7144L132.686 31.9879L137.795 29.2129L142.221 31.9475L137.124 34.7185L137.119 34.7144ZM132.488 31.8665L128.054 29.14L133.175 26.3609L137.605 29.0874L132.488 31.8665ZM127.868 29.0267L123.41 26.2881L128.531 23.509L132.957 26.2396L127.872 29.0267H127.868ZM127.463 29.2452L122.346 32.0243L117.916 29.2978L123.034 26.5187L127.463 29.2452ZM117.718 29.1765L113.293 26.4459L118.406 23.6668L122.835 26.3933L117.718 29.1724V29.1765ZM113.095 26.3245L108.665 23.598L113.782 20.8189L118.216 23.5455L113.095 26.3245ZM112.694 26.543L107.573 29.3221L103.143 26.5955L108.26 23.8165L112.694 26.543ZM107.16 29.5486L102.039 32.3277L97.6095 29.6012L102.731 26.8221L107.16 29.5486ZM101.626 32.5542L96.5047 35.3334L92.0752 32.6069L97.1963 29.8277L101.626 32.5542ZM96.0922 35.5599L90.9789 38.339L86.5455 35.6125L91.6666 32.8334L96.0922 35.5639V35.5599ZM96.2903 35.6813L100.72 38.4078L95.6026 41.1869L91.1691 38.4603L96.2903 35.6813ZM100.923 38.5291L105.352 41.2556L100.23 44.0347L95.8006 41.3082L100.923 38.5291ZM99.8301 44.2572L94.7129 47.0363L90.3192 44.2774L95.4412 41.4983L99.8301 44.2572ZM100.028 44.3785L104.458 47.105L99.3405 49.8841L94.9071 47.1577L100.028 44.3785ZM104.7 47.1819L109.126 49.9125L104.013 52.6916L99.5791 49.9651L104.7 47.186V47.1819ZM109.324 50.0339L113.754 52.7603L108.621 55.5476L104.187 52.821L109.324 50.0339ZM113.956 52.8817L118.386 55.6082L113.268 58.3873L108.835 55.6608L113.956 52.8817ZM118.58 55.7336L123.005 58.4723L117.888 61.2514L113.459 58.5208L118.58 55.7336ZM123.207 58.5815L127.637 61.308L122.52 64.0871L118.086 61.3605L123.207 58.5815ZM127.84 61.4293L132.269 64.1559L127.152 66.9349L122.719 64.2084L127.84 61.4293ZM132.463 64.2813L136.865 67.028L131.747 69.8071L127.313 67.0806L132.467 64.2813H132.463ZM137.095 67.1292L141.524 69.8556L136.392 72.6469L131.957 69.9204L137.095 67.1292ZM137.496 66.9107L142.617 64.1316L147.042 66.8621L141.921 69.6412L137.496 66.9107ZM147.216 66.9957L151.646 69.7222L146.525 72.5013L142.095 69.7747L147.216 66.9957ZM151.852 69.8354L156.282 72.5619L151.161 75.341L146.739 72.6104L151.852 69.8314V69.8354ZM152.248 69.621L157.37 66.8419L161.799 69.5684L156.67 72.3435L152.248 69.621ZM157.783 66.6154L162.9 63.8363L167.334 66.5628L162.212 69.3419L157.783 66.6154ZM163.316 63.6098L168.369 60.859L172.851 63.5814L167.734 66.3605L163.316 63.6057V63.6098ZM168.85 60.6001L173.919 57.8574L178.349 60.5839L173.231 63.363L168.85 60.6001ZM174.384 57.5945L179.453 54.8518L183.883 57.5783L178.766 60.3574L174.384 57.5945ZM174.19 57.4731L169.757 54.7466L174.878 51.9675L179.308 54.6939L174.19 57.4731ZM175.278 51.745L180.395 48.9699L184.825 51.6964L179.704 54.4756L175.278 51.745ZM175.08 51.6236L170.65 48.8971L175.772 46.118L180.201 48.8446L175.08 51.6236ZM170.448 48.7758L166.019 46.0492L171.1 43.3146L175.529 46.0412L170.448 48.7758ZM165.816 45.9279L161.391 43.1974L166.508 40.4223L170.937 43.1488L165.816 45.9279ZM161.193 43.076L156.715 40.3899L161.836 37.6108L166.265 40.3373L161.193 43.076ZM156.565 40.2281L152.095 37.53L157.216 34.7508L161.646 37.4773L156.565 40.2281ZM151.941 37.3762L147.512 34.6497L152.576 31.907L156.998 34.6335L151.945 37.3721L151.941 37.3762ZM147.314 34.5283L142.88 31.8018L148.001 29.0227L152.431 31.7493L147.314 34.5283ZM142.681 31.6805L138.252 28.9499L143.369 26.1749L147.754 28.9337L142.685 31.6805H142.681ZM138.054 28.8285L133.624 26.1021L138.693 23.3634L143.123 26.0899L138.054 28.8285ZM133.426 25.9807L128.992 23.2542L134.114 20.475L138.544 23.2016L133.426 25.9807ZM128.794 23.1328L124.308 20.4386L129.421 17.6636L133.85 20.3901L128.79 23.1328H128.794ZM128.394 23.3472L123.276 26.1263L118.843 23.3998L123.964 20.6207L128.394 23.3472ZM118.648 23.2784L114.143 20.6005L119.264 17.8214L123.693 20.5479L118.648 23.2784ZM86.1649 35.7945L90.5945 38.521L85.4772 41.3001L81.0438 38.5736L86.1649 35.7945ZM90.7972 38.6424L95.2267 41.3689L90.1095 44.148L85.6753 41.4215L90.7972 38.6424ZM89.6924 44.3624L84.5751 47.1414L80.1456 44.415L85.2628 41.6358L89.6924 44.3624ZM89.8912 44.4837L94.341 47.2143L89.223 49.9934L84.7934 47.2669L89.8951 44.4837H89.8912ZM94.5149 47.3357L98.9444 50.0622L93.8272 52.8413L89.4132 50.1147L94.5149 47.3316V47.3357ZM99.1588 50.1875L103.588 52.9141L98.4711 55.6931L94.0369 52.9667L99.1588 50.1875ZM103.798 53.0395L108.224 55.77L103.11 58.5491L98.6855 55.8105L103.798 53.0395ZM108.423 55.8913L112.852 58.6179L107.715 61.393L103.285 58.6664L108.423 55.8913ZM113.05 58.7392L117.48 61.4657L112.362 64.2449L107.929 61.5184L113.05 58.7392ZM117.682 61.5871L122.096 64.3136L116.982 67.0927L112.548 64.3662L117.682 61.5912V61.5871ZM122.305 64.439L126.735 67.1656L121.618 69.9446L117.184 67.2181L122.305 64.439ZM126.938 67.2869L131.367 70.0134L126.25 72.7925L121.82 70.066L126.938 67.2869ZM131.561 70.1388L135.991 72.8653L130.845 75.6565L126.415 72.926L131.557 70.1388H131.561ZM136.193 72.9866L140.622 75.7132L135.505 78.4926L131.072 75.7658L136.193 72.9866ZM136.593 72.7682L141.715 69.9891L146.14 72.7197L141.027 75.4947L136.597 72.7682H136.593ZM146.338 72.8411L150.768 75.5676L145.651 78.3468L141.197 75.6201L146.334 72.837L146.338 72.8411ZM188.494 55.0783L184.259 57.3719L179.829 54.6454L184.95 51.8663L188.935 54.3177C189.052 54.3906 189.069 54.512 188.984 54.6536C188.899 54.7952 188.721 54.9488 188.486 55.0783H188.494ZM125.271 15.0989L129.256 17.5503L124.138 20.3295L119.672 17.5949L123.88 15.3092C124 15.2445 124.13 15.1879 124.263 15.1393C124.397 15.0908 124.531 15.0585 124.656 15.0382C124.781 15.018 124.899 15.0099 125 15.0221C125.101 15.0302 125.182 15.0544 125.242 15.0908L125.267 15.0989H125.271ZM76.4646 41.0897L80.6719 38.8042L85.0975 41.5347L79.9842 44.3138L75.967 41.8543C75.8497 41.7815 75.8335 41.6561 75.9225 41.5105C76.0115 41.3648 76.1976 41.2111 76.4403 41.0776L76.4646 41.0857V41.0897ZM139.68 81.0774L135.695 78.6221L140.816 75.8426L145.246 78.5691L141.035 80.8591C140.796 80.9885 140.517 81.0852 140.263 81.1257C140.008 81.1663 139.797 81.1499 139.68 81.0774Z" fill="#0052FE"/>
</g>
<path d="M114.063 151.892C112.546 151.892 111.171 151.557 110.18 150.942L38.7685 106.617C37.7936 106.015 37.2677 105.162 37.2799 104.219C37.3001 103.014 38.1941 101.812 39.7394 100.926L89.771 72.0834C91.1908 71.2622 93.0356 70.793 94.8282 70.793C96.28 70.793 97.6071 71.1084 98.5536 71.6789L170.604 115.117C171.644 115.744 172.214 116.63 172.206 117.613C172.197 118.814 171.324 120.016 169.811 120.902L119.185 150.57C117.749 151.411 115.88 151.892 114.059 151.892H114.063Z" fill="white"/>
<path d="M94.8268 71.1928C96.1624 71.1928 97.4201 71.4638 98.3464 72.0221L170.397 115.46C172.544 116.755 172.193 119.032 169.608 120.549L118.981 150.217C117.549 151.054 115.749 151.487 114.062 151.487C112.67 151.487 111.356 151.196 110.393 150.597L38.9822 106.273C36.9312 104.999 37.36 102.762 39.9449 101.274L89.977 72.4307C91.3929 71.6135 93.1722 71.1969 94.8314 71.1969M94.8314 70.3878C92.9703 70.3878 91.053 70.8773 89.5723 71.7308L39.5404 100.574C37.8697 101.537 36.8988 102.863 36.8786 104.21C36.8625 105.303 37.4571 106.277 38.5574 106.961L109.969 151.285C111.021 151.936 112.472 152.296 114.062 152.296C115.951 152.296 117.898 151.795 119.39 150.917L170.017 121.249C171.655 120.286 172.601 118.963 172.609 117.613C172.618 116.484 171.978 115.472 170.809 114.768L98.7588 71.3304C97.7319 70.7114 96.3721 70.3838 94.8229 70.3838L94.8314 70.3878Z" fill="#070707"/>
<path d="M167.654 121.695C167.654 121.695 167.654 121.699 167.643 121.703L139.536 138.176L133.023 141.995H133.019L118.986 150.218C116.369 151.747 112.526 151.921 110.394 150.599L38.9828 106.274C36.9278 105 37.3606 102.763 39.9415 101.275L44.8889 98.4228L48.8735 96.1289H48.8815C48.9261 96.8291 49.0919 97.6135 49.5086 98.3823C50.4187 100.053 52.5264 101.631 57.0692 102.108C58.8208 102.294 61.0053 102.169 63.4324 101.849C75.9404 100.198 95.0703 93.4023 97.34 97.4076C99.0998 100.518 94.1323 104.94 91.5834 109.094C90.1955 111.347 89.5164 113.52 91.0009 115.36C92.158 116.792 95.6691 116.882 100.346 116.319C112.753 114.826 133.314 108.759 139.86 111.21C151.077 115.405 133.788 123.851 137.716 126.78C140.527 128.871 157.169 122.326 167.654 121.703V121.695Z" fill="#FADDCA"/>
<path d="M139.536 138.175C139.536 138.175 133.023 141.993 133.019 141.993L118.986 150.218C116.369 151.747 112.526 151.92 110.394 150.597L38.9828 106.274C36.9278 104.999 37.3606 102.762 39.9415 101.274L44.8889 98.4222C46.3776 98.3489 47.9714 98.3169 49.5086 98.3816C53.7885 98.5516 57.5667 99.4412 57.0692 102.107C55.9608 108.025 56.7982 110.922 65.1152 111.832C68.8126 112.236 75.9444 110.946 82.8818 109.991C87.3761 109.372 91.6161 107.673 96.1665 107.212C98.2296 107.002 100.875 106.755 102.833 107.819C110.625 112.046 97.9146 119.971 96.0698 122.681C94.1323 125.529 92.9307 128.381 95.5396 131.431C99.8117 136.431 115.337 132.888 126.866 133.324C130.996 133.487 134.621 134.154 137.032 135.913C138.039 136.645 138.864 137.406 139.54 138.179L139.536 138.175Z" fill="#0052FE"/>
<path opacity="0.4" d="M133.019 141.993L118.986 150.217C116.369 151.746 112.526 151.921 110.394 150.597L38.9828 106.273C36.9278 104.999 37.3606 102.762 39.9415 101.274L44.8889 98.4216L48.8735 96.1277H48.8815L57.6275 91.0791C61.2075 91.5976 64.8482 92.9528 64.4195 96.3866C64.1605 98.438 63.7155 100.274 63.4284 101.848C62.7892 105.339 62.9267 107.56 67.5788 108.074C74.3587 108.814 79.8316 105.853 82.6916 109.72C82.7649 109.809 82.8171 109.902 82.8779 109.991C85.3902 113.834 81.9033 118.935 92.8013 122.026C93.857 122.325 94.9494 122.54 96.0613 122.681C106.761 124.069 119.577 119.238 124.274 125.715C126.061 128.175 126.422 130.82 126.854 133.328C127.457 136.803 128.181 140.007 133.011 142.001L133.019 141.993Z" fill="#B89CEB"/>
<g opacity="0.1">
<path d="M132.756 96.3795L95.5755 75.1213C95.4258 75.0364 95.2153 74.9919 94.9892 75C94.7623 75.008 94.5362 75.0647 94.3623 75.1618L93.1724 75.8252L92.9463 75.9546L91.3401 76.8527L91.114 76.9821L89.5117 77.8762L89.2848 78.0018L87.6794 78.8992L87.4525 79.0247L85.8471 79.923L85.6202 80.0524L84.0186 80.9467L83.7917 81.0762L82.1894 81.9697L81.9633 82.0991L80.361 82.9935L80.1349 83.1229L78.5326 84.0165L78.3063 84.1467L77.117 84.8141C77.032 84.8624 76.9593 84.9186 76.9107 84.9794C76.8581 85.0402 76.8298 85.1049 76.8177 85.1696C76.8096 85.2344 76.8218 85.2952 76.8581 85.3521C76.8945 85.4082 76.9512 85.4613 77.024 85.5018L114.196 106.755C114.345 106.84 114.556 106.881 114.783 106.873C115.009 106.864 115.236 106.803 115.405 106.707L116.595 106.043L116.821 105.914L118.423 105.02L118.649 104.89L120.256 103.993L120.483 103.867L122.084 102.973L122.311 102.843L123.913 101.95L124.139 101.82L125.745 100.922L125.972 100.797L127.578 99.8984L127.804 99.7728L129.406 98.8793L129.632 98.7499L131.239 97.8516L131.466 97.7222L132.655 97.0587C132.825 96.962 132.934 96.8403 132.954 96.7109C132.974 96.5854 132.905 96.4637 132.76 96.3795H132.756ZM115.207 106.594C115.094 106.654 114.948 106.694 114.798 106.699C114.649 106.703 114.512 106.679 114.414 106.622L77.2465 85.3677C77.1494 85.3116 77.1008 85.2344 77.113 85.1494C77.1252 85.0644 77.1939 84.9833 77.3071 84.9186L78.4967 84.2558L116.392 105.926L115.203 106.594H115.207ZM116.635 105.792L78.7353 84.1217L80.3408 83.2243L118.237 104.895L116.635 105.788V105.792ZM118.472 104.773L80.5552 83.1065L82.1614 82.2083L120.062 103.879L118.476 104.773H118.472ZM120.309 103.754L82.4085 82.0836L84.0101 81.1892L121.91 102.86L120.309 103.758V103.754ZM122.145 102.734L84.2448 81.0637L85.8471 80.1701L123.743 101.841L122.141 102.734H122.145ZM123.981 101.715L86.081 80.0446L87.6872 79.1464L125.583 100.817L123.981 101.715ZM125.822 100.691L87.9219 79.0209L89.5242 78.1273L127.424 99.7978L125.822 100.691ZM127.658 99.6723L89.7136 77.9932L91.316 77.0994L129.216 98.7701L127.658 99.6723ZM129.491 98.6524L91.5421 76.97L93.1483 76.0719L131.045 97.7425L129.491 98.6485V98.6524ZM93.4274 75.9587L94.6165 75.2952C94.6734 75.2629 94.7381 75.2386 94.8067 75.2184C94.8761 75.1982 94.9486 75.1901 95.0258 75.186C95.0983 75.186 95.1708 75.186 95.2356 75.2022C95.3003 75.2143 95.3611 75.2346 95.4094 75.2629L132.517 96.5004C132.614 96.5573 132.662 96.6337 132.651 96.7187C132.638 96.8037 132.57 96.8848 132.457 96.9456L131.267 97.6091L93.436 75.9506L93.4274 75.9587Z" fill="#7796FF"/>
</g>
<path opacity="0.2" d="M92.8687 81.4933L92.1443 81.0801L86.093 84.4625L86.8166 84.8749L92.8687 81.4933Z" fill="#0052FE"/>
<path d="M91.9575 82.0052L91.2339 81.5928L88.3856 83.1826L89.11 83.5951L91.9575 82.0052Z" fill="#0052FE"/>
<path opacity="0.2" d="M93.305 83.0912L92.5806 82.6787L86.5293 86.0603L87.2536 86.4728L93.305 83.0912Z" fill="#0052FE"/>
<path d="M92.3955 83.6019L91.6711 83.1895L88.8197 84.7832L89.5433 85.1956L92.3955 83.6019Z" fill="#0052FE"/>
<path opacity="0.2" d="M96.7193 83.0228L95.9949 82.6104L89.9436 85.992L90.6672 86.4044L96.7193 83.0228Z" fill="#0052FE"/>
<path d="M96.0396 83.4047L95.3153 82.9922L92.4639 84.5859L93.1874 84.9984L96.0396 83.4047Z" fill="#0052FE"/>
<path opacity="0.2" d="M96.7878 84.8256L96.0642 84.4131L90.0121 87.7955L90.7364 88.2079L96.7878 84.8256Z" fill="#0052FE"/>
<path d="M96.5574 84.9562L95.8339 84.543L92.9817 86.1367L93.706 86.5499L96.5574 84.9562Z" fill="#0052FE"/>
<path opacity="0.2" d="M101.582 83.9896L100.857 83.5771L94.8062 86.9587L95.5305 87.3712L101.582 83.9896Z" fill="#0052FE"/>
<path d="M101.355 84.1185L100.631 83.7061L97.7833 85.2959L98.5069 85.7083L101.355 84.1185Z" fill="#0052FE"/>
<path opacity="0.2" d="M99.3973 87.0521L98.6737 86.6396L92.6216 90.0213L93.3459 90.4337L99.3973 87.0521Z" fill="#0052FE"/>
<path d="M98.4869 87.5599L97.7625 87.1475L94.9111 88.7412L95.6347 89.1537L98.4869 87.5599Z" fill="#0052FE"/>
<path opacity="0.2" d="M100.676 88.18L99.9514 87.7676L93.9 91.1492L94.6244 91.5616L100.676 88.18Z" fill="#0052FE"/>
<path d="M98.3933 89.4545L97.6697 89.042L94.8175 90.6357L95.5419 91.0482L98.3933 89.4545Z" fill="#0052FE"/>
<path opacity="0.2" d="M106.109 86.9867L105.385 86.5742L99.3329 89.9558L100.057 90.3683L106.109 86.9867Z" fill="#0052FE"/>
<path d="M103.596 88.39L102.872 87.9775L100.024 89.5674L100.749 89.9798L103.596 88.39Z" fill="#0052FE"/>
<path opacity="0.2" d="M105.073 89.4056L104.349 88.9932L98.2972 92.3748L99.0208 92.7872L105.073 89.4056Z" fill="#0052FE"/>
<path d="M103.929 90.0463L103.204 89.6338L100.356 91.2236L101.081 91.6361L103.929 90.0463Z" fill="#0052FE"/>
<path opacity="0.2" d="M108.28 89.4545L107.556 89.042L101.504 92.4236L102.229 92.8361L108.28 89.4545Z" fill="#0052FE"/>
<path d="M107.585 90.0697L106.857 89.6572L104.005 91.2549L104.733 91.6673L107.585 90.0697Z" fill="#0052FE"/>
<path opacity="0.2" d="M112.629 88.8666L111.905 88.4541L105.854 91.8357L106.577 92.2482L112.629 88.8666Z" fill="#0052FE"/>
<path d="M112.626 88.8666L111.902 88.4541L109.05 90.0478L109.774 90.4603L112.626 88.8666Z" fill="#0052FE"/>
<path opacity="0.2" d="M110.425 91.9427L109.701 91.5303L103.649 94.9119L104.373 95.3251L110.425 91.9427Z" fill="#0052FE"/>
<path d="M109.737 92.3234L109.013 91.9102L106.161 93.5047L106.885 93.9171L109.737 92.3234Z" fill="#0052FE"/>
<path opacity="0.2" d="M109.389 94.3588L108.665 93.9463L102.613 97.3279L103.337 97.7404L109.389 94.3588Z" fill="#0052FE"/>
<path d="M108.706 94.7435L107.982 94.3311L105.13 95.9248L105.854 96.3372L108.706 94.7435Z" fill="#0052FE"/>
<path opacity="0.2" d="M114.219 93.5004L113.495 93.0879L107.444 96.4695L108.168 96.882L114.219 93.5004Z" fill="#0052FE"/>
<path d="M111.946 94.7767L111.222 94.3643L108.37 95.958L109.094 96.3705L111.946 94.7767Z" fill="#0052FE"/>
<path opacity="0.2" d="M119.272 92.5199L118.548 92.1074L112.497 95.4898L113.221 95.9023L119.272 92.5199Z" fill="#0052FE"/>
<path d="M116.538 94.0511L115.814 93.6387L112.962 95.2324L113.686 95.6449L116.538 94.0511Z" fill="#0052FE"/>
<path opacity="0.2" d="M117.48 95.3666L116.755 94.9541L110.704 98.3357L111.428 98.7482L117.48 95.3666Z" fill="#0052FE"/>
<path d="M116.82 95.975L116.092 95.5625L113.24 97.1601L113.968 97.5734L116.82 95.975Z" fill="#0052FE"/>
</g>
<defs>
<linearGradient id="paint0_linear_925_10382" x1="68.6463" y1="328.908" x2="317.864" y2="227.022" gradientUnits="userSpaceOnUse">
<stop stop-color="#0046FE"/>
<stop offset="1" stop-color="#00BDFF"/>
</linearGradient>
<linearGradient id="paint1_linear_925_10382" x1="107.988" y1="92.1488" x2="194.036" y2="65.5869" gradientUnits="userSpaceOnUse">
<stop stop-color="#2D69FD"/>
<stop offset="1" stop-color="#00F2A5"/>
</linearGradient>
<linearGradient id="paint2_linear_925_10382" x1="97.0903" y1="52.702" x2="154.949" y2="52.702" gradientUnits="userSpaceOnUse">
<stop stop-color="#7B61FF"/>
<stop offset="1" stop-color="#F3A6EB"/>
</linearGradient>
<linearGradient id="paint3_linear_925_10382" x1="222.984" y1="127.981" x2="269.39" y2="124.237" gradientUnits="userSpaceOnUse">
<stop stop-color="#2D69FD"/>
<stop offset="1" stop-color="#00F2A5"/>
</linearGradient>
<linearGradient id="paint4_linear_925_10382" x1="34.7832" y1="53.5069" x2="44.6974" y2="50.6076" gradientUnits="userSpaceOnUse">
<stop stop-color="#2D69FD"/>
<stop offset="1" stop-color="#00F2A5"/>
</linearGradient>
<linearGradient id="paint5_linear_925_10382" x1="25.4085" y1="75.1406" x2="45.5477" y2="71.3126" gradientUnits="userSpaceOnUse">
<stop stop-color="#2D69FD"/>
<stop offset="1" stop-color="#00F2A5"/>
</linearGradient>
<linearGradient id="paint6_linear_925_10382" x1="25.2409" y1="71.9103" x2="42.4607" y2="63.7631" gradientUnits="userSpaceOnUse">
<stop stop-color="#2D69FD"/>
<stop offset="1" stop-color="#00F2A5"/>
</linearGradient>
<linearGradient id="paint7_linear_925_10382" x1="147.105" y1="289.186" x2="279.36" y2="266.425" gradientUnits="userSpaceOnUse">
<stop stop-color="#2D69FD"/>
<stop offset="1" stop-color="#00F2A5"/>
</linearGradient>
<linearGradient id="paint8_linear_925_10382" x1="154.89" y1="275.122" x2="272.883" y2="255.058" gradientUnits="userSpaceOnUse">
<stop stop-color="#2D69FD"/>
<stop offset="1" stop-color="#00F2A5"/>
</linearGradient>
<clipPath id="clip0_925_10382">
<rect width="269" height="213.641" fill="white" transform="translate(0.5)"/>
</clipPath>
</defs>
</svg>
