<svg width="281" height="281" viewBox="0 0 281 281" fill="none" xmlns="http://www.w3.org/2000/svg">
<circle opacity="0.2" cx="140.5" cy="140.5" r="140.5" fill="#CEDCFF"/>
<circle opacity="0.5" cx="141" cy="141" r="107" fill="#CEDCFF"/>
<circle cx="141" cy="141" r="74" fill="#CEDCFF"/>
<path d="M148.428 151.446L144.517 150.579C144.477 147.946 143.914 145.404 142.842 143.022L145.868 140.572C146.588 139.989 146.698 138.932 146.116 138.212L142.323 133.526C142.043 133.18 141.636 132.96 141.193 132.913C140.753 132.865 140.307 132.999 139.962 133.278L137.016 135.666C134.93 134.066 132.588 132.931 130.054 132.294V128.553C130.054 127.627 129.303 126.875 128.376 126.875H122.35C121.423 126.875 120.672 127.627 120.672 128.553V132.296C118.087 132.948 115.703 134.118 113.584 135.773L110.61 133.407C110.262 133.13 109.821 133.005 109.375 133.053C108.933 133.103 108.528 133.328 108.251 133.677L104.499 138.394C103.922 139.119 104.043 140.176 104.768 140.752L107.823 143.182C106.775 145.571 106.233 148.115 106.216 150.742L102.301 151.646C101.398 151.856 100.835 152.755 101.043 153.658L102.399 159.532C102.608 160.436 103.511 160.998 104.412 160.79L108.45 159.858C109.649 162.108 111.256 164.068 113.225 165.683L111.404 169.501C111.005 170.337 111.359 171.338 112.196 171.738L117.636 174.334C117.863 174.443 118.111 174.497 118.358 174.497C118.548 174.497 118.737 174.465 118.919 174.401C119.338 174.252 119.681 173.944 119.874 173.542L121.718 169.674C124.17 170.146 126.723 170.138 129.168 169.647L131.044 173.493C131.45 174.327 132.457 174.67 133.288 174.266L138.705 171.625C139.537 171.219 139.884 170.214 139.478 169.382L137.627 165.586C139.586 163.953 141.177 161.977 142.358 159.713L146.395 160.609C147.298 160.807 148.196 160.239 148.397 159.332L149.703 153.447C149.799 153.013 149.72 152.557 149.479 152.182C149.241 151.806 148.863 151.541 148.428 151.446ZM132.763 150.869C132.763 154.946 129.446 158.263 125.368 158.263C121.292 158.263 117.976 154.946 117.976 150.869C117.976 146.792 121.292 143.476 125.368 143.476C129.446 143.476 132.763 146.792 132.763 150.869Z" fill="white"/>
<path d="M152.974 137.078C153.6 137.078 154.201 136.726 154.49 136.122L155.374 134.27C156.906 134.566 158.508 134.559 160.032 134.252L160.929 136.094C161.335 136.926 162.341 137.273 163.174 136.867L165.432 135.765C165.832 135.57 166.138 135.223 166.283 134.803C166.428 134.382 166.4 133.921 166.204 133.521L165.32 131.712C166.543 130.694 167.54 129.459 168.279 128.04L170.191 128.463C171.092 128.663 171.991 128.092 172.193 127.188L172.735 124.735C172.934 123.831 172.365 122.935 171.458 122.734L169.626 122.328C169.602 120.682 169.249 119.092 168.579 117.602L169.983 116.466C170.328 116.185 170.549 115.779 170.594 115.337C170.641 114.895 170.509 114.451 170.228 114.105L168.648 112.153C168.063 111.432 167.006 111.322 166.287 111.905L164.933 113.002C163.629 112.001 162.165 111.292 160.58 110.894V109.182C160.58 108.256 159.829 107.504 158.902 107.504H156.39C155.464 107.504 154.712 108.256 154.712 109.182V110.894C153.095 111.301 151.605 112.033 150.282 113.068L148.911 111.979C148.188 111.403 147.132 111.524 146.553 112.248L144.992 114.215C144.715 114.564 144.588 115.008 144.638 115.45C144.689 115.893 144.912 116.297 145.261 116.574L146.678 117.702C146.024 119.195 145.685 120.787 145.674 122.431L143.838 122.855C143.404 122.955 143.029 123.223 142.793 123.601C142.557 123.978 142.481 124.434 142.581 124.868L143.148 127.316C143.357 128.219 144.258 128.782 145.16 128.573L147.072 128.131C147.821 129.537 148.826 130.763 150.059 131.775L149.19 133.595C148.998 133.997 148.975 134.458 149.123 134.877C149.273 135.297 149.581 135.641 149.983 135.832L152.25 136.914C152.485 137.024 152.731 137.078 152.974 137.078ZM153.03 122.509C153.03 119.959 155.105 117.886 157.655 117.886C160.204 117.886 162.278 119.96 162.278 122.509C162.278 125.059 160.204 127.133 157.655 127.133C155.104 127.133 153.03 125.059 153.03 122.509Z" fill="white"/>
<path d="M179.686 154.795L177.855 154.389C177.831 152.744 177.478 151.154 176.806 149.664L178.211 148.527C178.557 148.247 178.778 147.841 178.824 147.398C178.87 146.955 178.737 146.511 178.457 146.166L176.876 144.214C176.292 143.493 175.234 143.383 174.515 143.966L173.162 145.063C171.857 144.062 170.393 143.353 168.809 142.954V141.243C168.809 140.317 168.057 139.565 167.131 139.565H164.619C163.693 139.565 162.941 140.317 162.941 141.243V142.956C161.322 143.363 159.832 144.095 158.51 145.131L157.14 144.042C156.792 143.764 156.353 143.637 155.905 143.687C155.463 143.739 155.058 143.961 154.781 144.31L153.218 146.276C152.641 147.001 152.762 148.057 153.487 148.635L154.906 149.763C154.249 151.261 153.91 152.851 153.9 154.493L152.064 154.916C151.63 155.017 151.254 155.284 151.018 155.663C150.783 156.04 150.706 156.495 150.807 156.93L151.373 159.378C151.582 160.281 152.487 160.841 153.384 160.635L155.298 160.194C156.047 161.601 157.052 162.827 158.283 163.838L157.416 165.657C157.224 166.059 157.199 166.52 157.348 166.94C157.498 167.359 157.806 167.702 158.207 167.894L160.474 168.976C160.707 169.087 160.953 169.14 161.195 169.14C161.821 169.14 162.423 168.787 162.711 168.183L163.595 166.331C165.129 166.627 166.733 166.622 168.254 166.314L169.152 168.154C169.558 168.986 170.564 169.333 171.397 168.927L173.654 167.826C174.054 167.632 174.36 167.285 174.504 166.865C174.65 166.445 174.623 165.983 174.426 165.583L173.544 163.775C174.768 162.755 175.763 161.519 176.501 160.102L178.412 160.527C178.848 160.623 179.302 160.544 179.677 160.303C180.052 160.064 180.317 159.686 180.414 159.251L180.957 156.798C181.162 155.891 180.591 154.996 179.686 154.795ZM170.503 154.571C170.503 157.12 168.429 159.194 165.881 159.194C163.332 159.194 161.256 157.12 161.256 154.571C161.256 152.021 163.332 149.947 165.881 149.947C168.429 149.948 170.503 152.022 170.503 154.571Z" fill="#4E7EFF"/>
</svg>
