<svg width="281" height="281" viewBox="0 0 281 281" fill="none" xmlns="http://www.w3.org/2000/svg">
<circle opacity="0.2" cx="140.5" cy="140.5" r="140.5" fill="#CEDCFF"/>
<circle opacity="0.5" cx="141" cy="140" r="107" fill="#CEDCFF"/>
<circle cx="141" cy="140" r="74" fill="#CEDCFF"/>
<g clip-path="url(#clip0_13_3710)">
<path d="M137.818 148.575C138.654 149.413 139.814 149.894 141 149.894C142.184 149.894 143.344 149.413 144.182 148.575L158.803 133.955C160.56 132.198 160.56 129.349 158.803 127.592C157.045 125.834 154.195 125.834 152.439 127.592V127.591L145.5 134.53V112.773C145.5 110.288 143.484 108.273 141 108.273C138.514 108.273 136.5 110.288 136.5 112.773V134.529L129.562 127.592C127.805 125.834 124.955 125.834 123.199 127.591C121.441 129.349 121.441 132.198 123.199 133.955L137.818 148.575Z" fill="white"/>
<path d="M168.182 155.893H150.676C149.006 159.577 145.306 162.143 141 162.143C136.693 162.143 132.994 159.577 131.326 155.893H113.82C111.158 155.893 109 158.051 109 160.712V166.907C109 169.569 111.158 171.726 113.82 171.726H168.181C170.844 171.726 173 169.569 173 166.907V160.712C173 158.051 170.844 155.893 168.182 155.893Z" fill="#4E7EFF"/>
</g>
<defs>
<clipPath id="clip0_13_3710">
<rect width="64" height="64" fill="white" transform="translate(109 108)"/>
</clipPath>
</defs>
</svg>
